M48
; DRILL file {KiCad (6.0.9)} date Tue Feb  7 16:56:11 2023
; FORMAT={-:-/ absolute / inch / decimal}
; #@! TF.CreationDate,2023-02-07T16:56:11+01:00
; #@! TF.GenerationSoftware,Kicad,Pcbnew,(6.0.9)
; #@! TF.FileFunction,Plated,1,2,PTH
FMAT,2
INCH
; #@! TA.AperFunction,Plated,PTH,ViaDrill
T1C0.0157
; #@! TA.AperFunction,Plated,PTH,ComponentDrill
T2C0.0197
; #@! TA.AperFunction,Plated,PTH,ComponentDrill
T3C0.0374
; #@! TA.AperFunction,Plated,PTH,ComponentDrill
T4C0.1260
%
G90
G05
T1
X2.638Y-5.822
X2.6644Y-7.064
X2.7293Y-6.0541
X2.7461Y-6.5965
X2.7864Y-6.2825
X2.9744Y-6.5945
X3.0138Y-5.3445
X3.0177Y-5.8504
X3.0315Y-7.1634
X3.1004Y-6.7362
X3.1063Y-5.5079
X3.1476Y-7.1142
X3.1693Y-5.8012
X3.187Y-5.4941
X3.2047Y-5.937
X3.2165Y-6.2992
X3.2185Y-5.4134
X3.2244Y-6.8071
X3.3012Y-6.6437
X3.3327Y-6.4862
X3.3327Y-6.5945
X3.4134Y-5.3947
X3.4665Y-5.8189
X3.498Y-7.1201
X3.5138Y-5.4331
X3.5177Y-6.7756
X3.5768Y-5.2717
X3.5965Y-6.6791
X3.6181Y-6.3484
X3.6278Y-6.4547
X3.7264Y-6.3701
X3.7402Y-5.4567
X3.7461Y-6.4114
X3.7618Y-6.311
X3.7795Y-6.7008
X3.815Y-5.6811
X3.8386Y-7.0571
X3.8425Y-6.5
X3.8543Y-6.8927
X3.8937Y-6.4941
X3.9016Y-5.7303
X3.9134Y-5.628
X3.9134Y-7.1043
X3.9587Y-6.0276
X4.0465Y-6.3335
X4.065Y-6.372
X4.0689Y-5.9035
X4.0935Y-6.1309
X4.1024Y-6.0138
X4.126Y-6.3504
X4.1299Y-5.8622
X4.1299Y-6.6791
X4.1713Y-6.1161
X4.1929Y-6.8543
X4.1929Y-6.9193
X4.2205Y-6.3012
X4.2283Y-6.3583
X4.2638Y-6.248
X4.2697Y-7.1594
X4.2795Y-5.6791
X4.3543Y-6.9705
X4.3563Y-7.0787
T2
X2.3465Y-5.3543
X2.3465Y-7.1654
X2.3741Y-5.2875
X2.3741Y-5.4211
X2.3741Y-7.0985
X2.3741Y-7.2322
X2.4409Y-5.2598
X2.4409Y-5.4488
X2.4409Y-7.0709
X2.4409Y-7.2598
X2.5078Y-5.2875
X2.5078Y-5.4211
X2.5078Y-7.0985
X2.5078Y-7.2322
X2.5354Y-5.3543
X2.5354Y-7.1654
X4.5118Y-5.3543
X4.5118Y-7.1634
X4.5395Y-5.2875
X4.5395Y-5.4211
X4.5395Y-7.0966
X4.5395Y-7.2302
X4.6063Y-5.2598
X4.6063Y-5.4488
X4.6063Y-7.0689
X4.6063Y-7.2579
X4.6731Y-5.2875
X4.6731Y-5.4211
X4.6731Y-7.0966
X4.6731Y-7.2302
X4.7008Y-5.3543
X4.7008Y-7.1634
T3
X2.5856Y-6.061
X2.5856Y-6.1594
X2.5856Y-6.2579
X2.5856Y-6.3563
X2.5856Y-6.4547
X2.5856Y-6.5531
X4.439Y-6.1575
X4.439Y-6.2559
X4.439Y-6.3543
X4.439Y-6.4528
T4
X2.4409Y-5.3543
X2.4409Y-7.1654
X4.6063Y-5.3543
X4.6063Y-7.1654
T0
M30
