%TF.GenerationSoftware,KiCad,Pcbnew,(6.0.9)*%
%TF.CreationDate,2023-02-07T16:56:12+01:00*%
%TF.ProjectId,driver_stepper_motor,64726976-6572-45f7-9374-65707065725f,2*%
%TF.SameCoordinates,Original*%
%TF.FileFunction,Drillmap*%
%TF.FilePolarity,Positive*%
%FSLAX45Y45*%
G04 Gerber Fmt 4.5, Leading zero omitted, Abs format (unit mm)*
G04 Created by KiCad (PCBNEW (6.0.9)) date 2023-02-07 16:56:12*
%MOMM*%
%LPD*%
G01*
G04 APERTURE LIST*
%ADD10C,0.100000*%
%ADD11C,0.200000*%
%ADD12C,0.040000*%
%ADD13C,0.050000*%
%ADD14C,0.095000*%
%ADD15C,0.320000*%
G04 APERTURE END LIST*
D10*
X5600000Y-18200000D02*
G75*
G03*
X6200000Y-18800000I600000J0D01*
G01*
X12300000Y-13600000D02*
G75*
G03*
X11700000Y-13000000I-600000J0D01*
G01*
X6200000Y-13000000D02*
G75*
G03*
X5600000Y-13600000I0J-600000D01*
G01*
X11700000Y-18800000D02*
X6200000Y-18800000D01*
X5600000Y-18200000D02*
X5600000Y-13600000D01*
X6200000Y-13000000D02*
X11700000Y-13000000D01*
X12300000Y-13600000D02*
X12300000Y-18200000D01*
X11700000Y-18800000D02*
G75*
G03*
X12300000Y-18200000I0J600000D01*
G01*
D11*
D12*
X6680520Y-14767880D02*
X6720520Y-14807880D01*
X6720520Y-14767880D02*
X6680520Y-14807880D01*
X6747500Y-17922500D02*
X6787500Y-17962500D01*
X6787500Y-17922500D02*
X6747500Y-17962500D01*
X6912500Y-15357500D02*
X6952500Y-15397500D01*
X6952500Y-15357500D02*
X6912500Y-15397500D01*
X6955000Y-16735000D02*
X6995000Y-16775000D01*
X6995000Y-16735000D02*
X6955000Y-16775000D01*
X7057500Y-15937500D02*
X7097500Y-15977500D01*
X7097500Y-15937500D02*
X7057500Y-15977500D01*
X7535000Y-16730000D02*
X7575000Y-16770000D01*
X7575000Y-16730000D02*
X7535000Y-16770000D01*
X7635000Y-13555000D02*
X7675000Y-13595000D01*
X7675000Y-13555000D02*
X7635000Y-13595000D01*
X7645000Y-14840000D02*
X7685000Y-14880000D01*
X7685000Y-14840000D02*
X7645000Y-14880000D01*
X7680000Y-18175000D02*
X7720000Y-18215000D01*
X7720000Y-18175000D02*
X7680000Y-18215000D01*
X7855000Y-17090000D02*
X7895000Y-17130000D01*
X7895000Y-17090000D02*
X7855000Y-17130000D01*
X7870000Y-13970000D02*
X7910000Y-14010000D01*
X7910000Y-13970000D02*
X7870000Y-14010000D01*
X7975000Y-18050000D02*
X8015000Y-18090000D01*
X8015000Y-18050000D02*
X7975000Y-18090000D01*
X8030000Y-14715000D02*
X8070000Y-14755000D01*
X8070000Y-14715000D02*
X8030000Y-14755000D01*
X8075000Y-13935000D02*
X8115000Y-13975000D01*
X8115000Y-13935000D02*
X8075000Y-13975000D01*
X8120000Y-15060000D02*
X8160000Y-15100000D01*
X8160000Y-15060000D02*
X8120000Y-15100000D01*
X8150000Y-15980000D02*
X8190000Y-16020000D01*
X8190000Y-15980000D02*
X8150000Y-16020000D01*
X8155000Y-13730000D02*
X8195000Y-13770000D01*
X8195000Y-13730000D02*
X8155000Y-13770000D01*
X8170000Y-17270000D02*
X8210000Y-17310000D01*
X8210000Y-17270000D02*
X8170000Y-17310000D01*
X8365000Y-16855000D02*
X8405000Y-16895000D01*
X8405000Y-16855000D02*
X8365000Y-16895000D01*
X8445000Y-16455000D02*
X8485000Y-16495000D01*
X8485000Y-16455000D02*
X8445000Y-16495000D01*
X8445000Y-16730000D02*
X8485000Y-16770000D01*
X8485000Y-16730000D02*
X8445000Y-16770000D01*
X8650000Y-13682550D02*
X8690000Y-13722550D01*
X8690000Y-13682550D02*
X8650000Y-13722550D01*
X8785000Y-14760000D02*
X8825000Y-14800000D01*
X8825000Y-14760000D02*
X8785000Y-14800000D01*
X8865000Y-18065000D02*
X8905000Y-18105000D01*
X8905000Y-18065000D02*
X8865000Y-18105000D01*
X8905000Y-13780000D02*
X8945000Y-13820000D01*
X8945000Y-13780000D02*
X8905000Y-13820000D01*
X8915000Y-17190000D02*
X8955000Y-17230000D01*
X8955000Y-17190000D02*
X8915000Y-17230000D01*
X9065000Y-13370000D02*
X9105000Y-13410000D01*
X9105000Y-13370000D02*
X9065000Y-13410000D01*
X9115000Y-16945000D02*
X9155000Y-16985000D01*
X9155000Y-16945000D02*
X9115000Y-16985000D01*
X9170000Y-16105000D02*
X9210000Y-16145000D01*
X9210000Y-16105000D02*
X9170000Y-16145000D01*
X9194500Y-16375050D02*
X9234500Y-16415050D01*
X9234500Y-16375050D02*
X9194500Y-16415050D01*
X9445000Y-16160000D02*
X9485000Y-16200000D01*
X9485000Y-16160000D02*
X9445000Y-16200000D01*
X9480000Y-13840000D02*
X9520000Y-13880000D01*
X9520000Y-13840000D02*
X9480000Y-13880000D01*
X9495000Y-16265000D02*
X9535000Y-16305000D01*
X9535000Y-16265000D02*
X9495000Y-16305000D01*
X9535000Y-16010000D02*
X9575000Y-16050000D01*
X9575000Y-16010000D02*
X9535000Y-16050000D01*
X9580000Y-17000000D02*
X9620000Y-17040000D01*
X9620000Y-17000000D02*
X9580000Y-17040000D01*
X9670000Y-14410000D02*
X9710000Y-14450000D01*
X9710000Y-14410000D02*
X9670000Y-14450000D01*
X9730000Y-17905000D02*
X9770000Y-17945000D01*
X9770000Y-17905000D02*
X9730000Y-17945000D01*
X9740000Y-16490000D02*
X9780000Y-16530000D01*
X9780000Y-16490000D02*
X9740000Y-16530000D01*
X9770000Y-17487450D02*
X9810000Y-17527450D01*
X9810000Y-17487450D02*
X9770000Y-17527450D01*
X9870000Y-16475000D02*
X9910000Y-16515000D01*
X9910000Y-16475000D02*
X9870000Y-16515000D01*
X9890000Y-14535000D02*
X9930000Y-14575000D01*
X9930000Y-14535000D02*
X9890000Y-14575000D01*
X9920000Y-14275000D02*
X9960000Y-14315000D01*
X9960000Y-14275000D02*
X9920000Y-14315000D01*
X9920000Y-18025000D02*
X9960000Y-18065000D01*
X9960000Y-18025000D02*
X9920000Y-18065000D01*
X10035000Y-15290000D02*
X10075000Y-15330000D01*
X10075000Y-15290000D02*
X10035000Y-15330000D01*
X10258112Y-16067082D02*
X10298112Y-16107082D01*
X10298112Y-16067082D02*
X10258112Y-16107082D01*
X10305000Y-16165000D02*
X10345000Y-16205000D01*
X10345000Y-16165000D02*
X10305000Y-16205000D01*
X10315000Y-14975000D02*
X10355000Y-15015000D01*
X10355000Y-14975000D02*
X10315000Y-15015000D01*
X10377500Y-15552500D02*
X10417500Y-15592500D01*
X10417500Y-15552500D02*
X10377500Y-15592500D01*
X10400000Y-15255000D02*
X10440000Y-15295000D01*
X10440000Y-15255000D02*
X10400000Y-15295000D01*
X10460000Y-16110000D02*
X10500000Y-16150000D01*
X10500000Y-16110000D02*
X10460000Y-16150000D01*
X10470000Y-14870000D02*
X10510000Y-14910000D01*
X10510000Y-14870000D02*
X10470000Y-14910000D01*
X10470000Y-16945000D02*
X10510000Y-16985000D01*
X10510000Y-16945000D02*
X10470000Y-16985000D01*
X10575000Y-15515000D02*
X10615000Y-15555000D01*
X10615000Y-15515000D02*
X10575000Y-15555000D01*
X10630000Y-17390000D02*
X10670000Y-17430000D01*
X10670000Y-17390000D02*
X10630000Y-17430000D01*
X10630000Y-17555000D02*
X10670000Y-17595000D01*
X10670000Y-17555000D02*
X10630000Y-17595000D01*
X10700000Y-15985000D02*
X10740000Y-16025000D01*
X10740000Y-15985000D02*
X10700000Y-16025000D01*
X10720000Y-16130000D02*
X10760000Y-16170000D01*
X10760000Y-16130000D02*
X10720000Y-16170000D01*
X10810000Y-15850000D02*
X10850000Y-15890000D01*
X10850000Y-15850000D02*
X10810000Y-15890000D01*
X10825000Y-18165000D02*
X10865000Y-18205000D01*
X10865000Y-18165000D02*
X10825000Y-18205000D01*
X10850000Y-14405000D02*
X10890000Y-14445000D01*
X10890000Y-14405000D02*
X10850000Y-14445000D01*
X11040000Y-17685000D02*
X11080000Y-17725000D01*
X11080000Y-17685000D02*
X11040000Y-17725000D01*
X11045000Y-17960000D02*
X11085000Y-18000000D01*
X11085000Y-17960000D02*
X11045000Y-18000000D01*
D13*
X5985000Y-13600000D02*
G75*
G03*
X5985000Y-13600000I-25000J0D01*
G01*
X5985000Y-18200000D02*
G75*
G03*
X5985000Y-18200000I-25000J0D01*
G01*
X6055294Y-13430294D02*
G75*
G03*
X6055294Y-13430294I-25000J0D01*
G01*
X6055294Y-13769706D02*
G75*
G03*
X6055294Y-13769706I-25000J0D01*
G01*
X6055294Y-18030294D02*
G75*
G03*
X6055294Y-18030294I-25000J0D01*
G01*
X6055294Y-18369706D02*
G75*
G03*
X6055294Y-18369706I-25000J0D01*
G01*
X6225000Y-13360000D02*
G75*
G03*
X6225000Y-13360000I-25000J0D01*
G01*
X6225000Y-13840000D02*
G75*
G03*
X6225000Y-13840000I-25000J0D01*
G01*
X6225000Y-17960000D02*
G75*
G03*
X6225000Y-17960000I-25000J0D01*
G01*
X6225000Y-18440000D02*
G75*
G03*
X6225000Y-18440000I-25000J0D01*
G01*
X6394706Y-13430294D02*
G75*
G03*
X6394706Y-13430294I-25000J0D01*
G01*
X6394706Y-13769706D02*
G75*
G03*
X6394706Y-13769706I-25000J0D01*
G01*
X6394706Y-18030294D02*
G75*
G03*
X6394706Y-18030294I-25000J0D01*
G01*
X6394706Y-18369706D02*
G75*
G03*
X6394706Y-18369706I-25000J0D01*
G01*
X6465000Y-13600000D02*
G75*
G03*
X6465000Y-13600000I-25000J0D01*
G01*
X6465000Y-18200000D02*
G75*
G03*
X6465000Y-18200000I-25000J0D01*
G01*
X11485000Y-13600000D02*
G75*
G03*
X11485000Y-13600000I-25000J0D01*
G01*
X11485000Y-18195000D02*
G75*
G03*
X11485000Y-18195000I-25000J0D01*
G01*
X11555294Y-13430294D02*
G75*
G03*
X11555294Y-13430294I-25000J0D01*
G01*
X11555294Y-13769706D02*
G75*
G03*
X11555294Y-13769706I-25000J0D01*
G01*
X11555294Y-18025294D02*
G75*
G03*
X11555294Y-18025294I-25000J0D01*
G01*
X11555294Y-18364706D02*
G75*
G03*
X11555294Y-18364706I-25000J0D01*
G01*
X11725000Y-13360000D02*
G75*
G03*
X11725000Y-13360000I-25000J0D01*
G01*
X11725000Y-13840000D02*
G75*
G03*
X11725000Y-13840000I-25000J0D01*
G01*
X11725000Y-17955000D02*
G75*
G03*
X11725000Y-17955000I-25000J0D01*
G01*
X11725000Y-18435000D02*
G75*
G03*
X11725000Y-18435000I-25000J0D01*
G01*
X11894706Y-13430294D02*
G75*
G03*
X11894706Y-13430294I-25000J0D01*
G01*
X11894706Y-13769706D02*
G75*
G03*
X11894706Y-13769706I-25000J0D01*
G01*
X11894706Y-18025294D02*
G75*
G03*
X11894706Y-18025294I-25000J0D01*
G01*
X11894706Y-18364706D02*
G75*
G03*
X11894706Y-18364706I-25000J0D01*
G01*
X11965000Y-13600000D02*
G75*
G03*
X11965000Y-13600000I-25000J0D01*
G01*
X11965000Y-18195000D02*
G75*
G03*
X11965000Y-18195000I-25000J0D01*
G01*
D14*
X6567500Y-15347500D02*
X6567500Y-15442500D01*
X6520000Y-15395000D02*
X6615000Y-15395000D01*
X6567500Y-15597500D02*
X6567500Y-15692500D01*
X6520000Y-15645000D02*
X6615000Y-15645000D01*
X6567500Y-15847500D02*
X6567500Y-15942500D01*
X6520000Y-15895000D02*
X6615000Y-15895000D01*
X6567500Y-16097500D02*
X6567500Y-16192500D01*
X6520000Y-16145000D02*
X6615000Y-16145000D01*
X6567500Y-16347500D02*
X6567500Y-16442500D01*
X6520000Y-16395000D02*
X6615000Y-16395000D01*
X6567500Y-16597500D02*
X6567500Y-16692500D01*
X6520000Y-16645000D02*
X6615000Y-16645000D01*
X11275000Y-15592500D02*
X11275000Y-15687500D01*
X11227500Y-15640000D02*
X11322500Y-15640000D01*
X11275000Y-15842500D02*
X11275000Y-15937500D01*
X11227500Y-15890000D02*
X11322500Y-15890000D01*
X11275000Y-16092500D02*
X11275000Y-16187500D01*
X11227500Y-16140000D02*
X11322500Y-16140000D01*
X11275000Y-16342500D02*
X11275000Y-16437500D01*
X11227500Y-16390000D02*
X11322500Y-16390000D01*
D15*
X6313138Y-13713138D02*
X6313138Y-13486862D01*
X6086862Y-13486862D01*
X6086862Y-13713138D01*
X6313138Y-13713138D01*
X6313138Y-18313138D02*
X6313138Y-18086862D01*
X6086862Y-18086862D01*
X6086862Y-18313138D01*
X6313138Y-18313138D01*
X11813138Y-13713138D02*
X11813138Y-13486862D01*
X11586862Y-13486862D01*
X11586862Y-13713138D01*
X11813138Y-13713138D01*
X11813138Y-18313138D02*
X11813138Y-18086862D01*
X11586862Y-18086862D01*
X11586862Y-18313138D01*
X11813138Y-18313138D01*
D11*
X5852619Y-19115476D02*
X5852619Y-18915476D01*
X5900238Y-18915476D01*
X5928809Y-18925000D01*
X5947857Y-18944048D01*
X5957381Y-18963095D01*
X5966905Y-19001190D01*
X5966905Y-19029762D01*
X5957381Y-19067857D01*
X5947857Y-19086905D01*
X5928809Y-19105952D01*
X5900238Y-19115476D01*
X5852619Y-19115476D01*
X6052619Y-19115476D02*
X6052619Y-18982143D01*
X6052619Y-19020238D02*
X6062143Y-19001190D01*
X6071667Y-18991667D01*
X6090714Y-18982143D01*
X6109762Y-18982143D01*
X6176428Y-19115476D02*
X6176428Y-18982143D01*
X6176428Y-18915476D02*
X6166905Y-18925000D01*
X6176428Y-18934524D01*
X6185952Y-18925000D01*
X6176428Y-18915476D01*
X6176428Y-18934524D01*
X6300238Y-19115476D02*
X6281190Y-19105952D01*
X6271667Y-19086905D01*
X6271667Y-18915476D01*
X6405000Y-19115476D02*
X6385952Y-19105952D01*
X6376428Y-19086905D01*
X6376428Y-18915476D01*
X6633571Y-19115476D02*
X6633571Y-18915476D01*
X6700238Y-19058333D01*
X6766905Y-18915476D01*
X6766905Y-19115476D01*
X6947857Y-19115476D02*
X6947857Y-19010714D01*
X6938333Y-18991667D01*
X6919286Y-18982143D01*
X6881190Y-18982143D01*
X6862143Y-18991667D01*
X6947857Y-19105952D02*
X6928809Y-19115476D01*
X6881190Y-19115476D01*
X6862143Y-19105952D01*
X6852619Y-19086905D01*
X6852619Y-19067857D01*
X6862143Y-19048810D01*
X6881190Y-19039286D01*
X6928809Y-19039286D01*
X6947857Y-19029762D01*
X7043095Y-18982143D02*
X7043095Y-19182143D01*
X7043095Y-18991667D02*
X7062143Y-18982143D01*
X7100238Y-18982143D01*
X7119286Y-18991667D01*
X7128809Y-19001190D01*
X7138333Y-19020238D01*
X7138333Y-19077381D01*
X7128809Y-19096429D01*
X7119286Y-19105952D01*
X7100238Y-19115476D01*
X7062143Y-19115476D01*
X7043095Y-19105952D01*
X7224048Y-19096429D02*
X7233571Y-19105952D01*
X7224048Y-19115476D01*
X7214524Y-19105952D01*
X7224048Y-19096429D01*
X7224048Y-19115476D01*
X7224048Y-18991667D02*
X7233571Y-19001190D01*
X7224048Y-19010714D01*
X7214524Y-19001190D01*
X7224048Y-18991667D01*
X7224048Y-19010714D01*
D12*
X5555000Y-19425000D02*
X5595000Y-19465000D01*
X5595000Y-19425000D02*
X5555000Y-19465000D01*
D11*
X5890714Y-19335476D02*
X5909762Y-19335476D01*
X5928809Y-19345000D01*
X5938333Y-19354524D01*
X5947857Y-19373571D01*
X5957381Y-19411667D01*
X5957381Y-19459286D01*
X5947857Y-19497381D01*
X5938333Y-19516429D01*
X5928809Y-19525952D01*
X5909762Y-19535476D01*
X5890714Y-19535476D01*
X5871667Y-19525952D01*
X5862143Y-19516429D01*
X5852619Y-19497381D01*
X5843095Y-19459286D01*
X5843095Y-19411667D01*
X5852619Y-19373571D01*
X5862143Y-19354524D01*
X5871667Y-19345000D01*
X5890714Y-19335476D01*
X6043095Y-19516429D02*
X6052619Y-19525952D01*
X6043095Y-19535476D01*
X6033571Y-19525952D01*
X6043095Y-19516429D01*
X6043095Y-19535476D01*
X6224048Y-19402143D02*
X6224048Y-19535476D01*
X6176428Y-19325952D02*
X6128809Y-19468810D01*
X6252619Y-19468810D01*
X6366905Y-19335476D02*
X6385952Y-19335476D01*
X6405000Y-19345000D01*
X6414524Y-19354524D01*
X6424048Y-19373571D01*
X6433571Y-19411667D01*
X6433571Y-19459286D01*
X6424048Y-19497381D01*
X6414524Y-19516429D01*
X6405000Y-19525952D01*
X6385952Y-19535476D01*
X6366905Y-19535476D01*
X6347857Y-19525952D01*
X6338333Y-19516429D01*
X6328809Y-19497381D01*
X6319286Y-19459286D01*
X6319286Y-19411667D01*
X6328809Y-19373571D01*
X6338333Y-19354524D01*
X6347857Y-19345000D01*
X6366905Y-19335476D01*
X6557381Y-19335476D02*
X6576428Y-19335476D01*
X6595476Y-19345000D01*
X6605000Y-19354524D01*
X6614524Y-19373571D01*
X6624048Y-19411667D01*
X6624048Y-19459286D01*
X6614524Y-19497381D01*
X6605000Y-19516429D01*
X6595476Y-19525952D01*
X6576428Y-19535476D01*
X6557381Y-19535476D01*
X6538333Y-19525952D01*
X6528809Y-19516429D01*
X6519286Y-19497381D01*
X6509762Y-19459286D01*
X6509762Y-19411667D01*
X6519286Y-19373571D01*
X6528809Y-19354524D01*
X6538333Y-19345000D01*
X6557381Y-19335476D01*
X6709762Y-19535476D02*
X6709762Y-19402143D01*
X6709762Y-19421190D02*
X6719286Y-19411667D01*
X6738333Y-19402143D01*
X6766905Y-19402143D01*
X6785952Y-19411667D01*
X6795476Y-19430714D01*
X6795476Y-19535476D01*
X6795476Y-19430714D02*
X6805000Y-19411667D01*
X6824048Y-19402143D01*
X6852619Y-19402143D01*
X6871667Y-19411667D01*
X6881190Y-19430714D01*
X6881190Y-19535476D01*
X6976428Y-19535476D02*
X6976428Y-19402143D01*
X6976428Y-19421190D02*
X6985952Y-19411667D01*
X7005000Y-19402143D01*
X7033571Y-19402143D01*
X7052619Y-19411667D01*
X7062143Y-19430714D01*
X7062143Y-19535476D01*
X7062143Y-19430714D02*
X7071667Y-19411667D01*
X7090714Y-19402143D01*
X7119286Y-19402143D01*
X7138333Y-19411667D01*
X7147857Y-19430714D01*
X7147857Y-19535476D01*
X7538333Y-19325952D02*
X7366905Y-19583095D01*
X7795476Y-19335476D02*
X7814524Y-19335476D01*
X7833571Y-19345000D01*
X7843095Y-19354524D01*
X7852619Y-19373571D01*
X7862143Y-19411667D01*
X7862143Y-19459286D01*
X7852619Y-19497381D01*
X7843095Y-19516429D01*
X7833571Y-19525952D01*
X7814524Y-19535476D01*
X7795476Y-19535476D01*
X7776428Y-19525952D01*
X7766905Y-19516429D01*
X7757381Y-19497381D01*
X7747857Y-19459286D01*
X7747857Y-19411667D01*
X7757381Y-19373571D01*
X7766905Y-19354524D01*
X7776428Y-19345000D01*
X7795476Y-19335476D01*
X7947857Y-19516429D02*
X7957381Y-19525952D01*
X7947857Y-19535476D01*
X7938333Y-19525952D01*
X7947857Y-19516429D01*
X7947857Y-19535476D01*
X8081190Y-19335476D02*
X8100238Y-19335476D01*
X8119286Y-19345000D01*
X8128809Y-19354524D01*
X8138333Y-19373571D01*
X8147857Y-19411667D01*
X8147857Y-19459286D01*
X8138333Y-19497381D01*
X8128809Y-19516429D01*
X8119286Y-19525952D01*
X8100238Y-19535476D01*
X8081190Y-19535476D01*
X8062143Y-19525952D01*
X8052619Y-19516429D01*
X8043095Y-19497381D01*
X8033571Y-19459286D01*
X8033571Y-19411667D01*
X8043095Y-19373571D01*
X8052619Y-19354524D01*
X8062143Y-19345000D01*
X8081190Y-19335476D01*
X8338333Y-19535476D02*
X8224048Y-19535476D01*
X8281190Y-19535476D02*
X8281190Y-19335476D01*
X8262143Y-19364048D01*
X8243095Y-19383095D01*
X8224048Y-19392619D01*
X8519286Y-19335476D02*
X8424048Y-19335476D01*
X8414524Y-19430714D01*
X8424048Y-19421190D01*
X8443095Y-19411667D01*
X8490714Y-19411667D01*
X8509762Y-19421190D01*
X8519286Y-19430714D01*
X8528810Y-19449762D01*
X8528810Y-19497381D01*
X8519286Y-19516429D01*
X8509762Y-19525952D01*
X8490714Y-19535476D01*
X8443095Y-19535476D01*
X8424048Y-19525952D01*
X8414524Y-19516429D01*
X8595476Y-19335476D02*
X8728810Y-19335476D01*
X8643095Y-19535476D01*
X8795476Y-19335476D02*
X8795476Y-19373571D01*
X8871667Y-19335476D02*
X8871667Y-19373571D01*
X9166905Y-19611667D02*
X9157381Y-19602143D01*
X9138333Y-19573571D01*
X9128810Y-19554524D01*
X9119286Y-19525952D01*
X9109762Y-19478333D01*
X9109762Y-19440238D01*
X9119286Y-19392619D01*
X9128810Y-19364048D01*
X9138333Y-19345000D01*
X9157381Y-19316429D01*
X9166905Y-19306905D01*
X9328810Y-19335476D02*
X9290714Y-19335476D01*
X9271667Y-19345000D01*
X9262143Y-19354524D01*
X9243095Y-19383095D01*
X9233571Y-19421190D01*
X9233571Y-19497381D01*
X9243095Y-19516429D01*
X9252619Y-19525952D01*
X9271667Y-19535476D01*
X9309762Y-19535476D01*
X9328810Y-19525952D01*
X9338333Y-19516429D01*
X9347857Y-19497381D01*
X9347857Y-19449762D01*
X9338333Y-19430714D01*
X9328810Y-19421190D01*
X9309762Y-19411667D01*
X9271667Y-19411667D01*
X9252619Y-19421190D01*
X9243095Y-19430714D01*
X9233571Y-19449762D01*
X9424048Y-19354524D02*
X9433571Y-19345000D01*
X9452619Y-19335476D01*
X9500238Y-19335476D01*
X9519286Y-19345000D01*
X9528810Y-19354524D01*
X9538333Y-19373571D01*
X9538333Y-19392619D01*
X9528810Y-19421190D01*
X9414524Y-19535476D01*
X9538333Y-19535476D01*
X9776429Y-19535476D02*
X9776429Y-19335476D01*
X9862143Y-19535476D02*
X9862143Y-19430714D01*
X9852619Y-19411667D01*
X9833571Y-19402143D01*
X9805000Y-19402143D01*
X9785952Y-19411667D01*
X9776429Y-19421190D01*
X9985952Y-19535476D02*
X9966905Y-19525952D01*
X9957381Y-19516429D01*
X9947857Y-19497381D01*
X9947857Y-19440238D01*
X9957381Y-19421190D01*
X9966905Y-19411667D01*
X9985952Y-19402143D01*
X10014524Y-19402143D01*
X10033571Y-19411667D01*
X10043095Y-19421190D01*
X10052619Y-19440238D01*
X10052619Y-19497381D01*
X10043095Y-19516429D01*
X10033571Y-19525952D01*
X10014524Y-19535476D01*
X9985952Y-19535476D01*
X10166905Y-19535476D02*
X10147857Y-19525952D01*
X10138333Y-19506905D01*
X10138333Y-19335476D01*
X10319286Y-19525952D02*
X10300238Y-19535476D01*
X10262143Y-19535476D01*
X10243095Y-19525952D01*
X10233571Y-19506905D01*
X10233571Y-19430714D01*
X10243095Y-19411667D01*
X10262143Y-19402143D01*
X10300238Y-19402143D01*
X10319286Y-19411667D01*
X10328810Y-19430714D01*
X10328810Y-19449762D01*
X10233571Y-19468810D01*
X10405000Y-19525952D02*
X10424048Y-19535476D01*
X10462143Y-19535476D01*
X10481190Y-19525952D01*
X10490714Y-19506905D01*
X10490714Y-19497381D01*
X10481190Y-19478333D01*
X10462143Y-19468810D01*
X10433571Y-19468810D01*
X10414524Y-19459286D01*
X10405000Y-19440238D01*
X10405000Y-19430714D01*
X10414524Y-19411667D01*
X10433571Y-19402143D01*
X10462143Y-19402143D01*
X10481190Y-19411667D01*
X10557381Y-19611667D02*
X10566905Y-19602143D01*
X10585952Y-19573571D01*
X10595476Y-19554524D01*
X10605000Y-19525952D01*
X10614524Y-19478333D01*
X10614524Y-19440238D01*
X10605000Y-19392619D01*
X10595476Y-19364048D01*
X10585952Y-19345000D01*
X10566905Y-19316429D01*
X10557381Y-19306905D01*
D13*
X5595000Y-19709000D02*
G75*
G03*
X5595000Y-19709000I-25000J0D01*
G01*
D11*
X5890714Y-19599476D02*
X5909762Y-19599476D01*
X5928809Y-19609000D01*
X5938333Y-19618524D01*
X5947857Y-19637571D01*
X5957381Y-19675667D01*
X5957381Y-19723286D01*
X5947857Y-19761381D01*
X5938333Y-19780429D01*
X5928809Y-19789952D01*
X5909762Y-19799476D01*
X5890714Y-19799476D01*
X5871667Y-19789952D01*
X5862143Y-19780429D01*
X5852619Y-19761381D01*
X5843095Y-19723286D01*
X5843095Y-19675667D01*
X5852619Y-19637571D01*
X5862143Y-19618524D01*
X5871667Y-19609000D01*
X5890714Y-19599476D01*
X6043095Y-19780429D02*
X6052619Y-19789952D01*
X6043095Y-19799476D01*
X6033571Y-19789952D01*
X6043095Y-19780429D01*
X6043095Y-19799476D01*
X6233571Y-19599476D02*
X6138333Y-19599476D01*
X6128809Y-19694714D01*
X6138333Y-19685190D01*
X6157381Y-19675667D01*
X6205000Y-19675667D01*
X6224048Y-19685190D01*
X6233571Y-19694714D01*
X6243095Y-19713762D01*
X6243095Y-19761381D01*
X6233571Y-19780429D01*
X6224048Y-19789952D01*
X6205000Y-19799476D01*
X6157381Y-19799476D01*
X6138333Y-19789952D01*
X6128809Y-19780429D01*
X6366905Y-19599476D02*
X6385952Y-19599476D01*
X6405000Y-19609000D01*
X6414524Y-19618524D01*
X6424048Y-19637571D01*
X6433571Y-19675667D01*
X6433571Y-19723286D01*
X6424048Y-19761381D01*
X6414524Y-19780429D01*
X6405000Y-19789952D01*
X6385952Y-19799476D01*
X6366905Y-19799476D01*
X6347857Y-19789952D01*
X6338333Y-19780429D01*
X6328809Y-19761381D01*
X6319286Y-19723286D01*
X6319286Y-19675667D01*
X6328809Y-19637571D01*
X6338333Y-19618524D01*
X6347857Y-19609000D01*
X6366905Y-19599476D01*
X6557381Y-19599476D02*
X6576428Y-19599476D01*
X6595476Y-19609000D01*
X6605000Y-19618524D01*
X6614524Y-19637571D01*
X6624048Y-19675667D01*
X6624048Y-19723286D01*
X6614524Y-19761381D01*
X6605000Y-19780429D01*
X6595476Y-19789952D01*
X6576428Y-19799476D01*
X6557381Y-19799476D01*
X6538333Y-19789952D01*
X6528809Y-19780429D01*
X6519286Y-19761381D01*
X6509762Y-19723286D01*
X6509762Y-19675667D01*
X6519286Y-19637571D01*
X6528809Y-19618524D01*
X6538333Y-19609000D01*
X6557381Y-19599476D01*
X6709762Y-19799476D02*
X6709762Y-19666143D01*
X6709762Y-19685190D02*
X6719286Y-19675667D01*
X6738333Y-19666143D01*
X6766905Y-19666143D01*
X6785952Y-19675667D01*
X6795476Y-19694714D01*
X6795476Y-19799476D01*
X6795476Y-19694714D02*
X6805000Y-19675667D01*
X6824048Y-19666143D01*
X6852619Y-19666143D01*
X6871667Y-19675667D01*
X6881190Y-19694714D01*
X6881190Y-19799476D01*
X6976428Y-19799476D02*
X6976428Y-19666143D01*
X6976428Y-19685190D02*
X6985952Y-19675667D01*
X7005000Y-19666143D01*
X7033571Y-19666143D01*
X7052619Y-19675667D01*
X7062143Y-19694714D01*
X7062143Y-19799476D01*
X7062143Y-19694714D02*
X7071667Y-19675667D01*
X7090714Y-19666143D01*
X7119286Y-19666143D01*
X7138333Y-19675667D01*
X7147857Y-19694714D01*
X7147857Y-19799476D01*
X7538333Y-19589952D02*
X7366905Y-19847095D01*
X7795476Y-19599476D02*
X7814524Y-19599476D01*
X7833571Y-19609000D01*
X7843095Y-19618524D01*
X7852619Y-19637571D01*
X7862143Y-19675667D01*
X7862143Y-19723286D01*
X7852619Y-19761381D01*
X7843095Y-19780429D01*
X7833571Y-19789952D01*
X7814524Y-19799476D01*
X7795476Y-19799476D01*
X7776428Y-19789952D01*
X7766905Y-19780429D01*
X7757381Y-19761381D01*
X7747857Y-19723286D01*
X7747857Y-19675667D01*
X7757381Y-19637571D01*
X7766905Y-19618524D01*
X7776428Y-19609000D01*
X7795476Y-19599476D01*
X7947857Y-19780429D02*
X7957381Y-19789952D01*
X7947857Y-19799476D01*
X7938333Y-19789952D01*
X7947857Y-19780429D01*
X7947857Y-19799476D01*
X8081190Y-19599476D02*
X8100238Y-19599476D01*
X8119286Y-19609000D01*
X8128809Y-19618524D01*
X8138333Y-19637571D01*
X8147857Y-19675667D01*
X8147857Y-19723286D01*
X8138333Y-19761381D01*
X8128809Y-19780429D01*
X8119286Y-19789952D01*
X8100238Y-19799476D01*
X8081190Y-19799476D01*
X8062143Y-19789952D01*
X8052619Y-19780429D01*
X8043095Y-19761381D01*
X8033571Y-19723286D01*
X8033571Y-19675667D01*
X8043095Y-19637571D01*
X8052619Y-19618524D01*
X8062143Y-19609000D01*
X8081190Y-19599476D01*
X8338333Y-19799476D02*
X8224048Y-19799476D01*
X8281190Y-19799476D02*
X8281190Y-19599476D01*
X8262143Y-19628048D01*
X8243095Y-19647095D01*
X8224048Y-19656619D01*
X8433571Y-19799476D02*
X8471667Y-19799476D01*
X8490714Y-19789952D01*
X8500238Y-19780429D01*
X8519286Y-19751857D01*
X8528810Y-19713762D01*
X8528810Y-19637571D01*
X8519286Y-19618524D01*
X8509762Y-19609000D01*
X8490714Y-19599476D01*
X8452619Y-19599476D01*
X8433571Y-19609000D01*
X8424048Y-19618524D01*
X8414524Y-19637571D01*
X8414524Y-19685190D01*
X8424048Y-19704238D01*
X8433571Y-19713762D01*
X8452619Y-19723286D01*
X8490714Y-19723286D01*
X8509762Y-19713762D01*
X8519286Y-19704238D01*
X8528810Y-19685190D01*
X8595476Y-19599476D02*
X8728810Y-19599476D01*
X8643095Y-19799476D01*
X8795476Y-19599476D02*
X8795476Y-19637571D01*
X8871667Y-19599476D02*
X8871667Y-19637571D01*
X9166905Y-19875667D02*
X9157381Y-19866143D01*
X9138333Y-19837571D01*
X9128810Y-19818524D01*
X9119286Y-19789952D01*
X9109762Y-19742333D01*
X9109762Y-19704238D01*
X9119286Y-19656619D01*
X9128810Y-19628048D01*
X9138333Y-19609000D01*
X9157381Y-19580429D01*
X9166905Y-19570905D01*
X9224048Y-19599476D02*
X9347857Y-19599476D01*
X9281190Y-19675667D01*
X9309762Y-19675667D01*
X9328810Y-19685190D01*
X9338333Y-19694714D01*
X9347857Y-19713762D01*
X9347857Y-19761381D01*
X9338333Y-19780429D01*
X9328810Y-19789952D01*
X9309762Y-19799476D01*
X9252619Y-19799476D01*
X9233571Y-19789952D01*
X9224048Y-19780429D01*
X9424048Y-19618524D02*
X9433571Y-19609000D01*
X9452619Y-19599476D01*
X9500238Y-19599476D01*
X9519286Y-19609000D01*
X9528810Y-19618524D01*
X9538333Y-19637571D01*
X9538333Y-19656619D01*
X9528810Y-19685190D01*
X9414524Y-19799476D01*
X9538333Y-19799476D01*
X9776429Y-19799476D02*
X9776429Y-19599476D01*
X9862143Y-19799476D02*
X9862143Y-19694714D01*
X9852619Y-19675667D01*
X9833571Y-19666143D01*
X9805000Y-19666143D01*
X9785952Y-19675667D01*
X9776429Y-19685190D01*
X9985952Y-19799476D02*
X9966905Y-19789952D01*
X9957381Y-19780429D01*
X9947857Y-19761381D01*
X9947857Y-19704238D01*
X9957381Y-19685190D01*
X9966905Y-19675667D01*
X9985952Y-19666143D01*
X10014524Y-19666143D01*
X10033571Y-19675667D01*
X10043095Y-19685190D01*
X10052619Y-19704238D01*
X10052619Y-19761381D01*
X10043095Y-19780429D01*
X10033571Y-19789952D01*
X10014524Y-19799476D01*
X9985952Y-19799476D01*
X10166905Y-19799476D02*
X10147857Y-19789952D01*
X10138333Y-19770905D01*
X10138333Y-19599476D01*
X10319286Y-19789952D02*
X10300238Y-19799476D01*
X10262143Y-19799476D01*
X10243095Y-19789952D01*
X10233571Y-19770905D01*
X10233571Y-19694714D01*
X10243095Y-19675667D01*
X10262143Y-19666143D01*
X10300238Y-19666143D01*
X10319286Y-19675667D01*
X10328810Y-19694714D01*
X10328810Y-19713762D01*
X10233571Y-19732810D01*
X10405000Y-19789952D02*
X10424048Y-19799476D01*
X10462143Y-19799476D01*
X10481190Y-19789952D01*
X10490714Y-19770905D01*
X10490714Y-19761381D01*
X10481190Y-19742333D01*
X10462143Y-19732810D01*
X10433571Y-19732810D01*
X10414524Y-19723286D01*
X10405000Y-19704238D01*
X10405000Y-19694714D01*
X10414524Y-19675667D01*
X10433571Y-19666143D01*
X10462143Y-19666143D01*
X10481190Y-19675667D01*
X10557381Y-19875667D02*
X10566905Y-19866143D01*
X10585952Y-19837571D01*
X10595476Y-19818524D01*
X10605000Y-19789952D01*
X10614524Y-19742333D01*
X10614524Y-19704238D01*
X10605000Y-19656619D01*
X10595476Y-19628048D01*
X10585952Y-19609000D01*
X10566905Y-19580429D01*
X10557381Y-19570905D01*
D14*
X5547500Y-19925500D02*
X5547500Y-20020500D01*
X5500000Y-19973000D02*
X5595000Y-19973000D01*
D11*
X5890714Y-19863476D02*
X5909762Y-19863476D01*
X5928809Y-19873000D01*
X5938333Y-19882524D01*
X5947857Y-19901571D01*
X5957381Y-19939667D01*
X5957381Y-19987286D01*
X5947857Y-20025381D01*
X5938333Y-20044429D01*
X5928809Y-20053952D01*
X5909762Y-20063476D01*
X5890714Y-20063476D01*
X5871667Y-20053952D01*
X5862143Y-20044429D01*
X5852619Y-20025381D01*
X5843095Y-19987286D01*
X5843095Y-19939667D01*
X5852619Y-19901571D01*
X5862143Y-19882524D01*
X5871667Y-19873000D01*
X5890714Y-19863476D01*
X6043095Y-20044429D02*
X6052619Y-20053952D01*
X6043095Y-20063476D01*
X6033571Y-20053952D01*
X6043095Y-20044429D01*
X6043095Y-20063476D01*
X6147857Y-20063476D02*
X6185952Y-20063476D01*
X6205000Y-20053952D01*
X6214524Y-20044429D01*
X6233571Y-20015857D01*
X6243095Y-19977762D01*
X6243095Y-19901571D01*
X6233571Y-19882524D01*
X6224048Y-19873000D01*
X6205000Y-19863476D01*
X6166905Y-19863476D01*
X6147857Y-19873000D01*
X6138333Y-19882524D01*
X6128809Y-19901571D01*
X6128809Y-19949190D01*
X6138333Y-19968238D01*
X6147857Y-19977762D01*
X6166905Y-19987286D01*
X6205000Y-19987286D01*
X6224048Y-19977762D01*
X6233571Y-19968238D01*
X6243095Y-19949190D01*
X6424048Y-19863476D02*
X6328809Y-19863476D01*
X6319286Y-19958714D01*
X6328809Y-19949190D01*
X6347857Y-19939667D01*
X6395476Y-19939667D01*
X6414524Y-19949190D01*
X6424048Y-19958714D01*
X6433571Y-19977762D01*
X6433571Y-20025381D01*
X6424048Y-20044429D01*
X6414524Y-20053952D01*
X6395476Y-20063476D01*
X6347857Y-20063476D01*
X6328809Y-20053952D01*
X6319286Y-20044429D01*
X6557381Y-19863476D02*
X6576428Y-19863476D01*
X6595476Y-19873000D01*
X6605000Y-19882524D01*
X6614524Y-19901571D01*
X6624048Y-19939667D01*
X6624048Y-19987286D01*
X6614524Y-20025381D01*
X6605000Y-20044429D01*
X6595476Y-20053952D01*
X6576428Y-20063476D01*
X6557381Y-20063476D01*
X6538333Y-20053952D01*
X6528809Y-20044429D01*
X6519286Y-20025381D01*
X6509762Y-19987286D01*
X6509762Y-19939667D01*
X6519286Y-19901571D01*
X6528809Y-19882524D01*
X6538333Y-19873000D01*
X6557381Y-19863476D01*
X6709762Y-20063476D02*
X6709762Y-19930143D01*
X6709762Y-19949190D02*
X6719286Y-19939667D01*
X6738333Y-19930143D01*
X6766905Y-19930143D01*
X6785952Y-19939667D01*
X6795476Y-19958714D01*
X6795476Y-20063476D01*
X6795476Y-19958714D02*
X6805000Y-19939667D01*
X6824048Y-19930143D01*
X6852619Y-19930143D01*
X6871667Y-19939667D01*
X6881190Y-19958714D01*
X6881190Y-20063476D01*
X6976428Y-20063476D02*
X6976428Y-19930143D01*
X6976428Y-19949190D02*
X6985952Y-19939667D01*
X7005000Y-19930143D01*
X7033571Y-19930143D01*
X7052619Y-19939667D01*
X7062143Y-19958714D01*
X7062143Y-20063476D01*
X7062143Y-19958714D02*
X7071667Y-19939667D01*
X7090714Y-19930143D01*
X7119286Y-19930143D01*
X7138333Y-19939667D01*
X7147857Y-19958714D01*
X7147857Y-20063476D01*
X7538333Y-19853952D02*
X7366905Y-20111095D01*
X7795476Y-19863476D02*
X7814524Y-19863476D01*
X7833571Y-19873000D01*
X7843095Y-19882524D01*
X7852619Y-19901571D01*
X7862143Y-19939667D01*
X7862143Y-19987286D01*
X7852619Y-20025381D01*
X7843095Y-20044429D01*
X7833571Y-20053952D01*
X7814524Y-20063476D01*
X7795476Y-20063476D01*
X7776428Y-20053952D01*
X7766905Y-20044429D01*
X7757381Y-20025381D01*
X7747857Y-19987286D01*
X7747857Y-19939667D01*
X7757381Y-19901571D01*
X7766905Y-19882524D01*
X7776428Y-19873000D01*
X7795476Y-19863476D01*
X7947857Y-20044429D02*
X7957381Y-20053952D01*
X7947857Y-20063476D01*
X7938333Y-20053952D01*
X7947857Y-20044429D01*
X7947857Y-20063476D01*
X8081190Y-19863476D02*
X8100238Y-19863476D01*
X8119286Y-19873000D01*
X8128809Y-19882524D01*
X8138333Y-19901571D01*
X8147857Y-19939667D01*
X8147857Y-19987286D01*
X8138333Y-20025381D01*
X8128809Y-20044429D01*
X8119286Y-20053952D01*
X8100238Y-20063476D01*
X8081190Y-20063476D01*
X8062143Y-20053952D01*
X8052619Y-20044429D01*
X8043095Y-20025381D01*
X8033571Y-19987286D01*
X8033571Y-19939667D01*
X8043095Y-19901571D01*
X8052619Y-19882524D01*
X8062143Y-19873000D01*
X8081190Y-19863476D01*
X8214524Y-19863476D02*
X8338333Y-19863476D01*
X8271667Y-19939667D01*
X8300238Y-19939667D01*
X8319286Y-19949190D01*
X8328809Y-19958714D01*
X8338333Y-19977762D01*
X8338333Y-20025381D01*
X8328809Y-20044429D01*
X8319286Y-20053952D01*
X8300238Y-20063476D01*
X8243095Y-20063476D01*
X8224048Y-20053952D01*
X8214524Y-20044429D01*
X8405000Y-19863476D02*
X8538333Y-19863476D01*
X8452619Y-20063476D01*
X8700238Y-19930143D02*
X8700238Y-20063476D01*
X8652619Y-19853952D02*
X8605000Y-19996810D01*
X8728810Y-19996810D01*
X8795476Y-19863476D02*
X8795476Y-19901571D01*
X8871667Y-19863476D02*
X8871667Y-19901571D01*
X9166905Y-20139667D02*
X9157381Y-20130143D01*
X9138333Y-20101571D01*
X9128810Y-20082524D01*
X9119286Y-20053952D01*
X9109762Y-20006333D01*
X9109762Y-19968238D01*
X9119286Y-19920619D01*
X9128810Y-19892048D01*
X9138333Y-19873000D01*
X9157381Y-19844429D01*
X9166905Y-19834905D01*
X9347857Y-20063476D02*
X9233571Y-20063476D01*
X9290714Y-20063476D02*
X9290714Y-19863476D01*
X9271667Y-19892048D01*
X9252619Y-19911095D01*
X9233571Y-19920619D01*
X9471667Y-19863476D02*
X9490714Y-19863476D01*
X9509762Y-19873000D01*
X9519286Y-19882524D01*
X9528810Y-19901571D01*
X9538333Y-19939667D01*
X9538333Y-19987286D01*
X9528810Y-20025381D01*
X9519286Y-20044429D01*
X9509762Y-20053952D01*
X9490714Y-20063476D01*
X9471667Y-20063476D01*
X9452619Y-20053952D01*
X9443095Y-20044429D01*
X9433571Y-20025381D01*
X9424048Y-19987286D01*
X9424048Y-19939667D01*
X9433571Y-19901571D01*
X9443095Y-19882524D01*
X9452619Y-19873000D01*
X9471667Y-19863476D01*
X9776429Y-20063476D02*
X9776429Y-19863476D01*
X9862143Y-20063476D02*
X9862143Y-19958714D01*
X9852619Y-19939667D01*
X9833571Y-19930143D01*
X9805000Y-19930143D01*
X9785952Y-19939667D01*
X9776429Y-19949190D01*
X9985952Y-20063476D02*
X9966905Y-20053952D01*
X9957381Y-20044429D01*
X9947857Y-20025381D01*
X9947857Y-19968238D01*
X9957381Y-19949190D01*
X9966905Y-19939667D01*
X9985952Y-19930143D01*
X10014524Y-19930143D01*
X10033571Y-19939667D01*
X10043095Y-19949190D01*
X10052619Y-19968238D01*
X10052619Y-20025381D01*
X10043095Y-20044429D01*
X10033571Y-20053952D01*
X10014524Y-20063476D01*
X9985952Y-20063476D01*
X10166905Y-20063476D02*
X10147857Y-20053952D01*
X10138333Y-20034905D01*
X10138333Y-19863476D01*
X10319286Y-20053952D02*
X10300238Y-20063476D01*
X10262143Y-20063476D01*
X10243095Y-20053952D01*
X10233571Y-20034905D01*
X10233571Y-19958714D01*
X10243095Y-19939667D01*
X10262143Y-19930143D01*
X10300238Y-19930143D01*
X10319286Y-19939667D01*
X10328810Y-19958714D01*
X10328810Y-19977762D01*
X10233571Y-19996810D01*
X10405000Y-20053952D02*
X10424048Y-20063476D01*
X10462143Y-20063476D01*
X10481190Y-20053952D01*
X10490714Y-20034905D01*
X10490714Y-20025381D01*
X10481190Y-20006333D01*
X10462143Y-19996810D01*
X10433571Y-19996810D01*
X10414524Y-19987286D01*
X10405000Y-19968238D01*
X10405000Y-19958714D01*
X10414524Y-19939667D01*
X10433571Y-19930143D01*
X10462143Y-19930143D01*
X10481190Y-19939667D01*
X10557381Y-20139667D02*
X10566905Y-20130143D01*
X10585952Y-20101571D01*
X10595476Y-20082524D01*
X10605000Y-20053952D01*
X10614524Y-20006333D01*
X10614524Y-19968238D01*
X10605000Y-19920619D01*
X10595476Y-19892048D01*
X10585952Y-19873000D01*
X10566905Y-19844429D01*
X10557381Y-19834905D01*
X5565711Y-20307711D02*
X5565711Y-20166289D01*
X5424289Y-20166289D01*
X5424289Y-20307711D01*
X5565711Y-20307711D01*
X5833571Y-20127476D02*
X5957381Y-20127476D01*
X5890714Y-20203667D01*
X5919286Y-20203667D01*
X5938333Y-20213190D01*
X5947857Y-20222714D01*
X5957381Y-20241762D01*
X5957381Y-20289381D01*
X5947857Y-20308429D01*
X5938333Y-20317952D01*
X5919286Y-20327476D01*
X5862143Y-20327476D01*
X5843095Y-20317952D01*
X5833571Y-20308429D01*
X6043095Y-20308429D02*
X6052619Y-20317952D01*
X6043095Y-20327476D01*
X6033571Y-20317952D01*
X6043095Y-20308429D01*
X6043095Y-20327476D01*
X6128809Y-20146524D02*
X6138333Y-20137000D01*
X6157381Y-20127476D01*
X6205000Y-20127476D01*
X6224048Y-20137000D01*
X6233571Y-20146524D01*
X6243095Y-20165571D01*
X6243095Y-20184619D01*
X6233571Y-20213190D01*
X6119286Y-20327476D01*
X6243095Y-20327476D01*
X6366905Y-20127476D02*
X6385952Y-20127476D01*
X6405000Y-20137000D01*
X6414524Y-20146524D01*
X6424048Y-20165571D01*
X6433571Y-20203667D01*
X6433571Y-20251286D01*
X6424048Y-20289381D01*
X6414524Y-20308429D01*
X6405000Y-20317952D01*
X6385952Y-20327476D01*
X6366905Y-20327476D01*
X6347857Y-20317952D01*
X6338333Y-20308429D01*
X6328809Y-20289381D01*
X6319286Y-20251286D01*
X6319286Y-20203667D01*
X6328809Y-20165571D01*
X6338333Y-20146524D01*
X6347857Y-20137000D01*
X6366905Y-20127476D01*
X6557381Y-20127476D02*
X6576428Y-20127476D01*
X6595476Y-20137000D01*
X6605000Y-20146524D01*
X6614524Y-20165571D01*
X6624048Y-20203667D01*
X6624048Y-20251286D01*
X6614524Y-20289381D01*
X6605000Y-20308429D01*
X6595476Y-20317952D01*
X6576428Y-20327476D01*
X6557381Y-20327476D01*
X6538333Y-20317952D01*
X6528809Y-20308429D01*
X6519286Y-20289381D01*
X6509762Y-20251286D01*
X6509762Y-20203667D01*
X6519286Y-20165571D01*
X6528809Y-20146524D01*
X6538333Y-20137000D01*
X6557381Y-20127476D01*
X6709762Y-20327476D02*
X6709762Y-20194143D01*
X6709762Y-20213190D02*
X6719286Y-20203667D01*
X6738333Y-20194143D01*
X6766905Y-20194143D01*
X6785952Y-20203667D01*
X6795476Y-20222714D01*
X6795476Y-20327476D01*
X6795476Y-20222714D02*
X6805000Y-20203667D01*
X6824048Y-20194143D01*
X6852619Y-20194143D01*
X6871667Y-20203667D01*
X6881190Y-20222714D01*
X6881190Y-20327476D01*
X6976428Y-20327476D02*
X6976428Y-20194143D01*
X6976428Y-20213190D02*
X6985952Y-20203667D01*
X7005000Y-20194143D01*
X7033571Y-20194143D01*
X7052619Y-20203667D01*
X7062143Y-20222714D01*
X7062143Y-20327476D01*
X7062143Y-20222714D02*
X7071667Y-20203667D01*
X7090714Y-20194143D01*
X7119286Y-20194143D01*
X7138333Y-20203667D01*
X7147857Y-20222714D01*
X7147857Y-20327476D01*
X7538333Y-20117952D02*
X7366905Y-20375095D01*
X7795476Y-20127476D02*
X7814524Y-20127476D01*
X7833571Y-20137000D01*
X7843095Y-20146524D01*
X7852619Y-20165571D01*
X7862143Y-20203667D01*
X7862143Y-20251286D01*
X7852619Y-20289381D01*
X7843095Y-20308429D01*
X7833571Y-20317952D01*
X7814524Y-20327476D01*
X7795476Y-20327476D01*
X7776428Y-20317952D01*
X7766905Y-20308429D01*
X7757381Y-20289381D01*
X7747857Y-20251286D01*
X7747857Y-20203667D01*
X7757381Y-20165571D01*
X7766905Y-20146524D01*
X7776428Y-20137000D01*
X7795476Y-20127476D01*
X7947857Y-20308429D02*
X7957381Y-20317952D01*
X7947857Y-20327476D01*
X7938333Y-20317952D01*
X7947857Y-20308429D01*
X7947857Y-20327476D01*
X8147857Y-20327476D02*
X8033571Y-20327476D01*
X8090714Y-20327476D02*
X8090714Y-20127476D01*
X8071667Y-20156048D01*
X8052619Y-20175095D01*
X8033571Y-20184619D01*
X8224048Y-20146524D02*
X8233571Y-20137000D01*
X8252619Y-20127476D01*
X8300238Y-20127476D01*
X8319286Y-20137000D01*
X8328809Y-20146524D01*
X8338333Y-20165571D01*
X8338333Y-20184619D01*
X8328809Y-20213190D01*
X8214524Y-20327476D01*
X8338333Y-20327476D01*
X8509762Y-20127476D02*
X8471667Y-20127476D01*
X8452619Y-20137000D01*
X8443095Y-20146524D01*
X8424048Y-20175095D01*
X8414524Y-20213190D01*
X8414524Y-20289381D01*
X8424048Y-20308429D01*
X8433571Y-20317952D01*
X8452619Y-20327476D01*
X8490714Y-20327476D01*
X8509762Y-20317952D01*
X8519286Y-20308429D01*
X8528810Y-20289381D01*
X8528810Y-20241762D01*
X8519286Y-20222714D01*
X8509762Y-20213190D01*
X8490714Y-20203667D01*
X8452619Y-20203667D01*
X8433571Y-20213190D01*
X8424048Y-20222714D01*
X8414524Y-20241762D01*
X8652619Y-20127476D02*
X8671667Y-20127476D01*
X8690714Y-20137000D01*
X8700238Y-20146524D01*
X8709762Y-20165571D01*
X8719286Y-20203667D01*
X8719286Y-20251286D01*
X8709762Y-20289381D01*
X8700238Y-20308429D01*
X8690714Y-20317952D01*
X8671667Y-20327476D01*
X8652619Y-20327476D01*
X8633571Y-20317952D01*
X8624048Y-20308429D01*
X8614524Y-20289381D01*
X8605000Y-20251286D01*
X8605000Y-20203667D01*
X8614524Y-20165571D01*
X8624048Y-20146524D01*
X8633571Y-20137000D01*
X8652619Y-20127476D01*
X8795476Y-20127476D02*
X8795476Y-20165571D01*
X8871667Y-20127476D02*
X8871667Y-20165571D01*
X9166905Y-20403667D02*
X9157381Y-20394143D01*
X9138333Y-20365571D01*
X9128810Y-20346524D01*
X9119286Y-20317952D01*
X9109762Y-20270333D01*
X9109762Y-20232238D01*
X9119286Y-20184619D01*
X9128810Y-20156048D01*
X9138333Y-20137000D01*
X9157381Y-20108429D01*
X9166905Y-20098905D01*
X9328810Y-20194143D02*
X9328810Y-20327476D01*
X9281190Y-20117952D02*
X9233571Y-20260810D01*
X9357381Y-20260810D01*
X9585952Y-20327476D02*
X9585952Y-20127476D01*
X9671667Y-20327476D02*
X9671667Y-20222714D01*
X9662143Y-20203667D01*
X9643095Y-20194143D01*
X9614524Y-20194143D01*
X9595476Y-20203667D01*
X9585952Y-20213190D01*
X9795476Y-20327476D02*
X9776429Y-20317952D01*
X9766905Y-20308429D01*
X9757381Y-20289381D01*
X9757381Y-20232238D01*
X9766905Y-20213190D01*
X9776429Y-20203667D01*
X9795476Y-20194143D01*
X9824048Y-20194143D01*
X9843095Y-20203667D01*
X9852619Y-20213190D01*
X9862143Y-20232238D01*
X9862143Y-20289381D01*
X9852619Y-20308429D01*
X9843095Y-20317952D01*
X9824048Y-20327476D01*
X9795476Y-20327476D01*
X9976429Y-20327476D02*
X9957381Y-20317952D01*
X9947857Y-20298905D01*
X9947857Y-20127476D01*
X10128810Y-20317952D02*
X10109762Y-20327476D01*
X10071667Y-20327476D01*
X10052619Y-20317952D01*
X10043095Y-20298905D01*
X10043095Y-20222714D01*
X10052619Y-20203667D01*
X10071667Y-20194143D01*
X10109762Y-20194143D01*
X10128810Y-20203667D01*
X10138333Y-20222714D01*
X10138333Y-20241762D01*
X10043095Y-20260810D01*
X10214524Y-20317952D02*
X10233571Y-20327476D01*
X10271667Y-20327476D01*
X10290714Y-20317952D01*
X10300238Y-20298905D01*
X10300238Y-20289381D01*
X10290714Y-20270333D01*
X10271667Y-20260810D01*
X10243095Y-20260810D01*
X10224048Y-20251286D01*
X10214524Y-20232238D01*
X10214524Y-20222714D01*
X10224048Y-20203667D01*
X10243095Y-20194143D01*
X10271667Y-20194143D01*
X10290714Y-20203667D01*
X10366905Y-20403667D02*
X10376429Y-20394143D01*
X10395476Y-20365571D01*
X10405000Y-20346524D01*
X10414524Y-20317952D01*
X10424048Y-20270333D01*
X10424048Y-20232238D01*
X10414524Y-20184619D01*
X10405000Y-20156048D01*
X10395476Y-20137000D01*
X10376429Y-20108429D01*
X10366905Y-20098905D01*
M02*
