M48
; DRILL file {KiCad (6.0.6)} date Tue Nov 22 15:18:12 2022
; FORMAT={-:-/ absolute / inch / decimal}
; #@! TF.CreationDate,2022-11-22T15:18:12+01:00
; #@! TF.GenerationSoftware,Kicad,Pcbnew,(6.0.6)
; #@! TF.FileFunction,Plated,1,2,PTH
FMAT,2
INCH
; #@! TA.AperFunction,Plated,PTH,ComponentDrill
T1C0.0315
; #@! TA.AperFunction,Plated,PTH,ComponentDrill
T2C0.0394
; #@! TA.AperFunction,Plated,PTH,ComponentDrill
T3C0.0591
%
G90
G05
T1
X3.61Y-2.1434
X3.61Y-2.2419
X3.61Y-2.7034
X3.61Y-2.8019
X3.62Y-3.2734
X3.62Y-3.3719
X4.77Y-3.2981
X4.77Y-3.3966
X4.81Y-2.7181
X4.81Y-2.8166
T2
X3.31Y-2.39
X3.31Y-2.4884
X5.1893Y-2.6908
X5.1893Y-2.7892
X5.1893Y-3.2808
X5.1893Y-3.3792
X5.1993Y-2.1008
X5.1993Y-2.1992
T3
X4.167Y-2.45
X4.177Y-3.63
X4.207Y-3.04
X5.293Y-2.45
X5.303Y-3.63
X5.333Y-3.04
T0
M30
