%TF.GenerationSoftware,KiCad,Pcbnew,(6.0.6)*%
%TF.CreationDate,2022-11-22T15:18:16+01:00*%
%TF.ProjectId,DEMO1,44454d4f-312e-46b6-9963-61645f706362,rev?*%
%TF.SameCoordinates,Original*%
%TF.FileFunction,Copper,L1,Top*%
%TF.FilePolarity,Positive*%
%FSLAX46Y46*%
G04 Gerber Fmt 4.6, Leading zero omitted, Abs format (unit mm)*
G04 Created by KiCad (PCBNEW (6.0.6)) date 2022-11-22 15:18:16*
%MOMM*%
%LPD*%
G01*
G04 APERTURE LIST*
G04 Aperture macros list*
%AMRoundRect*
0 Rectangle with rounded corners*
0 $1 Rounding radius*
0 $2 $3 $4 $5 $6 $7 $8 $9 X,Y pos of 4 corners*
0 Add a 4 corners polygon primitive as box body*
4,1,4,$2,$3,$4,$5,$6,$7,$8,$9,$2,$3,0*
0 Add four circle primitives for the rounded corners*
1,1,$1+$1,$2,$3*
1,1,$1+$1,$4,$5*
1,1,$1+$1,$6,$7*
1,1,$1+$1,$8,$9*
0 Add four rect primitives between the rounded corners*
20,1,$1+$1,$2,$3,$4,$5,0*
20,1,$1+$1,$4,$5,$6,$7,0*
20,1,$1+$1,$6,$7,$8,$9,0*
20,1,$1+$1,$8,$9,$2,$3,0*%
G04 Aperture macros list end*
%TA.AperFunction,SMDPad,CuDef*%
%ADD10RoundRect,0.250000X0.450000X-0.262500X0.450000X0.262500X-0.450000X0.262500X-0.450000X-0.262500X0*%
%TD*%
%TA.AperFunction,SMDPad,CuDef*%
%ADD11RoundRect,0.250000X-0.650000X0.325000X-0.650000X-0.325000X0.650000X-0.325000X0.650000X0.325000X0*%
%TD*%
%TA.AperFunction,ComponentPad*%
%ADD12RoundRect,0.250000X0.750000X-0.600000X0.750000X0.600000X-0.750000X0.600000X-0.750000X-0.600000X0*%
%TD*%
%TA.AperFunction,ComponentPad*%
%ADD13O,2.000000X1.700000*%
%TD*%
%TA.AperFunction,SMDPad,CuDef*%
%ADD14RoundRect,0.250000X0.262500X0.450000X-0.262500X0.450000X-0.262500X-0.450000X0.262500X-0.450000X0*%
%TD*%
%TA.AperFunction,SMDPad,CuDef*%
%ADD15RoundRect,0.250000X0.312500X0.625000X-0.312500X0.625000X-0.312500X-0.625000X0.312500X-0.625000X0*%
%TD*%
%TA.AperFunction,SMDPad,CuDef*%
%ADD16RoundRect,0.250000X-0.625000X0.312500X-0.625000X-0.312500X0.625000X-0.312500X0.625000X0.312500X0*%
%TD*%
%TA.AperFunction,ComponentPad*%
%ADD17R,1.600000X1.600000*%
%TD*%
%TA.AperFunction,ComponentPad*%
%ADD18C,1.600000*%
%TD*%
%TA.AperFunction,SMDPad,CuDef*%
%ADD19R,1.525000X0.700000*%
%TD*%
%TA.AperFunction,ComponentPad*%
%ADD20R,2.250000X2.250000*%
%TD*%
%TA.AperFunction,ComponentPad*%
%ADD21C,2.250000*%
%TD*%
%TA.AperFunction,ComponentPad*%
%ADD22RoundRect,0.250000X-0.750000X0.600000X-0.750000X-0.600000X0.750000X-0.600000X0.750000X0.600000X0*%
%TD*%
%TA.AperFunction,SMDPad,CuDef*%
%ADD23RoundRect,0.250000X0.625000X-0.312500X0.625000X0.312500X-0.625000X0.312500X-0.625000X-0.312500X0*%
%TD*%
%TA.AperFunction,SMDPad,CuDef*%
%ADD24RoundRect,0.250000X-1.450000X0.312500X-1.450000X-0.312500X1.450000X-0.312500X1.450000X0.312500X0*%
%TD*%
%TA.AperFunction,SMDPad,CuDef*%
%ADD25R,2.050000X4.000000*%
%TD*%
%TA.AperFunction,SMDPad,CuDef*%
%ADD26RoundRect,0.250000X-0.312500X-0.625000X0.312500X-0.625000X0.312500X0.625000X-0.312500X0.625000X0*%
%TD*%
%TA.AperFunction,Conductor*%
%ADD27C,0.550000*%
%TD*%
%TA.AperFunction,Conductor*%
%ADD28C,0.250000*%
%TD*%
G04 APERTURE END LIST*
D10*
%TO.P,R3,1,1*%
%TO.N,Net-(Buck 5V1-Pad5)*%
X97028000Y-55268500D03*
%TO.P,R3,2,2*%
%TO.N,GND*%
X97028000Y-53443500D03*
%TD*%
D11*
%TO.P,C2,1,1*%
%TO.N,GND*%
X107188000Y-55167000D03*
%TO.P,C2,2,2*%
%TO.N,Net-(Buck 5V1-Pad3)*%
X107188000Y-58117000D03*
%TD*%
D12*
%TO.P,M1,1,A*%
%TO.N,Net-(C9-Pad2)*%
X131809000Y-85832000D03*
D13*
%TO.P,M1,2,B*%
%TO.N,GND*%
X131809000Y-83332000D03*
%TD*%
D11*
%TO.P,C5,1,1*%
%TO.N,GND*%
X110744000Y-70153000D03*
%TO.P,C5,2,2*%
%TO.N,Net-(Buck 12V2-Pad3)*%
X110744000Y-73103000D03*
%TD*%
D14*
%TO.P,R2,1,1*%
%TO.N,Net-(C3-Pad2)*%
X100988500Y-55118000D03*
%TO.P,R2,2,2*%
%TO.N,Net-(Buck 5V1-Pad5)*%
X99163500Y-55118000D03*
%TD*%
D15*
%TO.P,R11,1,1*%
%TO.N,Net-(C6-Pad2)*%
X107634500Y-70358000D03*
%TO.P,R11,2,2*%
%TO.N,unconnected-(R5-Pad1)*%
X104709500Y-70358000D03*
%TD*%
D16*
%TO.P,R1,1,1*%
%TO.N,Net-(Buck 12V2-Pad6)*%
X93980000Y-62545500D03*
%TO.P,R1,2,2*%
%TO.N,Net-(Buck 5V1-Pad1)*%
X93980000Y-65470500D03*
%TD*%
D17*
%TO.P,C6,1,1*%
%TO.N,GND*%
X122174000Y-71540380D03*
D18*
%TO.P,C6,2,2*%
%TO.N,Net-(C6-Pad2)*%
X122174000Y-69040380D03*
%TD*%
D19*
%TO.P,Buck 12V1,1,SWITCH_COLLECTOR*%
%TO.N,Net-(Buck 12V1-Pad1)*%
X102788000Y-87757000D03*
%TO.P,Buck 12V1,2,SWITCH_EMITTER*%
%TO.N,Net-(Buck 12V1-Pad2)*%
X102788000Y-86487000D03*
%TO.P,Buck 12V1,3,TIMING_CAPACITOR*%
%TO.N,Net-(Buck 12V1-Pad3)*%
X102788000Y-85217000D03*
%TO.P,Buck 12V1,4,GND*%
%TO.N,GND*%
X102788000Y-83947000D03*
%TO.P,Buck 12V1,5,COMPARATOR_INVERTING_INPUT*%
%TO.N,Net-(Buck 12V1-Pad5)*%
X97364000Y-83947000D03*
%TO.P,Buck 12V1,6,VCC*%
%TO.N,Net-(Buck 12V2-Pad6)*%
X97364000Y-85217000D03*
%TO.P,Buck 12V1,7,IPK_SENSE*%
%TO.N,Net-(Buck 12V1-Pad1)*%
X97364000Y-86487000D03*
%TO.P,Buck 12V1,8,DRIVE_COLLECTOR*%
X97364000Y-87757000D03*
%TD*%
D18*
%TO.P,C1,2,2*%
%TO.N,Net-(Buck 12V2-Pad6)*%
X91694000Y-56943621D03*
D17*
%TO.P,C1,1,1*%
%TO.N,GND*%
X91694000Y-54443621D03*
%TD*%
%TO.P,C4,1,1*%
%TO.N,Net-(Buck 12V2-Pad6)*%
X91694000Y-68667621D03*
D18*
%TO.P,C4,2,2*%
X91694000Y-71167621D03*
%TD*%
D19*
%TO.P,Buck 5V1,1,SWITCH_COLLECTOR*%
%TO.N,Net-(Buck 5V1-Pad1)*%
X103296000Y-61087000D03*
%TO.P,Buck 5V1,2,SWITCH_EMITTER*%
%TO.N,Net-(Buck 5V1-Pad2)*%
X103296000Y-59817000D03*
%TO.P,Buck 5V1,3,TIMING_CAPACITOR*%
%TO.N,Net-(Buck 5V1-Pad3)*%
X103296000Y-58547000D03*
%TO.P,Buck 5V1,4,GND*%
%TO.N,GND*%
X103296000Y-57277000D03*
%TO.P,Buck 5V1,5,COMPARATOR_INVERTING_INPUT*%
%TO.N,Net-(Buck 5V1-Pad5)*%
X97872000Y-57277000D03*
%TO.P,Buck 5V1,6,VCC*%
%TO.N,Net-(Buck 12V2-Pad6)*%
X97872000Y-58547000D03*
%TO.P,Buck 5V1,7,IPK_SENSE*%
%TO.N,Net-(Buck 5V1-Pad1)*%
X97872000Y-59817000D03*
%TO.P,Buck 5V1,8,DRIVE_COLLECTOR*%
X97872000Y-61087000D03*
%TD*%
D16*
%TO.P,R7,1,1*%
%TO.N,Net-(Buck 12V2-Pad6)*%
X91948000Y-89723500D03*
%TO.P,R7,2,2*%
%TO.N,Net-(Buck 12V1-Pad1)*%
X91948000Y-92648500D03*
%TD*%
D15*
%TO.P,R5,1,1*%
%TO.N,unconnected-(R5-Pad1)*%
X102300500Y-70358000D03*
%TO.P,R5,2,2*%
%TO.N,Net-(Buck 12V2-Pad5)*%
X99375500Y-70358000D03*
%TD*%
D20*
%TO.P,D1,1,A*%
%TO.N,GND*%
X134442000Y-62230000D03*
D21*
%TO.P,D1,2,K*%
%TO.N,Net-(Buck 5V1-Pad2)*%
X105842000Y-62230000D03*
%TD*%
D20*
%TO.P,D2,1,A*%
%TO.N,GND*%
X135458000Y-77216000D03*
D21*
%TO.P,D2,2,K*%
%TO.N,Net-(Buck 12V2-Pad2)*%
X106858000Y-77216000D03*
%TD*%
D22*
%TO.P,DC 24V,1,A*%
%TO.N,Net-(Buck 12V2-Pad6)*%
X84074000Y-60706000D03*
D13*
%TO.P,DC 24V,2,B*%
%TO.N,GND*%
X84074000Y-63206000D03*
%TD*%
D12*
%TO.P,DC 5V1,1,A*%
%TO.N,Net-(C3-Pad2)*%
X132063000Y-55860000D03*
D13*
%TO.P,DC 5V1,2,B*%
%TO.N,GND*%
X132063000Y-53360000D03*
%TD*%
D20*
%TO.P,D3,1,A*%
%TO.N,GND*%
X134696000Y-92202000D03*
D21*
%TO.P,D3,2,K*%
%TO.N,Net-(Buck 12V1-Pad2)*%
X106096000Y-92202000D03*
%TD*%
D23*
%TO.P,R6,1,1*%
%TO.N,Net-(Buck 12V2-Pad5)*%
X97028000Y-70550500D03*
%TO.P,R6,2,2*%
%TO.N,GND*%
X97028000Y-67625500D03*
%TD*%
D24*
%TO.P,L2,1,1*%
%TO.N,Net-(C6-Pad2)*%
X115062000Y-68982500D03*
%TO.P,L2,2,2*%
%TO.N,Net-(Buck 12V2-Pad2)*%
X115062000Y-73257500D03*
%TD*%
D25*
%TO.P,C3,1,1*%
%TO.N,GND*%
X120142000Y-56182000D03*
%TO.P,C3,2,2*%
%TO.N,Net-(C3-Pad2)*%
X120142000Y-49482000D03*
%TD*%
D16*
%TO.P,R4,1,1*%
%TO.N,Net-(Buck 12V2-Pad6)*%
X93726000Y-75499500D03*
%TO.P,R4,2,2*%
%TO.N,Net-(Buck 12V2-Pad1)*%
X93726000Y-78424500D03*
%TD*%
D24*
%TO.P,L1,1,1*%
%TO.N,Net-(C3-Pad2)*%
X112014000Y-53996500D03*
%TO.P,L1,2,2*%
%TO.N,Net-(Buck 5V1-Pad2)*%
X112014000Y-58271500D03*
%TD*%
D17*
%TO.P,C7,1,1*%
%TO.N,Net-(Buck 12V2-Pad6)*%
X91948000Y-83145621D03*
D18*
%TO.P,C7,2,2*%
X91948000Y-85645621D03*
%TD*%
D12*
%TO.P,M2,1,A*%
%TO.N,Net-(C6-Pad2)*%
X131809000Y-70846000D03*
D13*
%TO.P,M2,2,B*%
%TO.N,GND*%
X131809000Y-68346000D03*
%TD*%
D17*
%TO.P,C9,1,1*%
%TO.N,GND*%
X121158000Y-86272380D03*
D18*
%TO.P,C9,2,2*%
%TO.N,Net-(C9-Pad2)*%
X121158000Y-83772380D03*
%TD*%
D11*
%TO.P,C8,1,1*%
%TO.N,GND*%
X107950000Y-84377000D03*
%TO.P,C8,2,2*%
%TO.N,Net-(Buck 12V1-Pad3)*%
X107950000Y-87327000D03*
%TD*%
D26*
%TO.P,R10,1,1*%
%TO.N,unconnected-(R9-Pad1)*%
X104455500Y-81534000D03*
%TO.P,R10,2,2*%
%TO.N,Net-(C9-Pad2)*%
X107380500Y-81534000D03*
%TD*%
D24*
%TO.P,L3,1,1*%
%TO.N,Net-(C9-Pad2)*%
X113538000Y-83460500D03*
%TO.P,L3,2,2*%
%TO.N,Net-(Buck 12V1-Pad2)*%
X113538000Y-87735500D03*
%TD*%
D19*
%TO.P,Buck 12V2,1,SWITCH_COLLECTOR*%
%TO.N,Net-(Buck 12V2-Pad1)*%
X103042000Y-76835000D03*
%TO.P,Buck 12V2,2,SWITCH_EMITTER*%
%TO.N,Net-(Buck 12V2-Pad2)*%
X103042000Y-75565000D03*
%TO.P,Buck 12V2,3,TIMING_CAPACITOR*%
%TO.N,Net-(Buck 12V2-Pad3)*%
X103042000Y-74295000D03*
%TO.P,Buck 12V2,4,GND*%
%TO.N,GND*%
X103042000Y-73025000D03*
%TO.P,Buck 12V2,5,COMPARATOR_INVERTING_INPUT*%
%TO.N,Net-(Buck 12V2-Pad5)*%
X97618000Y-73025000D03*
%TO.P,Buck 12V2,6,VCC*%
%TO.N,Net-(Buck 12V2-Pad6)*%
X97618000Y-74295000D03*
%TO.P,Buck 12V2,7,IPK_SENSE*%
%TO.N,Net-(Buck 12V2-Pad1)*%
X97618000Y-75565000D03*
%TO.P,Buck 12V2,8,DRIVE_COLLECTOR*%
X97618000Y-76835000D03*
%TD*%
D15*
%TO.P,R9,1,1*%
%TO.N,unconnected-(R9-Pad1)*%
X102046500Y-81534000D03*
%TO.P,R9,2,2*%
%TO.N,Net-(Buck 12V1-Pad5)*%
X99121500Y-81534000D03*
%TD*%
D23*
%TO.P,R8,1,1*%
%TO.N,Net-(Buck 12V1-Pad5)*%
X96774000Y-81980500D03*
%TO.P,R8,2,2*%
%TO.N,GND*%
X96774000Y-79055500D03*
%TD*%
D27*
%TO.N,Net-(Buck 12V1-Pad2)*%
X106096000Y-88570000D02*
X106096000Y-92202000D01*
X104013000Y-86487000D02*
X106096000Y-88570000D01*
X102788000Y-86487000D02*
X104013000Y-86487000D01*
%TO.N,Net-(Buck 12V1-Pad5)*%
X97933500Y-82722000D02*
X99121500Y-81534000D01*
X97364000Y-82722000D02*
X97933500Y-82722000D01*
%TO.N,Net-(C9-Pad2)*%
X111611500Y-81534000D02*
X107380500Y-81534000D01*
X113538000Y-83460500D02*
X111611500Y-81534000D01*
D28*
%TO.N,Net-(C3-Pad2)*%
X129580000Y-55880000D02*
X129560000Y-55860000D01*
X132043000Y-55880000D02*
X129580000Y-55880000D01*
X132063000Y-55860000D02*
X132043000Y-55880000D01*
X123142000Y-49482000D02*
X129540000Y-55880000D01*
X120142000Y-49482000D02*
X123142000Y-49482000D01*
D27*
%TO.N,unconnected-(R9-Pad1)*%
X102046500Y-81534000D02*
X104455500Y-81534000D01*
D28*
%TO.N,Net-(Buck 12V2-Pad6)*%
X93980000Y-60403000D02*
X93980000Y-62545500D01*
X91694000Y-58117000D02*
X93980000Y-60403000D01*
X91694000Y-56943621D02*
X91694000Y-58117000D01*
X84074000Y-60706000D02*
X87836379Y-56943621D01*
X87836379Y-56943621D02*
X91694000Y-56943621D01*
D27*
%TO.N,Net-(Buck 12V1-Pad3)*%
X105840000Y-85217000D02*
X107950000Y-87327000D01*
X102788000Y-85217000D02*
X105840000Y-85217000D01*
%TO.N,Net-(Buck 12V2-Pad3)*%
X107745000Y-73103000D02*
X110744000Y-73103000D01*
X103423000Y-73914000D02*
X106934000Y-73914000D01*
X103042000Y-74295000D02*
X103423000Y-73914000D01*
X106934000Y-73914000D02*
X107745000Y-73103000D01*
%TO.N,Net-(C6-Pad2)*%
X130003380Y-69040380D02*
X131809000Y-70846000D01*
X122174000Y-69040380D02*
X130003380Y-69040380D01*
%TO.N,Net-(C9-Pad2)*%
X129015000Y-85832000D02*
X126955380Y-83772380D01*
X131809000Y-85832000D02*
X129015000Y-85832000D01*
%TO.N,Net-(Buck 12V2-Pad6)*%
X96935379Y-85645621D02*
X97364000Y-85217000D01*
X91948000Y-85645621D02*
X96935379Y-85645621D01*
%TO.N,Net-(C6-Pad2)*%
X109010000Y-68982500D02*
X115062000Y-68982500D01*
X107634500Y-70358000D02*
X109010000Y-68982500D01*
D28*
%TO.N,Net-(C3-Pad2)*%
X103378000Y-53594000D02*
X111611500Y-53594000D01*
X101854000Y-55118000D02*
X103378000Y-53594000D01*
X111611500Y-53594000D02*
X112014000Y-53996500D01*
X100988500Y-55118000D02*
X101854000Y-55118000D01*
D27*
%TO.N,unconnected-(R5-Pad1)*%
X102300500Y-70358000D02*
X104709500Y-70358000D01*
%TO.N,Net-(C9-Pad2)*%
X121158000Y-83772380D02*
X126955380Y-83772380D01*
D28*
X113538000Y-83460500D02*
X113849880Y-83772380D01*
D27*
X113849880Y-83772380D02*
X121158000Y-83772380D01*
%TO.N,Net-(Buck 12V1-Pad2)*%
X109071500Y-92202000D02*
X113538000Y-87735500D01*
X106096000Y-92202000D02*
X109071500Y-92202000D01*
D28*
%TO.N,Net-(Buck 12V1-Pad5)*%
X97364000Y-82722000D02*
X97364000Y-82570500D01*
D27*
X97364000Y-83947000D02*
X97364000Y-82722000D01*
X97364000Y-82570500D02*
X96774000Y-81980500D01*
%TO.N,Net-(Buck 12V2-Pad1)*%
X97618000Y-75565000D02*
X97618000Y-76835000D01*
%TO.N,Net-(Buck 12V1-Pad1)*%
X97364000Y-87757000D02*
X102788000Y-87757000D01*
X97364000Y-86487000D02*
X97364000Y-87757000D01*
D28*
X91948000Y-92648500D02*
X92472500Y-92648500D01*
D27*
X92472500Y-92648500D02*
X97364000Y-87757000D01*
%TO.N,Net-(Buck 12V2-Pad6)*%
X91948000Y-89723500D02*
X91948000Y-85645621D01*
%TO.N,Net-(C6-Pad2)*%
X115119880Y-69040380D02*
X122174000Y-69040380D01*
D28*
X115062000Y-68982500D02*
X115119880Y-69040380D01*
%TO.N,Net-(C3-Pad2)*%
X112014000Y-53996500D02*
X116528500Y-49482000D01*
X116528500Y-49482000D02*
X120142000Y-49482000D01*
%TO.N,Net-(Buck 12V2-Pad5)*%
X99183000Y-70550500D02*
X99375500Y-70358000D01*
D27*
X97028000Y-70550500D02*
X99183000Y-70550500D01*
X97618000Y-71140500D02*
X97028000Y-70550500D01*
X97618000Y-73025000D02*
X97618000Y-71140500D01*
%TO.N,Net-(Buck 12V2-Pad2)*%
X109579500Y-77216000D02*
X113538000Y-73257500D01*
X106858000Y-77216000D02*
X109579500Y-77216000D01*
X105207000Y-75565000D02*
X106858000Y-77216000D01*
X103042000Y-75565000D02*
X105207000Y-75565000D01*
%TO.N,Net-(Buck 12V2-Pad1)*%
X97618000Y-76835000D02*
X103042000Y-76835000D01*
X95315500Y-76835000D02*
X97618000Y-76835000D01*
X93726000Y-78424500D02*
X95315500Y-76835000D01*
D28*
%TO.N,Net-(Buck 5V1-Pad1)*%
X93980000Y-65470500D02*
X98363500Y-61087000D01*
X97872000Y-59817000D02*
X97872000Y-61087000D01*
X98363500Y-61087000D02*
X103296000Y-61087000D01*
%TO.N,Net-(Buck 5V1-Pad2)*%
X103296000Y-59817000D02*
X103708500Y-59817000D01*
X103708500Y-59817000D02*
X105842000Y-61950500D01*
X105842000Y-62230000D02*
X109474000Y-58598000D01*
X105842000Y-61950500D02*
X105842000Y-62230000D01*
X109474000Y-58271500D02*
X112014000Y-58271500D01*
X109474000Y-58598000D02*
X109474000Y-58271500D01*
%TO.N,Net-(Buck 5V1-Pad3)*%
X106758000Y-58547000D02*
X107188000Y-58117000D01*
X103296000Y-58547000D02*
X106758000Y-58547000D01*
%TO.N,Net-(Buck 5V1-Pad5)*%
X97872000Y-56112500D02*
X97028000Y-55268500D01*
X97872000Y-56112500D02*
X98169000Y-56112500D01*
X97872000Y-57277000D02*
X97872000Y-56112500D01*
X98169000Y-56112500D02*
X99163500Y-55118000D01*
D27*
%TO.N,Net-(Buck 12V2-Pad6)*%
X91694000Y-71167621D02*
X91694000Y-73467500D01*
D28*
X93980000Y-60403000D02*
X95836000Y-58547000D01*
D27*
X91694000Y-73467500D02*
X93726000Y-75499500D01*
X93726000Y-75499500D02*
X94930500Y-74295000D01*
X94930500Y-74295000D02*
X97618000Y-74295000D01*
D28*
X95836000Y-58547000D02*
X97872000Y-58547000D01*
%TD*%
%TA.AperFunction,Conductor*%
%TO.N,GND*%
G36*
X116110527Y-48788002D02*
G01*
X116157020Y-48841658D01*
X116167124Y-48911932D01*
X116137630Y-48976512D01*
X116131501Y-48983095D01*
X116122817Y-48991779D01*
X116107784Y-49004619D01*
X116091393Y-49016528D01*
X116083111Y-49026539D01*
X116063202Y-49050605D01*
X116055212Y-49059384D01*
X112226000Y-52888595D01*
X112163688Y-52922621D01*
X112136905Y-52925500D01*
X110513600Y-52925500D01*
X110510354Y-52925837D01*
X110510350Y-52925837D01*
X110480417Y-52928943D01*
X110407834Y-52936474D01*
X110401293Y-52938656D01*
X110401294Y-52938656D01*
X110355234Y-52954023D01*
X110315357Y-52960500D01*
X103456763Y-52960500D01*
X103445579Y-52959973D01*
X103438091Y-52958299D01*
X103430168Y-52958548D01*
X103370033Y-52960438D01*
X103366075Y-52960500D01*
X103338144Y-52960500D01*
X103334229Y-52960995D01*
X103334225Y-52960995D01*
X103334167Y-52961003D01*
X103334138Y-52961006D01*
X103322296Y-52961939D01*
X103278110Y-52963327D01*
X103260744Y-52968372D01*
X103258658Y-52968978D01*
X103239306Y-52972986D01*
X103227068Y-52974532D01*
X103227066Y-52974533D01*
X103219203Y-52975526D01*
X103178086Y-52991806D01*
X103166885Y-52995641D01*
X103124406Y-53007982D01*
X103117587Y-53012015D01*
X103117582Y-53012017D01*
X103106971Y-53018293D01*
X103089221Y-53026990D01*
X103070383Y-53034448D01*
X103063967Y-53039109D01*
X103063966Y-53039110D01*
X103034625Y-53060428D01*
X103024701Y-53066947D01*
X102993460Y-53085422D01*
X102993455Y-53085426D01*
X102986637Y-53089458D01*
X102972313Y-53103782D01*
X102957281Y-53116621D01*
X102940893Y-53128528D01*
X102912712Y-53162593D01*
X102904722Y-53171373D01*
X101954993Y-54121102D01*
X101892681Y-54155128D01*
X101821866Y-54150063D01*
X101776881Y-54121180D01*
X101729488Y-54073870D01*
X101729483Y-54073866D01*
X101724303Y-54068695D01*
X101717326Y-54064394D01*
X101579968Y-53979725D01*
X101579966Y-53979724D01*
X101573738Y-53975885D01*
X101413254Y-53922655D01*
X101412389Y-53922368D01*
X101412387Y-53922368D01*
X101405861Y-53920203D01*
X101399025Y-53919503D01*
X101399022Y-53919502D01*
X101355969Y-53915091D01*
X101301400Y-53909500D01*
X100675600Y-53909500D01*
X100672354Y-53909837D01*
X100672350Y-53909837D01*
X100576692Y-53919762D01*
X100576688Y-53919763D01*
X100569834Y-53920474D01*
X100563298Y-53922655D01*
X100563296Y-53922655D01*
X100499480Y-53943946D01*
X100402054Y-53976450D01*
X100251652Y-54069522D01*
X100188965Y-54132319D01*
X100165216Y-54156109D01*
X100102934Y-54190188D01*
X100032114Y-54185185D01*
X99987025Y-54156264D01*
X99904483Y-54073866D01*
X99899303Y-54068695D01*
X99892326Y-54064394D01*
X99754968Y-53979725D01*
X99754966Y-53979724D01*
X99748738Y-53975885D01*
X99588254Y-53922655D01*
X99587389Y-53922368D01*
X99587387Y-53922368D01*
X99580861Y-53920203D01*
X99574025Y-53919503D01*
X99574022Y-53919502D01*
X99530969Y-53915091D01*
X99476400Y-53909500D01*
X98850600Y-53909500D01*
X98847354Y-53909837D01*
X98847350Y-53909837D01*
X98751692Y-53919762D01*
X98751688Y-53919763D01*
X98744834Y-53920474D01*
X98738298Y-53922655D01*
X98738296Y-53922655D01*
X98674480Y-53943946D01*
X98577054Y-53976450D01*
X98426652Y-54069522D01*
X98421479Y-54074704D01*
X98397984Y-54098240D01*
X98335701Y-54132319D01*
X98264881Y-54127316D01*
X98208009Y-54084819D01*
X98183140Y-54018320D01*
X98189218Y-53969554D01*
X98223138Y-53867290D01*
X98226005Y-53853914D01*
X98235672Y-53759562D01*
X98236000Y-53753146D01*
X98236000Y-53715615D01*
X98231525Y-53700376D01*
X98230135Y-53699171D01*
X98222452Y-53697500D01*
X95838116Y-53697500D01*
X95822877Y-53701975D01*
X95821672Y-53703365D01*
X95820001Y-53711048D01*
X95820001Y-53753095D01*
X95820338Y-53759614D01*
X95830257Y-53855206D01*
X95833149Y-53868600D01*
X95884588Y-54022784D01*
X95890761Y-54035962D01*
X95976063Y-54173807D01*
X95985099Y-54185208D01*
X96066462Y-54266430D01*
X96100541Y-54328713D01*
X96095538Y-54399533D01*
X96066617Y-54444620D01*
X95983870Y-54527512D01*
X95983866Y-54527517D01*
X95978695Y-54532697D01*
X95974855Y-54538927D01*
X95974854Y-54538928D01*
X95896092Y-54666704D01*
X95885885Y-54683262D01*
X95830203Y-54851139D01*
X95819500Y-54955600D01*
X95819500Y-55581400D01*
X95819837Y-55584646D01*
X95819837Y-55584650D01*
X95828993Y-55672890D01*
X95830474Y-55687166D01*
X95832655Y-55693702D01*
X95832655Y-55693704D01*
X95850082Y-55745938D01*
X95886450Y-55854946D01*
X95979522Y-56005348D01*
X96104697Y-56130305D01*
X96110927Y-56134145D01*
X96110928Y-56134146D01*
X96194991Y-56185963D01*
X96255262Y-56223115D01*
X96327644Y-56247123D01*
X96416611Y-56276632D01*
X96416613Y-56276632D01*
X96423139Y-56278797D01*
X96429975Y-56279497D01*
X96429978Y-56279498D01*
X96473031Y-56283909D01*
X96527600Y-56289500D01*
X96733937Y-56289500D01*
X96802058Y-56309502D01*
X96848551Y-56363158D01*
X96858655Y-56433432D01*
X96829161Y-56498012D01*
X96809502Y-56516326D01*
X96746239Y-56563739D01*
X96658885Y-56680295D01*
X96607755Y-56816684D01*
X96601000Y-56878866D01*
X96601000Y-57675134D01*
X96607755Y-57737316D01*
X96610529Y-57744716D01*
X96612356Y-57752400D01*
X96610684Y-57752797D01*
X96615170Y-57814079D01*
X96581248Y-57876447D01*
X96518993Y-57910576D01*
X96492005Y-57913500D01*
X95914763Y-57913500D01*
X95903579Y-57912973D01*
X95896091Y-57911299D01*
X95888168Y-57911548D01*
X95828033Y-57913438D01*
X95824075Y-57913500D01*
X95796144Y-57913500D01*
X95792229Y-57913995D01*
X95792225Y-57913995D01*
X95792167Y-57914003D01*
X95792138Y-57914006D01*
X95780296Y-57914939D01*
X95736110Y-57916327D01*
X95718744Y-57921372D01*
X95716658Y-57921978D01*
X95697306Y-57925986D01*
X95685068Y-57927532D01*
X95685066Y-57927533D01*
X95677203Y-57928526D01*
X95636086Y-57944806D01*
X95624885Y-57948641D01*
X95582406Y-57960982D01*
X95575587Y-57965015D01*
X95575582Y-57965017D01*
X95564971Y-57971293D01*
X95547221Y-57979990D01*
X95528383Y-57987448D01*
X95521967Y-57992109D01*
X95521966Y-57992110D01*
X95492625Y-58013428D01*
X95482701Y-58019947D01*
X95451460Y-58038422D01*
X95451455Y-58038426D01*
X95444637Y-58042458D01*
X95430313Y-58056782D01*
X95415281Y-58069621D01*
X95398893Y-58081528D01*
X95370754Y-58115542D01*
X95370712Y-58115593D01*
X95362722Y-58124373D01*
X94069095Y-59418000D01*
X94006783Y-59452026D01*
X93935968Y-59446961D01*
X93890905Y-59418000D01*
X92569607Y-58096702D01*
X92535581Y-58034390D01*
X92540646Y-57963575D01*
X92569607Y-57918512D01*
X92700198Y-57787921D01*
X92706095Y-57779500D01*
X92758587Y-57704533D01*
X92831523Y-57600370D01*
X92833846Y-57595388D01*
X92833849Y-57595383D01*
X92925961Y-57397846D01*
X92925961Y-57397845D01*
X92928284Y-57392864D01*
X92946769Y-57323880D01*
X92986119Y-57177023D01*
X92986119Y-57177021D01*
X92987543Y-57171708D01*
X93007498Y-56943621D01*
X92987543Y-56715534D01*
X92960568Y-56614861D01*
X92929707Y-56499688D01*
X92929706Y-56499686D01*
X92928284Y-56494378D01*
X92918544Y-56473491D01*
X92833849Y-56291859D01*
X92833846Y-56291854D01*
X92831523Y-56286872D01*
X92744180Y-56162134D01*
X92703357Y-56103832D01*
X92703355Y-56103829D01*
X92700198Y-56099321D01*
X92554078Y-55953201D01*
X92520052Y-55890889D01*
X92525117Y-55820074D01*
X92567664Y-55763238D01*
X92604606Y-55745938D01*
X92604207Y-55744873D01*
X92732054Y-55696945D01*
X92747649Y-55688407D01*
X92849724Y-55611906D01*
X92862285Y-55599345D01*
X92938786Y-55497270D01*
X92947324Y-55481675D01*
X92992478Y-55361227D01*
X92996105Y-55345972D01*
X93001631Y-55295107D01*
X93002000Y-55288293D01*
X93002000Y-54715736D01*
X92997525Y-54700497D01*
X92996135Y-54699292D01*
X92988452Y-54697621D01*
X90404116Y-54697621D01*
X90388877Y-54702096D01*
X90387672Y-54703486D01*
X90386001Y-54711169D01*
X90386001Y-55288290D01*
X90386371Y-55295111D01*
X90391895Y-55345973D01*
X90395521Y-55361225D01*
X90440676Y-55481675D01*
X90449214Y-55497270D01*
X90525715Y-55599345D01*
X90538276Y-55611906D01*
X90640351Y-55688407D01*
X90655946Y-55696945D01*
X90783793Y-55744873D01*
X90783096Y-55746733D01*
X90835628Y-55776752D01*
X90868442Y-55839711D01*
X90862008Y-55910415D01*
X90833922Y-55953201D01*
X90687802Y-56099321D01*
X90684645Y-56103829D01*
X90684643Y-56103832D01*
X90577819Y-56256392D01*
X90522362Y-56300720D01*
X90474606Y-56310121D01*
X87915142Y-56310121D01*
X87903958Y-56309594D01*
X87896470Y-56307920D01*
X87888547Y-56308169D01*
X87828412Y-56310059D01*
X87824454Y-56310121D01*
X87796523Y-56310121D01*
X87792608Y-56310616D01*
X87792604Y-56310616D01*
X87792546Y-56310624D01*
X87792517Y-56310627D01*
X87780675Y-56311560D01*
X87736489Y-56312948D01*
X87719123Y-56317993D01*
X87717037Y-56318599D01*
X87697685Y-56322607D01*
X87685447Y-56324153D01*
X87685445Y-56324154D01*
X87677582Y-56325147D01*
X87636465Y-56341427D01*
X87625264Y-56345262D01*
X87582785Y-56357603D01*
X87575966Y-56361636D01*
X87575961Y-56361638D01*
X87565350Y-56367914D01*
X87547600Y-56376611D01*
X87528762Y-56384069D01*
X87522346Y-56388730D01*
X87522345Y-56388731D01*
X87493004Y-56410049D01*
X87483080Y-56416568D01*
X87451839Y-56435043D01*
X87451834Y-56435047D01*
X87445016Y-56439079D01*
X87430692Y-56453403D01*
X87415660Y-56466242D01*
X87399272Y-56478149D01*
X87375253Y-56507183D01*
X87371091Y-56512214D01*
X87363101Y-56520994D01*
X84573500Y-59310595D01*
X84511188Y-59344621D01*
X84484405Y-59347500D01*
X83273600Y-59347500D01*
X83270354Y-59347837D01*
X83270350Y-59347837D01*
X83174692Y-59357762D01*
X83174688Y-59357763D01*
X83167834Y-59358474D01*
X83161298Y-59360655D01*
X83161296Y-59360655D01*
X83029194Y-59404728D01*
X83000054Y-59414450D01*
X82849652Y-59507522D01*
X82724695Y-59632697D01*
X82720855Y-59638927D01*
X82720854Y-59638928D01*
X82666317Y-59727404D01*
X82631885Y-59783262D01*
X82576203Y-59951139D01*
X82565500Y-60055600D01*
X82565500Y-61356400D01*
X82565837Y-61359646D01*
X82565837Y-61359650D01*
X82572584Y-61424671D01*
X82576474Y-61462166D01*
X82578655Y-61468702D01*
X82578655Y-61468704D01*
X82584137Y-61485134D01*
X82632450Y-61629946D01*
X82725522Y-61780348D01*
X82850697Y-61905305D01*
X82856927Y-61909145D01*
X82856928Y-61909146D01*
X82870009Y-61917209D01*
X82996258Y-61995030D01*
X82996780Y-61995352D01*
X83044273Y-62048124D01*
X83055697Y-62118196D01*
X83027423Y-62183320D01*
X83017636Y-62193782D01*
X82907094Y-62299234D01*
X82900059Y-62307186D01*
X82768859Y-62483525D01*
X82763255Y-62492562D01*
X82663643Y-62688484D01*
X82659643Y-62698335D01*
X82594466Y-62908240D01*
X82592183Y-62918624D01*
X82590139Y-62934043D01*
X82592335Y-62948207D01*
X82605522Y-62952000D01*
X85540192Y-62952000D01*
X85553723Y-62948027D01*
X85555248Y-62937420D01*
X85530523Y-62819579D01*
X85527463Y-62809383D01*
X85446737Y-62604971D01*
X85442006Y-62595439D01*
X85327984Y-62407538D01*
X85321720Y-62398948D01*
X85177673Y-62232948D01*
X85170044Y-62225530D01*
X85138431Y-62199609D01*
X85098436Y-62140949D01*
X85096504Y-62069979D01*
X85133248Y-62009230D01*
X85152018Y-61995030D01*
X85185471Y-61974329D01*
X85298348Y-61904478D01*
X85423305Y-61779303D01*
X85432196Y-61764880D01*
X85512275Y-61634968D01*
X85512276Y-61634966D01*
X85516115Y-61628738D01*
X85563746Y-61485134D01*
X85569632Y-61467389D01*
X85569632Y-61467387D01*
X85571797Y-61460861D01*
X85582500Y-61356400D01*
X85582500Y-60145594D01*
X85602502Y-60077473D01*
X85619405Y-60056499D01*
X88061878Y-57614026D01*
X88124190Y-57580000D01*
X88150973Y-57577121D01*
X90474606Y-57577121D01*
X90542727Y-57597123D01*
X90577819Y-57630850D01*
X90684643Y-57783410D01*
X90687802Y-57787921D01*
X90849700Y-57949819D01*
X90854208Y-57952976D01*
X90854211Y-57952978D01*
X90917677Y-57997417D01*
X90984803Y-58044419D01*
X91007176Y-58060085D01*
X91051504Y-58115542D01*
X91060500Y-58154709D01*
X91060500Y-58156856D01*
X91060995Y-58160774D01*
X91060995Y-58160776D01*
X91061005Y-58160856D01*
X91061938Y-58172693D01*
X91063327Y-58216889D01*
X91067545Y-58231406D01*
X91068978Y-58236339D01*
X91072987Y-58255700D01*
X91075526Y-58275797D01*
X91078445Y-58283168D01*
X91078445Y-58283170D01*
X91091804Y-58316912D01*
X91095649Y-58328142D01*
X91107982Y-58370593D01*
X91112015Y-58377412D01*
X91112017Y-58377417D01*
X91118293Y-58388028D01*
X91126988Y-58405776D01*
X91134448Y-58424617D01*
X91139110Y-58431033D01*
X91139110Y-58431034D01*
X91160436Y-58460387D01*
X91166952Y-58470307D01*
X91189458Y-58508362D01*
X91203779Y-58522683D01*
X91216619Y-58537716D01*
X91228528Y-58554107D01*
X91234634Y-58559158D01*
X91262605Y-58582298D01*
X91271384Y-58590288D01*
X93309595Y-60628499D01*
X93343621Y-60690811D01*
X93346500Y-60717594D01*
X93346500Y-61356550D01*
X93326498Y-61424671D01*
X93272842Y-61471164D01*
X93233504Y-61481877D01*
X93225865Y-61482669D01*
X93205692Y-61484762D01*
X93205688Y-61484763D01*
X93198834Y-61485474D01*
X93192298Y-61487655D01*
X93192296Y-61487655D01*
X93060194Y-61531728D01*
X93031054Y-61541450D01*
X92880652Y-61634522D01*
X92755695Y-61759697D01*
X92751855Y-61765927D01*
X92751854Y-61765928D01*
X92669645Y-61899296D01*
X92662885Y-61910262D01*
X92644563Y-61965502D01*
X92609910Y-62069979D01*
X92607203Y-62078139D01*
X92596500Y-62182600D01*
X92596500Y-62908400D01*
X92596837Y-62911646D01*
X92596837Y-62911650D01*
X92603733Y-62978107D01*
X92607474Y-63014166D01*
X92663450Y-63181946D01*
X92756522Y-63332348D01*
X92881697Y-63457305D01*
X92887927Y-63461145D01*
X92887928Y-63461146D01*
X92957061Y-63503760D01*
X93032262Y-63550115D01*
X93056638Y-63558200D01*
X93193611Y-63603632D01*
X93193613Y-63603632D01*
X93200139Y-63605797D01*
X93206975Y-63606497D01*
X93206978Y-63606498D01*
X93250031Y-63610909D01*
X93304600Y-63616500D01*
X94633905Y-63616500D01*
X94702026Y-63636502D01*
X94748519Y-63690158D01*
X94758623Y-63760432D01*
X94729129Y-63825012D01*
X94723000Y-63831595D01*
X94192000Y-64362595D01*
X94129688Y-64396621D01*
X94102905Y-64399500D01*
X93304600Y-64399500D01*
X93301354Y-64399837D01*
X93301350Y-64399837D01*
X93205692Y-64409762D01*
X93205688Y-64409763D01*
X93198834Y-64410474D01*
X93192298Y-64412655D01*
X93192296Y-64412655D01*
X93095224Y-64445041D01*
X93031054Y-64466450D01*
X92880652Y-64559522D01*
X92755695Y-64684697D01*
X92662885Y-64835262D01*
X92660581Y-64842209D01*
X92609615Y-64995868D01*
X92607203Y-65003139D01*
X92596500Y-65107600D01*
X92596500Y-65833400D01*
X92607474Y-65939166D01*
X92663450Y-66106946D01*
X92756522Y-66257348D01*
X92881697Y-66382305D01*
X92887927Y-66386145D01*
X92887928Y-66386146D01*
X93025090Y-66470694D01*
X93032262Y-66475115D01*
X93112005Y-66501564D01*
X93193611Y-66528632D01*
X93193613Y-66528632D01*
X93200139Y-66530797D01*
X93206975Y-66531497D01*
X93206978Y-66531498D01*
X93250031Y-66535909D01*
X93304600Y-66541500D01*
X94655400Y-66541500D01*
X94658646Y-66541163D01*
X94658650Y-66541163D01*
X94754308Y-66531238D01*
X94754312Y-66531237D01*
X94761166Y-66530526D01*
X94767702Y-66528345D01*
X94767704Y-66528345D01*
X94899806Y-66484272D01*
X94928946Y-66474550D01*
X95079348Y-66381478D01*
X95204305Y-66256303D01*
X95297115Y-66105738D01*
X95352797Y-65937861D01*
X95363500Y-65833400D01*
X95363500Y-65107600D01*
X95357970Y-65054300D01*
X95370835Y-64984479D01*
X95394202Y-64952202D01*
X98363999Y-61982405D01*
X98426311Y-61948379D01*
X98453094Y-61945500D01*
X98682634Y-61945500D01*
X98744816Y-61938745D01*
X98881205Y-61887615D01*
X98997761Y-61800261D01*
X99019741Y-61770933D01*
X99076600Y-61728420D01*
X99120566Y-61720500D01*
X102047434Y-61720500D01*
X102115555Y-61740502D01*
X102148258Y-61770932D01*
X102170239Y-61800261D01*
X102286795Y-61887615D01*
X102423184Y-61938745D01*
X102485366Y-61945500D01*
X104089533Y-61945500D01*
X104157654Y-61965502D01*
X104204147Y-62019158D01*
X104215145Y-62081386D01*
X104203449Y-62230000D01*
X104223622Y-62486326D01*
X104224776Y-62491133D01*
X104224777Y-62491139D01*
X104249818Y-62595439D01*
X104283645Y-62736340D01*
X104285538Y-62740911D01*
X104285539Y-62740913D01*
X104356261Y-62911650D01*
X104382040Y-62973887D01*
X104516384Y-63193116D01*
X104683369Y-63388631D01*
X104878884Y-63555616D01*
X105098113Y-63689960D01*
X105102683Y-63691853D01*
X105102687Y-63691855D01*
X105331087Y-63786461D01*
X105335660Y-63788355D01*
X105383274Y-63799786D01*
X105580861Y-63847223D01*
X105580867Y-63847224D01*
X105585674Y-63848378D01*
X105842000Y-63868551D01*
X106098326Y-63848378D01*
X106103133Y-63847224D01*
X106103139Y-63847223D01*
X106300726Y-63799786D01*
X106348340Y-63788355D01*
X106352913Y-63786461D01*
X106581313Y-63691855D01*
X106581317Y-63691853D01*
X106585887Y-63689960D01*
X106805116Y-63555616D01*
X106987707Y-63399669D01*
X132809001Y-63399669D01*
X132809371Y-63406490D01*
X132814895Y-63457352D01*
X132818521Y-63472604D01*
X132863676Y-63593054D01*
X132872214Y-63608649D01*
X132948715Y-63710724D01*
X132961276Y-63723285D01*
X133063351Y-63799786D01*
X133078946Y-63808324D01*
X133199394Y-63853478D01*
X133214649Y-63857105D01*
X133265514Y-63862631D01*
X133272328Y-63863000D01*
X134169885Y-63863000D01*
X134185124Y-63858525D01*
X134186329Y-63857135D01*
X134188000Y-63849452D01*
X134188000Y-63844884D01*
X134696000Y-63844884D01*
X134700475Y-63860123D01*
X134701865Y-63861328D01*
X134709548Y-63862999D01*
X135611669Y-63862999D01*
X135618490Y-63862629D01*
X135669352Y-63857105D01*
X135684604Y-63853479D01*
X135805054Y-63808324D01*
X135820649Y-63799786D01*
X135922724Y-63723285D01*
X135935285Y-63710724D01*
X136011786Y-63608649D01*
X136020324Y-63593054D01*
X136065478Y-63472606D01*
X136069105Y-63457351D01*
X136074631Y-63406486D01*
X136075000Y-63399672D01*
X136075000Y-62502115D01*
X136070525Y-62486876D01*
X136069135Y-62485671D01*
X136061452Y-62484000D01*
X134714115Y-62484000D01*
X134698876Y-62488475D01*
X134697671Y-62489865D01*
X134696000Y-62497548D01*
X134696000Y-63844884D01*
X134188000Y-63844884D01*
X134188000Y-62502115D01*
X134183525Y-62486876D01*
X134182135Y-62485671D01*
X134174452Y-62484000D01*
X132827116Y-62484000D01*
X132811877Y-62488475D01*
X132810672Y-62489865D01*
X132809001Y-62497548D01*
X132809001Y-63399669D01*
X106987707Y-63399669D01*
X107000631Y-63388631D01*
X107167616Y-63193116D01*
X107301960Y-62973887D01*
X107327740Y-62911650D01*
X107398461Y-62740913D01*
X107398462Y-62740911D01*
X107400355Y-62736340D01*
X107434182Y-62595439D01*
X107459223Y-62491139D01*
X107459224Y-62491133D01*
X107460378Y-62486326D01*
X107480551Y-62230000D01*
X107460378Y-61973674D01*
X107458417Y-61965502D01*
X107456588Y-61957885D01*
X132809000Y-61957885D01*
X132813475Y-61973124D01*
X132814865Y-61974329D01*
X132822548Y-61976000D01*
X134169885Y-61976000D01*
X134185124Y-61971525D01*
X134186329Y-61970135D01*
X134188000Y-61962452D01*
X134188000Y-61957885D01*
X134696000Y-61957885D01*
X134700475Y-61973124D01*
X134701865Y-61974329D01*
X134709548Y-61976000D01*
X136056884Y-61976000D01*
X136072123Y-61971525D01*
X136073328Y-61970135D01*
X136074999Y-61962452D01*
X136074999Y-61060331D01*
X136074629Y-61053510D01*
X136069105Y-61002648D01*
X136065479Y-60987396D01*
X136020324Y-60866946D01*
X136011786Y-60851351D01*
X135935285Y-60749276D01*
X135922724Y-60736715D01*
X135820649Y-60660214D01*
X135805054Y-60651676D01*
X135684606Y-60606522D01*
X135669351Y-60602895D01*
X135618486Y-60597369D01*
X135611672Y-60597000D01*
X134714115Y-60597000D01*
X134698876Y-60601475D01*
X134697671Y-60602865D01*
X134696000Y-60610548D01*
X134696000Y-61957885D01*
X134188000Y-61957885D01*
X134188000Y-60615116D01*
X134183525Y-60599877D01*
X134182135Y-60598672D01*
X134174452Y-60597001D01*
X133272331Y-60597001D01*
X133265510Y-60597371D01*
X133214648Y-60602895D01*
X133199396Y-60606521D01*
X133078946Y-60651676D01*
X133063351Y-60660214D01*
X132961276Y-60736715D01*
X132948715Y-60749276D01*
X132872214Y-60851351D01*
X132863676Y-60866946D01*
X132818522Y-60987394D01*
X132814895Y-61002649D01*
X132809369Y-61053514D01*
X132809000Y-61060328D01*
X132809000Y-61957885D01*
X107456588Y-61957885D01*
X107414837Y-61783981D01*
X107400355Y-61723660D01*
X107386849Y-61691053D01*
X107379260Y-61620465D01*
X107414163Y-61553741D01*
X109848497Y-59119407D01*
X109910809Y-59085381D01*
X109981624Y-59090446D01*
X110026608Y-59119328D01*
X110090697Y-59183305D01*
X110096927Y-59187145D01*
X110096928Y-59187146D01*
X110234090Y-59271694D01*
X110241262Y-59276115D01*
X110252737Y-59279921D01*
X110402611Y-59329632D01*
X110402613Y-59329632D01*
X110409139Y-59331797D01*
X110415975Y-59332497D01*
X110415978Y-59332498D01*
X110459031Y-59336909D01*
X110513600Y-59342500D01*
X113514400Y-59342500D01*
X113517646Y-59342163D01*
X113517650Y-59342163D01*
X113613308Y-59332238D01*
X113613312Y-59332237D01*
X113620166Y-59331526D01*
X113626702Y-59329345D01*
X113626704Y-59329345D01*
X113758806Y-59285272D01*
X113787946Y-59275550D01*
X113938348Y-59182478D01*
X114063305Y-59057303D01*
X114074646Y-59038905D01*
X114152275Y-58912968D01*
X114152276Y-58912966D01*
X114156115Y-58906738D01*
X114211797Y-58738861D01*
X114222500Y-58634400D01*
X114222500Y-58226669D01*
X118609001Y-58226669D01*
X118609371Y-58233490D01*
X118614895Y-58284352D01*
X118618521Y-58299604D01*
X118663676Y-58420054D01*
X118672214Y-58435649D01*
X118748715Y-58537724D01*
X118761276Y-58550285D01*
X118863351Y-58626786D01*
X118878946Y-58635324D01*
X118999394Y-58680478D01*
X119014649Y-58684105D01*
X119065514Y-58689631D01*
X119072328Y-58690000D01*
X119869885Y-58690000D01*
X119885124Y-58685525D01*
X119886329Y-58684135D01*
X119888000Y-58676452D01*
X119888000Y-58671884D01*
X120396000Y-58671884D01*
X120400475Y-58687123D01*
X120401865Y-58688328D01*
X120409548Y-58689999D01*
X121211669Y-58689999D01*
X121218490Y-58689629D01*
X121269352Y-58684105D01*
X121284604Y-58680479D01*
X121405054Y-58635324D01*
X121420649Y-58626786D01*
X121522724Y-58550285D01*
X121535285Y-58537724D01*
X121611786Y-58435649D01*
X121620324Y-58420054D01*
X121665478Y-58299606D01*
X121669105Y-58284351D01*
X121674631Y-58233486D01*
X121675000Y-58226672D01*
X121675000Y-56454115D01*
X121670525Y-56438876D01*
X121669135Y-56437671D01*
X121661452Y-56436000D01*
X120414115Y-56436000D01*
X120398876Y-56440475D01*
X120397671Y-56441865D01*
X120396000Y-56449548D01*
X120396000Y-58671884D01*
X119888000Y-58671884D01*
X119888000Y-56454115D01*
X119883525Y-56438876D01*
X119882135Y-56437671D01*
X119874452Y-56436000D01*
X118627116Y-56436000D01*
X118611877Y-56440475D01*
X118610672Y-56441865D01*
X118609001Y-56449548D01*
X118609001Y-58226669D01*
X114222500Y-58226669D01*
X114222500Y-57908600D01*
X114222163Y-57905350D01*
X114212238Y-57809692D01*
X114212237Y-57809688D01*
X114211526Y-57802834D01*
X114208642Y-57794188D01*
X114157868Y-57642002D01*
X114155550Y-57635054D01*
X114062478Y-57484652D01*
X113937303Y-57359695D01*
X113879201Y-57323880D01*
X113792968Y-57270725D01*
X113792966Y-57270724D01*
X113786738Y-57266885D01*
X113640861Y-57218500D01*
X113625389Y-57213368D01*
X113625387Y-57213368D01*
X113618861Y-57211203D01*
X113612025Y-57210503D01*
X113612022Y-57210502D01*
X113561687Y-57205345D01*
X113514400Y-57200500D01*
X110513600Y-57200500D01*
X110510354Y-57200837D01*
X110510350Y-57200837D01*
X110414692Y-57210762D01*
X110414688Y-57210763D01*
X110407834Y-57211474D01*
X110401298Y-57213655D01*
X110401296Y-57213655D01*
X110269194Y-57257728D01*
X110240054Y-57267450D01*
X110089652Y-57360522D01*
X109964695Y-57485697D01*
X109960855Y-57491927D01*
X109960854Y-57491928D01*
X109907727Y-57578116D01*
X109854955Y-57625609D01*
X109800467Y-57638000D01*
X109545793Y-57638000D01*
X109522184Y-57635768D01*
X109521881Y-57635710D01*
X109521877Y-57635710D01*
X109514094Y-57634225D01*
X109458049Y-57637751D01*
X109450138Y-57638000D01*
X109434144Y-57638000D01*
X109418270Y-57640006D01*
X109410410Y-57640748D01*
X109382951Y-57642476D01*
X109362263Y-57643777D01*
X109362262Y-57643777D01*
X109354350Y-57644275D01*
X109346809Y-57646725D01*
X109346513Y-57646821D01*
X109323369Y-57651994D01*
X109323065Y-57652032D01*
X109323060Y-57652033D01*
X109315203Y-57653026D01*
X109307838Y-57655942D01*
X109307834Y-57655943D01*
X109262989Y-57673699D01*
X109255570Y-57676371D01*
X109202125Y-57693736D01*
X109195429Y-57697986D01*
X109195428Y-57697986D01*
X109195169Y-57698150D01*
X109174042Y-57708915D01*
X109173754Y-57709029D01*
X109173749Y-57709032D01*
X109166383Y-57711948D01*
X109159975Y-57716604D01*
X109159969Y-57716607D01*
X109120948Y-57744958D01*
X109114411Y-57749401D01*
X109066982Y-57779500D01*
X109061556Y-57785278D01*
X109061555Y-57785279D01*
X109061341Y-57785507D01*
X109043554Y-57801188D01*
X109043309Y-57801366D01*
X109043307Y-57801368D01*
X109036893Y-57806028D01*
X109031839Y-57812137D01*
X109031838Y-57812138D01*
X109001097Y-57849296D01*
X108995866Y-57855230D01*
X108962842Y-57890398D01*
X108962840Y-57890401D01*
X108957414Y-57896179D01*
X108953445Y-57903399D01*
X108940119Y-57923006D01*
X108939920Y-57923246D01*
X108939916Y-57923253D01*
X108934867Y-57929356D01*
X108922556Y-57955518D01*
X108910953Y-57980176D01*
X108907371Y-57987208D01*
X108880305Y-58036440D01*
X108878335Y-58044115D01*
X108878332Y-58044121D01*
X108878256Y-58044419D01*
X108870224Y-58066728D01*
X108870094Y-58067003D01*
X108870091Y-58067011D01*
X108866717Y-58074182D01*
X108858818Y-58115593D01*
X108856195Y-58129343D01*
X108854473Y-58137052D01*
X108848361Y-58160856D01*
X108844541Y-58175733D01*
X108808226Y-58236738D01*
X108744693Y-58268426D01*
X108674114Y-58260735D01*
X108618898Y-58216107D01*
X108596500Y-58144396D01*
X108596500Y-57741600D01*
X108596056Y-57737316D01*
X108586238Y-57642692D01*
X108586237Y-57642688D01*
X108585526Y-57635834D01*
X108583188Y-57628824D01*
X108531868Y-57475002D01*
X108529550Y-57468054D01*
X108436478Y-57317652D01*
X108311303Y-57192695D01*
X108305072Y-57188854D01*
X108166968Y-57103725D01*
X108166966Y-57103724D01*
X108160738Y-57099885D01*
X108047519Y-57062332D01*
X107999389Y-57046368D01*
X107999387Y-57046368D01*
X107992861Y-57044203D01*
X107986025Y-57043503D01*
X107986022Y-57043502D01*
X107942969Y-57039091D01*
X107888400Y-57033500D01*
X106487600Y-57033500D01*
X106484354Y-57033837D01*
X106484350Y-57033837D01*
X106388692Y-57043762D01*
X106388688Y-57043763D01*
X106381834Y-57044474D01*
X106375298Y-57046655D01*
X106375296Y-57046655D01*
X106337380Y-57059305D01*
X106214054Y-57100450D01*
X106063652Y-57193522D01*
X106058479Y-57198704D01*
X105996839Y-57260451D01*
X105938695Y-57318697D01*
X105934855Y-57324927D01*
X105934854Y-57324928D01*
X105889907Y-57397846D01*
X105845885Y-57469262D01*
X105790203Y-57637139D01*
X105779500Y-57741600D01*
X105779500Y-57787500D01*
X105759498Y-57855621D01*
X105705842Y-57902114D01*
X105653500Y-57913500D01*
X104675461Y-57913500D01*
X104607340Y-57893498D01*
X104560847Y-57839842D01*
X104550743Y-57769568D01*
X104555168Y-57752295D01*
X104555151Y-57752291D01*
X104560605Y-57729351D01*
X104566131Y-57678486D01*
X104566500Y-57671672D01*
X104566500Y-57549115D01*
X104562025Y-57533876D01*
X104560635Y-57532671D01*
X104552952Y-57531000D01*
X102043616Y-57531000D01*
X102028377Y-57535475D01*
X102027172Y-57536865D01*
X102025501Y-57544548D01*
X102025501Y-57671669D01*
X102025871Y-57678490D01*
X102031395Y-57729352D01*
X102035021Y-57744604D01*
X102080927Y-57867058D01*
X102086110Y-57937866D01*
X102080927Y-57955518D01*
X102031755Y-58086684D01*
X102025000Y-58148866D01*
X102025000Y-58945134D01*
X102031755Y-59007316D01*
X102034527Y-59014712D01*
X102034529Y-59014718D01*
X102080660Y-59137771D01*
X102085843Y-59208578D01*
X102080660Y-59226229D01*
X102034529Y-59349282D01*
X102034527Y-59349288D01*
X102031755Y-59356684D01*
X102025000Y-59418866D01*
X102025000Y-60215134D01*
X102031755Y-60277316D01*
X102034529Y-60284716D01*
X102036356Y-60292400D01*
X102034684Y-60292797D01*
X102039170Y-60354079D01*
X102005248Y-60416447D01*
X101942993Y-60450576D01*
X101916005Y-60453500D01*
X99251995Y-60453500D01*
X99183874Y-60433498D01*
X99137381Y-60379842D01*
X99127277Y-60309568D01*
X99131673Y-60292407D01*
X99131644Y-60292400D01*
X99133471Y-60284716D01*
X99136245Y-60277316D01*
X99143000Y-60215134D01*
X99143000Y-59418866D01*
X99136245Y-59356684D01*
X99133473Y-59349288D01*
X99133471Y-59349282D01*
X99087340Y-59226229D01*
X99082157Y-59155422D01*
X99087340Y-59137771D01*
X99133471Y-59014718D01*
X99133473Y-59014712D01*
X99136245Y-59007316D01*
X99143000Y-58945134D01*
X99143000Y-58148866D01*
X99136245Y-58086684D01*
X99133473Y-58079288D01*
X99133471Y-58079282D01*
X99087340Y-57956229D01*
X99082157Y-57885422D01*
X99087340Y-57867771D01*
X99133471Y-57744718D01*
X99133473Y-57744712D01*
X99136245Y-57737316D01*
X99143000Y-57675134D01*
X99143000Y-57004885D01*
X102025500Y-57004885D01*
X102029975Y-57020124D01*
X102031365Y-57021329D01*
X102039048Y-57023000D01*
X103023885Y-57023000D01*
X103039124Y-57018525D01*
X103040329Y-57017135D01*
X103042000Y-57009452D01*
X103042000Y-57004885D01*
X103550000Y-57004885D01*
X103554475Y-57020124D01*
X103555865Y-57021329D01*
X103563548Y-57023000D01*
X104548384Y-57023000D01*
X104563623Y-57018525D01*
X104564828Y-57017135D01*
X104566499Y-57009452D01*
X104566499Y-56882331D01*
X104566129Y-56875510D01*
X104560605Y-56824648D01*
X104556979Y-56809396D01*
X104511824Y-56688946D01*
X104503286Y-56673351D01*
X104426785Y-56571276D01*
X104414224Y-56558715D01*
X104312149Y-56482214D01*
X104296554Y-56473676D01*
X104176106Y-56428522D01*
X104160851Y-56424895D01*
X104109986Y-56419369D01*
X104103172Y-56419000D01*
X103568115Y-56419000D01*
X103552876Y-56423475D01*
X103551671Y-56424865D01*
X103550000Y-56432548D01*
X103550000Y-57004885D01*
X103042000Y-57004885D01*
X103042000Y-56437116D01*
X103037525Y-56421877D01*
X103036135Y-56420672D01*
X103028452Y-56419001D01*
X102488831Y-56419001D01*
X102482010Y-56419371D01*
X102431148Y-56424895D01*
X102415896Y-56428521D01*
X102295446Y-56473676D01*
X102279851Y-56482214D01*
X102177776Y-56558715D01*
X102165215Y-56571276D01*
X102088714Y-56673351D01*
X102080176Y-56688946D01*
X102035022Y-56809394D01*
X102031395Y-56824649D01*
X102025869Y-56875514D01*
X102025500Y-56882328D01*
X102025500Y-57004885D01*
X99143000Y-57004885D01*
X99143000Y-56878866D01*
X99136245Y-56816684D01*
X99085115Y-56680295D01*
X98997761Y-56563739D01*
X98983867Y-56553326D01*
X98941352Y-56496467D01*
X98936326Y-56425648D01*
X98970386Y-56363355D01*
X99032717Y-56329365D01*
X99059432Y-56326500D01*
X99476400Y-56326500D01*
X99479646Y-56326163D01*
X99479650Y-56326163D01*
X99575308Y-56316238D01*
X99575312Y-56316237D01*
X99582166Y-56315526D01*
X99588702Y-56313345D01*
X99588704Y-56313345D01*
X99720806Y-56269272D01*
X99749946Y-56259550D01*
X99900348Y-56166478D01*
X99986784Y-56079891D01*
X100049066Y-56045812D01*
X100119886Y-56050815D01*
X100164975Y-56079736D01*
X100184594Y-56099321D01*
X100252697Y-56167305D01*
X100258927Y-56171145D01*
X100258928Y-56171146D01*
X100396090Y-56255694D01*
X100403262Y-56260115D01*
X100453060Y-56276632D01*
X100564611Y-56313632D01*
X100564613Y-56313632D01*
X100571139Y-56315797D01*
X100577975Y-56316497D01*
X100577978Y-56316498D01*
X100621031Y-56320909D01*
X100675600Y-56326500D01*
X101301400Y-56326500D01*
X101304646Y-56326163D01*
X101304650Y-56326163D01*
X101400308Y-56316238D01*
X101400312Y-56316237D01*
X101407166Y-56315526D01*
X101413702Y-56313345D01*
X101413704Y-56313345D01*
X101545806Y-56269272D01*
X101574946Y-56259550D01*
X101725348Y-56166478D01*
X101850305Y-56041303D01*
X101854146Y-56035072D01*
X101939275Y-55896968D01*
X101939276Y-55896966D01*
X101943115Y-55890738D01*
X101972964Y-55800745D01*
X102013394Y-55742384D01*
X102046182Y-55723256D01*
X102053920Y-55720193D01*
X102065142Y-55716351D01*
X102099983Y-55706229D01*
X102099984Y-55706229D01*
X102107593Y-55704018D01*
X102114412Y-55699985D01*
X102114417Y-55699983D01*
X102125028Y-55693707D01*
X102142776Y-55685012D01*
X102161617Y-55677552D01*
X102197387Y-55651564D01*
X102207307Y-55645048D01*
X102238535Y-55626580D01*
X102238538Y-55626578D01*
X102245362Y-55622542D01*
X102259683Y-55608221D01*
X102274717Y-55595380D01*
X102284694Y-55588131D01*
X102291107Y-55583472D01*
X102319298Y-55549395D01*
X102327288Y-55540616D01*
X102328809Y-55539095D01*
X105780001Y-55539095D01*
X105780338Y-55545614D01*
X105790257Y-55641206D01*
X105793149Y-55654600D01*
X105844588Y-55808784D01*
X105850761Y-55821962D01*
X105936063Y-55959807D01*
X105945099Y-55971208D01*
X106059829Y-56085739D01*
X106071240Y-56094751D01*
X106209243Y-56179816D01*
X106222424Y-56185963D01*
X106376710Y-56237138D01*
X106390086Y-56240005D01*
X106484438Y-56249672D01*
X106490854Y-56250000D01*
X106915885Y-56250000D01*
X106931124Y-56245525D01*
X106932329Y-56244135D01*
X106934000Y-56236452D01*
X106934000Y-56231884D01*
X107442000Y-56231884D01*
X107446475Y-56247123D01*
X107447865Y-56248328D01*
X107455548Y-56249999D01*
X107885095Y-56249999D01*
X107891614Y-56249662D01*
X107987206Y-56239743D01*
X108000600Y-56236851D01*
X108154784Y-56185412D01*
X108167962Y-56179239D01*
X108305807Y-56093937D01*
X108317208Y-56084901D01*
X108431739Y-55970171D01*
X108440751Y-55958760D01*
X108470878Y-55909885D01*
X118609000Y-55909885D01*
X118613475Y-55925124D01*
X118614865Y-55926329D01*
X118622548Y-55928000D01*
X119869885Y-55928000D01*
X119885124Y-55923525D01*
X119886329Y-55922135D01*
X119888000Y-55914452D01*
X119888000Y-55909885D01*
X120396000Y-55909885D01*
X120400475Y-55925124D01*
X120401865Y-55926329D01*
X120409548Y-55928000D01*
X121656884Y-55928000D01*
X121672123Y-55923525D01*
X121673328Y-55922135D01*
X121674999Y-55914452D01*
X121674999Y-54137331D01*
X121674629Y-54130510D01*
X121669105Y-54079648D01*
X121665479Y-54064396D01*
X121620324Y-53943946D01*
X121611786Y-53928351D01*
X121535285Y-53826276D01*
X121522724Y-53813715D01*
X121420649Y-53737214D01*
X121405054Y-53728676D01*
X121284606Y-53683522D01*
X121269351Y-53679895D01*
X121218486Y-53674369D01*
X121211672Y-53674000D01*
X120414115Y-53674000D01*
X120398876Y-53678475D01*
X120397671Y-53679865D01*
X120396000Y-53687548D01*
X120396000Y-55909885D01*
X119888000Y-55909885D01*
X119888000Y-53692116D01*
X119883525Y-53676877D01*
X119882135Y-53675672D01*
X119874452Y-53674001D01*
X119072331Y-53674001D01*
X119065510Y-53674371D01*
X119014648Y-53679895D01*
X118999396Y-53683521D01*
X118878946Y-53728676D01*
X118863351Y-53737214D01*
X118761276Y-53813715D01*
X118748715Y-53826276D01*
X118672214Y-53928351D01*
X118663676Y-53943946D01*
X118618522Y-54064394D01*
X118614895Y-54079649D01*
X118609369Y-54130514D01*
X118609000Y-54137328D01*
X118609000Y-55909885D01*
X108470878Y-55909885D01*
X108525816Y-55820757D01*
X108531963Y-55807576D01*
X108583138Y-55653290D01*
X108586005Y-55639914D01*
X108595672Y-55545562D01*
X108596000Y-55539146D01*
X108596000Y-55439115D01*
X108591525Y-55423876D01*
X108590135Y-55422671D01*
X108582452Y-55421000D01*
X107460115Y-55421000D01*
X107444876Y-55425475D01*
X107443671Y-55426865D01*
X107442000Y-55434548D01*
X107442000Y-56231884D01*
X106934000Y-56231884D01*
X106934000Y-55439115D01*
X106929525Y-55423876D01*
X106928135Y-55422671D01*
X106920452Y-55421000D01*
X105798116Y-55421000D01*
X105782877Y-55425475D01*
X105781672Y-55426865D01*
X105780001Y-55434548D01*
X105780001Y-55539095D01*
X102328809Y-55539095D01*
X103603499Y-54264405D01*
X103665811Y-54230379D01*
X103692594Y-54227500D01*
X105800636Y-54227500D01*
X105868757Y-54247502D01*
X105915250Y-54301158D01*
X105925354Y-54371432D01*
X105907896Y-54419616D01*
X105850184Y-54513243D01*
X105844037Y-54526424D01*
X105792862Y-54680710D01*
X105789995Y-54694086D01*
X105780328Y-54788438D01*
X105780000Y-54794855D01*
X105780000Y-54894885D01*
X105784475Y-54910124D01*
X105785865Y-54911329D01*
X105793548Y-54913000D01*
X108577884Y-54913000D01*
X108593123Y-54908525D01*
X108594328Y-54907135D01*
X108595999Y-54899452D01*
X108595999Y-54794905D01*
X108595662Y-54788386D01*
X108585743Y-54692794D01*
X108582851Y-54679400D01*
X108531412Y-54525216D01*
X108525238Y-54512037D01*
X108468162Y-54419803D01*
X108449324Y-54351351D01*
X108470485Y-54283581D01*
X108524926Y-54238010D01*
X108575306Y-54227500D01*
X109679500Y-54227500D01*
X109747621Y-54247502D01*
X109794114Y-54301158D01*
X109805500Y-54353500D01*
X109805500Y-54359400D01*
X109805837Y-54362646D01*
X109805837Y-54362650D01*
X109814673Y-54447804D01*
X109816474Y-54465166D01*
X109818655Y-54471702D01*
X109818655Y-54471704D01*
X109839004Y-54532697D01*
X109872450Y-54632946D01*
X109965522Y-54783348D01*
X110090697Y-54908305D01*
X110096927Y-54912145D01*
X110096928Y-54912146D01*
X110234090Y-54996694D01*
X110241262Y-55001115D01*
X110321005Y-55027564D01*
X110402611Y-55054632D01*
X110402613Y-55054632D01*
X110409139Y-55056797D01*
X110415975Y-55057497D01*
X110415978Y-55057498D01*
X110459031Y-55061909D01*
X110513600Y-55067500D01*
X113514400Y-55067500D01*
X113517646Y-55067163D01*
X113517650Y-55067163D01*
X113613308Y-55057238D01*
X113613312Y-55057237D01*
X113620166Y-55056526D01*
X113626702Y-55054345D01*
X113626704Y-55054345D01*
X113758806Y-55010272D01*
X113787946Y-55000550D01*
X113938348Y-54907478D01*
X114063305Y-54782303D01*
X114117683Y-54694086D01*
X114152275Y-54637968D01*
X114152276Y-54637966D01*
X114156115Y-54631738D01*
X114211797Y-54463861D01*
X114213769Y-54444620D01*
X114220115Y-54382680D01*
X114222500Y-54359400D01*
X114222500Y-53633600D01*
X114220860Y-53617793D01*
X114212238Y-53534692D01*
X114212237Y-53534688D01*
X114211526Y-53527834D01*
X114155550Y-53360054D01*
X114062478Y-53209652D01*
X114015337Y-53162593D01*
X113968706Y-53116043D01*
X113934627Y-53053760D01*
X113939630Y-52982940D01*
X113968629Y-52937775D01*
X116754000Y-50152405D01*
X116816312Y-50118379D01*
X116843095Y-50115500D01*
X118482500Y-50115500D01*
X118550621Y-50135502D01*
X118597114Y-50189158D01*
X118608500Y-50241500D01*
X118608500Y-51530134D01*
X118615255Y-51592316D01*
X118666385Y-51728705D01*
X118753739Y-51845261D01*
X118870295Y-51932615D01*
X119006684Y-51983745D01*
X119068866Y-51990500D01*
X121215134Y-51990500D01*
X121277316Y-51983745D01*
X121413705Y-51932615D01*
X121530261Y-51845261D01*
X121617615Y-51728705D01*
X121668745Y-51592316D01*
X121675500Y-51530134D01*
X121675500Y-50241500D01*
X121695502Y-50173379D01*
X121749158Y-50126886D01*
X121801500Y-50115500D01*
X122827406Y-50115500D01*
X122895527Y-50135502D01*
X122916501Y-50152405D01*
X129120230Y-56356134D01*
X129146634Y-56376615D01*
X129208694Y-56424754D01*
X129208697Y-56424756D01*
X129214959Y-56429613D01*
X129361855Y-56493181D01*
X129369684Y-56494421D01*
X129402940Y-56499688D01*
X129519943Y-56518219D01*
X129529925Y-56517276D01*
X129545732Y-56516779D01*
X129552109Y-56516980D01*
X129559943Y-56518220D01*
X129567835Y-56517474D01*
X129567836Y-56517474D01*
X129603961Y-56514059D01*
X129615819Y-56513500D01*
X130442378Y-56513500D01*
X130510499Y-56533502D01*
X130556992Y-56587158D01*
X130564952Y-56611138D01*
X130565474Y-56616166D01*
X130621450Y-56783946D01*
X130714522Y-56934348D01*
X130839697Y-57059305D01*
X130845927Y-57063145D01*
X130845928Y-57063146D01*
X130983090Y-57147694D01*
X130990262Y-57152115D01*
X131065358Y-57177023D01*
X131151611Y-57205632D01*
X131151613Y-57205632D01*
X131158139Y-57207797D01*
X131164975Y-57208497D01*
X131164978Y-57208498D01*
X131194026Y-57211474D01*
X131262600Y-57218500D01*
X132863400Y-57218500D01*
X132866646Y-57218163D01*
X132866650Y-57218163D01*
X132962308Y-57208238D01*
X132962312Y-57208237D01*
X132969166Y-57207526D01*
X132975702Y-57205345D01*
X132975704Y-57205345D01*
X133107806Y-57161272D01*
X133136946Y-57151550D01*
X133287348Y-57058478D01*
X133312283Y-57033500D01*
X133354161Y-56991549D01*
X133412305Y-56933303D01*
X133479348Y-56824540D01*
X133501275Y-56788968D01*
X133501276Y-56788966D01*
X133505115Y-56782738D01*
X133560797Y-56614861D01*
X133563636Y-56587158D01*
X133569133Y-56533502D01*
X133571500Y-56510400D01*
X133571500Y-55209600D01*
X133560526Y-55103834D01*
X133504550Y-54936054D01*
X133411478Y-54785652D01*
X133286303Y-54660695D01*
X133140220Y-54570647D01*
X133092727Y-54517876D01*
X133081303Y-54447804D01*
X133109577Y-54382680D01*
X133119364Y-54372218D01*
X133229906Y-54266766D01*
X133236941Y-54258814D01*
X133368141Y-54082475D01*
X133373745Y-54073438D01*
X133473357Y-53877516D01*
X133477357Y-53867665D01*
X133542534Y-53657760D01*
X133544817Y-53647376D01*
X133546861Y-53631957D01*
X133544665Y-53617793D01*
X133531478Y-53614000D01*
X130596808Y-53614000D01*
X130583277Y-53617973D01*
X130581752Y-53628580D01*
X130606477Y-53746421D01*
X130609537Y-53756617D01*
X130690263Y-53961029D01*
X130694994Y-53970561D01*
X130809016Y-54158462D01*
X130815280Y-54167052D01*
X130959327Y-54333052D01*
X130966956Y-54340470D01*
X130998569Y-54366391D01*
X131038564Y-54425051D01*
X131040496Y-54496021D01*
X131003752Y-54556770D01*
X130984983Y-54570969D01*
X130838652Y-54661522D01*
X130713695Y-54786697D01*
X130709855Y-54792927D01*
X130709854Y-54792928D01*
X130636869Y-54911332D01*
X130620885Y-54937262D01*
X130618581Y-54944209D01*
X130582051Y-55054345D01*
X130565203Y-55105139D01*
X130564503Y-55111975D01*
X130564502Y-55111978D01*
X130562313Y-55133344D01*
X130535471Y-55199071D01*
X130477356Y-55239852D01*
X130436969Y-55246500D01*
X129854595Y-55246500D01*
X129786474Y-55226498D01*
X129765500Y-55209595D01*
X127643948Y-53088043D01*
X130579139Y-53088043D01*
X130581335Y-53102207D01*
X130594522Y-53106000D01*
X131790885Y-53106000D01*
X131806124Y-53101525D01*
X131807329Y-53100135D01*
X131809000Y-53092452D01*
X131809000Y-53087885D01*
X132317000Y-53087885D01*
X132321475Y-53103124D01*
X132322865Y-53104329D01*
X132330548Y-53106000D01*
X133529192Y-53106000D01*
X133542723Y-53102027D01*
X133544248Y-53091420D01*
X133519523Y-52973579D01*
X133516463Y-52963383D01*
X133435737Y-52758971D01*
X133431006Y-52749439D01*
X133316984Y-52561538D01*
X133310720Y-52552948D01*
X133166673Y-52386948D01*
X133159042Y-52379528D01*
X132989089Y-52240174D01*
X132980322Y-52234150D01*
X132789318Y-52125424D01*
X132779654Y-52120959D01*
X132573059Y-52045969D01*
X132562792Y-52043198D01*
X132345345Y-52003877D01*
X132337116Y-52002944D01*
X132332624Y-52002732D01*
X132319876Y-52006475D01*
X132318671Y-52007865D01*
X132317000Y-52015548D01*
X132317000Y-53087885D01*
X131809000Y-53087885D01*
X131809000Y-52024030D01*
X131804690Y-52009352D01*
X131792807Y-52007289D01*
X131688675Y-52016124D01*
X131678203Y-52017914D01*
X131465465Y-52073130D01*
X131455425Y-52076665D01*
X131255030Y-52166937D01*
X131245744Y-52172106D01*
X131063425Y-52294850D01*
X131055130Y-52301519D01*
X130896100Y-52453228D01*
X130889059Y-52461186D01*
X130757859Y-52637525D01*
X130752255Y-52646562D01*
X130652643Y-52842484D01*
X130648643Y-52852335D01*
X130583466Y-53062240D01*
X130581183Y-53072624D01*
X130579139Y-53088043D01*
X127643948Y-53088043D01*
X123645652Y-49089747D01*
X123638112Y-49081461D01*
X123634000Y-49074982D01*
X123584348Y-49028356D01*
X123581507Y-49025602D01*
X123561770Y-49005865D01*
X123558573Y-49003385D01*
X123549552Y-48995681D01*
X123539084Y-48985851D01*
X123503118Y-48924638D01*
X123505955Y-48853698D01*
X123546695Y-48795554D01*
X123612403Y-48768665D01*
X123625336Y-48768000D01*
X137542683Y-48768000D01*
X137610804Y-48788002D01*
X137657297Y-48841658D01*
X137668681Y-48893315D01*
X137921311Y-95377315D01*
X137901680Y-95445544D01*
X137848277Y-95492327D01*
X137795313Y-95504000D01*
X76834000Y-95504000D01*
X76765879Y-95483998D01*
X76719386Y-95430342D01*
X76708000Y-95378000D01*
X76708000Y-93011400D01*
X90564500Y-93011400D01*
X90575474Y-93117166D01*
X90577655Y-93123702D01*
X90577655Y-93123704D01*
X90621728Y-93255806D01*
X90631450Y-93284946D01*
X90724522Y-93435348D01*
X90849697Y-93560305D01*
X90855927Y-93564145D01*
X90855928Y-93564146D01*
X90993090Y-93648694D01*
X91000262Y-93653115D01*
X91080005Y-93679564D01*
X91161611Y-93706632D01*
X91161613Y-93706632D01*
X91168139Y-93708797D01*
X91174975Y-93709497D01*
X91174978Y-93709498D01*
X91218031Y-93713909D01*
X91272600Y-93719500D01*
X92623400Y-93719500D01*
X92626646Y-93719163D01*
X92626650Y-93719163D01*
X92722308Y-93709238D01*
X92722312Y-93709237D01*
X92729166Y-93708526D01*
X92735702Y-93706345D01*
X92735704Y-93706345D01*
X92876492Y-93659374D01*
X92896946Y-93652550D01*
X93047348Y-93559478D01*
X93172305Y-93434303D01*
X93206711Y-93378486D01*
X93261275Y-93289968D01*
X93261276Y-93289966D01*
X93265115Y-93283738D01*
X93320797Y-93115861D01*
X93331500Y-93011400D01*
X93331500Y-92949726D01*
X93351502Y-92881605D01*
X93368405Y-92860631D01*
X97576631Y-88652405D01*
X97638943Y-88618379D01*
X97665726Y-88615500D01*
X98174634Y-88615500D01*
X98236816Y-88608745D01*
X98373205Y-88557615D01*
X98376342Y-88555264D01*
X98434050Y-88540500D01*
X101717950Y-88540500D01*
X101775658Y-88555264D01*
X101778795Y-88557615D01*
X101915184Y-88608745D01*
X101977366Y-88615500D01*
X103598634Y-88615500D01*
X103660816Y-88608745D01*
X103797205Y-88557615D01*
X103913761Y-88470261D01*
X104001115Y-88353705D01*
X104052245Y-88217316D01*
X104059000Y-88155134D01*
X104059000Y-87945226D01*
X104079002Y-87877105D01*
X104132658Y-87830612D01*
X104202932Y-87820508D01*
X104267512Y-87850002D01*
X104274095Y-87856131D01*
X105275595Y-88857631D01*
X105309621Y-88919943D01*
X105312500Y-88946726D01*
X105312500Y-90695751D01*
X105292498Y-90763872D01*
X105252335Y-90803184D01*
X105132884Y-90876384D01*
X104937369Y-91043369D01*
X104770384Y-91238884D01*
X104636040Y-91458113D01*
X104634147Y-91462683D01*
X104634145Y-91462687D01*
X104539539Y-91691087D01*
X104537645Y-91695660D01*
X104536490Y-91700472D01*
X104481413Y-91929885D01*
X104477622Y-91945674D01*
X104457449Y-92202000D01*
X104477622Y-92458326D01*
X104478776Y-92463133D01*
X104478777Y-92463139D01*
X104516796Y-92621498D01*
X104537645Y-92708340D01*
X104539538Y-92712911D01*
X104539539Y-92712913D01*
X104615361Y-92895963D01*
X104636040Y-92945887D01*
X104770384Y-93165116D01*
X104937369Y-93360631D01*
X105132884Y-93527616D01*
X105352113Y-93661960D01*
X105356683Y-93663853D01*
X105356687Y-93663855D01*
X105585087Y-93758461D01*
X105589660Y-93760355D01*
X105637274Y-93771786D01*
X105834861Y-93819223D01*
X105834867Y-93819224D01*
X105839674Y-93820378D01*
X106096000Y-93840551D01*
X106352326Y-93820378D01*
X106357133Y-93819224D01*
X106357139Y-93819223D01*
X106554726Y-93771786D01*
X106602340Y-93760355D01*
X106606913Y-93758461D01*
X106835313Y-93663855D01*
X106835317Y-93663853D01*
X106839887Y-93661960D01*
X107059116Y-93527616D01*
X107241707Y-93371669D01*
X133063001Y-93371669D01*
X133063371Y-93378490D01*
X133068895Y-93429352D01*
X133072521Y-93444604D01*
X133117676Y-93565054D01*
X133126214Y-93580649D01*
X133202715Y-93682724D01*
X133215276Y-93695285D01*
X133317351Y-93771786D01*
X133332946Y-93780324D01*
X133453394Y-93825478D01*
X133468649Y-93829105D01*
X133519514Y-93834631D01*
X133526328Y-93835000D01*
X134423885Y-93835000D01*
X134439124Y-93830525D01*
X134440329Y-93829135D01*
X134442000Y-93821452D01*
X134442000Y-93816884D01*
X134950000Y-93816884D01*
X134954475Y-93832123D01*
X134955865Y-93833328D01*
X134963548Y-93834999D01*
X135865669Y-93834999D01*
X135872490Y-93834629D01*
X135923352Y-93829105D01*
X135938604Y-93825479D01*
X136059054Y-93780324D01*
X136074649Y-93771786D01*
X136176724Y-93695285D01*
X136189285Y-93682724D01*
X136265786Y-93580649D01*
X136274324Y-93565054D01*
X136319478Y-93444606D01*
X136323105Y-93429351D01*
X136328631Y-93378486D01*
X136329000Y-93371672D01*
X136329000Y-92474115D01*
X136324525Y-92458876D01*
X136323135Y-92457671D01*
X136315452Y-92456000D01*
X134968115Y-92456000D01*
X134952876Y-92460475D01*
X134951671Y-92461865D01*
X134950000Y-92469548D01*
X134950000Y-93816884D01*
X134442000Y-93816884D01*
X134442000Y-92474115D01*
X134437525Y-92458876D01*
X134436135Y-92457671D01*
X134428452Y-92456000D01*
X133081116Y-92456000D01*
X133065877Y-92460475D01*
X133064672Y-92461865D01*
X133063001Y-92469548D01*
X133063001Y-93371669D01*
X107241707Y-93371669D01*
X107254631Y-93360631D01*
X107421616Y-93165116D01*
X107494816Y-93045665D01*
X107547464Y-92998034D01*
X107602249Y-92985500D01*
X109062499Y-92985500D01*
X109063820Y-92985507D01*
X109151178Y-92986422D01*
X109158063Y-92984933D01*
X109158066Y-92984933D01*
X109192045Y-92977586D01*
X109204628Y-92975525D01*
X109213115Y-92974573D01*
X109246182Y-92970864D01*
X109252837Y-92968546D01*
X109252843Y-92968545D01*
X109276646Y-92960256D01*
X109291455Y-92956093D01*
X109316101Y-92950764D01*
X109316105Y-92950763D01*
X109322986Y-92949275D01*
X109360895Y-92931598D01*
X109372671Y-92926816D01*
X109412181Y-92913057D01*
X109439539Y-92895962D01*
X109453056Y-92888623D01*
X109475915Y-92877964D01*
X109475918Y-92877962D01*
X109482294Y-92874989D01*
X109500805Y-92860631D01*
X109515335Y-92849360D01*
X109525783Y-92842071D01*
X109561249Y-92819909D01*
X109589172Y-92792181D01*
X109589764Y-92791627D01*
X109590413Y-92791123D01*
X109615565Y-92765971D01*
X109685975Y-92696051D01*
X109686616Y-92695041D01*
X109687674Y-92693862D01*
X110451651Y-91929885D01*
X133063000Y-91929885D01*
X133067475Y-91945124D01*
X133068865Y-91946329D01*
X133076548Y-91948000D01*
X134423885Y-91948000D01*
X134439124Y-91943525D01*
X134440329Y-91942135D01*
X134442000Y-91934452D01*
X134442000Y-91929885D01*
X134950000Y-91929885D01*
X134954475Y-91945124D01*
X134955865Y-91946329D01*
X134963548Y-91948000D01*
X136310884Y-91948000D01*
X136326123Y-91943525D01*
X136327328Y-91942135D01*
X136328999Y-91934452D01*
X136328999Y-91032331D01*
X136328629Y-91025510D01*
X136323105Y-90974648D01*
X136319479Y-90959396D01*
X136274324Y-90838946D01*
X136265786Y-90823351D01*
X136189285Y-90721276D01*
X136176724Y-90708715D01*
X136074649Y-90632214D01*
X136059054Y-90623676D01*
X135938606Y-90578522D01*
X135923351Y-90574895D01*
X135872486Y-90569369D01*
X135865672Y-90569000D01*
X134968115Y-90569000D01*
X134952876Y-90573475D01*
X134951671Y-90574865D01*
X134950000Y-90582548D01*
X134950000Y-91929885D01*
X134442000Y-91929885D01*
X134442000Y-90587116D01*
X134437525Y-90571877D01*
X134436135Y-90570672D01*
X134428452Y-90569001D01*
X133526331Y-90569001D01*
X133519510Y-90569371D01*
X133468648Y-90574895D01*
X133453396Y-90578521D01*
X133332946Y-90623676D01*
X133317351Y-90632214D01*
X133215276Y-90708715D01*
X133202715Y-90721276D01*
X133126214Y-90823351D01*
X133117676Y-90838946D01*
X133072522Y-90959394D01*
X133068895Y-90974649D01*
X133063369Y-91025514D01*
X133063000Y-91032328D01*
X133063000Y-91929885D01*
X110451651Y-91929885D01*
X113538131Y-88843405D01*
X113600443Y-88809379D01*
X113627226Y-88806500D01*
X115038400Y-88806500D01*
X115041646Y-88806163D01*
X115041650Y-88806163D01*
X115137308Y-88796238D01*
X115137312Y-88796237D01*
X115144166Y-88795526D01*
X115150702Y-88793345D01*
X115150704Y-88793345D01*
X115304998Y-88741868D01*
X115311946Y-88739550D01*
X115462348Y-88646478D01*
X115587305Y-88521303D01*
X115655605Y-88410500D01*
X115676275Y-88376968D01*
X115676276Y-88376966D01*
X115680115Y-88370738D01*
X115725811Y-88232968D01*
X115733632Y-88209389D01*
X115733632Y-88209387D01*
X115735797Y-88202861D01*
X115746500Y-88098400D01*
X115746500Y-87372600D01*
X115740050Y-87310434D01*
X115736238Y-87273692D01*
X115736237Y-87273688D01*
X115735526Y-87266834D01*
X115709950Y-87190172D01*
X115685554Y-87117049D01*
X119850001Y-87117049D01*
X119850371Y-87123870D01*
X119855895Y-87174732D01*
X119859521Y-87189984D01*
X119904676Y-87310434D01*
X119913214Y-87326029D01*
X119989715Y-87428104D01*
X120002276Y-87440665D01*
X120104351Y-87517166D01*
X120119946Y-87525704D01*
X120240394Y-87570858D01*
X120255649Y-87574485D01*
X120306514Y-87580011D01*
X120313328Y-87580380D01*
X120885885Y-87580380D01*
X120901124Y-87575905D01*
X120902329Y-87574515D01*
X120904000Y-87566832D01*
X120904000Y-87562264D01*
X121412000Y-87562264D01*
X121416475Y-87577503D01*
X121417865Y-87578708D01*
X121425548Y-87580379D01*
X122002669Y-87580379D01*
X122009490Y-87580009D01*
X122060352Y-87574485D01*
X122075604Y-87570859D01*
X122196054Y-87525704D01*
X122211649Y-87517166D01*
X122313724Y-87440665D01*
X122326285Y-87428104D01*
X122402786Y-87326029D01*
X122411324Y-87310434D01*
X122456478Y-87189986D01*
X122460105Y-87174731D01*
X122465631Y-87123866D01*
X122466000Y-87117052D01*
X122466000Y-86544495D01*
X122461525Y-86529256D01*
X122460135Y-86528051D01*
X122452452Y-86526380D01*
X121430115Y-86526380D01*
X121414876Y-86530855D01*
X121413671Y-86532245D01*
X121412000Y-86539928D01*
X121412000Y-87562264D01*
X120904000Y-87562264D01*
X120904000Y-86544495D01*
X120899525Y-86529256D01*
X120898135Y-86528051D01*
X120890452Y-86526380D01*
X119868116Y-86526380D01*
X119852877Y-86530855D01*
X119851672Y-86532245D01*
X119850001Y-86539928D01*
X119850001Y-87117049D01*
X115685554Y-87117049D01*
X115681868Y-87106002D01*
X115679550Y-87099054D01*
X115586478Y-86948652D01*
X115461303Y-86823695D01*
X115361493Y-86762171D01*
X115316968Y-86734725D01*
X115316966Y-86734724D01*
X115310738Y-86730885D01*
X115222515Y-86701623D01*
X115149389Y-86677368D01*
X115149387Y-86677368D01*
X115142861Y-86675203D01*
X115136025Y-86674503D01*
X115136022Y-86674502D01*
X115092969Y-86670091D01*
X115038400Y-86664500D01*
X112037600Y-86664500D01*
X112034354Y-86664837D01*
X112034350Y-86664837D01*
X111938692Y-86674762D01*
X111938688Y-86674763D01*
X111931834Y-86675474D01*
X111925298Y-86677655D01*
X111925296Y-86677655D01*
X111903275Y-86685002D01*
X111764054Y-86731450D01*
X111613652Y-86824522D01*
X111488695Y-86949697D01*
X111484855Y-86955927D01*
X111484854Y-86955928D01*
X111409749Y-87077771D01*
X111395885Y-87100262D01*
X111340203Y-87268139D01*
X111329500Y-87372600D01*
X111329500Y-88098400D01*
X111329837Y-88101646D01*
X111329837Y-88101650D01*
X111335387Y-88155134D01*
X111340474Y-88204166D01*
X111342655Y-88210702D01*
X111342655Y-88210704D01*
X111350083Y-88232968D01*
X111396450Y-88371946D01*
X111489395Y-88522142D01*
X111489395Y-88522143D01*
X111489522Y-88522348D01*
X111489487Y-88522370D01*
X111514943Y-88585254D01*
X111501775Y-88655018D01*
X111478656Y-88686808D01*
X108783869Y-91381595D01*
X108721557Y-91415621D01*
X108694774Y-91418500D01*
X107602249Y-91418500D01*
X107534128Y-91398498D01*
X107494816Y-91358335D01*
X107424200Y-91243101D01*
X107421616Y-91238884D01*
X107254631Y-91043369D01*
X107059116Y-90876384D01*
X106939665Y-90803184D01*
X106892034Y-90750536D01*
X106879500Y-90695751D01*
X106879500Y-88579001D01*
X106879507Y-88577681D01*
X106880422Y-88490322D01*
X106882155Y-88490340D01*
X106893538Y-88429297D01*
X106942220Y-88377619D01*
X107011113Y-88360465D01*
X107045543Y-88366763D01*
X107145139Y-88399797D01*
X107151975Y-88400497D01*
X107151978Y-88400498D01*
X107195031Y-88404909D01*
X107249600Y-88410500D01*
X108650400Y-88410500D01*
X108653646Y-88410163D01*
X108653650Y-88410163D01*
X108749308Y-88400238D01*
X108749312Y-88400237D01*
X108756166Y-88399526D01*
X108762702Y-88397345D01*
X108762704Y-88397345D01*
X108916998Y-88345868D01*
X108923946Y-88343550D01*
X109074348Y-88250478D01*
X109199305Y-88125303D01*
X109292115Y-87974738D01*
X109347797Y-87806861D01*
X109358500Y-87702400D01*
X109358500Y-86951600D01*
X109357765Y-86944517D01*
X109348238Y-86852692D01*
X109348237Y-86852688D01*
X109347526Y-86845834D01*
X109338859Y-86819854D01*
X109293868Y-86685002D01*
X109291550Y-86678054D01*
X109198478Y-86527652D01*
X109073303Y-86402695D01*
X109067072Y-86398854D01*
X108928968Y-86313725D01*
X108928966Y-86313724D01*
X108922738Y-86309885D01*
X108842995Y-86283436D01*
X108761389Y-86256368D01*
X108761387Y-86256368D01*
X108754861Y-86254203D01*
X108748025Y-86253503D01*
X108748022Y-86253502D01*
X108704969Y-86249091D01*
X108650400Y-86243500D01*
X108026726Y-86243500D01*
X107958605Y-86223498D01*
X107937631Y-86206595D01*
X107406131Y-85675095D01*
X107372105Y-85612783D01*
X107377170Y-85541968D01*
X107419717Y-85485132D01*
X107486237Y-85460321D01*
X107495226Y-85460000D01*
X107677885Y-85460000D01*
X107693124Y-85455525D01*
X107694329Y-85454135D01*
X107696000Y-85446452D01*
X107696000Y-85441884D01*
X108204000Y-85441884D01*
X108208475Y-85457123D01*
X108209865Y-85458328D01*
X108217548Y-85459999D01*
X108647095Y-85459999D01*
X108653614Y-85459662D01*
X108749206Y-85449743D01*
X108762600Y-85446851D01*
X108916784Y-85395412D01*
X108929962Y-85389239D01*
X109067807Y-85303937D01*
X109079208Y-85294901D01*
X109193739Y-85180171D01*
X109202751Y-85168760D01*
X109287816Y-85030757D01*
X109293963Y-85017576D01*
X109345138Y-84863290D01*
X109348005Y-84849914D01*
X109357672Y-84755562D01*
X109358000Y-84749145D01*
X109358000Y-84649115D01*
X109353525Y-84633876D01*
X109352135Y-84632671D01*
X109344452Y-84631000D01*
X108222115Y-84631000D01*
X108206876Y-84635475D01*
X108205671Y-84636865D01*
X108204000Y-84644548D01*
X108204000Y-85441884D01*
X107696000Y-85441884D01*
X107696000Y-84649115D01*
X107691525Y-84633876D01*
X107690135Y-84632671D01*
X107682452Y-84631000D01*
X106560116Y-84631000D01*
X106535865Y-84638121D01*
X106491301Y-84666760D01*
X106420305Y-84666760D01*
X106365780Y-84634021D01*
X106338329Y-84605989D01*
X106332407Y-84602172D01*
X106332404Y-84602170D01*
X106303178Y-84583335D01*
X106292839Y-84575907D01*
X106260150Y-84549812D01*
X106253808Y-84546746D01*
X106253803Y-84546743D01*
X106231110Y-84535773D01*
X106217698Y-84528247D01*
X106196500Y-84514586D01*
X106196495Y-84514584D01*
X106190576Y-84510769D01*
X106151281Y-84496467D01*
X106139537Y-84491506D01*
X106108244Y-84476378D01*
X106108242Y-84476377D01*
X106101895Y-84473309D01*
X106070456Y-84466051D01*
X106055720Y-84461685D01*
X106032020Y-84453059D01*
X106032016Y-84453058D01*
X106025400Y-84450650D01*
X106018414Y-84449767D01*
X106018412Y-84449767D01*
X105983921Y-84445410D01*
X105971369Y-84443175D01*
X105964130Y-84441504D01*
X105930623Y-84433768D01*
X105923583Y-84433743D01*
X105923580Y-84433743D01*
X105891296Y-84433630D01*
X105890459Y-84433602D01*
X105889646Y-84433500D01*
X105854054Y-84433500D01*
X105853614Y-84433499D01*
X105847859Y-84433479D01*
X105754847Y-84433154D01*
X105753679Y-84433415D01*
X105752111Y-84433500D01*
X104184500Y-84433500D01*
X104116379Y-84413498D01*
X104069886Y-84359842D01*
X104058500Y-84307500D01*
X104058500Y-84219115D01*
X104054025Y-84203876D01*
X104052635Y-84202671D01*
X104044952Y-84201000D01*
X101535616Y-84201000D01*
X101520377Y-84205475D01*
X101519172Y-84206865D01*
X101517501Y-84214548D01*
X101517501Y-84341669D01*
X101517871Y-84348490D01*
X101523395Y-84399352D01*
X101527021Y-84414604D01*
X101572927Y-84537058D01*
X101578110Y-84607866D01*
X101572927Y-84625518D01*
X101523755Y-84756684D01*
X101517000Y-84818866D01*
X101517000Y-85615134D01*
X101523755Y-85677316D01*
X101526527Y-85684712D01*
X101526529Y-85684718D01*
X101572660Y-85807771D01*
X101577843Y-85878578D01*
X101572660Y-85896229D01*
X101526529Y-86019282D01*
X101526527Y-86019288D01*
X101523755Y-86026684D01*
X101517000Y-86088866D01*
X101517000Y-86847500D01*
X101496998Y-86915621D01*
X101443342Y-86962114D01*
X101391000Y-86973500D01*
X98761000Y-86973500D01*
X98692879Y-86953498D01*
X98646386Y-86899842D01*
X98635000Y-86847500D01*
X98635000Y-86088866D01*
X98628245Y-86026684D01*
X98625473Y-86019288D01*
X98625471Y-86019282D01*
X98579340Y-85896229D01*
X98574157Y-85825422D01*
X98579340Y-85807771D01*
X98625471Y-85684718D01*
X98625473Y-85684712D01*
X98628245Y-85677316D01*
X98635000Y-85615134D01*
X98635000Y-84818866D01*
X98628245Y-84756684D01*
X98625473Y-84749288D01*
X98625471Y-84749282D01*
X98579340Y-84626229D01*
X98574157Y-84555422D01*
X98579340Y-84537771D01*
X98625471Y-84414718D01*
X98625473Y-84414712D01*
X98628245Y-84407316D01*
X98635000Y-84345134D01*
X98635000Y-84104885D01*
X106542000Y-84104885D01*
X106546475Y-84120124D01*
X106547865Y-84121329D01*
X106555548Y-84123000D01*
X107677885Y-84123000D01*
X107693124Y-84118525D01*
X107694329Y-84117135D01*
X107696000Y-84109452D01*
X107696000Y-84104885D01*
X108204000Y-84104885D01*
X108208475Y-84120124D01*
X108209865Y-84121329D01*
X108217548Y-84123000D01*
X109339884Y-84123000D01*
X109355123Y-84118525D01*
X109356328Y-84117135D01*
X109357999Y-84109452D01*
X109357999Y-84004905D01*
X109357662Y-83998386D01*
X109347743Y-83902794D01*
X109344851Y-83889400D01*
X109293412Y-83735216D01*
X109287239Y-83722038D01*
X109201937Y-83584193D01*
X109192901Y-83572792D01*
X109078171Y-83458261D01*
X109066760Y-83449249D01*
X108928757Y-83364184D01*
X108915576Y-83358037D01*
X108761290Y-83306862D01*
X108747914Y-83303995D01*
X108653562Y-83294328D01*
X108647145Y-83294000D01*
X108222115Y-83294000D01*
X108206876Y-83298475D01*
X108205671Y-83299865D01*
X108204000Y-83307548D01*
X108204000Y-84104885D01*
X107696000Y-84104885D01*
X107696000Y-83312116D01*
X107691525Y-83296877D01*
X107690135Y-83295672D01*
X107682452Y-83294001D01*
X107252905Y-83294001D01*
X107246386Y-83294338D01*
X107150794Y-83304257D01*
X107137400Y-83307149D01*
X106983216Y-83358588D01*
X106970038Y-83364761D01*
X106832193Y-83450063D01*
X106820792Y-83459099D01*
X106706261Y-83573829D01*
X106697249Y-83585240D01*
X106612184Y-83723243D01*
X106606037Y-83736424D01*
X106554862Y-83890710D01*
X106551995Y-83904086D01*
X106542328Y-83998438D01*
X106542000Y-84004855D01*
X106542000Y-84104885D01*
X98635000Y-84104885D01*
X98635000Y-83548866D01*
X98628245Y-83486684D01*
X98577115Y-83350295D01*
X98571729Y-83343109D01*
X98567421Y-83335240D01*
X98568848Y-83334459D01*
X98547578Y-83277538D01*
X98562628Y-83208155D01*
X98584157Y-83179379D01*
X98809131Y-82954405D01*
X98871443Y-82920379D01*
X98898226Y-82917500D01*
X99484400Y-82917500D01*
X99487646Y-82917163D01*
X99487650Y-82917163D01*
X99583308Y-82907238D01*
X99583312Y-82907237D01*
X99590166Y-82906526D01*
X99596702Y-82904345D01*
X99596704Y-82904345D01*
X99728806Y-82860272D01*
X99757946Y-82850550D01*
X99908348Y-82757478D01*
X100033305Y-82632303D01*
X100070781Y-82571506D01*
X100122275Y-82487968D01*
X100122276Y-82487966D01*
X100126115Y-82481738D01*
X100163343Y-82369498D01*
X100179632Y-82320389D01*
X100179632Y-82320387D01*
X100181797Y-82313861D01*
X100192500Y-82209400D01*
X100975500Y-82209400D01*
X100975837Y-82212646D01*
X100975837Y-82212650D01*
X100984640Y-82297487D01*
X100986474Y-82315166D01*
X100988655Y-82321702D01*
X100988655Y-82321704D01*
X101011274Y-82389500D01*
X101042450Y-82482946D01*
X101135522Y-82633348D01*
X101260697Y-82758305D01*
X101266927Y-82762145D01*
X101266928Y-82762146D01*
X101404090Y-82846694D01*
X101411262Y-82851115D01*
X101491005Y-82877564D01*
X101572611Y-82904632D01*
X101572613Y-82904632D01*
X101579139Y-82906797D01*
X101585975Y-82907497D01*
X101585978Y-82907498D01*
X101629031Y-82911909D01*
X101683600Y-82917500D01*
X101708043Y-82917500D01*
X101776164Y-82937502D01*
X101822657Y-82991158D01*
X101832761Y-83061432D01*
X101803267Y-83126012D01*
X101778445Y-83146037D01*
X101779038Y-83146828D01*
X101669776Y-83228715D01*
X101657215Y-83241276D01*
X101580714Y-83343351D01*
X101572176Y-83358946D01*
X101527022Y-83479394D01*
X101523395Y-83494649D01*
X101517869Y-83545514D01*
X101517500Y-83552328D01*
X101517500Y-83674885D01*
X101521975Y-83690124D01*
X101523365Y-83691329D01*
X101531048Y-83693000D01*
X102515885Y-83693000D01*
X102531124Y-83688525D01*
X102532329Y-83687135D01*
X102534000Y-83679452D01*
X102534000Y-83674885D01*
X103042000Y-83674885D01*
X103046475Y-83690124D01*
X103047865Y-83691329D01*
X103055548Y-83693000D01*
X104040384Y-83693000D01*
X104055623Y-83688525D01*
X104056828Y-83687135D01*
X104058499Y-83679452D01*
X104058499Y-83552331D01*
X104058129Y-83545510D01*
X104052605Y-83494648D01*
X104048979Y-83479396D01*
X104003824Y-83358946D01*
X103995286Y-83343351D01*
X103918785Y-83241276D01*
X103906224Y-83228715D01*
X103804149Y-83152214D01*
X103788554Y-83143676D01*
X103668106Y-83098522D01*
X103652851Y-83094895D01*
X103601986Y-83089369D01*
X103595172Y-83089000D01*
X103060115Y-83089000D01*
X103044876Y-83093475D01*
X103043671Y-83094865D01*
X103042000Y-83102548D01*
X103042000Y-83674885D01*
X102534000Y-83674885D01*
X102534000Y-83107116D01*
X102526300Y-83080893D01*
X102499792Y-83039644D01*
X102499794Y-82968647D01*
X102538178Y-82908922D01*
X102580811Y-82884625D01*
X102682946Y-82850550D01*
X102833348Y-82757478D01*
X102958305Y-82632303D01*
X102995781Y-82571506D01*
X103047275Y-82487968D01*
X103047276Y-82487966D01*
X103051115Y-82481738D01*
X103076955Y-82403833D01*
X103117386Y-82345473D01*
X103182950Y-82318236D01*
X103196548Y-82317500D01*
X103305462Y-82317500D01*
X103373583Y-82337502D01*
X103420076Y-82391158D01*
X103424986Y-82403624D01*
X103451450Y-82482946D01*
X103544522Y-82633348D01*
X103669697Y-82758305D01*
X103675927Y-82762145D01*
X103675928Y-82762146D01*
X103813090Y-82846694D01*
X103820262Y-82851115D01*
X103900005Y-82877564D01*
X103981611Y-82904632D01*
X103981613Y-82904632D01*
X103988139Y-82906797D01*
X103994975Y-82907497D01*
X103994978Y-82907498D01*
X104038031Y-82911909D01*
X104092600Y-82917500D01*
X104818400Y-82917500D01*
X104821646Y-82917163D01*
X104821650Y-82917163D01*
X104917308Y-82907238D01*
X104917312Y-82907237D01*
X104924166Y-82906526D01*
X104930702Y-82904345D01*
X104930704Y-82904345D01*
X105062806Y-82860272D01*
X105091946Y-82850550D01*
X105242348Y-82757478D01*
X105367305Y-82632303D01*
X105404781Y-82571506D01*
X105456275Y-82487968D01*
X105456276Y-82487966D01*
X105460115Y-82481738D01*
X105497343Y-82369498D01*
X105513632Y-82320389D01*
X105513632Y-82320387D01*
X105515797Y-82313861D01*
X105526500Y-82209400D01*
X106309500Y-82209400D01*
X106309837Y-82212646D01*
X106309837Y-82212650D01*
X106318640Y-82297487D01*
X106320474Y-82315166D01*
X106322655Y-82321702D01*
X106322655Y-82321704D01*
X106345274Y-82389500D01*
X106376450Y-82482946D01*
X106469522Y-82633348D01*
X106594697Y-82758305D01*
X106600927Y-82762145D01*
X106600928Y-82762146D01*
X106738090Y-82846694D01*
X106745262Y-82851115D01*
X106825005Y-82877564D01*
X106906611Y-82904632D01*
X106906613Y-82904632D01*
X106913139Y-82906797D01*
X106919975Y-82907497D01*
X106919978Y-82907498D01*
X106963031Y-82911909D01*
X107017600Y-82917500D01*
X107743400Y-82917500D01*
X107746646Y-82917163D01*
X107746650Y-82917163D01*
X107842308Y-82907238D01*
X107842312Y-82907237D01*
X107849166Y-82906526D01*
X107855702Y-82904345D01*
X107855704Y-82904345D01*
X107987806Y-82860272D01*
X108016946Y-82850550D01*
X108167348Y-82757478D01*
X108292305Y-82632303D01*
X108329781Y-82571506D01*
X108381275Y-82487968D01*
X108381276Y-82487966D01*
X108385115Y-82481738D01*
X108410955Y-82403833D01*
X108451386Y-82345473D01*
X108516950Y-82318236D01*
X108530548Y-82317500D01*
X111234774Y-82317500D01*
X111302895Y-82337502D01*
X111323869Y-82354405D01*
X111478658Y-82509194D01*
X111512684Y-82571506D01*
X111507619Y-82642321D01*
X111490295Y-82673095D01*
X111488695Y-82674697D01*
X111484858Y-82680922D01*
X111484857Y-82680923D01*
X111402529Y-82814484D01*
X111395885Y-82825262D01*
X111387310Y-82851115D01*
X111348327Y-82968647D01*
X111340203Y-82993139D01*
X111339503Y-82999975D01*
X111339502Y-82999978D01*
X111336246Y-83031758D01*
X111329500Y-83097600D01*
X111329500Y-83823400D01*
X111329837Y-83826646D01*
X111329837Y-83826650D01*
X111337872Y-83904086D01*
X111340474Y-83929166D01*
X111342655Y-83935702D01*
X111342655Y-83935704D01*
X111382768Y-84055937D01*
X111396450Y-84096946D01*
X111489522Y-84247348D01*
X111614697Y-84372305D01*
X111620927Y-84376145D01*
X111620928Y-84376146D01*
X111747427Y-84454121D01*
X111765262Y-84465115D01*
X111799219Y-84476378D01*
X111926611Y-84518632D01*
X111926613Y-84518632D01*
X111933139Y-84520797D01*
X111939975Y-84521497D01*
X111939978Y-84521498D01*
X111983031Y-84525909D01*
X112037600Y-84531500D01*
X113622910Y-84531500D01*
X113652536Y-84535033D01*
X113657865Y-84536322D01*
X113664480Y-84538730D01*
X113671464Y-84539612D01*
X113671467Y-84539613D01*
X113727853Y-84546736D01*
X113800234Y-84555880D01*
X120043638Y-84555880D01*
X120111759Y-84575882D01*
X120146852Y-84609611D01*
X120151802Y-84616680D01*
X120297922Y-84762800D01*
X120331948Y-84825112D01*
X120326883Y-84895927D01*
X120284336Y-84952763D01*
X120247394Y-84970063D01*
X120247793Y-84971128D01*
X120119946Y-85019056D01*
X120104351Y-85027594D01*
X120002276Y-85104095D01*
X119989715Y-85116656D01*
X119913214Y-85218731D01*
X119904676Y-85234326D01*
X119859522Y-85354774D01*
X119855895Y-85370029D01*
X119850369Y-85420894D01*
X119850000Y-85427708D01*
X119850000Y-86000265D01*
X119854475Y-86015504D01*
X119855865Y-86016709D01*
X119863548Y-86018380D01*
X122447884Y-86018380D01*
X122463123Y-86013905D01*
X122464328Y-86012515D01*
X122465999Y-86004832D01*
X122465999Y-85427711D01*
X122465629Y-85420890D01*
X122460105Y-85370028D01*
X122456479Y-85354776D01*
X122411324Y-85234326D01*
X122402786Y-85218731D01*
X122326285Y-85116656D01*
X122313724Y-85104095D01*
X122211649Y-85027594D01*
X122196054Y-85019056D01*
X122068207Y-84971128D01*
X122068904Y-84969268D01*
X122016372Y-84939249D01*
X121983558Y-84876290D01*
X121989992Y-84805586D01*
X122018079Y-84762799D01*
X122164198Y-84616680D01*
X122169148Y-84609611D01*
X122170227Y-84608749D01*
X122170892Y-84607956D01*
X122171051Y-84608090D01*
X122224604Y-84565282D01*
X122272362Y-84555880D01*
X126578654Y-84555880D01*
X126646775Y-84575882D01*
X126667749Y-84592785D01*
X128454581Y-86379617D01*
X128455510Y-86380555D01*
X128516671Y-86443011D01*
X128522593Y-86446828D01*
X128522596Y-86446830D01*
X128551822Y-86465665D01*
X128562161Y-86473093D01*
X128594850Y-86499188D01*
X128601192Y-86502254D01*
X128601197Y-86502257D01*
X128623890Y-86513227D01*
X128637302Y-86520753D01*
X128658500Y-86534414D01*
X128658505Y-86534416D01*
X128664424Y-86538231D01*
X128703719Y-86552533D01*
X128715463Y-86557494D01*
X128746760Y-86572624D01*
X128746763Y-86572625D01*
X128753105Y-86575691D01*
X128759966Y-86577275D01*
X128759969Y-86577276D01*
X128784539Y-86582948D01*
X128799282Y-86587315D01*
X128829600Y-86598350D01*
X128836590Y-86599233D01*
X128871089Y-86603591D01*
X128883644Y-86605828D01*
X128924378Y-86615233D01*
X128931424Y-86615258D01*
X128931427Y-86615258D01*
X128963721Y-86615371D01*
X128964547Y-86615398D01*
X128965354Y-86615500D01*
X129000660Y-86615500D01*
X129001100Y-86615501D01*
X129096710Y-86615835D01*
X129100153Y-86615847D01*
X129101324Y-86615585D01*
X129102897Y-86615500D01*
X130229803Y-86615500D01*
X130297924Y-86635502D01*
X130344417Y-86689158D01*
X130349326Y-86701623D01*
X130367450Y-86755946D01*
X130371301Y-86762170D01*
X130371302Y-86762171D01*
X130445280Y-86881717D01*
X130460522Y-86906348D01*
X130585697Y-87031305D01*
X130591927Y-87035145D01*
X130591928Y-87035146D01*
X130729090Y-87119694D01*
X130736262Y-87124115D01*
X130810016Y-87148578D01*
X130897611Y-87177632D01*
X130897613Y-87177632D01*
X130904139Y-87179797D01*
X130910975Y-87180497D01*
X130910978Y-87180498D01*
X130954031Y-87184909D01*
X131008600Y-87190500D01*
X132609400Y-87190500D01*
X132612646Y-87190163D01*
X132612650Y-87190163D01*
X132708308Y-87180238D01*
X132708312Y-87180237D01*
X132715166Y-87179526D01*
X132721702Y-87177345D01*
X132721704Y-87177345D01*
X132853806Y-87133272D01*
X132882946Y-87123550D01*
X133033348Y-87030478D01*
X133158305Y-86905303D01*
X133162146Y-86899072D01*
X133247275Y-86760968D01*
X133247276Y-86760966D01*
X133251115Y-86754738D01*
X133281045Y-86664500D01*
X133304632Y-86593389D01*
X133304632Y-86593387D01*
X133306797Y-86586861D01*
X133307942Y-86575691D01*
X133312823Y-86528051D01*
X133317500Y-86482400D01*
X133317500Y-85181600D01*
X133310762Y-85116656D01*
X133307238Y-85082692D01*
X133307237Y-85082688D01*
X133306526Y-85075834D01*
X133303220Y-85065923D01*
X133252868Y-84915002D01*
X133250550Y-84908054D01*
X133157478Y-84757652D01*
X133032303Y-84632695D01*
X132992387Y-84608090D01*
X132922939Y-84565282D01*
X132886220Y-84542647D01*
X132838727Y-84489876D01*
X132827303Y-84419804D01*
X132855577Y-84354680D01*
X132865364Y-84344218D01*
X132975906Y-84238766D01*
X132982941Y-84230814D01*
X133114141Y-84054475D01*
X133119745Y-84045438D01*
X133219357Y-83849516D01*
X133223357Y-83839665D01*
X133288534Y-83629760D01*
X133290817Y-83619376D01*
X133292861Y-83603957D01*
X133290665Y-83589793D01*
X133277478Y-83586000D01*
X130342808Y-83586000D01*
X130329277Y-83589973D01*
X130327752Y-83600580D01*
X130352477Y-83718421D01*
X130355537Y-83728617D01*
X130436263Y-83933029D01*
X130440994Y-83942561D01*
X130555016Y-84130462D01*
X130561280Y-84139052D01*
X130705327Y-84305052D01*
X130712956Y-84312470D01*
X130744569Y-84338391D01*
X130784564Y-84397051D01*
X130786496Y-84468021D01*
X130749752Y-84528770D01*
X130730983Y-84542969D01*
X130584652Y-84633522D01*
X130459695Y-84758697D01*
X130455855Y-84764927D01*
X130455854Y-84764928D01*
X130395223Y-84863290D01*
X130366885Y-84909262D01*
X130349337Y-84962168D01*
X130308906Y-85020527D01*
X130243342Y-85047764D01*
X130229744Y-85048500D01*
X129391727Y-85048500D01*
X129323606Y-85028498D01*
X129302632Y-85011595D01*
X127515799Y-83224763D01*
X127514870Y-83223825D01*
X127499525Y-83208155D01*
X127453709Y-83161369D01*
X127447787Y-83157552D01*
X127447784Y-83157550D01*
X127418558Y-83138715D01*
X127408219Y-83131287D01*
X127375530Y-83105192D01*
X127369188Y-83102126D01*
X127369183Y-83102123D01*
X127346490Y-83091153D01*
X127333078Y-83083627D01*
X127311880Y-83069966D01*
X127311875Y-83069964D01*
X127305956Y-83066149D01*
X127289180Y-83060043D01*
X130325139Y-83060043D01*
X130327335Y-83074207D01*
X130340522Y-83078000D01*
X131536885Y-83078000D01*
X131552124Y-83073525D01*
X131553329Y-83072135D01*
X131555000Y-83064452D01*
X131555000Y-83059885D01*
X132063000Y-83059885D01*
X132067475Y-83075124D01*
X132068865Y-83076329D01*
X132076548Y-83078000D01*
X133275192Y-83078000D01*
X133288723Y-83074027D01*
X133290248Y-83063420D01*
X133265523Y-82945579D01*
X133262463Y-82935383D01*
X133181737Y-82730971D01*
X133177006Y-82721439D01*
X133062984Y-82533538D01*
X133056720Y-82524948D01*
X132912673Y-82358948D01*
X132905042Y-82351528D01*
X132735089Y-82212174D01*
X132726322Y-82206150D01*
X132535318Y-82097424D01*
X132525654Y-82092959D01*
X132319059Y-82017969D01*
X132308792Y-82015198D01*
X132091345Y-81975877D01*
X132083116Y-81974944D01*
X132078624Y-81974732D01*
X132065876Y-81978475D01*
X132064671Y-81979865D01*
X132063000Y-81987548D01*
X132063000Y-83059885D01*
X131555000Y-83059885D01*
X131555000Y-81996030D01*
X131550690Y-81981352D01*
X131538807Y-81979289D01*
X131434675Y-81988124D01*
X131424203Y-81989914D01*
X131211465Y-82045130D01*
X131201425Y-82048665D01*
X131001030Y-82138937D01*
X130991744Y-82144106D01*
X130809425Y-82266850D01*
X130801130Y-82273519D01*
X130642100Y-82425228D01*
X130635059Y-82433186D01*
X130503859Y-82609525D01*
X130498255Y-82618562D01*
X130398643Y-82814484D01*
X130394643Y-82824335D01*
X130329466Y-83034240D01*
X130327183Y-83044624D01*
X130325139Y-83060043D01*
X127289180Y-83060043D01*
X127266661Y-83051847D01*
X127254917Y-83046886D01*
X127223624Y-83031758D01*
X127223622Y-83031757D01*
X127217275Y-83028689D01*
X127185836Y-83021431D01*
X127171100Y-83017065D01*
X127147400Y-83008439D01*
X127147396Y-83008438D01*
X127140780Y-83006030D01*
X127133794Y-83005147D01*
X127133792Y-83005147D01*
X127099301Y-83000790D01*
X127086749Y-82998555D01*
X127079510Y-82996884D01*
X127046003Y-82989148D01*
X127038963Y-82989123D01*
X127038960Y-82989123D01*
X127006676Y-82989010D01*
X127005839Y-82988982D01*
X127005026Y-82988880D01*
X126969434Y-82988880D01*
X126968994Y-82988879D01*
X126963239Y-82988859D01*
X126870227Y-82988534D01*
X126869059Y-82988795D01*
X126867491Y-82988880D01*
X122272362Y-82988880D01*
X122204241Y-82968878D01*
X122169148Y-82935149D01*
X122167358Y-82932593D01*
X122164198Y-82928080D01*
X122002300Y-82766182D01*
X121997792Y-82763025D01*
X121997789Y-82763023D01*
X121862766Y-82668479D01*
X121814749Y-82634857D01*
X121809767Y-82632534D01*
X121809762Y-82632531D01*
X121612225Y-82540419D01*
X121612224Y-82540419D01*
X121607243Y-82538096D01*
X121601935Y-82536674D01*
X121601933Y-82536673D01*
X121391402Y-82480261D01*
X121391400Y-82480261D01*
X121386087Y-82478837D01*
X121158000Y-82458882D01*
X120929913Y-82478837D01*
X120924600Y-82480261D01*
X120924598Y-82480261D01*
X120714067Y-82536673D01*
X120714065Y-82536674D01*
X120708757Y-82538096D01*
X120703776Y-82540419D01*
X120703775Y-82540419D01*
X120506238Y-82632531D01*
X120506233Y-82632534D01*
X120501251Y-82634857D01*
X120453234Y-82668479D01*
X120318211Y-82763023D01*
X120318208Y-82763025D01*
X120313700Y-82766182D01*
X120151802Y-82928080D01*
X120148642Y-82932593D01*
X120146852Y-82935149D01*
X120145773Y-82936011D01*
X120145108Y-82936804D01*
X120144949Y-82936670D01*
X120091396Y-82979478D01*
X120043638Y-82988880D01*
X115825331Y-82988880D01*
X115757210Y-82968878D01*
X115710717Y-82915222D01*
X115705807Y-82902756D01*
X115681868Y-82831002D01*
X115679550Y-82824054D01*
X115586478Y-82673652D01*
X115461303Y-82548695D01*
X115447877Y-82540419D01*
X115316968Y-82459725D01*
X115316966Y-82459724D01*
X115310738Y-82455885D01*
X115230995Y-82429436D01*
X115149389Y-82402368D01*
X115149387Y-82402368D01*
X115142861Y-82400203D01*
X115136025Y-82399503D01*
X115136022Y-82399502D01*
X115092969Y-82395091D01*
X115038400Y-82389500D01*
X113627226Y-82389500D01*
X113559105Y-82369498D01*
X113538131Y-82352595D01*
X112171919Y-80986383D01*
X112170990Y-80985445D01*
X112170884Y-80985337D01*
X112109829Y-80922989D01*
X112103907Y-80919172D01*
X112103904Y-80919170D01*
X112074678Y-80900335D01*
X112064339Y-80892907D01*
X112031650Y-80866812D01*
X112025308Y-80863746D01*
X112025303Y-80863743D01*
X112002610Y-80852773D01*
X111989198Y-80845247D01*
X111968000Y-80831586D01*
X111967995Y-80831584D01*
X111962076Y-80827769D01*
X111922781Y-80813467D01*
X111911037Y-80808506D01*
X111879744Y-80793378D01*
X111879742Y-80793377D01*
X111873395Y-80790309D01*
X111841956Y-80783051D01*
X111827220Y-80778685D01*
X111803520Y-80770059D01*
X111803516Y-80770058D01*
X111796900Y-80767650D01*
X111789914Y-80766767D01*
X111789912Y-80766767D01*
X111755421Y-80762410D01*
X111742869Y-80760175D01*
X111716724Y-80754139D01*
X111702123Y-80750768D01*
X111695083Y-80750743D01*
X111695080Y-80750743D01*
X111662796Y-80750630D01*
X111661959Y-80750602D01*
X111661146Y-80750500D01*
X111625554Y-80750500D01*
X111625114Y-80750499D01*
X111619359Y-80750479D01*
X111526347Y-80750154D01*
X111525179Y-80750415D01*
X111523611Y-80750500D01*
X108530538Y-80750500D01*
X108462417Y-80730498D01*
X108415924Y-80676842D01*
X108411014Y-80664376D01*
X108386868Y-80592002D01*
X108384550Y-80585054D01*
X108291478Y-80434652D01*
X108166303Y-80309695D01*
X108160072Y-80305854D01*
X108021968Y-80220725D01*
X108021966Y-80220724D01*
X108015738Y-80216885D01*
X107855254Y-80163655D01*
X107854389Y-80163368D01*
X107854387Y-80163368D01*
X107847861Y-80161203D01*
X107841025Y-80160503D01*
X107841022Y-80160502D01*
X107797969Y-80156091D01*
X107743400Y-80150500D01*
X107017600Y-80150500D01*
X107014354Y-80150837D01*
X107014350Y-80150837D01*
X106918692Y-80160762D01*
X106918688Y-80160763D01*
X106911834Y-80161474D01*
X106905298Y-80163655D01*
X106905296Y-80163655D01*
X106773194Y-80207728D01*
X106744054Y-80217450D01*
X106593652Y-80310522D01*
X106468695Y-80435697D01*
X106375885Y-80586262D01*
X106320203Y-80754139D01*
X106319503Y-80760975D01*
X106319502Y-80760978D01*
X106318572Y-80770059D01*
X106309500Y-80858600D01*
X106309500Y-82209400D01*
X105526500Y-82209400D01*
X105526500Y-80858600D01*
X105526163Y-80855350D01*
X105516238Y-80759692D01*
X105516237Y-80759688D01*
X105515526Y-80752834D01*
X105459550Y-80585054D01*
X105366478Y-80434652D01*
X105241303Y-80309695D01*
X105235072Y-80305854D01*
X105096968Y-80220725D01*
X105096966Y-80220724D01*
X105090738Y-80216885D01*
X104930254Y-80163655D01*
X104929389Y-80163368D01*
X104929387Y-80163368D01*
X104922861Y-80161203D01*
X104916025Y-80160503D01*
X104916022Y-80160502D01*
X104872969Y-80156091D01*
X104818400Y-80150500D01*
X104092600Y-80150500D01*
X104089354Y-80150837D01*
X104089350Y-80150837D01*
X103993692Y-80160762D01*
X103993688Y-80160763D01*
X103986834Y-80161474D01*
X103980298Y-80163655D01*
X103980296Y-80163655D01*
X103848194Y-80207728D01*
X103819054Y-80217450D01*
X103668652Y-80310522D01*
X103543695Y-80435697D01*
X103450885Y-80586262D01*
X103431751Y-80643949D01*
X103425045Y-80664167D01*
X103384614Y-80722527D01*
X103319050Y-80749764D01*
X103305452Y-80750500D01*
X103196538Y-80750500D01*
X103128417Y-80730498D01*
X103081924Y-80676842D01*
X103077014Y-80664376D01*
X103052868Y-80592002D01*
X103050550Y-80585054D01*
X102957478Y-80434652D01*
X102832303Y-80309695D01*
X102826072Y-80305854D01*
X102687968Y-80220725D01*
X102687966Y-80220724D01*
X102681738Y-80216885D01*
X102521254Y-80163655D01*
X102520389Y-80163368D01*
X102520387Y-80163368D01*
X102513861Y-80161203D01*
X102507025Y-80160503D01*
X102507022Y-80160502D01*
X102463969Y-80156091D01*
X102409400Y-80150500D01*
X101683600Y-80150500D01*
X101680354Y-80150837D01*
X101680350Y-80150837D01*
X101584692Y-80160762D01*
X101584688Y-80160763D01*
X101577834Y-80161474D01*
X101571298Y-80163655D01*
X101571296Y-80163655D01*
X101439194Y-80207728D01*
X101410054Y-80217450D01*
X101259652Y-80310522D01*
X101134695Y-80435697D01*
X101041885Y-80586262D01*
X100986203Y-80754139D01*
X100985503Y-80760975D01*
X100985502Y-80760978D01*
X100984572Y-80770059D01*
X100975500Y-80858600D01*
X100975500Y-82209400D01*
X100192500Y-82209400D01*
X100192500Y-80858600D01*
X100192163Y-80855350D01*
X100182238Y-80759692D01*
X100182237Y-80759688D01*
X100181526Y-80752834D01*
X100125550Y-80585054D01*
X100032478Y-80434652D01*
X99907303Y-80309695D01*
X99901072Y-80305854D01*
X99762968Y-80220725D01*
X99762966Y-80220724D01*
X99756738Y-80216885D01*
X99596254Y-80163655D01*
X99595389Y-80163368D01*
X99595387Y-80163368D01*
X99588861Y-80161203D01*
X99582025Y-80160503D01*
X99582022Y-80160502D01*
X99538969Y-80156091D01*
X99484400Y-80150500D01*
X98758600Y-80150500D01*
X98755354Y-80150837D01*
X98755350Y-80150837D01*
X98659692Y-80160762D01*
X98659688Y-80160763D01*
X98652834Y-80161474D01*
X98646298Y-80163655D01*
X98646296Y-80163655D01*
X98514194Y-80207728D01*
X98485054Y-80217450D01*
X98334652Y-80310522D01*
X98209695Y-80435697D01*
X98116885Y-80586262D01*
X98061203Y-80754139D01*
X98060503Y-80760975D01*
X98060502Y-80760978D01*
X98059572Y-80770059D01*
X98050500Y-80858600D01*
X98050500Y-80952855D01*
X98030498Y-81020976D01*
X97976842Y-81067469D01*
X97906568Y-81077573D01*
X97858384Y-81060115D01*
X97727968Y-80979725D01*
X97727966Y-80979724D01*
X97721738Y-80975885D01*
X97561254Y-80922655D01*
X97560389Y-80922368D01*
X97560387Y-80922368D01*
X97553861Y-80920203D01*
X97547025Y-80919503D01*
X97547022Y-80919502D01*
X97503969Y-80915091D01*
X97449400Y-80909500D01*
X96098600Y-80909500D01*
X96095354Y-80909837D01*
X96095350Y-80909837D01*
X95999692Y-80919762D01*
X95999688Y-80919763D01*
X95992834Y-80920474D01*
X95986298Y-80922655D01*
X95986296Y-80922655D01*
X95854194Y-80966728D01*
X95825054Y-80976450D01*
X95674652Y-81069522D01*
X95549695Y-81194697D01*
X95456885Y-81345262D01*
X95401203Y-81513139D01*
X95390500Y-81617600D01*
X95390500Y-82343400D01*
X95390837Y-82346646D01*
X95390837Y-82346650D01*
X95396749Y-82403624D01*
X95401474Y-82449166D01*
X95403655Y-82455702D01*
X95403655Y-82455704D01*
X95404875Y-82459361D01*
X95457450Y-82616946D01*
X95550522Y-82767348D01*
X95675697Y-82892305D01*
X95681927Y-82896145D01*
X95681928Y-82896146D01*
X95799921Y-82968878D01*
X95826262Y-82985115D01*
X95850454Y-82993139D01*
X95987611Y-83038632D01*
X95987613Y-83038632D01*
X95994139Y-83040797D01*
X96000975Y-83041497D01*
X96000978Y-83041498D01*
X96031490Y-83044624D01*
X96098600Y-83051500D01*
X96122929Y-83051500D01*
X96191050Y-83071502D01*
X96237543Y-83125158D01*
X96247647Y-83195432D01*
X96223755Y-83253065D01*
X96150885Y-83350295D01*
X96099755Y-83486684D01*
X96093000Y-83548866D01*
X96093000Y-84345134D01*
X96099755Y-84407316D01*
X96102527Y-84414712D01*
X96102529Y-84414718D01*
X96148660Y-84537771D01*
X96153843Y-84608578D01*
X96148660Y-84626229D01*
X96102529Y-84749283D01*
X96102529Y-84749285D01*
X96099755Y-84756684D01*
X96098902Y-84764540D01*
X96098729Y-84765266D01*
X96063512Y-84826913D01*
X96000558Y-84859734D01*
X95976146Y-84862121D01*
X93062362Y-84862121D01*
X92994241Y-84842119D01*
X92959148Y-84808390D01*
X92957358Y-84805834D01*
X92954198Y-84801321D01*
X92808498Y-84655621D01*
X92774472Y-84593309D01*
X92779537Y-84522494D01*
X92822084Y-84465658D01*
X92858737Y-84448489D01*
X92858316Y-84447366D01*
X92986297Y-84399388D01*
X92994705Y-84396236D01*
X93111261Y-84308882D01*
X93198615Y-84192326D01*
X93249745Y-84055937D01*
X93256500Y-83993755D01*
X93256500Y-82297487D01*
X93249745Y-82235305D01*
X93198615Y-82098916D01*
X93111261Y-81982360D01*
X92994705Y-81895006D01*
X92858316Y-81843876D01*
X92796134Y-81837121D01*
X91099866Y-81837121D01*
X91037684Y-81843876D01*
X90901295Y-81895006D01*
X90784739Y-81982360D01*
X90697385Y-82098916D01*
X90646255Y-82235305D01*
X90639500Y-82297487D01*
X90639500Y-83993755D01*
X90646255Y-84055937D01*
X90697385Y-84192326D01*
X90784739Y-84308882D01*
X90901295Y-84396236D01*
X90909703Y-84399388D01*
X91037684Y-84447366D01*
X91036954Y-84449312D01*
X91089205Y-84479166D01*
X91122021Y-84542124D01*
X91115591Y-84612828D01*
X91087502Y-84655621D01*
X90941802Y-84801321D01*
X90810477Y-84988872D01*
X90808154Y-84993854D01*
X90808151Y-84993859D01*
X90721273Y-85180171D01*
X90713716Y-85196378D01*
X90712294Y-85201686D01*
X90712293Y-85201688D01*
X90655881Y-85412219D01*
X90654457Y-85417534D01*
X90634502Y-85645621D01*
X90654457Y-85873708D01*
X90655881Y-85879021D01*
X90655881Y-85879023D01*
X90711199Y-86085469D01*
X90713716Y-86094864D01*
X90716039Y-86099845D01*
X90716039Y-86099846D01*
X90808151Y-86297383D01*
X90808154Y-86297388D01*
X90810477Y-86302370D01*
X90818428Y-86313725D01*
X90936536Y-86482400D01*
X90941802Y-86489921D01*
X91103700Y-86651819D01*
X91108213Y-86654979D01*
X91110769Y-86656769D01*
X91111631Y-86657848D01*
X91112424Y-86658513D01*
X91112290Y-86658672D01*
X91155098Y-86712225D01*
X91164500Y-86759983D01*
X91164500Y-88573462D01*
X91144498Y-88641583D01*
X91090842Y-88688076D01*
X91078376Y-88692986D01*
X91017347Y-88713347D01*
X90999054Y-88719450D01*
X90848652Y-88812522D01*
X90723695Y-88937697D01*
X90630885Y-89088262D01*
X90575203Y-89256139D01*
X90564500Y-89360600D01*
X90564500Y-90086400D01*
X90575474Y-90192166D01*
X90631450Y-90359946D01*
X90724522Y-90510348D01*
X90849697Y-90635305D01*
X90855927Y-90639145D01*
X90855928Y-90639146D01*
X90993090Y-90723694D01*
X91000262Y-90728115D01*
X91067860Y-90750536D01*
X91161611Y-90781632D01*
X91161613Y-90781632D01*
X91168139Y-90783797D01*
X91174975Y-90784497D01*
X91174978Y-90784498D01*
X91218031Y-90788909D01*
X91272600Y-90794500D01*
X92623400Y-90794500D01*
X92626646Y-90794163D01*
X92626650Y-90794163D01*
X92722308Y-90784238D01*
X92722312Y-90784237D01*
X92729166Y-90783526D01*
X92735702Y-90781345D01*
X92735704Y-90781345D01*
X92867806Y-90737272D01*
X92896946Y-90727550D01*
X92993570Y-90667757D01*
X93062022Y-90648919D01*
X93129792Y-90670080D01*
X93175363Y-90724521D01*
X93184267Y-90794957D01*
X93148968Y-90863996D01*
X92472369Y-91540595D01*
X92410057Y-91574621D01*
X92383274Y-91577500D01*
X91272600Y-91577500D01*
X91269354Y-91577837D01*
X91269350Y-91577837D01*
X91173692Y-91587762D01*
X91173688Y-91587763D01*
X91166834Y-91588474D01*
X91160298Y-91590655D01*
X91160296Y-91590655D01*
X91028194Y-91634728D01*
X90999054Y-91644450D01*
X90848652Y-91737522D01*
X90723695Y-91862697D01*
X90719855Y-91868927D01*
X90719854Y-91868928D01*
X90669506Y-91950608D01*
X90630885Y-92013262D01*
X90575203Y-92181139D01*
X90574503Y-92187975D01*
X90574502Y-92187978D01*
X90572560Y-92206930D01*
X90564500Y-92285600D01*
X90564500Y-93011400D01*
X76708000Y-93011400D01*
X76708000Y-71167621D01*
X90380502Y-71167621D01*
X90400457Y-71395708D01*
X90401881Y-71401021D01*
X90401881Y-71401023D01*
X90457530Y-71608704D01*
X90459716Y-71616864D01*
X90462039Y-71621845D01*
X90462039Y-71621846D01*
X90554151Y-71819383D01*
X90554154Y-71819388D01*
X90556477Y-71824370D01*
X90687802Y-72011921D01*
X90849700Y-72173819D01*
X90854213Y-72176979D01*
X90856769Y-72178769D01*
X90857631Y-72179848D01*
X90858424Y-72180513D01*
X90858290Y-72180672D01*
X90901098Y-72234225D01*
X90910500Y-72281983D01*
X90910500Y-73458499D01*
X90910493Y-73459819D01*
X90909578Y-73547178D01*
X90911067Y-73554063D01*
X90911067Y-73554066D01*
X90918414Y-73588045D01*
X90920475Y-73600628D01*
X90925136Y-73642182D01*
X90927454Y-73648837D01*
X90927455Y-73648843D01*
X90935744Y-73672646D01*
X90939907Y-73687455D01*
X90945236Y-73712101D01*
X90946725Y-73718986D01*
X90964402Y-73756895D01*
X90969184Y-73768671D01*
X90982943Y-73808181D01*
X90999504Y-73834684D01*
X91000037Y-73835537D01*
X91007377Y-73849056D01*
X91021011Y-73878294D01*
X91025324Y-73883854D01*
X91025325Y-73883856D01*
X91046640Y-73911335D01*
X91053929Y-73921783D01*
X91076091Y-73957249D01*
X91102750Y-73984096D01*
X91103819Y-73985172D01*
X91104373Y-73985764D01*
X91104877Y-73986413D01*
X91130029Y-74011565D01*
X91199949Y-74081975D01*
X91200959Y-74082616D01*
X91202138Y-74083674D01*
X92305595Y-75187131D01*
X92339621Y-75249443D01*
X92342500Y-75276226D01*
X92342500Y-75862400D01*
X92342837Y-75865646D01*
X92342837Y-75865650D01*
X92348488Y-75920108D01*
X92353474Y-75968166D01*
X92355655Y-75974702D01*
X92355655Y-75974704D01*
X92384367Y-76060764D01*
X92409450Y-76135946D01*
X92502522Y-76286348D01*
X92627697Y-76411305D01*
X92633927Y-76415145D01*
X92633928Y-76415146D01*
X92730218Y-76474500D01*
X92778262Y-76504115D01*
X92858005Y-76530564D01*
X92939611Y-76557632D01*
X92939613Y-76557632D01*
X92946139Y-76559797D01*
X92952975Y-76560497D01*
X92952978Y-76560498D01*
X92996031Y-76564909D01*
X93050600Y-76570500D01*
X94167774Y-76570500D01*
X94235895Y-76590502D01*
X94282388Y-76644158D01*
X94292492Y-76714432D01*
X94262998Y-76779012D01*
X94256869Y-76785595D01*
X93725869Y-77316595D01*
X93663557Y-77350621D01*
X93636774Y-77353500D01*
X93050600Y-77353500D01*
X93047354Y-77353837D01*
X93047350Y-77353837D01*
X92951692Y-77363762D01*
X92951688Y-77363763D01*
X92944834Y-77364474D01*
X92938298Y-77366655D01*
X92938296Y-77366655D01*
X92806194Y-77410728D01*
X92777054Y-77420450D01*
X92626652Y-77513522D01*
X92621479Y-77518704D01*
X92586602Y-77553642D01*
X92501695Y-77638697D01*
X92497855Y-77644927D01*
X92497854Y-77644928D01*
X92414613Y-77779970D01*
X92408885Y-77789262D01*
X92406581Y-77796209D01*
X92357029Y-77945605D01*
X92353203Y-77957139D01*
X92352503Y-77963975D01*
X92352502Y-77963978D01*
X92349001Y-77998149D01*
X92342500Y-78061600D01*
X92342500Y-78787400D01*
X92342837Y-78790646D01*
X92342837Y-78790650D01*
X92348280Y-78843105D01*
X92353474Y-78893166D01*
X92409450Y-79060946D01*
X92502522Y-79211348D01*
X92627697Y-79336305D01*
X92633927Y-79340145D01*
X92633928Y-79340146D01*
X92771090Y-79424694D01*
X92778262Y-79429115D01*
X92858005Y-79455564D01*
X92939611Y-79482632D01*
X92939613Y-79482632D01*
X92946139Y-79484797D01*
X92952975Y-79485497D01*
X92952978Y-79485498D01*
X92996031Y-79489909D01*
X93050600Y-79495500D01*
X94401400Y-79495500D01*
X94404646Y-79495163D01*
X94404650Y-79495163D01*
X94500308Y-79485238D01*
X94500312Y-79485237D01*
X94507166Y-79484526D01*
X94513702Y-79482345D01*
X94513704Y-79482345D01*
X94645806Y-79438272D01*
X94674946Y-79428550D01*
X94696689Y-79415095D01*
X95391001Y-79415095D01*
X95391338Y-79421614D01*
X95401257Y-79517206D01*
X95404149Y-79530600D01*
X95455588Y-79684784D01*
X95461761Y-79697962D01*
X95547063Y-79835807D01*
X95556099Y-79847208D01*
X95670829Y-79961739D01*
X95682240Y-79970751D01*
X95820243Y-80055816D01*
X95833424Y-80061963D01*
X95987710Y-80113138D01*
X96001086Y-80116005D01*
X96095438Y-80125672D01*
X96101854Y-80126000D01*
X96501885Y-80126000D01*
X96517124Y-80121525D01*
X96518329Y-80120135D01*
X96520000Y-80112452D01*
X96520000Y-80107884D01*
X97028000Y-80107884D01*
X97032475Y-80123123D01*
X97033865Y-80124328D01*
X97041548Y-80125999D01*
X97446095Y-80125999D01*
X97452614Y-80125662D01*
X97548206Y-80115743D01*
X97561600Y-80112851D01*
X97715784Y-80061412D01*
X97728962Y-80055239D01*
X97866807Y-79969937D01*
X97878208Y-79960901D01*
X97992739Y-79846171D01*
X98001751Y-79834760D01*
X98086816Y-79696757D01*
X98092963Y-79683576D01*
X98144138Y-79529290D01*
X98147005Y-79515914D01*
X98156672Y-79421562D01*
X98157000Y-79415146D01*
X98157000Y-79327615D01*
X98152525Y-79312376D01*
X98151135Y-79311171D01*
X98143452Y-79309500D01*
X97046115Y-79309500D01*
X97030876Y-79313975D01*
X97029671Y-79315365D01*
X97028000Y-79323048D01*
X97028000Y-80107884D01*
X96520000Y-80107884D01*
X96520000Y-79327615D01*
X96515525Y-79312376D01*
X96514135Y-79311171D01*
X96506452Y-79309500D01*
X95409116Y-79309500D01*
X95393877Y-79313975D01*
X95392672Y-79315365D01*
X95391001Y-79323048D01*
X95391001Y-79415095D01*
X94696689Y-79415095D01*
X94825348Y-79335478D01*
X94950305Y-79210303D01*
X95043115Y-79059738D01*
X95098797Y-78891861D01*
X95109500Y-78787400D01*
X95109500Y-78783385D01*
X95391000Y-78783385D01*
X95395475Y-78798624D01*
X95396865Y-78799829D01*
X95404548Y-78801500D01*
X96501885Y-78801500D01*
X96517124Y-78797025D01*
X96518329Y-78795635D01*
X96520000Y-78787952D01*
X96520000Y-78783385D01*
X97028000Y-78783385D01*
X97032475Y-78798624D01*
X97033865Y-78799829D01*
X97041548Y-78801500D01*
X98138884Y-78801500D01*
X98154123Y-78797025D01*
X98155328Y-78795635D01*
X98156999Y-78787952D01*
X98156999Y-78695905D01*
X98156662Y-78689386D01*
X98146743Y-78593794D01*
X98143851Y-78580400D01*
X98092412Y-78426216D01*
X98086239Y-78413038D01*
X98000937Y-78275193D01*
X97991901Y-78263792D01*
X97877171Y-78149261D01*
X97865760Y-78140249D01*
X97727757Y-78055184D01*
X97714576Y-78049037D01*
X97560290Y-77997862D01*
X97546914Y-77994995D01*
X97452562Y-77985328D01*
X97446145Y-77985000D01*
X97046115Y-77985000D01*
X97030876Y-77989475D01*
X97029671Y-77990865D01*
X97028000Y-77998548D01*
X97028000Y-78783385D01*
X96520000Y-78783385D01*
X96520000Y-78003116D01*
X96515525Y-77987877D01*
X96514135Y-77986672D01*
X96506452Y-77985001D01*
X96101905Y-77985001D01*
X96095386Y-77985338D01*
X95999794Y-77995257D01*
X95986400Y-77998149D01*
X95832216Y-78049588D01*
X95819038Y-78055761D01*
X95681193Y-78141063D01*
X95669792Y-78150099D01*
X95555261Y-78264829D01*
X95546249Y-78276240D01*
X95461184Y-78414243D01*
X95455037Y-78427424D01*
X95403862Y-78581710D01*
X95400995Y-78595086D01*
X95391328Y-78689438D01*
X95391000Y-78695855D01*
X95391000Y-78783385D01*
X95109500Y-78783385D01*
X95109500Y-78201227D01*
X95129502Y-78133106D01*
X95146405Y-78112132D01*
X95603132Y-77655405D01*
X95665444Y-77621379D01*
X95692227Y-77618500D01*
X96547950Y-77618500D01*
X96605658Y-77633264D01*
X96608795Y-77635615D01*
X96745184Y-77686745D01*
X96807366Y-77693500D01*
X98428634Y-77693500D01*
X98490816Y-77686745D01*
X98627205Y-77635615D01*
X98630342Y-77633264D01*
X98688050Y-77618500D01*
X101971950Y-77618500D01*
X102029658Y-77633264D01*
X102032795Y-77635615D01*
X102169184Y-77686745D01*
X102231366Y-77693500D01*
X103852634Y-77693500D01*
X103914816Y-77686745D01*
X104051205Y-77635615D01*
X104167761Y-77548261D01*
X104255115Y-77431705D01*
X104306245Y-77295316D01*
X104313000Y-77233134D01*
X104313000Y-76474500D01*
X104333002Y-76406379D01*
X104386658Y-76359886D01*
X104439000Y-76348500D01*
X104830274Y-76348500D01*
X104898395Y-76368502D01*
X104919369Y-76385405D01*
X105238903Y-76704939D01*
X105272929Y-76767251D01*
X105272327Y-76823448D01*
X105243413Y-76943885D01*
X105239622Y-76959674D01*
X105219449Y-77216000D01*
X105239622Y-77472326D01*
X105240776Y-77477133D01*
X105240777Y-77477139D01*
X105278432Y-77633981D01*
X105299645Y-77722340D01*
X105301538Y-77726911D01*
X105301539Y-77726913D01*
X105394198Y-77950611D01*
X105398040Y-77959887D01*
X105532384Y-78179116D01*
X105699369Y-78374631D01*
X105894884Y-78541616D01*
X106114113Y-78675960D01*
X106118683Y-78677853D01*
X106118687Y-78677855D01*
X106347087Y-78772461D01*
X106351660Y-78774355D01*
X106408296Y-78787952D01*
X106596861Y-78833223D01*
X106596867Y-78833224D01*
X106601674Y-78834378D01*
X106858000Y-78854551D01*
X107114326Y-78834378D01*
X107119133Y-78833224D01*
X107119139Y-78833223D01*
X107307704Y-78787952D01*
X107364340Y-78774355D01*
X107368913Y-78772461D01*
X107597313Y-78677855D01*
X107597317Y-78677853D01*
X107601887Y-78675960D01*
X107821116Y-78541616D01*
X108003707Y-78385669D01*
X133825001Y-78385669D01*
X133825371Y-78392490D01*
X133830895Y-78443352D01*
X133834521Y-78458604D01*
X133879676Y-78579054D01*
X133888214Y-78594649D01*
X133964715Y-78696724D01*
X133977276Y-78709285D01*
X134079351Y-78785786D01*
X134094946Y-78794324D01*
X134215394Y-78839478D01*
X134230649Y-78843105D01*
X134281514Y-78848631D01*
X134288328Y-78849000D01*
X135185885Y-78849000D01*
X135201124Y-78844525D01*
X135202329Y-78843135D01*
X135204000Y-78835452D01*
X135204000Y-78830884D01*
X135712000Y-78830884D01*
X135716475Y-78846123D01*
X135717865Y-78847328D01*
X135725548Y-78848999D01*
X136627669Y-78848999D01*
X136634490Y-78848629D01*
X136685352Y-78843105D01*
X136700604Y-78839479D01*
X136821054Y-78794324D01*
X136836649Y-78785786D01*
X136938724Y-78709285D01*
X136951285Y-78696724D01*
X137027786Y-78594649D01*
X137036324Y-78579054D01*
X137081478Y-78458606D01*
X137085105Y-78443351D01*
X137090631Y-78392486D01*
X137091000Y-78385672D01*
X137091000Y-77488115D01*
X137086525Y-77472876D01*
X137085135Y-77471671D01*
X137077452Y-77470000D01*
X135730115Y-77470000D01*
X135714876Y-77474475D01*
X135713671Y-77475865D01*
X135712000Y-77483548D01*
X135712000Y-78830884D01*
X135204000Y-78830884D01*
X135204000Y-77488115D01*
X135199525Y-77472876D01*
X135198135Y-77471671D01*
X135190452Y-77470000D01*
X133843116Y-77470000D01*
X133827877Y-77474475D01*
X133826672Y-77475865D01*
X133825001Y-77483548D01*
X133825001Y-78385669D01*
X108003707Y-78385669D01*
X108016631Y-78374631D01*
X108183616Y-78179116D01*
X108256816Y-78059665D01*
X108309464Y-78012034D01*
X108364249Y-77999500D01*
X109570499Y-77999500D01*
X109571820Y-77999507D01*
X109659178Y-78000422D01*
X109666063Y-77998933D01*
X109666066Y-77998933D01*
X109700045Y-77991586D01*
X109712628Y-77989525D01*
X109721115Y-77988573D01*
X109754182Y-77984864D01*
X109760837Y-77982546D01*
X109760843Y-77982545D01*
X109784646Y-77974256D01*
X109799455Y-77970093D01*
X109824101Y-77964764D01*
X109824105Y-77964763D01*
X109830986Y-77963275D01*
X109868895Y-77945598D01*
X109880671Y-77940816D01*
X109920181Y-77927057D01*
X109947539Y-77909962D01*
X109961056Y-77902623D01*
X109983915Y-77891964D01*
X109983918Y-77891962D01*
X109990294Y-77888989D01*
X110023334Y-77863360D01*
X110033783Y-77856071D01*
X110069249Y-77833909D01*
X110097172Y-77806181D01*
X110097764Y-77805627D01*
X110098413Y-77805123D01*
X110123566Y-77779970D01*
X110193975Y-77710051D01*
X110194616Y-77709041D01*
X110195674Y-77707862D01*
X110959651Y-76943885D01*
X133825000Y-76943885D01*
X133829475Y-76959124D01*
X133830865Y-76960329D01*
X133838548Y-76962000D01*
X135185885Y-76962000D01*
X135201124Y-76957525D01*
X135202329Y-76956135D01*
X135204000Y-76948452D01*
X135204000Y-76943885D01*
X135712000Y-76943885D01*
X135716475Y-76959124D01*
X135717865Y-76960329D01*
X135725548Y-76962000D01*
X137072884Y-76962000D01*
X137088123Y-76957525D01*
X137089328Y-76956135D01*
X137090999Y-76948452D01*
X137090999Y-76046331D01*
X137090629Y-76039510D01*
X137085105Y-75988648D01*
X137081479Y-75973396D01*
X137036324Y-75852946D01*
X137027786Y-75837351D01*
X136951285Y-75735276D01*
X136938724Y-75722715D01*
X136836649Y-75646214D01*
X136821054Y-75637676D01*
X136700606Y-75592522D01*
X136685351Y-75588895D01*
X136634486Y-75583369D01*
X136627672Y-75583000D01*
X135730115Y-75583000D01*
X135714876Y-75587475D01*
X135713671Y-75588865D01*
X135712000Y-75596548D01*
X135712000Y-76943885D01*
X135204000Y-76943885D01*
X135204000Y-75601116D01*
X135199525Y-75585877D01*
X135198135Y-75584672D01*
X135190452Y-75583001D01*
X134288331Y-75583001D01*
X134281510Y-75583371D01*
X134230648Y-75588895D01*
X134215396Y-75592521D01*
X134094946Y-75637676D01*
X134079351Y-75646214D01*
X133977276Y-75722715D01*
X133964715Y-75735276D01*
X133888214Y-75837351D01*
X133879676Y-75852946D01*
X133834522Y-75973394D01*
X133830895Y-75988649D01*
X133825369Y-76039514D01*
X133825000Y-76046328D01*
X133825000Y-76943885D01*
X110959651Y-76943885D01*
X113538132Y-74365405D01*
X113600444Y-74331379D01*
X113627227Y-74328500D01*
X116562400Y-74328500D01*
X116565646Y-74328163D01*
X116565650Y-74328163D01*
X116661308Y-74318238D01*
X116661312Y-74318237D01*
X116668166Y-74317526D01*
X116674702Y-74315345D01*
X116674704Y-74315345D01*
X116828998Y-74263868D01*
X116835946Y-74261550D01*
X116986348Y-74168478D01*
X117111305Y-74043303D01*
X117195631Y-73906502D01*
X117200275Y-73898968D01*
X117200276Y-73898966D01*
X117204115Y-73892738D01*
X117245259Y-73768691D01*
X117257632Y-73731389D01*
X117257632Y-73731387D01*
X117259797Y-73724861D01*
X117261105Y-73712101D01*
X117268268Y-73642182D01*
X117270500Y-73620400D01*
X117270500Y-72894600D01*
X117270163Y-72891350D01*
X117260238Y-72795692D01*
X117260237Y-72795688D01*
X117259526Y-72788834D01*
X117251620Y-72765135D01*
X117205868Y-72628002D01*
X117203550Y-72621054D01*
X117110478Y-72470652D01*
X117024726Y-72385049D01*
X120866001Y-72385049D01*
X120866371Y-72391870D01*
X120871895Y-72442732D01*
X120875521Y-72457984D01*
X120920676Y-72578434D01*
X120929214Y-72594029D01*
X121005715Y-72696104D01*
X121018276Y-72708665D01*
X121120351Y-72785166D01*
X121135946Y-72793704D01*
X121256394Y-72838858D01*
X121271649Y-72842485D01*
X121322514Y-72848011D01*
X121329328Y-72848380D01*
X121901885Y-72848380D01*
X121917124Y-72843905D01*
X121918329Y-72842515D01*
X121920000Y-72834832D01*
X121920000Y-72830264D01*
X122428000Y-72830264D01*
X122432475Y-72845503D01*
X122433865Y-72846708D01*
X122441548Y-72848379D01*
X123018669Y-72848379D01*
X123025490Y-72848009D01*
X123076352Y-72842485D01*
X123091604Y-72838859D01*
X123212054Y-72793704D01*
X123227649Y-72785166D01*
X123329724Y-72708665D01*
X123342285Y-72696104D01*
X123418786Y-72594029D01*
X123427324Y-72578434D01*
X123472478Y-72457986D01*
X123476105Y-72442731D01*
X123481631Y-72391866D01*
X123482000Y-72385052D01*
X123482000Y-71812495D01*
X123477525Y-71797256D01*
X123476135Y-71796051D01*
X123468452Y-71794380D01*
X122446115Y-71794380D01*
X122430876Y-71798855D01*
X122429671Y-71800245D01*
X122428000Y-71807928D01*
X122428000Y-72830264D01*
X121920000Y-72830264D01*
X121920000Y-71812495D01*
X121915525Y-71797256D01*
X121914135Y-71796051D01*
X121906452Y-71794380D01*
X120884116Y-71794380D01*
X120868877Y-71798855D01*
X120867672Y-71800245D01*
X120866001Y-71807928D01*
X120866001Y-72385049D01*
X117024726Y-72385049D01*
X116985303Y-72345695D01*
X116966551Y-72334136D01*
X116840968Y-72256725D01*
X116840966Y-72256724D01*
X116834738Y-72252885D01*
X116739310Y-72221233D01*
X116673389Y-72199368D01*
X116673387Y-72199368D01*
X116666861Y-72197203D01*
X116660025Y-72196503D01*
X116660022Y-72196502D01*
X116609687Y-72191345D01*
X116562400Y-72186500D01*
X113561600Y-72186500D01*
X113558354Y-72186837D01*
X113558350Y-72186837D01*
X113462692Y-72196762D01*
X113462688Y-72196763D01*
X113455834Y-72197474D01*
X113449298Y-72199655D01*
X113449296Y-72199655D01*
X113345678Y-72234225D01*
X113288054Y-72253450D01*
X113137652Y-72346522D01*
X113012695Y-72471697D01*
X113008855Y-72477927D01*
X113008854Y-72477928D01*
X112927265Y-72610290D01*
X112919885Y-72622262D01*
X112864203Y-72790139D01*
X112863657Y-72795464D01*
X112829832Y-72857632D01*
X112367595Y-73319869D01*
X112305283Y-73353895D01*
X112234468Y-73348830D01*
X112177632Y-73306283D01*
X112152821Y-73239763D01*
X112152500Y-73230774D01*
X112152500Y-72727600D01*
X112152163Y-72724350D01*
X112142238Y-72628692D01*
X112142237Y-72628688D01*
X112141526Y-72621834D01*
X112139188Y-72614824D01*
X112087868Y-72461002D01*
X112085550Y-72454054D01*
X111992478Y-72303652D01*
X111867303Y-72178695D01*
X111851043Y-72168672D01*
X111722968Y-72089725D01*
X111722966Y-72089724D01*
X111716738Y-72085885D01*
X111636995Y-72059436D01*
X111555389Y-72032368D01*
X111555387Y-72032368D01*
X111548861Y-72030203D01*
X111542025Y-72029503D01*
X111542022Y-72029502D01*
X111498969Y-72025091D01*
X111444400Y-72019500D01*
X110043600Y-72019500D01*
X110040354Y-72019837D01*
X110040350Y-72019837D01*
X109944692Y-72029762D01*
X109944688Y-72029763D01*
X109937834Y-72030474D01*
X109931298Y-72032655D01*
X109931296Y-72032655D01*
X109799194Y-72076728D01*
X109770054Y-72086450D01*
X109619652Y-72179522D01*
X109614479Y-72184704D01*
X109516835Y-72282518D01*
X109454552Y-72316597D01*
X109427662Y-72319500D01*
X107753953Y-72319500D01*
X107752633Y-72319493D01*
X107665322Y-72318578D01*
X107658437Y-72320067D01*
X107658434Y-72320067D01*
X107624455Y-72327414D01*
X107611872Y-72329475D01*
X107603385Y-72330427D01*
X107570318Y-72334136D01*
X107563663Y-72336454D01*
X107563657Y-72336455D01*
X107539854Y-72344744D01*
X107525045Y-72348907D01*
X107500399Y-72354236D01*
X107500395Y-72354237D01*
X107493514Y-72355725D01*
X107455605Y-72373402D01*
X107443829Y-72378184D01*
X107404319Y-72391943D01*
X107376963Y-72409037D01*
X107363444Y-72416377D01*
X107340585Y-72427036D01*
X107340582Y-72427038D01*
X107334206Y-72430011D01*
X107328646Y-72434324D01*
X107328644Y-72434325D01*
X107301165Y-72455640D01*
X107290717Y-72462929D01*
X107255251Y-72485091D01*
X107228404Y-72511750D01*
X107227328Y-72512819D01*
X107226736Y-72513373D01*
X107226087Y-72513877D01*
X107200935Y-72539029D01*
X107130525Y-72608949D01*
X107129884Y-72609959D01*
X107128826Y-72611138D01*
X106646369Y-73093595D01*
X106584057Y-73127621D01*
X106557274Y-73130500D01*
X103431952Y-73130500D01*
X103430632Y-73130493D01*
X103343322Y-73129578D01*
X103336437Y-73131067D01*
X103336434Y-73131067D01*
X103302455Y-73138414D01*
X103289872Y-73140475D01*
X103281385Y-73141427D01*
X103248318Y-73145136D01*
X103241663Y-73147454D01*
X103241657Y-73147455D01*
X103217854Y-73155744D01*
X103203045Y-73159907D01*
X103178399Y-73165236D01*
X103178395Y-73165237D01*
X103171514Y-73166725D01*
X103133605Y-73184402D01*
X103121829Y-73189184D01*
X103082319Y-73202943D01*
X103054963Y-73220037D01*
X103041444Y-73227377D01*
X103018585Y-73238036D01*
X103018582Y-73238038D01*
X103012206Y-73241011D01*
X102997564Y-73252368D01*
X102997317Y-73252560D01*
X102931231Y-73278507D01*
X102920091Y-73279000D01*
X101789616Y-73279000D01*
X101774377Y-73283475D01*
X101773172Y-73284865D01*
X101771501Y-73292548D01*
X101771501Y-73419669D01*
X101771871Y-73426490D01*
X101777395Y-73477352D01*
X101781021Y-73492604D01*
X101826927Y-73615058D01*
X101832110Y-73685866D01*
X101826927Y-73703518D01*
X101777755Y-73834684D01*
X101771000Y-73896866D01*
X101771000Y-74693134D01*
X101777755Y-74755316D01*
X101780527Y-74762712D01*
X101780529Y-74762718D01*
X101826660Y-74885771D01*
X101831843Y-74956578D01*
X101826660Y-74974229D01*
X101780529Y-75097282D01*
X101780527Y-75097288D01*
X101777755Y-75104684D01*
X101771000Y-75166866D01*
X101771000Y-75925500D01*
X101750998Y-75993621D01*
X101697342Y-76040114D01*
X101645000Y-76051500D01*
X99015000Y-76051500D01*
X98946879Y-76031498D01*
X98900386Y-75977842D01*
X98889000Y-75925500D01*
X98889000Y-75166866D01*
X98882245Y-75104684D01*
X98879473Y-75097288D01*
X98879471Y-75097282D01*
X98833340Y-74974229D01*
X98828157Y-74903422D01*
X98833340Y-74885771D01*
X98879471Y-74762718D01*
X98879473Y-74762712D01*
X98882245Y-74755316D01*
X98889000Y-74693134D01*
X98889000Y-73896866D01*
X98882245Y-73834684D01*
X98879473Y-73827288D01*
X98879471Y-73827282D01*
X98833340Y-73704229D01*
X98828157Y-73633422D01*
X98833340Y-73615771D01*
X98879471Y-73492718D01*
X98879473Y-73492712D01*
X98882245Y-73485316D01*
X98889000Y-73423134D01*
X98889000Y-72752885D01*
X101771500Y-72752885D01*
X101775975Y-72768124D01*
X101777365Y-72769329D01*
X101785048Y-72771000D01*
X102769885Y-72771000D01*
X102785124Y-72766525D01*
X102786329Y-72765135D01*
X102788000Y-72757452D01*
X102788000Y-72752885D01*
X103296000Y-72752885D01*
X103300475Y-72768124D01*
X103301865Y-72769329D01*
X103309548Y-72771000D01*
X104294384Y-72771000D01*
X104309623Y-72766525D01*
X104310828Y-72765135D01*
X104312499Y-72757452D01*
X104312499Y-72630331D01*
X104312129Y-72623510D01*
X104306605Y-72572648D01*
X104302979Y-72557396D01*
X104257824Y-72436946D01*
X104249286Y-72421351D01*
X104172785Y-72319276D01*
X104160224Y-72306715D01*
X104058149Y-72230214D01*
X104042554Y-72221676D01*
X103922106Y-72176522D01*
X103906851Y-72172895D01*
X103855986Y-72167369D01*
X103849172Y-72167000D01*
X103314115Y-72167000D01*
X103298876Y-72171475D01*
X103297671Y-72172865D01*
X103296000Y-72180548D01*
X103296000Y-72752885D01*
X102788000Y-72752885D01*
X102788000Y-72185116D01*
X102783525Y-72169877D01*
X102782135Y-72168672D01*
X102774452Y-72167001D01*
X102234831Y-72167001D01*
X102228010Y-72167371D01*
X102177148Y-72172895D01*
X102161896Y-72176521D01*
X102041446Y-72221676D01*
X102025851Y-72230214D01*
X101923776Y-72306715D01*
X101911215Y-72319276D01*
X101834714Y-72421351D01*
X101826176Y-72436946D01*
X101781022Y-72557394D01*
X101777395Y-72572649D01*
X101771869Y-72623514D01*
X101771500Y-72630328D01*
X101771500Y-72752885D01*
X98889000Y-72752885D01*
X98889000Y-72626866D01*
X98882245Y-72564684D01*
X98831115Y-72428295D01*
X98743761Y-72311739D01*
X98627205Y-72224385D01*
X98490816Y-72173255D01*
X98491279Y-72172019D01*
X98436710Y-72140847D01*
X98403888Y-72077892D01*
X98401500Y-72053479D01*
X98401500Y-71691981D01*
X98421502Y-71623860D01*
X98475158Y-71577367D01*
X98545432Y-71567263D01*
X98593616Y-71584721D01*
X98734032Y-71671275D01*
X98740262Y-71675115D01*
X98791112Y-71691981D01*
X98901611Y-71728632D01*
X98901613Y-71728632D01*
X98908139Y-71730797D01*
X98914975Y-71731497D01*
X98914978Y-71731498D01*
X98958031Y-71735909D01*
X99012600Y-71741500D01*
X99738400Y-71741500D01*
X99741646Y-71741163D01*
X99741650Y-71741163D01*
X99837308Y-71731238D01*
X99837312Y-71731237D01*
X99844166Y-71730526D01*
X99850702Y-71728345D01*
X99850704Y-71728345D01*
X99982806Y-71684272D01*
X100011946Y-71674550D01*
X100162348Y-71581478D01*
X100287305Y-71456303D01*
X100321380Y-71401023D01*
X100376275Y-71311968D01*
X100376276Y-71311966D01*
X100380115Y-71305738D01*
X100435797Y-71137861D01*
X100446500Y-71033400D01*
X101229500Y-71033400D01*
X101229837Y-71036646D01*
X101229837Y-71036650D01*
X101234329Y-71079937D01*
X101240474Y-71139166D01*
X101242655Y-71145702D01*
X101242655Y-71145704D01*
X101268489Y-71223138D01*
X101296450Y-71306946D01*
X101389522Y-71457348D01*
X101514697Y-71582305D01*
X101520927Y-71586145D01*
X101520928Y-71586146D01*
X101658090Y-71670694D01*
X101665262Y-71675115D01*
X101716112Y-71691981D01*
X101826611Y-71728632D01*
X101826613Y-71728632D01*
X101833139Y-71730797D01*
X101839975Y-71731497D01*
X101839978Y-71731498D01*
X101883031Y-71735909D01*
X101937600Y-71741500D01*
X102663400Y-71741500D01*
X102666646Y-71741163D01*
X102666650Y-71741163D01*
X102762308Y-71731238D01*
X102762312Y-71731237D01*
X102769166Y-71730526D01*
X102775702Y-71728345D01*
X102775704Y-71728345D01*
X102907806Y-71684272D01*
X102936946Y-71674550D01*
X103087348Y-71581478D01*
X103212305Y-71456303D01*
X103246380Y-71401023D01*
X103301275Y-71311968D01*
X103301276Y-71311966D01*
X103305115Y-71305738D01*
X103330955Y-71227833D01*
X103371386Y-71169473D01*
X103436950Y-71142236D01*
X103450548Y-71141500D01*
X103559462Y-71141500D01*
X103627583Y-71161502D01*
X103674076Y-71215158D01*
X103678986Y-71227624D01*
X103692545Y-71268265D01*
X103705450Y-71306946D01*
X103798522Y-71457348D01*
X103923697Y-71582305D01*
X103929927Y-71586145D01*
X103929928Y-71586146D01*
X104067090Y-71670694D01*
X104074262Y-71675115D01*
X104125112Y-71691981D01*
X104235611Y-71728632D01*
X104235613Y-71728632D01*
X104242139Y-71730797D01*
X104248975Y-71731497D01*
X104248978Y-71731498D01*
X104292031Y-71735909D01*
X104346600Y-71741500D01*
X105072400Y-71741500D01*
X105075646Y-71741163D01*
X105075650Y-71741163D01*
X105171308Y-71731238D01*
X105171312Y-71731237D01*
X105178166Y-71730526D01*
X105184702Y-71728345D01*
X105184704Y-71728345D01*
X105316806Y-71684272D01*
X105345946Y-71674550D01*
X105496348Y-71581478D01*
X105621305Y-71456303D01*
X105655380Y-71401023D01*
X105710275Y-71311968D01*
X105710276Y-71311966D01*
X105714115Y-71305738D01*
X105769797Y-71137861D01*
X105780500Y-71033400D01*
X106563500Y-71033400D01*
X106563837Y-71036646D01*
X106563837Y-71036650D01*
X106568329Y-71079937D01*
X106574474Y-71139166D01*
X106576655Y-71145702D01*
X106576655Y-71145704D01*
X106602489Y-71223138D01*
X106630450Y-71306946D01*
X106723522Y-71457348D01*
X106848697Y-71582305D01*
X106854927Y-71586145D01*
X106854928Y-71586146D01*
X106992090Y-71670694D01*
X106999262Y-71675115D01*
X107050112Y-71691981D01*
X107160611Y-71728632D01*
X107160613Y-71728632D01*
X107167139Y-71730797D01*
X107173975Y-71731497D01*
X107173978Y-71731498D01*
X107217031Y-71735909D01*
X107271600Y-71741500D01*
X107997400Y-71741500D01*
X108000646Y-71741163D01*
X108000650Y-71741163D01*
X108096308Y-71731238D01*
X108096312Y-71731237D01*
X108103166Y-71730526D01*
X108109702Y-71728345D01*
X108109704Y-71728345D01*
X108241806Y-71684272D01*
X108270946Y-71674550D01*
X108421348Y-71581478D01*
X108546305Y-71456303D01*
X108580380Y-71401023D01*
X108635275Y-71311968D01*
X108635276Y-71311966D01*
X108639115Y-71305738D01*
X108694797Y-71137861D01*
X108705500Y-71033400D01*
X108705500Y-70525095D01*
X109336001Y-70525095D01*
X109336338Y-70531614D01*
X109346257Y-70627206D01*
X109349149Y-70640600D01*
X109400588Y-70794784D01*
X109406761Y-70807962D01*
X109492063Y-70945807D01*
X109501099Y-70957208D01*
X109615829Y-71071739D01*
X109627240Y-71080751D01*
X109765243Y-71165816D01*
X109778424Y-71171963D01*
X109932710Y-71223138D01*
X109946086Y-71226005D01*
X110040438Y-71235672D01*
X110046854Y-71236000D01*
X110471885Y-71236000D01*
X110487124Y-71231525D01*
X110488329Y-71230135D01*
X110490000Y-71222452D01*
X110490000Y-71217884D01*
X110998000Y-71217884D01*
X111002475Y-71233123D01*
X111003865Y-71234328D01*
X111011548Y-71235999D01*
X111441095Y-71235999D01*
X111447614Y-71235662D01*
X111543206Y-71225743D01*
X111556600Y-71222851D01*
X111710784Y-71171412D01*
X111723962Y-71165239D01*
X111861807Y-71079937D01*
X111873208Y-71070901D01*
X111987739Y-70956171D01*
X111996751Y-70944760D01*
X112081816Y-70806757D01*
X112087963Y-70793576D01*
X112139138Y-70639290D01*
X112142005Y-70625914D01*
X112151672Y-70531562D01*
X112152000Y-70525146D01*
X112152000Y-70425115D01*
X112147525Y-70409876D01*
X112146135Y-70408671D01*
X112138452Y-70407000D01*
X111016115Y-70407000D01*
X111000876Y-70411475D01*
X110999671Y-70412865D01*
X110998000Y-70420548D01*
X110998000Y-71217884D01*
X110490000Y-71217884D01*
X110490000Y-70425115D01*
X110485525Y-70409876D01*
X110484135Y-70408671D01*
X110476452Y-70407000D01*
X109354116Y-70407000D01*
X109338877Y-70411475D01*
X109337672Y-70412865D01*
X109336001Y-70420548D01*
X109336001Y-70525095D01*
X108705500Y-70525095D01*
X108705500Y-70447226D01*
X108725502Y-70379105D01*
X108742405Y-70358131D01*
X109184627Y-69915909D01*
X109246939Y-69881883D01*
X109317754Y-69886948D01*
X109331420Y-69895057D01*
X109349548Y-69899000D01*
X112133884Y-69899000D01*
X112149123Y-69894525D01*
X112150328Y-69893135D01*
X112154878Y-69872217D01*
X112157632Y-69872816D01*
X112172001Y-69823879D01*
X112225657Y-69777386D01*
X112277999Y-69766000D01*
X112958041Y-69766000D01*
X113026162Y-69786002D01*
X113047059Y-69802827D01*
X113133516Y-69889134D01*
X113133521Y-69889138D01*
X113138697Y-69894305D01*
X113144927Y-69898145D01*
X113144928Y-69898146D01*
X113282090Y-69982694D01*
X113289262Y-69987115D01*
X113331625Y-70001166D01*
X113450611Y-70040632D01*
X113450613Y-70040632D01*
X113457139Y-70042797D01*
X113463975Y-70043497D01*
X113463978Y-70043498D01*
X113494041Y-70046578D01*
X113561600Y-70053500D01*
X116562400Y-70053500D01*
X116565646Y-70053163D01*
X116565650Y-70053163D01*
X116661308Y-70043238D01*
X116661312Y-70043237D01*
X116668166Y-70042526D01*
X116674702Y-70040345D01*
X116674704Y-70040345D01*
X116806806Y-69996272D01*
X116835946Y-69986550D01*
X116986348Y-69893478D01*
X117018908Y-69860862D01*
X117081189Y-69826783D01*
X117108080Y-69823880D01*
X121059638Y-69823880D01*
X121127759Y-69843882D01*
X121162852Y-69877611D01*
X121167802Y-69884680D01*
X121313922Y-70030800D01*
X121347948Y-70093112D01*
X121342883Y-70163927D01*
X121300336Y-70220763D01*
X121263394Y-70238063D01*
X121263793Y-70239128D01*
X121135946Y-70287056D01*
X121120351Y-70295594D01*
X121018276Y-70372095D01*
X121005715Y-70384656D01*
X120929214Y-70486731D01*
X120920676Y-70502326D01*
X120875522Y-70622774D01*
X120871895Y-70638029D01*
X120866369Y-70688894D01*
X120866000Y-70695708D01*
X120866000Y-71268265D01*
X120870475Y-71283504D01*
X120871865Y-71284709D01*
X120879548Y-71286380D01*
X123463884Y-71286380D01*
X123479123Y-71281905D01*
X123480328Y-71280515D01*
X123481999Y-71272832D01*
X123481999Y-70695711D01*
X123481629Y-70688890D01*
X123476105Y-70638028D01*
X123472479Y-70622776D01*
X123427324Y-70502326D01*
X123418786Y-70486731D01*
X123342285Y-70384656D01*
X123329724Y-70372095D01*
X123227649Y-70295594D01*
X123212054Y-70287056D01*
X123084207Y-70239128D01*
X123084904Y-70237268D01*
X123032372Y-70207249D01*
X122999558Y-70144290D01*
X123005992Y-70073586D01*
X123034079Y-70030799D01*
X123180198Y-69884680D01*
X123185148Y-69877611D01*
X123186227Y-69876749D01*
X123186892Y-69875956D01*
X123187051Y-69876090D01*
X123240604Y-69833282D01*
X123288362Y-69823880D01*
X129626654Y-69823880D01*
X129694775Y-69843882D01*
X129715749Y-69860785D01*
X130263595Y-70408631D01*
X130297621Y-70470943D01*
X130300500Y-70497726D01*
X130300500Y-71496400D01*
X130300837Y-71499646D01*
X130300837Y-71499650D01*
X130309812Y-71586146D01*
X130311474Y-71602166D01*
X130313655Y-71608702D01*
X130313655Y-71608704D01*
X130354298Y-71730526D01*
X130367450Y-71769946D01*
X130460522Y-71920348D01*
X130585697Y-72045305D01*
X130591927Y-72049145D01*
X130591928Y-72049146D01*
X130729090Y-72133694D01*
X130736262Y-72138115D01*
X130744499Y-72140847D01*
X130897611Y-72191632D01*
X130897613Y-72191632D01*
X130904139Y-72193797D01*
X130910975Y-72194497D01*
X130910978Y-72194498D01*
X130940026Y-72197474D01*
X131008600Y-72204500D01*
X132609400Y-72204500D01*
X132612646Y-72204163D01*
X132612650Y-72204163D01*
X132708308Y-72194238D01*
X132708312Y-72194237D01*
X132715166Y-72193526D01*
X132721702Y-72191345D01*
X132721704Y-72191345D01*
X132873064Y-72140847D01*
X132882946Y-72137550D01*
X133033348Y-72044478D01*
X133058283Y-72019500D01*
X133153134Y-71924483D01*
X133158305Y-71919303D01*
X133251115Y-71768738D01*
X133299837Y-71621846D01*
X133304632Y-71607389D01*
X133304632Y-71607387D01*
X133306797Y-71600861D01*
X133310240Y-71567263D01*
X133317172Y-71499598D01*
X133317500Y-71496400D01*
X133317500Y-70195600D01*
X133313954Y-70161423D01*
X133307238Y-70096692D01*
X133307237Y-70096688D01*
X133306526Y-70089834D01*
X133304293Y-70083139D01*
X133252868Y-69929002D01*
X133250550Y-69922054D01*
X133157478Y-69771652D01*
X133032303Y-69646695D01*
X132886220Y-69556647D01*
X132838727Y-69503876D01*
X132827303Y-69433804D01*
X132855577Y-69368680D01*
X132865364Y-69358218D01*
X132975906Y-69252766D01*
X132982941Y-69244814D01*
X133114141Y-69068475D01*
X133119745Y-69059438D01*
X133219357Y-68863516D01*
X133223357Y-68853665D01*
X133288534Y-68643760D01*
X133290817Y-68633376D01*
X133292861Y-68617957D01*
X133290665Y-68603793D01*
X133277478Y-68600000D01*
X131681000Y-68600000D01*
X131612879Y-68579998D01*
X131566386Y-68526342D01*
X131555000Y-68474000D01*
X131555000Y-68073885D01*
X132063000Y-68073885D01*
X132067475Y-68089124D01*
X132068865Y-68090329D01*
X132076548Y-68092000D01*
X133275192Y-68092000D01*
X133288723Y-68088027D01*
X133290248Y-68077420D01*
X133265523Y-67959579D01*
X133262463Y-67949383D01*
X133181737Y-67744971D01*
X133177006Y-67735439D01*
X133062984Y-67547538D01*
X133056720Y-67538948D01*
X132912673Y-67372948D01*
X132905042Y-67365528D01*
X132735089Y-67226174D01*
X132726322Y-67220150D01*
X132535318Y-67111424D01*
X132525654Y-67106959D01*
X132319059Y-67031969D01*
X132308792Y-67029198D01*
X132091345Y-66989877D01*
X132083116Y-66988944D01*
X132078624Y-66988732D01*
X132065876Y-66992475D01*
X132064671Y-66993865D01*
X132063000Y-67001548D01*
X132063000Y-68073885D01*
X131555000Y-68073885D01*
X131555000Y-67010030D01*
X131550690Y-66995352D01*
X131538807Y-66993289D01*
X131434675Y-67002124D01*
X131424203Y-67003914D01*
X131211465Y-67059130D01*
X131201425Y-67062665D01*
X131001030Y-67152937D01*
X130991744Y-67158106D01*
X130809425Y-67280850D01*
X130801130Y-67287519D01*
X130642100Y-67439228D01*
X130635059Y-67447186D01*
X130503859Y-67623525D01*
X130498255Y-67632562D01*
X130398643Y-67828484D01*
X130394643Y-67838335D01*
X130329466Y-68048240D01*
X130327183Y-68058624D01*
X130313278Y-68163533D01*
X130284498Y-68228435D01*
X130225199Y-68267474D01*
X130172582Y-68271984D01*
X130147286Y-68268788D01*
X130134749Y-68266555D01*
X130127510Y-68264884D01*
X130094003Y-68257148D01*
X130086963Y-68257123D01*
X130086960Y-68257123D01*
X130054676Y-68257010D01*
X130053839Y-68256982D01*
X130053026Y-68256880D01*
X130017434Y-68256880D01*
X130016994Y-68256879D01*
X130011239Y-68256859D01*
X129918227Y-68256534D01*
X129917059Y-68256795D01*
X129915491Y-68256880D01*
X123288362Y-68256880D01*
X123220241Y-68236878D01*
X123185148Y-68203149D01*
X123183358Y-68200593D01*
X123180198Y-68196080D01*
X123018300Y-68034182D01*
X123013792Y-68031025D01*
X123013789Y-68031023D01*
X122897195Y-67949383D01*
X122830749Y-67902857D01*
X122825767Y-67900534D01*
X122825762Y-67900531D01*
X122628225Y-67808419D01*
X122628224Y-67808419D01*
X122623243Y-67806096D01*
X122617935Y-67804674D01*
X122617933Y-67804673D01*
X122407402Y-67748261D01*
X122407400Y-67748261D01*
X122402087Y-67746837D01*
X122174000Y-67726882D01*
X121945913Y-67746837D01*
X121940600Y-67748261D01*
X121940598Y-67748261D01*
X121730067Y-67804673D01*
X121730065Y-67804674D01*
X121724757Y-67806096D01*
X121719776Y-67808419D01*
X121719775Y-67808419D01*
X121522238Y-67900531D01*
X121522233Y-67900534D01*
X121517251Y-67902857D01*
X121450805Y-67949383D01*
X121334211Y-68031023D01*
X121334208Y-68031025D01*
X121329700Y-68034182D01*
X121167802Y-68196080D01*
X121164642Y-68200593D01*
X121162852Y-68203149D01*
X121161773Y-68204011D01*
X121161108Y-68204804D01*
X121160949Y-68204670D01*
X121107396Y-68247478D01*
X121059638Y-68256880D01*
X117218569Y-68256880D01*
X117150448Y-68236878D01*
X117120453Y-68206361D01*
X117118875Y-68207612D01*
X117114332Y-68201880D01*
X117110478Y-68195652D01*
X116985303Y-68070695D01*
X116979072Y-68066854D01*
X116840968Y-67981725D01*
X116840966Y-67981724D01*
X116834738Y-67977885D01*
X116674254Y-67924655D01*
X116673389Y-67924368D01*
X116673387Y-67924368D01*
X116666861Y-67922203D01*
X116660025Y-67921503D01*
X116660022Y-67921502D01*
X116616969Y-67917091D01*
X116562400Y-67911500D01*
X113561600Y-67911500D01*
X113558354Y-67911837D01*
X113558350Y-67911837D01*
X113462692Y-67921762D01*
X113462688Y-67921763D01*
X113455834Y-67922474D01*
X113449298Y-67924655D01*
X113449296Y-67924655D01*
X113375178Y-67949383D01*
X113288054Y-67978450D01*
X113137652Y-68071522D01*
X113132479Y-68076704D01*
X113047314Y-68162018D01*
X112985032Y-68196097D01*
X112958141Y-68199000D01*
X109019001Y-68199000D01*
X109017681Y-68198993D01*
X109016635Y-68198982D01*
X108930322Y-68198078D01*
X108923440Y-68199566D01*
X108923439Y-68199566D01*
X108889445Y-68206915D01*
X108876867Y-68208975D01*
X108842312Y-68212851D01*
X108842308Y-68212852D01*
X108835318Y-68213636D01*
X108828672Y-68215951D01*
X108828670Y-68215951D01*
X108804860Y-68224243D01*
X108790046Y-68228407D01*
X108765396Y-68233736D01*
X108765395Y-68233736D01*
X108758514Y-68235224D01*
X108720613Y-68252898D01*
X108708807Y-68257692D01*
X108675966Y-68269128D01*
X108675964Y-68269129D01*
X108669319Y-68271443D01*
X108663349Y-68275174D01*
X108663348Y-68275174D01*
X108641966Y-68288535D01*
X108628446Y-68295876D01*
X108605585Y-68306536D01*
X108605582Y-68306538D01*
X108599206Y-68309511D01*
X108593646Y-68313824D01*
X108593644Y-68313825D01*
X108566165Y-68335140D01*
X108555717Y-68342429D01*
X108520251Y-68364591D01*
X108511590Y-68373192D01*
X108492328Y-68392319D01*
X108491736Y-68392873D01*
X108491087Y-68393377D01*
X108465935Y-68418529D01*
X108395525Y-68488449D01*
X108394884Y-68489459D01*
X108393826Y-68490638D01*
X107946869Y-68937595D01*
X107884557Y-68971621D01*
X107857774Y-68974500D01*
X107271600Y-68974500D01*
X107268354Y-68974837D01*
X107268350Y-68974837D01*
X107172692Y-68984762D01*
X107172688Y-68984763D01*
X107165834Y-68985474D01*
X107159298Y-68987655D01*
X107159296Y-68987655D01*
X107027194Y-69031728D01*
X106998054Y-69041450D01*
X106847652Y-69134522D01*
X106722695Y-69259697D01*
X106718855Y-69265927D01*
X106718854Y-69265928D01*
X106655517Y-69368680D01*
X106629885Y-69410262D01*
X106622077Y-69433804D01*
X106576876Y-69570081D01*
X106574203Y-69578139D01*
X106573503Y-69584975D01*
X106573502Y-69584978D01*
X106569091Y-69628031D01*
X106563500Y-69682600D01*
X106563500Y-71033400D01*
X105780500Y-71033400D01*
X105780500Y-69682600D01*
X105780163Y-69679350D01*
X105770238Y-69583692D01*
X105770237Y-69583688D01*
X105769526Y-69576834D01*
X105762792Y-69556648D01*
X105715868Y-69416002D01*
X105713550Y-69409054D01*
X105620478Y-69258652D01*
X105495303Y-69133695D01*
X105389497Y-69068475D01*
X105350968Y-69044725D01*
X105350966Y-69044724D01*
X105344738Y-69040885D01*
X105184254Y-68987655D01*
X105183389Y-68987368D01*
X105183387Y-68987368D01*
X105176861Y-68985203D01*
X105170025Y-68984503D01*
X105170022Y-68984502D01*
X105126969Y-68980091D01*
X105072400Y-68974500D01*
X104346600Y-68974500D01*
X104343354Y-68974837D01*
X104343350Y-68974837D01*
X104247692Y-68984762D01*
X104247688Y-68984763D01*
X104240834Y-68985474D01*
X104234298Y-68987655D01*
X104234296Y-68987655D01*
X104102194Y-69031728D01*
X104073054Y-69041450D01*
X103922652Y-69134522D01*
X103797695Y-69259697D01*
X103793855Y-69265927D01*
X103793854Y-69265928D01*
X103730517Y-69368680D01*
X103704885Y-69410262D01*
X103697077Y-69433804D01*
X103679045Y-69488167D01*
X103638614Y-69546527D01*
X103573050Y-69573764D01*
X103559452Y-69574500D01*
X103450538Y-69574500D01*
X103382417Y-69554498D01*
X103335924Y-69500842D01*
X103331014Y-69488376D01*
X103306868Y-69416002D01*
X103304550Y-69409054D01*
X103211478Y-69258652D01*
X103086303Y-69133695D01*
X102980497Y-69068475D01*
X102941968Y-69044725D01*
X102941966Y-69044724D01*
X102935738Y-69040885D01*
X102775254Y-68987655D01*
X102774389Y-68987368D01*
X102774387Y-68987368D01*
X102767861Y-68985203D01*
X102761025Y-68984503D01*
X102761022Y-68984502D01*
X102717969Y-68980091D01*
X102663400Y-68974500D01*
X101937600Y-68974500D01*
X101934354Y-68974837D01*
X101934350Y-68974837D01*
X101838692Y-68984762D01*
X101838688Y-68984763D01*
X101831834Y-68985474D01*
X101825298Y-68987655D01*
X101825296Y-68987655D01*
X101693194Y-69031728D01*
X101664054Y-69041450D01*
X101513652Y-69134522D01*
X101388695Y-69259697D01*
X101384855Y-69265927D01*
X101384854Y-69265928D01*
X101321517Y-69368680D01*
X101295885Y-69410262D01*
X101288077Y-69433804D01*
X101242876Y-69570081D01*
X101240203Y-69578139D01*
X101239503Y-69584975D01*
X101239502Y-69584978D01*
X101235091Y-69628031D01*
X101229500Y-69682600D01*
X101229500Y-71033400D01*
X100446500Y-71033400D01*
X100446500Y-69682600D01*
X100446163Y-69679350D01*
X100436238Y-69583692D01*
X100436237Y-69583688D01*
X100435526Y-69576834D01*
X100428792Y-69556648D01*
X100381868Y-69416002D01*
X100379550Y-69409054D01*
X100286478Y-69258652D01*
X100161303Y-69133695D01*
X100055497Y-69068475D01*
X100016968Y-69044725D01*
X100016966Y-69044724D01*
X100010738Y-69040885D01*
X99850254Y-68987655D01*
X99849389Y-68987368D01*
X99849387Y-68987368D01*
X99842861Y-68985203D01*
X99836025Y-68984503D01*
X99836022Y-68984502D01*
X99792969Y-68980091D01*
X99738400Y-68974500D01*
X99012600Y-68974500D01*
X99009354Y-68974837D01*
X99009350Y-68974837D01*
X98913692Y-68984762D01*
X98913688Y-68984763D01*
X98906834Y-68985474D01*
X98900298Y-68987655D01*
X98900296Y-68987655D01*
X98768194Y-69031728D01*
X98739054Y-69041450D01*
X98588652Y-69134522D01*
X98463695Y-69259697D01*
X98459855Y-69265927D01*
X98459854Y-69265928D01*
X98396517Y-69368680D01*
X98370885Y-69410262D01*
X98345045Y-69488167D01*
X98316390Y-69574560D01*
X98275959Y-69632920D01*
X98210395Y-69660157D01*
X98140514Y-69647624D01*
X98126345Y-69638626D01*
X98126303Y-69638695D01*
X97981968Y-69549725D01*
X97981966Y-69549724D01*
X97975738Y-69545885D01*
X97884898Y-69515755D01*
X97814389Y-69492368D01*
X97814387Y-69492368D01*
X97807861Y-69490203D01*
X97801025Y-69489503D01*
X97801022Y-69489502D01*
X97757969Y-69485091D01*
X97703400Y-69479500D01*
X96352600Y-69479500D01*
X96349354Y-69479837D01*
X96349350Y-69479837D01*
X96253692Y-69489762D01*
X96253688Y-69489763D01*
X96246834Y-69490474D01*
X96240298Y-69492655D01*
X96240296Y-69492655D01*
X96160876Y-69519152D01*
X96079054Y-69546450D01*
X95928652Y-69639522D01*
X95803695Y-69764697D01*
X95799855Y-69770927D01*
X95799854Y-69770928D01*
X95723340Y-69895057D01*
X95710885Y-69915262D01*
X95708581Y-69922209D01*
X95658372Y-70073586D01*
X95655203Y-70083139D01*
X95644500Y-70187600D01*
X95644500Y-70913400D01*
X95644837Y-70916646D01*
X95644837Y-70916650D01*
X95647212Y-70939534D01*
X95655474Y-71019166D01*
X95657655Y-71025702D01*
X95657655Y-71025704D01*
X95697252Y-71144389D01*
X95711450Y-71186946D01*
X95804522Y-71337348D01*
X95929697Y-71462305D01*
X95935927Y-71466145D01*
X95935928Y-71466146D01*
X95990282Y-71499650D01*
X96080262Y-71555115D01*
X96144121Y-71576296D01*
X96241611Y-71608632D01*
X96241613Y-71608632D01*
X96248139Y-71610797D01*
X96254975Y-71611497D01*
X96254978Y-71611498D01*
X96298031Y-71615909D01*
X96352600Y-71621500D01*
X96708500Y-71621500D01*
X96776621Y-71641502D01*
X96823114Y-71695158D01*
X96834500Y-71747500D01*
X96834500Y-72053479D01*
X96814498Y-72121600D01*
X96760842Y-72168093D01*
X96746106Y-72173155D01*
X96745184Y-72173255D01*
X96738286Y-72175841D01*
X96738280Y-72175843D01*
X96674762Y-72199655D01*
X96608795Y-72224385D01*
X96492239Y-72311739D01*
X96404885Y-72428295D01*
X96353755Y-72564684D01*
X96347000Y-72626866D01*
X96347000Y-73385500D01*
X96326998Y-73453621D01*
X96273342Y-73500114D01*
X96221000Y-73511500D01*
X94939453Y-73511500D01*
X94938133Y-73511493D01*
X94850822Y-73510578D01*
X94843937Y-73512067D01*
X94843934Y-73512067D01*
X94809955Y-73519414D01*
X94797372Y-73521475D01*
X94788885Y-73522427D01*
X94755818Y-73526136D01*
X94749163Y-73528454D01*
X94749157Y-73528455D01*
X94725354Y-73536744D01*
X94710545Y-73540907D01*
X94685899Y-73546236D01*
X94685895Y-73546237D01*
X94679014Y-73547725D01*
X94641105Y-73565402D01*
X94629329Y-73570184D01*
X94589819Y-73583943D01*
X94562463Y-73601037D01*
X94548944Y-73608377D01*
X94526085Y-73619036D01*
X94526082Y-73619038D01*
X94519706Y-73622011D01*
X94514146Y-73626324D01*
X94514144Y-73626325D01*
X94486665Y-73647640D01*
X94476217Y-73654929D01*
X94440751Y-73677091D01*
X94419398Y-73698295D01*
X94412828Y-73704819D01*
X94412236Y-73705373D01*
X94411587Y-73705877D01*
X94386435Y-73731029D01*
X94316025Y-73800949D01*
X94315384Y-73801959D01*
X94314326Y-73803138D01*
X93815095Y-74302369D01*
X93752783Y-74336395D01*
X93681968Y-74331330D01*
X93636905Y-74302369D01*
X92514405Y-73179869D01*
X92480379Y-73117557D01*
X92477500Y-73090774D01*
X92477500Y-72281983D01*
X92497502Y-72213862D01*
X92531231Y-72178769D01*
X92533787Y-72176979D01*
X92538300Y-72173819D01*
X92700198Y-72011921D01*
X92831523Y-71824370D01*
X92833846Y-71819388D01*
X92833849Y-71819383D01*
X92925961Y-71621846D01*
X92925961Y-71621845D01*
X92928284Y-71616864D01*
X92930471Y-71608704D01*
X92986119Y-71401023D01*
X92986119Y-71401021D01*
X92987543Y-71395708D01*
X93007498Y-71167621D01*
X92987543Y-70939534D01*
X92981411Y-70916650D01*
X92929707Y-70723688D01*
X92929706Y-70723686D01*
X92928284Y-70718378D01*
X92917713Y-70695708D01*
X92833849Y-70515859D01*
X92833846Y-70515854D01*
X92831523Y-70510872D01*
X92743145Y-70384656D01*
X92703357Y-70327832D01*
X92703355Y-70327829D01*
X92700198Y-70323321D01*
X92554498Y-70177621D01*
X92520472Y-70115309D01*
X92525537Y-70044494D01*
X92568084Y-69987658D01*
X92604737Y-69970489D01*
X92604316Y-69969366D01*
X92730107Y-69922209D01*
X92740705Y-69918236D01*
X92857261Y-69830882D01*
X92944615Y-69714326D01*
X92995745Y-69577937D01*
X93002500Y-69515755D01*
X93002500Y-67985095D01*
X95645001Y-67985095D01*
X95645338Y-67991614D01*
X95655257Y-68087206D01*
X95658149Y-68100600D01*
X95709588Y-68254784D01*
X95715761Y-68267962D01*
X95801063Y-68405807D01*
X95810099Y-68417208D01*
X95924829Y-68531739D01*
X95936240Y-68540751D01*
X96074243Y-68625816D01*
X96087424Y-68631963D01*
X96241710Y-68683138D01*
X96255086Y-68686005D01*
X96349438Y-68695672D01*
X96355854Y-68696000D01*
X96755885Y-68696000D01*
X96771124Y-68691525D01*
X96772329Y-68690135D01*
X96774000Y-68682452D01*
X96774000Y-68677884D01*
X97282000Y-68677884D01*
X97286475Y-68693123D01*
X97287865Y-68694328D01*
X97295548Y-68695999D01*
X97700095Y-68695999D01*
X97706614Y-68695662D01*
X97802206Y-68685743D01*
X97815600Y-68682851D01*
X97969784Y-68631412D01*
X97982962Y-68625239D01*
X98120807Y-68539937D01*
X98132208Y-68530901D01*
X98246739Y-68416171D01*
X98255751Y-68404760D01*
X98340816Y-68266757D01*
X98346963Y-68253576D01*
X98398138Y-68099290D01*
X98401005Y-68085914D01*
X98410672Y-67991562D01*
X98411000Y-67985146D01*
X98411000Y-67897615D01*
X98406525Y-67882376D01*
X98405135Y-67881171D01*
X98397452Y-67879500D01*
X97300115Y-67879500D01*
X97284876Y-67883975D01*
X97283671Y-67885365D01*
X97282000Y-67893048D01*
X97282000Y-68677884D01*
X96774000Y-68677884D01*
X96774000Y-67897615D01*
X96769525Y-67882376D01*
X96768135Y-67881171D01*
X96760452Y-67879500D01*
X95663116Y-67879500D01*
X95647877Y-67883975D01*
X95646672Y-67885365D01*
X95645001Y-67893048D01*
X95645001Y-67985095D01*
X93002500Y-67985095D01*
X93002500Y-67819487D01*
X92995745Y-67757305D01*
X92944615Y-67620916D01*
X92857261Y-67504360D01*
X92740705Y-67417006D01*
X92604316Y-67365876D01*
X92542134Y-67359121D01*
X90845866Y-67359121D01*
X90783684Y-67365876D01*
X90647295Y-67417006D01*
X90530739Y-67504360D01*
X90443385Y-67620916D01*
X90392255Y-67757305D01*
X90385500Y-67819487D01*
X90385500Y-69515755D01*
X90392255Y-69577937D01*
X90443385Y-69714326D01*
X90530739Y-69830882D01*
X90647295Y-69918236D01*
X90657893Y-69922209D01*
X90783684Y-69969366D01*
X90782954Y-69971312D01*
X90835205Y-70001166D01*
X90868021Y-70064124D01*
X90861591Y-70134828D01*
X90833502Y-70177621D01*
X90687802Y-70323321D01*
X90684645Y-70327829D01*
X90684643Y-70327832D01*
X90644855Y-70384656D01*
X90556477Y-70510872D01*
X90554154Y-70515854D01*
X90554151Y-70515859D01*
X90470287Y-70695708D01*
X90459716Y-70718378D01*
X90458294Y-70723686D01*
X90458293Y-70723688D01*
X90406589Y-70916650D01*
X90400457Y-70939534D01*
X90380502Y-71167621D01*
X76708000Y-71167621D01*
X76708000Y-67353385D01*
X95645000Y-67353385D01*
X95649475Y-67368624D01*
X95650865Y-67369829D01*
X95658548Y-67371500D01*
X96755885Y-67371500D01*
X96771124Y-67367025D01*
X96772329Y-67365635D01*
X96774000Y-67357952D01*
X96774000Y-67353385D01*
X97282000Y-67353385D01*
X97286475Y-67368624D01*
X97287865Y-67369829D01*
X97295548Y-67371500D01*
X98392884Y-67371500D01*
X98408123Y-67367025D01*
X98409328Y-67365635D01*
X98410999Y-67357952D01*
X98410999Y-67265905D01*
X98410662Y-67259386D01*
X98400743Y-67163794D01*
X98397851Y-67150400D01*
X98346412Y-66996216D01*
X98340239Y-66983038D01*
X98254937Y-66845193D01*
X98245901Y-66833792D01*
X98131171Y-66719261D01*
X98119760Y-66710249D01*
X97981757Y-66625184D01*
X97968576Y-66619037D01*
X97814290Y-66567862D01*
X97800914Y-66564995D01*
X97706562Y-66555328D01*
X97700145Y-66555000D01*
X97300115Y-66555000D01*
X97284876Y-66559475D01*
X97283671Y-66560865D01*
X97282000Y-66568548D01*
X97282000Y-67353385D01*
X96774000Y-67353385D01*
X96774000Y-66573116D01*
X96769525Y-66557877D01*
X96768135Y-66556672D01*
X96760452Y-66555001D01*
X96355905Y-66555001D01*
X96349386Y-66555338D01*
X96253794Y-66565257D01*
X96240400Y-66568149D01*
X96086216Y-66619588D01*
X96073038Y-66625761D01*
X95935193Y-66711063D01*
X95923792Y-66720099D01*
X95809261Y-66834829D01*
X95800249Y-66846240D01*
X95715184Y-66984243D01*
X95709037Y-66997424D01*
X95657862Y-67151710D01*
X95654995Y-67165086D01*
X95645328Y-67259438D01*
X95645000Y-67265855D01*
X95645000Y-67353385D01*
X76708000Y-67353385D01*
X76708000Y-63474580D01*
X82592752Y-63474580D01*
X82617477Y-63592421D01*
X82620537Y-63602617D01*
X82701263Y-63807029D01*
X82705994Y-63816561D01*
X82820016Y-64004462D01*
X82826280Y-64013052D01*
X82970327Y-64179052D01*
X82977958Y-64186472D01*
X83147911Y-64325826D01*
X83156678Y-64331850D01*
X83347682Y-64440576D01*
X83357346Y-64445041D01*
X83563941Y-64520031D01*
X83574208Y-64522802D01*
X83791655Y-64562123D01*
X83799884Y-64563056D01*
X83804376Y-64563268D01*
X83817124Y-64559525D01*
X83818329Y-64558135D01*
X83820000Y-64550452D01*
X83820000Y-64541970D01*
X84328000Y-64541970D01*
X84332310Y-64556648D01*
X84344193Y-64558711D01*
X84448325Y-64549876D01*
X84458797Y-64548086D01*
X84671535Y-64492870D01*
X84681575Y-64489335D01*
X84881970Y-64399063D01*
X84891256Y-64393894D01*
X85073575Y-64271150D01*
X85081870Y-64264481D01*
X85240900Y-64112772D01*
X85247941Y-64104814D01*
X85379141Y-63928475D01*
X85384745Y-63919438D01*
X85484357Y-63723516D01*
X85488357Y-63713665D01*
X85553534Y-63503760D01*
X85555817Y-63493376D01*
X85557861Y-63477957D01*
X85555665Y-63463793D01*
X85542478Y-63460000D01*
X84346115Y-63460000D01*
X84330876Y-63464475D01*
X84329671Y-63465865D01*
X84328000Y-63473548D01*
X84328000Y-64541970D01*
X83820000Y-64541970D01*
X83820000Y-63478115D01*
X83815525Y-63462876D01*
X83814135Y-63461671D01*
X83806452Y-63460000D01*
X82607808Y-63460000D01*
X82594277Y-63463973D01*
X82592752Y-63474580D01*
X76708000Y-63474580D01*
X76708000Y-63278047D01*
X76723311Y-63217848D01*
X79605406Y-57918512D01*
X81643251Y-54171506D01*
X90386000Y-54171506D01*
X90390475Y-54186745D01*
X90391865Y-54187950D01*
X90399548Y-54189621D01*
X91421885Y-54189621D01*
X91437124Y-54185146D01*
X91438329Y-54183756D01*
X91440000Y-54176073D01*
X91440000Y-54171506D01*
X91948000Y-54171506D01*
X91952475Y-54186745D01*
X91953865Y-54187950D01*
X91961548Y-54189621D01*
X92983884Y-54189621D01*
X92999123Y-54185146D01*
X93000328Y-54183756D01*
X93001999Y-54176073D01*
X93001999Y-53598952D01*
X93001629Y-53592131D01*
X92996105Y-53541269D01*
X92992479Y-53526017D01*
X92947324Y-53405567D01*
X92938786Y-53389972D01*
X92862285Y-53287897D01*
X92849724Y-53275336D01*
X92747649Y-53198835D01*
X92732054Y-53190297D01*
X92681606Y-53171385D01*
X95820000Y-53171385D01*
X95824475Y-53186624D01*
X95825865Y-53187829D01*
X95833548Y-53189500D01*
X96755885Y-53189500D01*
X96771124Y-53185025D01*
X96772329Y-53183635D01*
X96774000Y-53175952D01*
X96774000Y-53171385D01*
X97282000Y-53171385D01*
X97286475Y-53186624D01*
X97287865Y-53187829D01*
X97295548Y-53189500D01*
X98217884Y-53189500D01*
X98233123Y-53185025D01*
X98234328Y-53183635D01*
X98235999Y-53175952D01*
X98235999Y-53133905D01*
X98235662Y-53127386D01*
X98225743Y-53031794D01*
X98222851Y-53018400D01*
X98171412Y-52864216D01*
X98165239Y-52851038D01*
X98079937Y-52713193D01*
X98070901Y-52701792D01*
X97956171Y-52587261D01*
X97944760Y-52578249D01*
X97806757Y-52493184D01*
X97793576Y-52487037D01*
X97639290Y-52435862D01*
X97625914Y-52432995D01*
X97531562Y-52423328D01*
X97525145Y-52423000D01*
X97300115Y-52423000D01*
X97284876Y-52427475D01*
X97283671Y-52428865D01*
X97282000Y-52436548D01*
X97282000Y-53171385D01*
X96774000Y-53171385D01*
X96774000Y-52441116D01*
X96769525Y-52425877D01*
X96768135Y-52424672D01*
X96760452Y-52423001D01*
X96530905Y-52423001D01*
X96524386Y-52423338D01*
X96428794Y-52433257D01*
X96415400Y-52436149D01*
X96261216Y-52487588D01*
X96248038Y-52493761D01*
X96110193Y-52579063D01*
X96098792Y-52588099D01*
X95984261Y-52702829D01*
X95975249Y-52714240D01*
X95890184Y-52852243D01*
X95884037Y-52865424D01*
X95832862Y-53019710D01*
X95829995Y-53033086D01*
X95820328Y-53127438D01*
X95820000Y-53133855D01*
X95820000Y-53171385D01*
X92681606Y-53171385D01*
X92611606Y-53145143D01*
X92596351Y-53141516D01*
X92545486Y-53135990D01*
X92538672Y-53135621D01*
X91966115Y-53135621D01*
X91950876Y-53140096D01*
X91949671Y-53141486D01*
X91948000Y-53149169D01*
X91948000Y-54171506D01*
X91440000Y-54171506D01*
X91440000Y-53153737D01*
X91435525Y-53138498D01*
X91434135Y-53137293D01*
X91426452Y-53135622D01*
X90849331Y-53135622D01*
X90842510Y-53135992D01*
X90791648Y-53141516D01*
X90776396Y-53145142D01*
X90655946Y-53190297D01*
X90640351Y-53198835D01*
X90538276Y-53275336D01*
X90525715Y-53287897D01*
X90449214Y-53389972D01*
X90440676Y-53405567D01*
X90395522Y-53526015D01*
X90391895Y-53541270D01*
X90386369Y-53592135D01*
X90386000Y-53598949D01*
X90386000Y-54171506D01*
X81643251Y-54171506D01*
X84546214Y-48833800D01*
X84596331Y-48783514D01*
X84656902Y-48768000D01*
X116042406Y-48768000D01*
X116110527Y-48788002D01*
G37*
%TD.AperFunction*%
%TD*%
M02*
