%TF.GenerationSoftware,KiCad,Pcbnew,(6.0.7)*%
%TF.CreationDate,2023-02-14T14:27:57+01:00*%
%TF.ProjectId,WAFFLE,57414646-4c45-42e6-9b69-6361645f7063,rev?*%
%TF.SameCoordinates,Original*%
%TF.FileFunction,Legend,Top*%
%TF.FilePolarity,Positive*%
%FSLAX46Y46*%
G04 Gerber Fmt 4.6, Leading zero omitted, Abs format (unit mm)*
G04 Created by KiCad (PCBNEW (6.0.7)) date 2023-02-14 14:27:57*
%MOMM*%
%LPD*%
G01*
G04 APERTURE LIST*
%ADD10C,0.254000*%
%ADD11C,0.101600*%
%ADD12C,0.150000*%
%ADD13C,0.101734*%
%ADD14C,0.127000*%
%ADD15C,0.200000*%
%ADD16C,0.400000*%
%ADD17C,0.120000*%
%ADD18C,0.152400*%
G04 APERTURE END LIST*
D10*
%TO.C,PS1*%
X180457857Y-99574523D02*
X180457857Y-98304523D01*
X180941666Y-98304523D01*
X181062619Y-98365000D01*
X181123095Y-98425476D01*
X181183571Y-98546428D01*
X181183571Y-98727857D01*
X181123095Y-98848809D01*
X181062619Y-98909285D01*
X180941666Y-98969761D01*
X180457857Y-98969761D01*
X181667380Y-99514047D02*
X181848809Y-99574523D01*
X182151190Y-99574523D01*
X182272142Y-99514047D01*
X182332619Y-99453571D01*
X182393095Y-99332619D01*
X182393095Y-99211666D01*
X182332619Y-99090714D01*
X182272142Y-99030238D01*
X182151190Y-98969761D01*
X181909285Y-98909285D01*
X181788333Y-98848809D01*
X181727857Y-98788333D01*
X181667380Y-98667380D01*
X181667380Y-98546428D01*
X181727857Y-98425476D01*
X181788333Y-98365000D01*
X181909285Y-98304523D01*
X182211666Y-98304523D01*
X182393095Y-98365000D01*
X183602619Y-99574523D02*
X182876904Y-99574523D01*
X183239761Y-99574523D02*
X183239761Y-98304523D01*
X183118809Y-98485952D01*
X182997857Y-98606904D01*
X182876904Y-98667380D01*
D11*
%TO.C,IC1*%
X169859419Y-94528561D02*
X169859419Y-93360161D01*
X171083457Y-94417285D02*
X171027819Y-94472923D01*
X170860904Y-94528561D01*
X170749628Y-94528561D01*
X170582714Y-94472923D01*
X170471438Y-94361647D01*
X170415800Y-94250371D01*
X170360161Y-94027819D01*
X170360161Y-93860904D01*
X170415800Y-93638352D01*
X170471438Y-93527076D01*
X170582714Y-93415800D01*
X170749628Y-93360161D01*
X170860904Y-93360161D01*
X171027819Y-93415800D01*
X171083457Y-93471438D01*
X172196219Y-94528561D02*
X171528561Y-94528561D01*
X171862390Y-94528561D02*
X171862390Y-93360161D01*
X171751114Y-93527076D01*
X171639838Y-93638352D01*
X171528561Y-93693990D01*
D12*
%TO.C,J7*%
X188166666Y-109902380D02*
X188166666Y-110616666D01*
X188119047Y-110759523D01*
X188023809Y-110854761D01*
X187880952Y-110902380D01*
X187785714Y-110902380D01*
X188547619Y-109902380D02*
X189214285Y-109902380D01*
X188785714Y-110902380D01*
%TO.C,C_entr\u00E9e1*%
X186787142Y-103655952D02*
X186834761Y-103703571D01*
X186882380Y-103846428D01*
X186882380Y-103941666D01*
X186834761Y-104084523D01*
X186739523Y-104179761D01*
X186644285Y-104227380D01*
X186453809Y-104275000D01*
X186310952Y-104275000D01*
X186120476Y-104227380D01*
X186025238Y-104179761D01*
X185930000Y-104084523D01*
X185882380Y-103941666D01*
X185882380Y-103846428D01*
X185930000Y-103703571D01*
X185977619Y-103655952D01*
X186977619Y-103465476D02*
X186977619Y-102703571D01*
X186834761Y-102084523D02*
X186882380Y-102179761D01*
X186882380Y-102370238D01*
X186834761Y-102465476D01*
X186739523Y-102513095D01*
X186358571Y-102513095D01*
X186263333Y-102465476D01*
X186215714Y-102370238D01*
X186215714Y-102179761D01*
X186263333Y-102084523D01*
X186358571Y-102036904D01*
X186453809Y-102036904D01*
X186549047Y-102513095D01*
X186215714Y-101608333D02*
X186882380Y-101608333D01*
X186310952Y-101608333D02*
X186263333Y-101560714D01*
X186215714Y-101465476D01*
X186215714Y-101322619D01*
X186263333Y-101227380D01*
X186358571Y-101179761D01*
X186882380Y-101179761D01*
X186215714Y-100846428D02*
X186215714Y-100465476D01*
X185882380Y-100703571D02*
X186739523Y-100703571D01*
X186834761Y-100655952D01*
X186882380Y-100560714D01*
X186882380Y-100465476D01*
X186882380Y-100132142D02*
X186215714Y-100132142D01*
X186406190Y-100132142D02*
X186310952Y-100084523D01*
X186263333Y-100036904D01*
X186215714Y-99941666D01*
X186215714Y-99846428D01*
X186834761Y-99132142D02*
X186882380Y-99227380D01*
X186882380Y-99417857D01*
X186834761Y-99513095D01*
X186739523Y-99560714D01*
X186358571Y-99560714D01*
X186263333Y-99513095D01*
X186215714Y-99417857D01*
X186215714Y-99227380D01*
X186263333Y-99132142D01*
X186358571Y-99084523D01*
X186453809Y-99084523D01*
X186549047Y-99560714D01*
X185834761Y-99227380D02*
X185977619Y-99370238D01*
X186834761Y-98275000D02*
X186882380Y-98370238D01*
X186882380Y-98560714D01*
X186834761Y-98655952D01*
X186739523Y-98703571D01*
X186358571Y-98703571D01*
X186263333Y-98655952D01*
X186215714Y-98560714D01*
X186215714Y-98370238D01*
X186263333Y-98275000D01*
X186358571Y-98227380D01*
X186453809Y-98227380D01*
X186549047Y-98703571D01*
X186882380Y-97275000D02*
X186882380Y-97846428D01*
X186882380Y-97560714D02*
X185882380Y-97560714D01*
X186025238Y-97655952D01*
X186120476Y-97751190D01*
X186168095Y-97846428D01*
D13*
%TO.C,S1*%
X185888576Y-87711025D02*
X185944288Y-87543890D01*
X185944288Y-87265331D01*
X185888576Y-87153908D01*
X185832864Y-87098196D01*
X185721441Y-87042484D01*
X185610017Y-87042484D01*
X185498594Y-87098196D01*
X185442882Y-87153908D01*
X185387170Y-87265331D01*
X185331458Y-87488178D01*
X185275747Y-87599602D01*
X185220035Y-87655314D01*
X185108611Y-87711025D01*
X184997188Y-87711025D01*
X184885764Y-87655314D01*
X184830053Y-87599602D01*
X184774341Y-87488178D01*
X184774341Y-87209619D01*
X184830053Y-87042484D01*
X185944288Y-85928249D02*
X185944288Y-86596790D01*
X185944288Y-86262520D02*
X184774341Y-86262520D01*
X184941476Y-86373943D01*
X185052900Y-86485367D01*
X185108611Y-86596790D01*
D12*
%TO.C,H2*%
X198088095Y-110252380D02*
X198088095Y-109252380D01*
X198088095Y-109728571D02*
X198659523Y-109728571D01*
X198659523Y-110252380D02*
X198659523Y-109252380D01*
X199088095Y-109347619D02*
X199135714Y-109300000D01*
X199230952Y-109252380D01*
X199469047Y-109252380D01*
X199564285Y-109300000D01*
X199611904Y-109347619D01*
X199659523Y-109442857D01*
X199659523Y-109538095D01*
X199611904Y-109680952D01*
X199040476Y-110252380D01*
X199659523Y-110252380D01*
D11*
%TO.C,J2*%
X162775961Y-112171940D02*
X163610533Y-112171940D01*
X163777447Y-112227579D01*
X163888723Y-112338855D01*
X163944361Y-112505769D01*
X163944361Y-112617045D01*
X162887238Y-111671198D02*
X162831600Y-111615560D01*
X162775961Y-111504283D01*
X162775961Y-111226093D01*
X162831600Y-111114817D01*
X162887238Y-111059179D01*
X162998514Y-111003540D01*
X163109790Y-111003540D01*
X163276704Y-111059179D01*
X163944361Y-111726836D01*
X163944361Y-111003540D01*
D12*
%TO.C,H4*%
X145088095Y-110252380D02*
X145088095Y-109252380D01*
X145088095Y-109728571D02*
X145659523Y-109728571D01*
X145659523Y-110252380D02*
X145659523Y-109252380D01*
X146564285Y-109585714D02*
X146564285Y-110252380D01*
X146326190Y-109204761D02*
X146088095Y-109919047D01*
X146707142Y-109919047D01*
D14*
%TO.C,LEDS1*%
X143454307Y-85945571D02*
X142910021Y-85945571D01*
X142910021Y-84802571D01*
X143835307Y-85346857D02*
X144216307Y-85346857D01*
X144379592Y-85945571D02*
X143835307Y-85945571D01*
X143835307Y-84802571D01*
X144379592Y-84802571D01*
X144869450Y-85945571D02*
X144869450Y-84802571D01*
X145141592Y-84802571D01*
X145304878Y-84857000D01*
X145413735Y-84965857D01*
X145468164Y-85074714D01*
X145522592Y-85292428D01*
X145522592Y-85455714D01*
X145468164Y-85673428D01*
X145413735Y-85782285D01*
X145304878Y-85891142D01*
X145141592Y-85945571D01*
X144869450Y-85945571D01*
X145958021Y-85891142D02*
X146121307Y-85945571D01*
X146393450Y-85945571D01*
X146502307Y-85891142D01*
X146556735Y-85836714D01*
X146611164Y-85727857D01*
X146611164Y-85619000D01*
X146556735Y-85510142D01*
X146502307Y-85455714D01*
X146393450Y-85401285D01*
X146175735Y-85346857D01*
X146066878Y-85292428D01*
X146012450Y-85238000D01*
X145958021Y-85129142D01*
X145958021Y-85020285D01*
X146012450Y-84911428D01*
X146066878Y-84857000D01*
X146175735Y-84802571D01*
X146447878Y-84802571D01*
X146611164Y-84857000D01*
X147699735Y-85945571D02*
X147046592Y-85945571D01*
X147373164Y-85945571D02*
X147373164Y-84802571D01*
X147264307Y-84965857D01*
X147155450Y-85074714D01*
X147046592Y-85129142D01*
D12*
%TO.C,ALIM1*%
X195166666Y-93928571D02*
X195166666Y-93452380D01*
X195452380Y-94023809D02*
X194452380Y-93690476D01*
X195452380Y-93357142D01*
X195452380Y-92547619D02*
X195452380Y-93023809D01*
X194452380Y-93023809D01*
X195452380Y-92214285D02*
X194452380Y-92214285D01*
X195452380Y-91738095D02*
X194452380Y-91738095D01*
X195166666Y-91404761D01*
X194452380Y-91071428D01*
X195452380Y-91071428D01*
X195452380Y-90071428D02*
X195452380Y-90642857D01*
X195452380Y-90357142D02*
X194452380Y-90357142D01*
X194595238Y-90452380D01*
X194690476Y-90547619D01*
X194738095Y-90642857D01*
%TO.C,CONN_DMX1*%
X195282142Y-108166666D02*
X195329761Y-108214285D01*
X195377380Y-108357142D01*
X195377380Y-108452380D01*
X195329761Y-108595238D01*
X195234523Y-108690476D01*
X195139285Y-108738095D01*
X194948809Y-108785714D01*
X194805952Y-108785714D01*
X194615476Y-108738095D01*
X194520238Y-108690476D01*
X194425000Y-108595238D01*
X194377380Y-108452380D01*
X194377380Y-108357142D01*
X194425000Y-108214285D01*
X194472619Y-108166666D01*
X194377380Y-107547619D02*
X194377380Y-107357142D01*
X194425000Y-107261904D01*
X194520238Y-107166666D01*
X194710714Y-107119047D01*
X195044047Y-107119047D01*
X195234523Y-107166666D01*
X195329761Y-107261904D01*
X195377380Y-107357142D01*
X195377380Y-107547619D01*
X195329761Y-107642857D01*
X195234523Y-107738095D01*
X195044047Y-107785714D01*
X194710714Y-107785714D01*
X194520238Y-107738095D01*
X194425000Y-107642857D01*
X194377380Y-107547619D01*
X195377380Y-106690476D02*
X194377380Y-106690476D01*
X195377380Y-106119047D01*
X194377380Y-106119047D01*
X195377380Y-105642857D02*
X194377380Y-105642857D01*
X195377380Y-105071428D01*
X194377380Y-105071428D01*
X195472619Y-104833333D02*
X195472619Y-104071428D01*
X195377380Y-103833333D02*
X194377380Y-103833333D01*
X194377380Y-103595238D01*
X194425000Y-103452380D01*
X194520238Y-103357142D01*
X194615476Y-103309523D01*
X194805952Y-103261904D01*
X194948809Y-103261904D01*
X195139285Y-103309523D01*
X195234523Y-103357142D01*
X195329761Y-103452380D01*
X195377380Y-103595238D01*
X195377380Y-103833333D01*
X195377380Y-102833333D02*
X194377380Y-102833333D01*
X195091666Y-102500000D01*
X194377380Y-102166666D01*
X195377380Y-102166666D01*
X194377380Y-101785714D02*
X195377380Y-101119047D01*
X194377380Y-101119047D02*
X195377380Y-101785714D01*
X195377380Y-100214285D02*
X195377380Y-100785714D01*
X195377380Y-100500000D02*
X194377380Y-100500000D01*
X194520238Y-100595238D01*
X194615476Y-100690476D01*
X194663095Y-100785714D01*
%TO.C,TEMP1*%
X162364285Y-78452380D02*
X162935714Y-78452380D01*
X162650000Y-79452380D02*
X162650000Y-78452380D01*
X163269047Y-78928571D02*
X163602380Y-78928571D01*
X163745238Y-79452380D02*
X163269047Y-79452380D01*
X163269047Y-78452380D01*
X163745238Y-78452380D01*
X164173809Y-79452380D02*
X164173809Y-78452380D01*
X164507142Y-79166666D01*
X164840476Y-78452380D01*
X164840476Y-79452380D01*
X165316666Y-79452380D02*
X165316666Y-78452380D01*
X165697619Y-78452380D01*
X165792857Y-78500000D01*
X165840476Y-78547619D01*
X165888095Y-78642857D01*
X165888095Y-78785714D01*
X165840476Y-78880952D01*
X165792857Y-78928571D01*
X165697619Y-78976190D01*
X165316666Y-78976190D01*
X166840476Y-79452380D02*
X166269047Y-79452380D01*
X166554761Y-79452380D02*
X166554761Y-78452380D01*
X166459523Y-78595238D01*
X166364285Y-78690476D01*
X166269047Y-78738095D01*
D11*
%TO.C,C_VDD1*%
X177198085Y-89473112D02*
X177253723Y-89528750D01*
X177309361Y-89695664D01*
X177309361Y-89806940D01*
X177253723Y-89973855D01*
X177142447Y-90085131D01*
X177031171Y-90140769D01*
X176808619Y-90196407D01*
X176641704Y-90196407D01*
X176419152Y-90140769D01*
X176307876Y-90085131D01*
X176196600Y-89973855D01*
X176140961Y-89806940D01*
X176140961Y-89695664D01*
X176196600Y-89528750D01*
X176252238Y-89473112D01*
X177420638Y-89250560D02*
X177420638Y-88360350D01*
X176140961Y-88249074D02*
X177309361Y-87859607D01*
X176140961Y-87470140D01*
X177309361Y-87080674D02*
X176140961Y-87080674D01*
X176140961Y-86802483D01*
X176196600Y-86635569D01*
X176307876Y-86524293D01*
X176419152Y-86468655D01*
X176641704Y-86413017D01*
X176808619Y-86413017D01*
X177031171Y-86468655D01*
X177142447Y-86524293D01*
X177253723Y-86635569D01*
X177309361Y-86802483D01*
X177309361Y-87080674D01*
X177309361Y-85912274D02*
X176140961Y-85912274D01*
X176140961Y-85634083D01*
X176196600Y-85467169D01*
X176307876Y-85355893D01*
X176419152Y-85300255D01*
X176641704Y-85244617D01*
X176808619Y-85244617D01*
X177031171Y-85300255D01*
X177142447Y-85355893D01*
X177253723Y-85467169D01*
X177309361Y-85634083D01*
X177309361Y-85912274D01*
X177309361Y-84131855D02*
X177309361Y-84799512D01*
X177309361Y-84465683D02*
X176140961Y-84465683D01*
X176307876Y-84576960D01*
X176419152Y-84688236D01*
X176474790Y-84799512D01*
D12*
%TO.C,C_sortie1*%
X180787142Y-103666666D02*
X180834761Y-103714285D01*
X180882380Y-103857142D01*
X180882380Y-103952380D01*
X180834761Y-104095238D01*
X180739523Y-104190476D01*
X180644285Y-104238095D01*
X180453809Y-104285714D01*
X180310952Y-104285714D01*
X180120476Y-104238095D01*
X180025238Y-104190476D01*
X179930000Y-104095238D01*
X179882380Y-103952380D01*
X179882380Y-103857142D01*
X179930000Y-103714285D01*
X179977619Y-103666666D01*
X180977619Y-103476190D02*
X180977619Y-102714285D01*
X180834761Y-102523809D02*
X180882380Y-102428571D01*
X180882380Y-102238095D01*
X180834761Y-102142857D01*
X180739523Y-102095238D01*
X180691904Y-102095238D01*
X180596666Y-102142857D01*
X180549047Y-102238095D01*
X180549047Y-102380952D01*
X180501428Y-102476190D01*
X180406190Y-102523809D01*
X180358571Y-102523809D01*
X180263333Y-102476190D01*
X180215714Y-102380952D01*
X180215714Y-102238095D01*
X180263333Y-102142857D01*
X180882380Y-101523809D02*
X180834761Y-101619047D01*
X180787142Y-101666666D01*
X180691904Y-101714285D01*
X180406190Y-101714285D01*
X180310952Y-101666666D01*
X180263333Y-101619047D01*
X180215714Y-101523809D01*
X180215714Y-101380952D01*
X180263333Y-101285714D01*
X180310952Y-101238095D01*
X180406190Y-101190476D01*
X180691904Y-101190476D01*
X180787142Y-101238095D01*
X180834761Y-101285714D01*
X180882380Y-101380952D01*
X180882380Y-101523809D01*
X180882380Y-100761904D02*
X180215714Y-100761904D01*
X180406190Y-100761904D02*
X180310952Y-100714285D01*
X180263333Y-100666666D01*
X180215714Y-100571428D01*
X180215714Y-100476190D01*
X180215714Y-100285714D02*
X180215714Y-99904761D01*
X179882380Y-100142857D02*
X180739523Y-100142857D01*
X180834761Y-100095238D01*
X180882380Y-100000000D01*
X180882380Y-99904761D01*
X180882380Y-99571428D02*
X180215714Y-99571428D01*
X179882380Y-99571428D02*
X179930000Y-99619047D01*
X179977619Y-99571428D01*
X179930000Y-99523809D01*
X179882380Y-99571428D01*
X179977619Y-99571428D01*
X180834761Y-98714285D02*
X180882380Y-98809523D01*
X180882380Y-99000000D01*
X180834761Y-99095238D01*
X180739523Y-99142857D01*
X180358571Y-99142857D01*
X180263333Y-99095238D01*
X180215714Y-99000000D01*
X180215714Y-98809523D01*
X180263333Y-98714285D01*
X180358571Y-98666666D01*
X180453809Y-98666666D01*
X180549047Y-99142857D01*
X180882380Y-97714285D02*
X180882380Y-98285714D01*
X180882380Y-98000000D02*
X179882380Y-98000000D01*
X180025238Y-98095238D01*
X180120476Y-98190476D01*
X180168095Y-98285714D01*
D11*
%TO.C,DMX1*%
X179344230Y-107944361D02*
X179344230Y-106775961D01*
X179622420Y-106775961D01*
X179789335Y-106831600D01*
X179900611Y-106942876D01*
X179956249Y-107054152D01*
X180011887Y-107276704D01*
X180011887Y-107443619D01*
X179956249Y-107666171D01*
X179900611Y-107777447D01*
X179789335Y-107888723D01*
X179622420Y-107944361D01*
X179344230Y-107944361D01*
X180512630Y-107944361D02*
X180512630Y-106775961D01*
X180902097Y-107610533D01*
X181291563Y-106775961D01*
X181291563Y-107944361D01*
X181736668Y-106775961D02*
X182515601Y-107944361D01*
X182515601Y-106775961D02*
X181736668Y-107944361D01*
X183572725Y-107944361D02*
X182905068Y-107944361D01*
X183238897Y-107944361D02*
X183238897Y-106775961D01*
X183127620Y-106942876D01*
X183016344Y-107054152D01*
X182905068Y-107109790D01*
%TO.C,C_VDDA1*%
X177468085Y-107146335D02*
X177523723Y-107201973D01*
X177579361Y-107368887D01*
X177579361Y-107480163D01*
X177523723Y-107647078D01*
X177412447Y-107758354D01*
X177301171Y-107813992D01*
X177078619Y-107869630D01*
X176911704Y-107869630D01*
X176689152Y-107813992D01*
X176577876Y-107758354D01*
X176466600Y-107647078D01*
X176410961Y-107480163D01*
X176410961Y-107368887D01*
X176466600Y-107201973D01*
X176522238Y-107146335D01*
X177690638Y-106923782D02*
X177690638Y-106033573D01*
X176410961Y-105922297D02*
X177579361Y-105532830D01*
X176410961Y-105143363D01*
X177579361Y-104753897D02*
X176410961Y-104753897D01*
X176410961Y-104475706D01*
X176466600Y-104308792D01*
X176577876Y-104197516D01*
X176689152Y-104141878D01*
X176911704Y-104086240D01*
X177078619Y-104086240D01*
X177301171Y-104141878D01*
X177412447Y-104197516D01*
X177523723Y-104308792D01*
X177579361Y-104475706D01*
X177579361Y-104753897D01*
X177579361Y-103585497D02*
X176410961Y-103585497D01*
X176410961Y-103307306D01*
X176466600Y-103140392D01*
X176577876Y-103029116D01*
X176689152Y-102973478D01*
X176911704Y-102917840D01*
X177078619Y-102917840D01*
X177301171Y-102973478D01*
X177412447Y-103029116D01*
X177523723Y-103140392D01*
X177579361Y-103307306D01*
X177579361Y-103585497D01*
X177245533Y-102472735D02*
X177245533Y-101916354D01*
X177579361Y-102584011D02*
X176410961Y-102194544D01*
X177579361Y-101805078D01*
X177579361Y-100803592D02*
X177579361Y-101471249D01*
X177579361Y-101137420D02*
X176410961Y-101137420D01*
X176577876Y-101248697D01*
X176689152Y-101359973D01*
X176744790Y-101471249D01*
D12*
%TO.C,H1*%
X198088095Y-74452380D02*
X198088095Y-73452380D01*
X198088095Y-73928571D02*
X198659523Y-73928571D01*
X198659523Y-74452380D02*
X198659523Y-73452380D01*
X199659523Y-74452380D02*
X199088095Y-74452380D01*
X199373809Y-74452380D02*
X199373809Y-73452380D01*
X199278571Y-73595238D01*
X199183333Y-73690476D01*
X199088095Y-73738095D01*
%TO.C,DRIVER_Moteur1*%
X169411904Y-79452380D02*
X169411904Y-78452380D01*
X169650000Y-78452380D01*
X169792857Y-78500000D01*
X169888095Y-78595238D01*
X169935714Y-78690476D01*
X169983333Y-78880952D01*
X169983333Y-79023809D01*
X169935714Y-79214285D01*
X169888095Y-79309523D01*
X169792857Y-79404761D01*
X169650000Y-79452380D01*
X169411904Y-79452380D01*
X170983333Y-79452380D02*
X170650000Y-78976190D01*
X170411904Y-79452380D02*
X170411904Y-78452380D01*
X170792857Y-78452380D01*
X170888095Y-78500000D01*
X170935714Y-78547619D01*
X170983333Y-78642857D01*
X170983333Y-78785714D01*
X170935714Y-78880952D01*
X170888095Y-78928571D01*
X170792857Y-78976190D01*
X170411904Y-78976190D01*
X171411904Y-79452380D02*
X171411904Y-78452380D01*
X171745238Y-78452380D02*
X172078571Y-79452380D01*
X172411904Y-78452380D01*
X172745238Y-78928571D02*
X173078571Y-78928571D01*
X173221428Y-79452380D02*
X172745238Y-79452380D01*
X172745238Y-78452380D01*
X173221428Y-78452380D01*
X174221428Y-79452380D02*
X173888095Y-78976190D01*
X173650000Y-79452380D02*
X173650000Y-78452380D01*
X174030952Y-78452380D01*
X174126190Y-78500000D01*
X174173809Y-78547619D01*
X174221428Y-78642857D01*
X174221428Y-78785714D01*
X174173809Y-78880952D01*
X174126190Y-78928571D01*
X174030952Y-78976190D01*
X173650000Y-78976190D01*
X174411904Y-79547619D02*
X175173809Y-79547619D01*
X175411904Y-79452380D02*
X175411904Y-78452380D01*
X175745238Y-79166666D01*
X176078571Y-78452380D01*
X176078571Y-79452380D01*
X176697619Y-79452380D02*
X176602380Y-79404761D01*
X176554761Y-79357142D01*
X176507142Y-79261904D01*
X176507142Y-78976190D01*
X176554761Y-78880952D01*
X176602380Y-78833333D01*
X176697619Y-78785714D01*
X176840476Y-78785714D01*
X176935714Y-78833333D01*
X176983333Y-78880952D01*
X177030952Y-78976190D01*
X177030952Y-79261904D01*
X176983333Y-79357142D01*
X176935714Y-79404761D01*
X176840476Y-79452380D01*
X176697619Y-79452380D01*
X177316666Y-78785714D02*
X177697619Y-78785714D01*
X177459523Y-78452380D02*
X177459523Y-79309523D01*
X177507142Y-79404761D01*
X177602380Y-79452380D01*
X177697619Y-79452380D01*
X178411904Y-79404761D02*
X178316666Y-79452380D01*
X178126190Y-79452380D01*
X178030952Y-79404761D01*
X177983333Y-79309523D01*
X177983333Y-78928571D01*
X178030952Y-78833333D01*
X178126190Y-78785714D01*
X178316666Y-78785714D01*
X178411904Y-78833333D01*
X178459523Y-78928571D01*
X178459523Y-79023809D01*
X177983333Y-79119047D01*
X179316666Y-78785714D02*
X179316666Y-79452380D01*
X178888095Y-78785714D02*
X178888095Y-79309523D01*
X178935714Y-79404761D01*
X179030952Y-79452380D01*
X179173809Y-79452380D01*
X179269047Y-79404761D01*
X179316666Y-79357142D01*
X179792857Y-79452380D02*
X179792857Y-78785714D01*
X179792857Y-78976190D02*
X179840476Y-78880952D01*
X179888095Y-78833333D01*
X179983333Y-78785714D01*
X180078571Y-78785714D01*
X180935714Y-79452380D02*
X180364285Y-79452380D01*
X180650000Y-79452380D02*
X180650000Y-78452380D01*
X180554761Y-78595238D01*
X180459523Y-78690476D01*
X180364285Y-78738095D01*
D11*
%TO.C,C4*%
X178928571Y-96544611D02*
X178952380Y-96570801D01*
X178976190Y-96649373D01*
X178976190Y-96701754D01*
X178952380Y-96780325D01*
X178904761Y-96832706D01*
X178857142Y-96858897D01*
X178761904Y-96885087D01*
X178690476Y-96885087D01*
X178595238Y-96858897D01*
X178547619Y-96832706D01*
X178500000Y-96780325D01*
X178476190Y-96701754D01*
X178476190Y-96649373D01*
X178500000Y-96570801D01*
X178523809Y-96544611D01*
X178642857Y-96073182D02*
X178976190Y-96073182D01*
X178452380Y-96204135D02*
X178809523Y-96335087D01*
X178809523Y-95994611D01*
%TO.C,R1*%
X174526887Y-100309361D02*
X174137420Y-99752980D01*
X173859230Y-100309361D02*
X173859230Y-99140961D01*
X174304335Y-99140961D01*
X174415611Y-99196600D01*
X174471249Y-99252238D01*
X174526887Y-99363514D01*
X174526887Y-99530428D01*
X174471249Y-99641704D01*
X174415611Y-99697342D01*
X174304335Y-99752980D01*
X173859230Y-99752980D01*
X175639649Y-100309361D02*
X174971992Y-100309361D01*
X175305820Y-100309361D02*
X175305820Y-99140961D01*
X175194544Y-99307876D01*
X175083268Y-99419152D01*
X174971992Y-99474790D01*
D12*
%TO.C,VENTILO1*%
X194452380Y-85333333D02*
X195452380Y-85000000D01*
X194452380Y-84666666D01*
X194928571Y-84333333D02*
X194928571Y-84000000D01*
X195452380Y-83857142D02*
X195452380Y-84333333D01*
X194452380Y-84333333D01*
X194452380Y-83857142D01*
X195452380Y-83428571D02*
X194452380Y-83428571D01*
X195452380Y-82857142D01*
X194452380Y-82857142D01*
X194452380Y-82523809D02*
X194452380Y-81952380D01*
X195452380Y-82238095D02*
X194452380Y-82238095D01*
X195452380Y-81619047D02*
X194452380Y-81619047D01*
X195452380Y-80666666D02*
X195452380Y-81142857D01*
X194452380Y-81142857D01*
X194452380Y-80142857D02*
X194452380Y-79952380D01*
X194500000Y-79857142D01*
X194595238Y-79761904D01*
X194785714Y-79714285D01*
X195119047Y-79714285D01*
X195309523Y-79761904D01*
X195404761Y-79857142D01*
X195452380Y-79952380D01*
X195452380Y-80142857D01*
X195404761Y-80238095D01*
X195309523Y-80333333D01*
X195119047Y-80380952D01*
X194785714Y-80380952D01*
X194595238Y-80333333D01*
X194500000Y-80238095D01*
X194452380Y-80142857D01*
X195452380Y-78761904D02*
X195452380Y-79333333D01*
X195452380Y-79047619D02*
X194452380Y-79047619D01*
X194595238Y-79142857D01*
X194690476Y-79238095D01*
X194738095Y-79333333D01*
D11*
%TO.C,C_VDD2*%
X161060150Y-87833085D02*
X161004512Y-87888723D01*
X160837598Y-87944361D01*
X160726321Y-87944361D01*
X160559407Y-87888723D01*
X160448131Y-87777447D01*
X160392493Y-87666171D01*
X160336855Y-87443619D01*
X160336855Y-87276704D01*
X160392493Y-87054152D01*
X160448131Y-86942876D01*
X160559407Y-86831600D01*
X160726321Y-86775961D01*
X160837598Y-86775961D01*
X161004512Y-86831600D01*
X161060150Y-86887238D01*
X161282702Y-88055638D02*
X162172912Y-88055638D01*
X162284188Y-86775961D02*
X162673655Y-87944361D01*
X163063121Y-86775961D01*
X163452588Y-87944361D02*
X163452588Y-86775961D01*
X163730779Y-86775961D01*
X163897693Y-86831600D01*
X164008969Y-86942876D01*
X164064607Y-87054152D01*
X164120245Y-87276704D01*
X164120245Y-87443619D01*
X164064607Y-87666171D01*
X164008969Y-87777447D01*
X163897693Y-87888723D01*
X163730779Y-87944361D01*
X163452588Y-87944361D01*
X164620988Y-87944361D02*
X164620988Y-86775961D01*
X164899179Y-86775961D01*
X165066093Y-86831600D01*
X165177369Y-86942876D01*
X165233007Y-87054152D01*
X165288645Y-87276704D01*
X165288645Y-87443619D01*
X165233007Y-87666171D01*
X165177369Y-87777447D01*
X165066093Y-87888723D01*
X164899179Y-87944361D01*
X164620988Y-87944361D01*
X165733750Y-86887238D02*
X165789388Y-86831600D01*
X165900664Y-86775961D01*
X166178855Y-86775961D01*
X166290131Y-86831600D01*
X166345769Y-86887238D01*
X166401407Y-86998514D01*
X166401407Y-87109790D01*
X166345769Y-87276704D01*
X165678112Y-87944361D01*
X166401407Y-87944361D01*
D15*
%TO.C,PS1*%
X182600000Y-97550000D02*
X182600000Y-100450000D01*
X183850000Y-100500000D02*
X182950000Y-100500000D01*
X182600000Y-100450000D02*
X181400000Y-100450000D01*
X181400000Y-100450000D02*
X181400000Y-97550000D01*
X181400000Y-97550000D02*
X182600000Y-97550000D01*
%TO.C,IC1*%
X167850000Y-90850000D02*
X174150000Y-90850000D01*
X174150000Y-90850000D02*
X174150000Y-97150000D01*
X174150000Y-97150000D02*
X167850000Y-97150000D01*
X167850000Y-97150000D02*
X167850000Y-90850000D01*
D16*
X175775000Y-98000000D02*
G75*
G03*
X175775000Y-98000000I-200000J0D01*
G01*
D17*
%TO.C,J7*%
X192800000Y-116750000D02*
X188500000Y-116750000D01*
X183150000Y-111250000D02*
X183150000Y-112500000D01*
X183450000Y-112300000D02*
X185250000Y-112300000D01*
X185250000Y-112300000D02*
X185250000Y-111550000D01*
X188500000Y-116750000D02*
X185260000Y-116750000D01*
X193560000Y-117510000D02*
X193560000Y-111540000D01*
X183450000Y-113800000D02*
X184200000Y-113800000D01*
X183450000Y-111550000D02*
X183450000Y-112300000D01*
X191750000Y-111550000D02*
X191750000Y-112300000D01*
X184400000Y-111250000D02*
X183150000Y-111250000D01*
X185250000Y-111550000D02*
X183450000Y-111550000D01*
X190250000Y-112300000D02*
X190250000Y-111550000D01*
X183440000Y-111540000D02*
X183440000Y-117510000D01*
X193550000Y-111550000D02*
X191750000Y-111550000D01*
X186750000Y-112300000D02*
X190250000Y-112300000D01*
X190250000Y-111550000D02*
X186750000Y-111550000D01*
X193550000Y-112300000D02*
X193550000Y-111550000D01*
X183440000Y-117510000D02*
X193560000Y-117510000D01*
X186750000Y-111550000D02*
X186750000Y-112300000D01*
X191750000Y-112300000D02*
X193550000Y-112300000D01*
X193560000Y-111540000D02*
X183440000Y-111540000D01*
X184200000Y-113800000D02*
X184200000Y-115140000D01*
X192800000Y-113800000D02*
X192800000Y-116750000D01*
X193550000Y-113800000D02*
X192800000Y-113800000D01*
%TO.C,C_entr\u00E9e1*%
X185510000Y-100634420D02*
X185510000Y-100915580D01*
X184490000Y-100634420D02*
X184490000Y-100915580D01*
D14*
%TO.C,S1*%
X189000000Y-92000000D02*
X183000000Y-92000000D01*
X183000000Y-86000000D02*
X189000000Y-86000000D01*
X183000000Y-92000000D02*
X183000000Y-86000000D01*
X189000000Y-86000000D02*
X189000000Y-92000000D01*
D15*
X181630000Y-85500000D02*
G75*
G03*
X181630000Y-85500000I-130000J0D01*
G01*
%TO.C,J2*%
X163530000Y-105285000D02*
X163530000Y-108715000D01*
X154470000Y-108715000D02*
X154470000Y-108715000D01*
X163530000Y-108715000D02*
X163530000Y-108715000D01*
X163530000Y-105285000D02*
X163530000Y-105285000D01*
X154470000Y-105285000D02*
X154470000Y-105285000D01*
X154470000Y-108715000D02*
X154470000Y-105285000D01*
X154005000Y-109035000D02*
G75*
G03*
X154005000Y-109035000I-100000J0D01*
G01*
D18*
%TO.C,LEDS1*%
X145215000Y-98810000D02*
X144580000Y-98175000D01*
X146485000Y-96270000D02*
X147120000Y-96905000D01*
X147120000Y-99445000D02*
X147120000Y-100715000D01*
X144580000Y-91825000D02*
X145215000Y-91190000D01*
X147120000Y-100715000D02*
X146485000Y-101350000D01*
X145215000Y-93730000D02*
X144580000Y-93095000D01*
X147120000Y-94365000D02*
X147120000Y-95635000D01*
X144580000Y-89285000D02*
X145215000Y-88650000D01*
X147120000Y-94365000D02*
X146485000Y-93730000D01*
X146485000Y-98810000D02*
X145215000Y-98810000D01*
X147120000Y-96905000D02*
X147120000Y-98175000D01*
X145215000Y-96270000D02*
X144580000Y-95635000D01*
X147120000Y-91825000D02*
X147120000Y-93095000D01*
X144580000Y-93095000D02*
X144580000Y-91825000D01*
X147120000Y-89285000D02*
X147120000Y-90555000D01*
X146485000Y-91190000D02*
X145215000Y-91190000D01*
X147120000Y-86745000D02*
X147120000Y-88015000D01*
X146485000Y-101350000D02*
X145215000Y-101350000D01*
X145215000Y-86110000D02*
X144580000Y-86745000D01*
X146485000Y-91190000D02*
X147120000Y-91825000D01*
X147120000Y-90555000D02*
X146485000Y-91190000D01*
X144580000Y-96905000D02*
X145215000Y-96270000D01*
X144580000Y-90555000D02*
X144580000Y-89285000D01*
X144580000Y-100715000D02*
X144580000Y-99445000D01*
X146485000Y-88650000D02*
X145215000Y-88650000D01*
X145215000Y-101350000D02*
X144580000Y-100715000D01*
X144580000Y-95635000D02*
X144580000Y-94365000D01*
X147120000Y-86745000D02*
X146485000Y-86110000D01*
X145215000Y-98810000D02*
X144580000Y-99445000D01*
X146485000Y-86110000D02*
X145215000Y-86110000D01*
X147120000Y-99445000D02*
X146485000Y-98810000D01*
X145215000Y-91190000D02*
X144580000Y-90555000D01*
X147120000Y-88015000D02*
X146485000Y-88650000D01*
X144580000Y-98175000D02*
X144580000Y-96905000D01*
X144580000Y-88015000D02*
X144580000Y-86745000D01*
X146485000Y-88650000D02*
X147120000Y-89285000D01*
X147120000Y-98175000D02*
X146485000Y-98810000D01*
X147120000Y-95635000D02*
X146485000Y-96270000D01*
X146485000Y-93730000D02*
X145215000Y-93730000D01*
X147120000Y-93095000D02*
X146485000Y-93730000D01*
X145215000Y-93730000D02*
X144580000Y-94365000D01*
X145215000Y-88650000D02*
X144580000Y-88015000D01*
X146485000Y-96270000D02*
X145215000Y-96270000D01*
D17*
%TO.C,ALIM1*%
X196400000Y-93250000D02*
X196400000Y-94250000D01*
X196100000Y-96600000D02*
X196100000Y-97850000D01*
X198650000Y-90700000D02*
X201600000Y-90700000D01*
X202360000Y-89940000D02*
X196390000Y-89940000D01*
X198650000Y-96800000D02*
X201600000Y-96800000D01*
X197150000Y-93250000D02*
X196400000Y-93250000D01*
X201600000Y-96800000D02*
X201600000Y-93750000D01*
X196400000Y-95750000D02*
X196400000Y-97550000D01*
X198650000Y-97550000D02*
X198650000Y-96800000D01*
X197150000Y-94250000D02*
X197150000Y-93250000D01*
X196100000Y-97850000D02*
X197350000Y-97850000D01*
X197150000Y-97550000D02*
X197150000Y-95750000D01*
X202360000Y-97560000D02*
X202360000Y-89940000D01*
X196390000Y-97560000D02*
X202360000Y-97560000D01*
X197150000Y-89950000D02*
X196400000Y-89950000D01*
X197150000Y-95750000D02*
X196400000Y-95750000D01*
X196390000Y-89940000D02*
X196390000Y-97560000D01*
X196400000Y-97550000D02*
X197150000Y-97550000D01*
X196400000Y-91750000D02*
X197150000Y-91750000D01*
X196400000Y-94250000D02*
X197150000Y-94250000D01*
X196400000Y-89950000D02*
X196400000Y-91750000D01*
X201600000Y-90700000D02*
X201600000Y-93750000D01*
X198650000Y-89950000D02*
X198650000Y-90700000D01*
X197150000Y-91750000D02*
X197150000Y-89950000D01*
%TO.C,CONN_DMX1*%
X201985000Y-99440000D02*
X196015000Y-99440000D01*
X196025000Y-99450000D02*
X196025000Y-101250000D01*
X196775000Y-101250000D02*
X196775000Y-99450000D01*
X196015000Y-109560000D02*
X201985000Y-109560000D01*
X198275000Y-99450000D02*
X198275000Y-100200000D01*
X198275000Y-109550000D02*
X198275000Y-108800000D01*
X198275000Y-100200000D02*
X201225000Y-100200000D01*
X196775000Y-107750000D02*
X196025000Y-107750000D01*
X196025000Y-106250000D02*
X196775000Y-106250000D01*
X196775000Y-109550000D02*
X196775000Y-107750000D01*
X198275000Y-108800000D02*
X199615000Y-108800000D01*
X196025000Y-109550000D02*
X196775000Y-109550000D01*
X196025000Y-101250000D02*
X196775000Y-101250000D01*
X196025000Y-102750000D02*
X196025000Y-106250000D01*
X201225000Y-104500000D02*
X201225000Y-107740000D01*
X201225000Y-100200000D02*
X201225000Y-104500000D01*
X195725000Y-109850000D02*
X196975000Y-109850000D01*
X196775000Y-99450000D02*
X196025000Y-99450000D01*
X196025000Y-107750000D02*
X196025000Y-109550000D01*
X196775000Y-106250000D02*
X196775000Y-102750000D01*
X196015000Y-99440000D02*
X196015000Y-109560000D01*
X196775000Y-102750000D02*
X196025000Y-102750000D01*
X201985000Y-109560000D02*
X201985000Y-99440000D01*
X195725000Y-108600000D02*
X195725000Y-109850000D01*
%TO.C,TEMP1*%
X165750000Y-71550000D02*
X164750000Y-71550000D01*
X164750000Y-71550000D02*
X164750000Y-72300000D01*
X169050000Y-73800000D02*
X168300000Y-73800000D01*
X165750000Y-72300000D02*
X165750000Y-71550000D01*
X161440000Y-71540000D02*
X161440000Y-77510000D01*
X163250000Y-71550000D02*
X161450000Y-71550000D01*
X169060000Y-71540000D02*
X161440000Y-71540000D01*
X168300000Y-76750000D02*
X165250000Y-76750000D01*
X167250000Y-72300000D02*
X169050000Y-72300000D01*
X168300000Y-73800000D02*
X168300000Y-76750000D01*
X161440000Y-77510000D02*
X169060000Y-77510000D01*
X163250000Y-72300000D02*
X163250000Y-71550000D01*
X169060000Y-77510000D02*
X169060000Y-71540000D01*
X167250000Y-71550000D02*
X167250000Y-72300000D01*
X161150000Y-71250000D02*
X161150000Y-72500000D01*
X161450000Y-72300000D02*
X163250000Y-72300000D01*
X169050000Y-71550000D02*
X167250000Y-71550000D01*
X161450000Y-73800000D02*
X162200000Y-73800000D01*
X169050000Y-72300000D02*
X169050000Y-71550000D01*
X161450000Y-71550000D02*
X161450000Y-72300000D01*
X162200000Y-76750000D02*
X165250000Y-76750000D01*
X164750000Y-72300000D02*
X165750000Y-72300000D01*
X162200000Y-73800000D02*
X162200000Y-76750000D01*
X162400000Y-71250000D02*
X161150000Y-71250000D01*
%TO.C,C_sortie1*%
X179510000Y-100859420D02*
X179510000Y-101140580D01*
X178490000Y-100859420D02*
X178490000Y-101140580D01*
D14*
%TO.C,DMX1*%
X172000000Y-112425000D02*
X176000000Y-112425000D01*
X172000000Y-103575000D02*
X176000000Y-103575000D01*
D15*
X169655000Y-103600000D02*
G75*
G03*
X169655000Y-103600000I-100000J0D01*
G01*
D17*
%TO.C,DRIVER_Moteur1*%
X175750000Y-72300000D02*
X175750000Y-71550000D01*
X171450000Y-72300000D02*
X173250000Y-72300000D01*
X173250000Y-72300000D02*
X173250000Y-71550000D01*
X172400000Y-71250000D02*
X171150000Y-71250000D01*
X179050000Y-71550000D02*
X177250000Y-71550000D01*
X171450000Y-73800000D02*
X172200000Y-73800000D01*
X171440000Y-71540000D02*
X171440000Y-77510000D01*
X178300000Y-76750000D02*
X175250000Y-76750000D01*
X172200000Y-73800000D02*
X172200000Y-76750000D01*
X172200000Y-76750000D02*
X175250000Y-76750000D01*
X171150000Y-71250000D02*
X171150000Y-72500000D01*
X175750000Y-71550000D02*
X174750000Y-71550000D01*
X178300000Y-73800000D02*
X178300000Y-76750000D01*
X179060000Y-77510000D02*
X179060000Y-71540000D01*
X179050000Y-72300000D02*
X179050000Y-71550000D01*
X173250000Y-71550000D02*
X171450000Y-71550000D01*
X171440000Y-77510000D02*
X179060000Y-77510000D01*
X171450000Y-71550000D02*
X171450000Y-72300000D01*
X179060000Y-71540000D02*
X171440000Y-71540000D01*
X179050000Y-73800000D02*
X178300000Y-73800000D01*
X174750000Y-72300000D02*
X175750000Y-72300000D01*
X174750000Y-71550000D02*
X174750000Y-72300000D01*
X177250000Y-71550000D02*
X177250000Y-72300000D01*
X177250000Y-72300000D02*
X179050000Y-72300000D01*
%TO.C,VENTILO1*%
X196390000Y-78940000D02*
X196390000Y-86560000D01*
X198650000Y-78950000D02*
X198650000Y-79700000D01*
X201600000Y-79700000D02*
X201600000Y-82750000D01*
X198650000Y-79700000D02*
X201600000Y-79700000D01*
X197150000Y-80750000D02*
X197150000Y-78950000D01*
X196400000Y-82250000D02*
X196400000Y-83250000D01*
X196100000Y-86850000D02*
X197350000Y-86850000D01*
X197150000Y-86550000D02*
X197150000Y-84750000D01*
X196400000Y-84750000D02*
X196400000Y-86550000D01*
X197150000Y-78950000D02*
X196400000Y-78950000D01*
X198650000Y-85800000D02*
X201600000Y-85800000D01*
X197150000Y-82250000D02*
X196400000Y-82250000D01*
X202360000Y-86560000D02*
X202360000Y-78940000D01*
X198650000Y-86550000D02*
X198650000Y-85800000D01*
X196390000Y-86560000D02*
X202360000Y-86560000D01*
X196400000Y-78950000D02*
X196400000Y-80750000D01*
X197150000Y-83250000D02*
X197150000Y-82250000D01*
X196100000Y-85600000D02*
X196100000Y-86850000D01*
X196400000Y-83250000D02*
X197150000Y-83250000D01*
X196400000Y-80750000D02*
X197150000Y-80750000D01*
X196400000Y-86550000D02*
X197150000Y-86550000D01*
X202360000Y-78940000D02*
X196390000Y-78940000D01*
X201600000Y-85800000D02*
X201600000Y-82750000D01*
X197150000Y-84750000D02*
X196400000Y-84750000D01*
%TD*%
M02*
