%TF.GenerationSoftware,KiCad,Pcbnew,(6.0.7)*%
%TF.CreationDate,2023-02-14T14:27:57+01:00*%
%TF.ProjectId,WAFFLE,57414646-4c45-42e6-9b69-6361645f7063,rev?*%
%TF.SameCoordinates,Original*%
%TF.FileFunction,Copper,L2,Bot*%
%TF.FilePolarity,Positive*%
%FSLAX46Y46*%
G04 Gerber Fmt 4.6, Leading zero omitted, Abs format (unit mm)*
G04 Created by KiCad (PCBNEW (6.0.7)) date 2023-02-14 14:27:57*
%MOMM*%
%LPD*%
G01*
G04 APERTURE LIST*
G04 Aperture macros list*
%AMRoundRect*
0 Rectangle with rounded corners*
0 $1 Rounding radius*
0 $2 $3 $4 $5 $6 $7 $8 $9 X,Y pos of 4 corners*
0 Add a 4 corners polygon primitive as box body*
4,1,4,$2,$3,$4,$5,$6,$7,$8,$9,$2,$3,0*
0 Add four circle primitives for the rounded corners*
1,1,$1+$1,$2,$3*
1,1,$1+$1,$4,$5*
1,1,$1+$1,$6,$7*
1,1,$1+$1,$8,$9*
0 Add four rect primitives between the rounded corners*
20,1,$1+$1,$2,$3,$4,$5,0*
20,1,$1+$1,$4,$5,$6,$7,0*
20,1,$1+$1,$6,$7,$8,$9,0*
20,1,$1+$1,$8,$9,$2,$3,0*%
G04 Aperture macros list end*
%TA.AperFunction,ComponentPad*%
%ADD10RoundRect,0.250000X-0.600000X-0.725000X0.600000X-0.725000X0.600000X0.725000X-0.600000X0.725000X0*%
%TD*%
%TA.AperFunction,ComponentPad*%
%ADD11O,1.700000X1.950000*%
%TD*%
%TA.AperFunction,ComponentPad*%
%ADD12C,6.400000*%
%TD*%
%TA.AperFunction,ComponentPad*%
%ADD13C,0.800000*%
%TD*%
%TA.AperFunction,ComponentPad*%
%ADD14O,3.048000X1.524000*%
%TD*%
%TA.AperFunction,ComponentPad*%
%ADD15RoundRect,0.250000X0.750000X-0.600000X0.750000X0.600000X-0.750000X0.600000X-0.750000X-0.600000X0*%
%TD*%
%TA.AperFunction,ComponentPad*%
%ADD16O,2.000000X1.700000*%
%TD*%
%TA.AperFunction,ComponentPad*%
%ADD17RoundRect,0.250000X0.725000X-0.600000X0.725000X0.600000X-0.725000X0.600000X-0.725000X-0.600000X0*%
%TD*%
%TA.AperFunction,ComponentPad*%
%ADD18O,1.950000X1.700000*%
%TD*%
%TA.AperFunction,ComponentPad*%
%ADD19RoundRect,0.250000X-0.600000X-0.750000X0.600000X-0.750000X0.600000X0.750000X-0.600000X0.750000X0*%
%TD*%
%TA.AperFunction,ComponentPad*%
%ADD20O,1.700000X2.000000*%
%TD*%
%TA.AperFunction,ViaPad*%
%ADD21C,0.800000*%
%TD*%
%TA.AperFunction,Conductor*%
%ADD22C,0.250000*%
%TD*%
%TA.AperFunction,Conductor*%
%ADD23C,0.350000*%
%TD*%
G04 APERTURE END LIST*
D10*
%TO.P,J7,1,Pin_1*%
%TO.N,Net-(DMX1-Pad11)*%
X186000000Y-114000000D03*
D11*
%TO.P,J7,2,Pin_2*%
%TO.N,GND*%
X188500000Y-114000000D03*
%TO.P,J7,3,Pin_3*%
%TO.N,Net-(DMX1-Pad12)*%
X191000000Y-114000000D03*
%TD*%
D12*
%TO.P,H2,1,1*%
%TO.N,GND*%
X198850000Y-114000000D03*
D13*
X196450000Y-114000000D03*
X197152944Y-115697056D03*
X200547056Y-112302944D03*
X198850000Y-116400000D03*
X200547056Y-115697056D03*
X197152944Y-112302944D03*
X201250000Y-114000000D03*
X198850000Y-111600000D03*
%TD*%
%TO.P,H4,1,1*%
%TO.N,GND*%
X143450000Y-114000000D03*
X147547056Y-112302944D03*
X144152944Y-112302944D03*
X145850000Y-116400000D03*
X147547056Y-115697056D03*
X144152944Y-115697056D03*
D12*
X145850000Y-114000000D03*
D13*
X145850000Y-111600000D03*
X148250000Y-114000000D03*
%TD*%
D14*
%TO.P,LEDS1,1,1*%
%TO.N,GND*%
X145850000Y-87380000D03*
%TO.P,LEDS1,2,2*%
%TO.N,PWM_Leds_W*%
X145850000Y-89920000D03*
%TO.P,LEDS1,3,3*%
%TO.N,PWM_Leds_B*%
X145850000Y-92460000D03*
%TO.P,LEDS1,4,4*%
%TO.N,PWM_Leds_G*%
X145850000Y-95000000D03*
%TO.P,LEDS1,5,5*%
%TO.N,PWM_Leds_R*%
X145850000Y-97540000D03*
%TO.P,LEDS1,6,6*%
%TO.N,GND*%
X145850000Y-100080000D03*
%TD*%
D15*
%TO.P,ALIM1,1,Pin_1*%
%TO.N,+5V*%
X198850000Y-95000000D03*
D16*
%TO.P,ALIM1,2,Pin_2*%
%TO.N,GND*%
X198850000Y-92500000D03*
%TD*%
D17*
%TO.P,CONN_DMX1,1,Pin_1*%
%TO.N,Net-(DMX1-Pad11)*%
X198475000Y-107000000D03*
D18*
%TO.P,CONN_DMX1,2,Pin_2*%
%TO.N,GND*%
X198475000Y-104500000D03*
%TO.P,CONN_DMX1,3,Pin_3*%
%TO.N,Net-(DMX1-Pad12)*%
X198475000Y-102000000D03*
%TD*%
D19*
%TO.P,TEMP1,1,Pin_1*%
%TO.N,GND*%
X164000000Y-74000000D03*
D20*
%TO.P,TEMP1,2,Pin_2*%
%TO.N,ADC_Temp\u00E9rature_ventilo*%
X166500000Y-74000000D03*
%TD*%
D13*
%TO.P,H1,1,1*%
%TO.N,GND*%
X197152944Y-72302944D03*
X198850000Y-71600000D03*
X198850000Y-76400000D03*
D12*
X198850000Y-74000000D03*
D13*
X200547056Y-75697056D03*
X196450000Y-74000000D03*
X200547056Y-72302944D03*
X197152944Y-75697056D03*
X201250000Y-74000000D03*
%TD*%
D19*
%TO.P,DRIVER_Moteur1,1,Pin_1*%
%TO.N,GND*%
X174000000Y-74000000D03*
D20*
%TO.P,DRIVER_Moteur1,2,Pin_2*%
%TO.N,UART_Driver_moteur*%
X176500000Y-74000000D03*
%TD*%
D15*
%TO.P,VENTILO1,1,Pin_1*%
%TO.N,GND*%
X198850000Y-84000000D03*
D16*
%TO.P,VENTILO1,2,Pin_2*%
%TO.N,PWM_Ventilateur*%
X198850000Y-81500000D03*
%TD*%
D13*
%TO.P,H3,1,1*%
%TO.N,GND*%
X144152944Y-75697056D03*
X144152944Y-72302944D03*
X147547056Y-72302944D03*
X148250000Y-74000000D03*
X147547056Y-75697056D03*
D12*
X145850000Y-74000000D03*
D13*
X145850000Y-71600000D03*
X145850000Y-76400000D03*
X143450000Y-74000000D03*
%TD*%
D21*
%TO.N,NRST*%
X167000000Y-101000000D03*
X172000000Y-95000000D03*
%TO.N,+3.3V*%
X157000000Y-113000000D03*
X165000000Y-91000000D03*
%TD*%
D22*
%TO.N,NRST*%
X167000000Y-101000000D02*
X172000000Y-96000000D01*
X172000000Y-96000000D02*
X172000000Y-95000000D01*
%TO.N,+3.3V*%
X165000000Y-111000000D02*
X163000000Y-113000000D01*
X165000000Y-91000000D02*
X165000000Y-111000000D01*
X163000000Y-113000000D02*
X157000000Y-113000000D01*
D23*
%TO.N,Net-(DMX1-Pad12)*%
X191000000Y-114000000D02*
X191000000Y-109475000D01*
X191000000Y-109475000D02*
X198475000Y-102000000D01*
%TO.N,Net-(DMX1-Pad11)*%
X187000000Y-116000000D02*
X192000000Y-116000000D01*
D22*
X186000000Y-114000000D02*
X186000000Y-115000000D01*
D23*
X186000000Y-115000000D02*
X187000000Y-116000000D01*
X192000000Y-116000000D02*
X195000000Y-113000000D01*
X195000000Y-110475000D02*
X198475000Y-107000000D01*
X195000000Y-113000000D02*
X195000000Y-110475000D01*
%TD*%
%TA.AperFunction,Conductor*%
%TO.N,GND*%
G36*
X197078176Y-70528502D02*
G01*
X197124669Y-70582158D01*
X197134773Y-70652432D01*
X197105279Y-70717012D01*
X197067258Y-70746767D01*
X196996397Y-70782872D01*
X196990687Y-70786169D01*
X196670265Y-70994253D01*
X196664939Y-70998123D01*
X196426165Y-71191478D01*
X196417700Y-71203733D01*
X196424034Y-71214824D01*
X201634310Y-76425100D01*
X201647386Y-76432241D01*
X201657753Y-76424784D01*
X201851877Y-76185061D01*
X201855747Y-76179735D01*
X202063831Y-75859313D01*
X202067128Y-75853603D01*
X202103233Y-75782742D01*
X202151981Y-75731127D01*
X202220896Y-75714061D01*
X202288098Y-75736962D01*
X202332250Y-75792559D01*
X202341500Y-75839945D01*
X202341500Y-112160055D01*
X202321498Y-112228176D01*
X202267842Y-112274669D01*
X202197568Y-112284773D01*
X202132988Y-112255279D01*
X202103233Y-112217258D01*
X202067128Y-112146397D01*
X202063831Y-112140687D01*
X201855747Y-111820265D01*
X201851877Y-111814939D01*
X201658522Y-111576165D01*
X201646267Y-111567700D01*
X201635176Y-111574034D01*
X196424900Y-116784310D01*
X196417759Y-116797386D01*
X196425216Y-116807753D01*
X196664935Y-117001874D01*
X196670272Y-117005751D01*
X196990685Y-117213830D01*
X196996394Y-117217126D01*
X197067257Y-117253233D01*
X197118872Y-117301981D01*
X197135938Y-117370896D01*
X197113037Y-117438098D01*
X197057440Y-117482250D01*
X197010054Y-117491500D01*
X147689946Y-117491500D01*
X147621825Y-117471498D01*
X147575332Y-117417842D01*
X147565228Y-117347568D01*
X147594722Y-117282988D01*
X147632743Y-117253233D01*
X147703606Y-117217126D01*
X147709315Y-117213830D01*
X148029728Y-117005751D01*
X148035065Y-117001874D01*
X148273835Y-116808522D01*
X148282300Y-116796267D01*
X148275966Y-116785176D01*
X145491922Y-114001132D01*
X146214408Y-114001132D01*
X146214539Y-114002965D01*
X146218790Y-114009580D01*
X148634310Y-116425100D01*
X148647386Y-116432241D01*
X148657753Y-116424784D01*
X148851877Y-116185061D01*
X148855747Y-116179735D01*
X149007793Y-115945604D01*
X183287787Y-115945604D01*
X183297567Y-116156899D01*
X183347125Y-116362534D01*
X183349607Y-116367992D01*
X183349608Y-116367996D01*
X183395415Y-116468742D01*
X183434674Y-116555087D01*
X183557054Y-116727611D01*
X183709850Y-116873881D01*
X183887548Y-116988620D01*
X183893114Y-116990863D01*
X184078168Y-117065442D01*
X184078171Y-117065443D01*
X184083737Y-117067686D01*
X184291337Y-117108228D01*
X184296899Y-117108500D01*
X184452846Y-117108500D01*
X184610566Y-117093452D01*
X184813534Y-117033908D01*
X184818862Y-117031164D01*
X184996249Y-116939804D01*
X184996252Y-116939802D01*
X185001580Y-116937058D01*
X185167920Y-116806396D01*
X185171852Y-116801865D01*
X185171855Y-116801862D01*
X185302621Y-116651167D01*
X185306552Y-116646637D01*
X185309552Y-116641451D01*
X185309555Y-116641447D01*
X185409467Y-116468742D01*
X185412473Y-116463546D01*
X185481861Y-116263729D01*
X185488989Y-116214571D01*
X185511352Y-116060336D01*
X185511352Y-116060333D01*
X185512213Y-116054396D01*
X185502433Y-115843101D01*
X185488510Y-115785329D01*
X185491995Y-115714418D01*
X185533265Y-115656648D01*
X185599215Y-115630361D01*
X185668909Y-115643902D01*
X185700098Y-115666713D01*
X186496844Y-116463459D01*
X186502698Y-116469724D01*
X186539290Y-116511670D01*
X186589652Y-116547066D01*
X186594912Y-116550972D01*
X186643329Y-116588935D01*
X186650254Y-116592062D01*
X186654582Y-116594683D01*
X186663983Y-116600046D01*
X186668425Y-116602428D01*
X186674639Y-116606795D01*
X186681714Y-116609554D01*
X186681717Y-116609555D01*
X186731956Y-116629142D01*
X186738037Y-116631698D01*
X186741098Y-116633080D01*
X186794105Y-116657014D01*
X186801577Y-116658399D01*
X186806378Y-116659903D01*
X186816818Y-116662878D01*
X186821698Y-116664131D01*
X186828772Y-116666889D01*
X186836303Y-116667881D01*
X186836305Y-116667881D01*
X186889777Y-116674921D01*
X186896290Y-116675953D01*
X186949299Y-116685777D01*
X186949301Y-116685777D01*
X186956768Y-116687161D01*
X186964349Y-116686724D01*
X186964350Y-116686724D01*
X187016643Y-116683709D01*
X187023895Y-116683500D01*
X191971955Y-116683500D01*
X191980524Y-116683792D01*
X192028458Y-116687060D01*
X192028462Y-116687060D01*
X192036034Y-116687576D01*
X192043511Y-116686271D01*
X192043514Y-116686271D01*
X192096647Y-116676998D01*
X192103171Y-116676035D01*
X192156691Y-116669558D01*
X192164235Y-116668645D01*
X192171345Y-116665958D01*
X192176248Y-116664754D01*
X192186734Y-116661886D01*
X192191526Y-116660439D01*
X192199004Y-116659134D01*
X192210953Y-116653889D01*
X192255341Y-116634405D01*
X192261446Y-116631914D01*
X192311882Y-116612855D01*
X192311885Y-116612853D01*
X192318989Y-116610169D01*
X192325246Y-116605869D01*
X192329714Y-116603533D01*
X192339160Y-116598275D01*
X192343526Y-116595693D01*
X192350485Y-116592638D01*
X192399304Y-116555177D01*
X192404623Y-116551314D01*
X192449065Y-116520769D01*
X192455326Y-116516466D01*
X192495233Y-116471676D01*
X192500213Y-116466402D01*
X194928320Y-114038295D01*
X194990632Y-114004269D01*
X195061447Y-114009334D01*
X195118283Y-114051881D01*
X195143242Y-114120796D01*
X195157080Y-114384833D01*
X195157766Y-114391371D01*
X195217535Y-114768734D01*
X195218906Y-114775184D01*
X195317788Y-115144216D01*
X195319829Y-115150498D01*
X195456740Y-115507164D01*
X195459422Y-115513189D01*
X195632872Y-115853603D01*
X195636169Y-115859313D01*
X195844253Y-116179735D01*
X195848123Y-116185061D01*
X196041478Y-116423835D01*
X196053733Y-116432300D01*
X196064824Y-116425966D01*
X198477978Y-114012812D01*
X198485592Y-113998868D01*
X198485461Y-113997035D01*
X198481210Y-113990420D01*
X196065690Y-111574900D01*
X196052614Y-111567759D01*
X196042247Y-111575216D01*
X195907420Y-111741713D01*
X195849006Y-111782065D01*
X195778049Y-111784430D01*
X195717077Y-111748057D01*
X195685449Y-111684494D01*
X195683500Y-111662418D01*
X195683500Y-111203733D01*
X196417700Y-111203733D01*
X196424034Y-111214824D01*
X198837188Y-113627978D01*
X198851132Y-113635592D01*
X198852965Y-113635461D01*
X198859580Y-113631210D01*
X201275100Y-111215690D01*
X201282241Y-111202614D01*
X201274784Y-111192247D01*
X201035065Y-110998126D01*
X201029728Y-110994249D01*
X200709315Y-110786170D01*
X200703606Y-110782873D01*
X200363189Y-110609422D01*
X200357164Y-110606740D01*
X200000498Y-110469829D01*
X199994216Y-110467788D01*
X199625184Y-110368906D01*
X199618734Y-110367535D01*
X199241371Y-110307766D01*
X199234833Y-110307080D01*
X198853301Y-110287084D01*
X198846699Y-110287084D01*
X198465167Y-110307080D01*
X198458629Y-110307766D01*
X198081266Y-110367535D01*
X198074816Y-110368906D01*
X197705784Y-110467788D01*
X197699502Y-110469829D01*
X197342836Y-110606740D01*
X197336811Y-110609422D01*
X196996397Y-110782872D01*
X196990687Y-110786169D01*
X196670265Y-110994253D01*
X196664939Y-110998123D01*
X196426165Y-111191478D01*
X196417700Y-111203733D01*
X195683500Y-111203733D01*
X195683500Y-110810305D01*
X195703502Y-110742184D01*
X195720405Y-110721210D01*
X198046210Y-108395405D01*
X198108522Y-108361379D01*
X198135305Y-108358500D01*
X199244329Y-108358500D01*
X199312450Y-108378502D01*
X199358943Y-108432158D01*
X199369025Y-108502580D01*
X199362787Y-108545604D01*
X199372567Y-108756899D01*
X199422125Y-108962534D01*
X199424607Y-108967992D01*
X199424608Y-108967996D01*
X199468053Y-109063546D01*
X199509674Y-109155087D01*
X199632054Y-109327611D01*
X199784850Y-109473881D01*
X199962548Y-109588620D01*
X199968114Y-109590863D01*
X200153168Y-109665442D01*
X200153171Y-109665443D01*
X200158737Y-109667686D01*
X200366337Y-109708228D01*
X200371899Y-109708500D01*
X200527846Y-109708500D01*
X200685566Y-109693452D01*
X200888534Y-109633908D01*
X200972111Y-109590863D01*
X201071249Y-109539804D01*
X201071252Y-109539802D01*
X201076580Y-109537058D01*
X201242920Y-109406396D01*
X201246852Y-109401865D01*
X201246855Y-109401862D01*
X201377621Y-109251167D01*
X201381552Y-109246637D01*
X201384552Y-109241451D01*
X201384555Y-109241447D01*
X201484467Y-109068742D01*
X201487473Y-109063546D01*
X201556861Y-108863729D01*
X201587213Y-108654396D01*
X201577433Y-108443101D01*
X201527875Y-108237466D01*
X201440326Y-108044913D01*
X201317946Y-107872389D01*
X201165150Y-107726119D01*
X200987452Y-107611380D01*
X200927354Y-107587160D01*
X200796832Y-107534558D01*
X200796829Y-107534557D01*
X200791263Y-107532314D01*
X200583663Y-107491772D01*
X200578101Y-107491500D01*
X200422154Y-107491500D01*
X200264434Y-107506548D01*
X200258678Y-107508237D01*
X200258676Y-107508237D01*
X200119969Y-107548929D01*
X200048973Y-107548912D01*
X199989256Y-107510514D01*
X199959778Y-107445926D01*
X199958500Y-107428024D01*
X199958500Y-106349600D01*
X199947526Y-106243834D01*
X199891550Y-106076054D01*
X199798478Y-105925652D01*
X199673303Y-105800695D01*
X199527220Y-105710647D01*
X199479727Y-105657876D01*
X199468303Y-105587804D01*
X199496577Y-105522680D01*
X199506364Y-105512218D01*
X199616906Y-105406766D01*
X199623941Y-105398814D01*
X199755141Y-105222475D01*
X199760745Y-105213438D01*
X199860357Y-105017516D01*
X199864357Y-105007665D01*
X199929534Y-104797760D01*
X199931817Y-104787376D01*
X199933861Y-104771957D01*
X199931665Y-104757793D01*
X199918478Y-104754000D01*
X198347000Y-104754000D01*
X198278879Y-104733998D01*
X198232386Y-104680342D01*
X198221000Y-104628000D01*
X198221000Y-104372000D01*
X198241002Y-104303879D01*
X198294658Y-104257386D01*
X198347000Y-104246000D01*
X199916192Y-104246000D01*
X199929723Y-104242027D01*
X199931248Y-104231420D01*
X199906523Y-104113579D01*
X199903463Y-104103383D01*
X199822737Y-103898971D01*
X199818006Y-103889439D01*
X199703984Y-103701538D01*
X199697720Y-103692948D01*
X199553673Y-103526948D01*
X199546042Y-103519528D01*
X199376089Y-103380174D01*
X199367326Y-103374152D01*
X199340289Y-103358762D01*
X199290982Y-103307680D01*
X199277120Y-103238049D01*
X199303103Y-103171978D01*
X199332253Y-103144739D01*
X199385532Y-103108869D01*
X199454319Y-103062559D01*
X199621135Y-102903424D01*
X199758754Y-102718458D01*
X199863240Y-102512949D01*
X199931607Y-102292773D01*
X199961898Y-102064226D01*
X199953249Y-101833842D01*
X199905907Y-101608209D01*
X199821224Y-101393779D01*
X199794595Y-101349895D01*
X199704390Y-101201243D01*
X199701623Y-101196683D01*
X199614755Y-101096576D01*
X199554023Y-101026588D01*
X199554021Y-101026586D01*
X199550523Y-101022555D01*
X199473073Y-100959050D01*
X199376373Y-100879760D01*
X199376367Y-100879756D01*
X199372245Y-100876376D01*
X199367609Y-100873737D01*
X199367606Y-100873735D01*
X199176529Y-100764968D01*
X199171886Y-100762325D01*
X198955175Y-100683663D01*
X198949926Y-100682714D01*
X198949923Y-100682713D01*
X198732392Y-100643377D01*
X198732385Y-100643376D01*
X198728308Y-100642639D01*
X198710586Y-100641803D01*
X198705644Y-100641570D01*
X198705637Y-100641570D01*
X198704156Y-100641500D01*
X198292110Y-100641500D01*
X198225191Y-100647178D01*
X198125591Y-100655629D01*
X198125587Y-100655630D01*
X198120280Y-100656080D01*
X198115125Y-100657418D01*
X198115119Y-100657419D01*
X197902297Y-100712657D01*
X197902293Y-100712658D01*
X197897128Y-100713999D01*
X197892262Y-100716191D01*
X197892259Y-100716192D01*
X197783980Y-100764968D01*
X197686925Y-100808688D01*
X197495681Y-100937441D01*
X197491824Y-100941120D01*
X197491822Y-100941122D01*
X197473029Y-100959050D01*
X197328865Y-101096576D01*
X197191246Y-101281542D01*
X197188830Y-101286293D01*
X197188828Y-101286297D01*
X197156440Y-101350000D01*
X197086760Y-101487051D01*
X197085178Y-101492145D01*
X197085177Y-101492148D01*
X197028724Y-101673955D01*
X197018393Y-101707227D01*
X197017692Y-101712516D01*
X196991717Y-101908500D01*
X196988102Y-101935774D01*
X196996751Y-102166158D01*
X197022208Y-102287484D01*
X197042663Y-102384974D01*
X197037076Y-102455750D01*
X197008443Y-102499943D01*
X193711531Y-105796854D01*
X190536541Y-108971844D01*
X190530276Y-108977698D01*
X190488330Y-109014290D01*
X190452934Y-109064655D01*
X190449022Y-109069920D01*
X190411065Y-109118328D01*
X190407939Y-109125252D01*
X190405329Y-109129561D01*
X190399958Y-109138976D01*
X190397573Y-109143424D01*
X190393205Y-109149639D01*
X190390446Y-109156716D01*
X190370858Y-109206957D01*
X190368306Y-109213029D01*
X190342986Y-109269105D01*
X190341600Y-109276582D01*
X190340090Y-109281402D01*
X190337118Y-109291835D01*
X190335870Y-109296696D01*
X190333111Y-109303772D01*
X190325180Y-109364019D01*
X190325082Y-109364762D01*
X190324050Y-109371278D01*
X190312839Y-109431767D01*
X190313276Y-109439347D01*
X190313276Y-109439348D01*
X190316291Y-109491642D01*
X190316500Y-109498894D01*
X190316500Y-112629745D01*
X190296498Y-112697866D01*
X190255865Y-112737464D01*
X190201248Y-112770606D01*
X190201241Y-112770611D01*
X190196683Y-112773377D01*
X190192653Y-112776874D01*
X190099484Y-112857722D01*
X190022555Y-112924477D01*
X190004881Y-112946032D01*
X189879760Y-113098627D01*
X189879756Y-113098633D01*
X189876376Y-113102755D01*
X189873733Y-113107398D01*
X189858171Y-113134735D01*
X189807088Y-113184041D01*
X189737458Y-113197902D01*
X189671387Y-113171918D01*
X189644149Y-113142768D01*
X189565148Y-113025422D01*
X189558481Y-113017130D01*
X189406772Y-112858100D01*
X189398814Y-112851059D01*
X189222475Y-112719859D01*
X189213438Y-112714255D01*
X189017516Y-112614643D01*
X189007665Y-112610643D01*
X188797760Y-112545466D01*
X188787376Y-112543183D01*
X188771957Y-112541139D01*
X188757793Y-112543335D01*
X188754000Y-112556522D01*
X188754000Y-114128000D01*
X188733998Y-114196121D01*
X188680342Y-114242614D01*
X188628000Y-114254000D01*
X188372000Y-114254000D01*
X188303879Y-114233998D01*
X188257386Y-114180342D01*
X188246000Y-114128000D01*
X188246000Y-112558808D01*
X188242027Y-112545277D01*
X188231420Y-112543752D01*
X188113579Y-112568477D01*
X188103383Y-112571537D01*
X187898971Y-112652263D01*
X187889439Y-112656994D01*
X187701538Y-112771016D01*
X187692948Y-112777280D01*
X187526948Y-112921327D01*
X187519530Y-112928956D01*
X187493609Y-112960569D01*
X187434949Y-113000564D01*
X187363979Y-113002496D01*
X187303230Y-112965752D01*
X187289030Y-112946982D01*
X187275104Y-112924477D01*
X187198478Y-112800652D01*
X187073303Y-112675695D01*
X187042965Y-112656994D01*
X186928968Y-112586725D01*
X186928966Y-112586724D01*
X186922738Y-112582885D01*
X186803498Y-112543335D01*
X186761389Y-112529368D01*
X186761387Y-112529368D01*
X186754861Y-112527203D01*
X186748025Y-112526503D01*
X186748022Y-112526502D01*
X186704969Y-112522091D01*
X186650400Y-112516500D01*
X185349600Y-112516500D01*
X185346354Y-112516837D01*
X185346350Y-112516837D01*
X185250692Y-112526762D01*
X185250688Y-112526763D01*
X185243834Y-112527474D01*
X185237298Y-112529655D01*
X185237296Y-112529655D01*
X185105194Y-112573728D01*
X185076054Y-112583450D01*
X184925652Y-112676522D01*
X184800695Y-112801697D01*
X184796855Y-112807927D01*
X184796854Y-112807928D01*
X184722466Y-112928608D01*
X184707885Y-112952262D01*
X184705581Y-112959209D01*
X184656574Y-113106962D01*
X184652203Y-113120139D01*
X184651503Y-113126975D01*
X184651502Y-113126978D01*
X184649884Y-113142768D01*
X184641500Y-113224600D01*
X184641500Y-114766005D01*
X184621498Y-114834126D01*
X184567842Y-114880619D01*
X184508761Y-114889774D01*
X184508663Y-114891772D01*
X184504643Y-114891575D01*
X184504626Y-114891575D01*
X184503101Y-114891500D01*
X184347154Y-114891500D01*
X184189434Y-114906548D01*
X183986466Y-114966092D01*
X183981139Y-114968836D01*
X183981138Y-114968836D01*
X183803751Y-115060196D01*
X183803748Y-115060198D01*
X183798420Y-115062942D01*
X183632080Y-115193604D01*
X183628148Y-115198135D01*
X183628145Y-115198138D01*
X183545725Y-115293119D01*
X183493448Y-115353363D01*
X183490448Y-115358549D01*
X183490445Y-115358553D01*
X183418162Y-115483500D01*
X183387527Y-115536454D01*
X183318139Y-115736271D01*
X183317278Y-115742206D01*
X183317278Y-115742208D01*
X183300299Y-115859313D01*
X183287787Y-115945604D01*
X149007793Y-115945604D01*
X149063831Y-115859313D01*
X149067128Y-115853603D01*
X149240578Y-115513189D01*
X149243260Y-115507164D01*
X149380171Y-115150498D01*
X149382212Y-115144216D01*
X149481094Y-114775184D01*
X149482465Y-114768734D01*
X149542234Y-114391371D01*
X149542920Y-114384833D01*
X149562916Y-114003301D01*
X149562916Y-113996699D01*
X149542920Y-113615167D01*
X149542234Y-113608629D01*
X149482465Y-113231266D01*
X149481094Y-113224816D01*
X149420855Y-113000000D01*
X156086496Y-113000000D01*
X156087186Y-113006565D01*
X156104493Y-113171228D01*
X156106458Y-113189928D01*
X156165473Y-113371556D01*
X156260960Y-113536944D01*
X156265378Y-113541851D01*
X156265379Y-113541852D01*
X156347452Y-113633003D01*
X156388747Y-113678866D01*
X156543248Y-113791118D01*
X156549276Y-113793802D01*
X156549278Y-113793803D01*
X156711681Y-113866109D01*
X156717712Y-113868794D01*
X156811112Y-113888647D01*
X156898056Y-113907128D01*
X156898061Y-113907128D01*
X156904513Y-113908500D01*
X157095487Y-113908500D01*
X157101939Y-113907128D01*
X157101944Y-113907128D01*
X157188888Y-113888647D01*
X157282288Y-113868794D01*
X157288319Y-113866109D01*
X157450722Y-113793803D01*
X157450724Y-113793802D01*
X157456752Y-113791118D01*
X157611253Y-113678866D01*
X157615668Y-113673963D01*
X157620580Y-113669540D01*
X157621705Y-113670789D01*
X157675014Y-113637949D01*
X157708200Y-113633500D01*
X162921233Y-113633500D01*
X162932416Y-113634027D01*
X162939909Y-113635702D01*
X162947835Y-113635453D01*
X162947836Y-113635453D01*
X163007986Y-113633562D01*
X163011945Y-113633500D01*
X163039856Y-113633500D01*
X163043791Y-113633003D01*
X163043856Y-113632995D01*
X163055693Y-113632062D01*
X163087951Y-113631048D01*
X163091970Y-113630922D01*
X163099889Y-113630673D01*
X163119343Y-113625021D01*
X163138700Y-113621013D01*
X163150930Y-113619468D01*
X163150931Y-113619468D01*
X163158797Y-113618474D01*
X163166168Y-113615555D01*
X163166170Y-113615555D01*
X163199912Y-113602196D01*
X163211142Y-113598351D01*
X163245983Y-113588229D01*
X163245984Y-113588229D01*
X163253593Y-113586018D01*
X163260412Y-113581985D01*
X163260417Y-113581983D01*
X163271028Y-113575707D01*
X163288776Y-113567012D01*
X163307617Y-113559552D01*
X163343387Y-113533564D01*
X163353307Y-113527048D01*
X163384535Y-113508580D01*
X163384538Y-113508578D01*
X163391362Y-113504542D01*
X163405683Y-113490221D01*
X163420717Y-113477380D01*
X163430694Y-113470131D01*
X163437107Y-113465472D01*
X163465298Y-113431395D01*
X163473288Y-113422616D01*
X165392253Y-111503652D01*
X165400539Y-111496112D01*
X165407018Y-111492000D01*
X165453644Y-111442348D01*
X165456398Y-111439507D01*
X165476135Y-111419770D01*
X165478615Y-111416573D01*
X165486320Y-111407551D01*
X165511159Y-111381100D01*
X165516586Y-111375321D01*
X165520405Y-111368375D01*
X165520407Y-111368372D01*
X165526348Y-111357566D01*
X165537199Y-111341047D01*
X165544758Y-111331301D01*
X165549614Y-111325041D01*
X165552759Y-111317772D01*
X165552762Y-111317768D01*
X165567174Y-111284463D01*
X165572391Y-111273813D01*
X165593695Y-111235060D01*
X165598733Y-111215437D01*
X165605137Y-111196734D01*
X165610033Y-111185420D01*
X165610033Y-111185419D01*
X165613181Y-111178145D01*
X165614420Y-111170322D01*
X165614423Y-111170312D01*
X165620099Y-111134476D01*
X165622505Y-111122856D01*
X165631528Y-111087711D01*
X165631528Y-111087710D01*
X165633500Y-111080030D01*
X165633500Y-111059776D01*
X165635051Y-111040065D01*
X165636980Y-111027886D01*
X165638220Y-111020057D01*
X165634059Y-110976038D01*
X165633500Y-110964181D01*
X165633500Y-101000000D01*
X166086496Y-101000000D01*
X166106458Y-101189928D01*
X166165473Y-101371556D01*
X166168776Y-101377278D01*
X166168777Y-101377279D01*
X166178303Y-101393779D01*
X166260960Y-101536944D01*
X166388747Y-101678866D01*
X166543248Y-101791118D01*
X166549276Y-101793802D01*
X166549278Y-101793803D01*
X166711681Y-101866109D01*
X166717712Y-101868794D01*
X166811112Y-101888647D01*
X166898056Y-101907128D01*
X166898061Y-101907128D01*
X166904513Y-101908500D01*
X167095487Y-101908500D01*
X167101939Y-101907128D01*
X167101944Y-101907128D01*
X167188888Y-101888647D01*
X167282288Y-101868794D01*
X167288319Y-101866109D01*
X167450722Y-101793803D01*
X167450724Y-101793802D01*
X167456752Y-101791118D01*
X167611253Y-101678866D01*
X167739040Y-101536944D01*
X167821697Y-101393779D01*
X167831223Y-101377279D01*
X167831224Y-101377278D01*
X167834527Y-101371556D01*
X167893542Y-101189928D01*
X167910907Y-101024706D01*
X167937920Y-100959050D01*
X167947122Y-100948782D01*
X170157789Y-98738116D01*
X172392253Y-96503652D01*
X172400539Y-96496112D01*
X172407018Y-96492000D01*
X172453644Y-96442348D01*
X172456398Y-96439507D01*
X172476135Y-96419770D01*
X172478615Y-96416573D01*
X172486320Y-96407551D01*
X172511159Y-96381100D01*
X172516586Y-96375321D01*
X172520405Y-96368375D01*
X172520407Y-96368372D01*
X172526348Y-96357566D01*
X172537199Y-96341047D01*
X172544758Y-96331301D01*
X172549614Y-96325041D01*
X172552759Y-96317772D01*
X172552762Y-96317768D01*
X172567174Y-96284463D01*
X172572391Y-96273813D01*
X172593695Y-96235060D01*
X172598733Y-96215437D01*
X172605137Y-96196734D01*
X172610033Y-96185420D01*
X172610033Y-96185419D01*
X172613181Y-96178145D01*
X172614420Y-96170322D01*
X172614423Y-96170312D01*
X172620099Y-96134476D01*
X172622505Y-96122856D01*
X172631528Y-96087711D01*
X172631528Y-96087710D01*
X172633500Y-96080030D01*
X172633500Y-96059776D01*
X172635051Y-96040065D01*
X172636980Y-96027886D01*
X172638220Y-96020057D01*
X172634059Y-95976038D01*
X172633500Y-95964181D01*
X172633500Y-95702524D01*
X172648805Y-95650400D01*
X197341500Y-95650400D01*
X197352474Y-95756166D01*
X197354655Y-95762702D01*
X197354655Y-95762704D01*
X197386783Y-95859002D01*
X197408450Y-95923946D01*
X197501522Y-96074348D01*
X197626697Y-96199305D01*
X197632927Y-96203145D01*
X197632928Y-96203146D01*
X197770090Y-96287694D01*
X197777262Y-96292115D01*
X197854604Y-96317768D01*
X197938611Y-96345632D01*
X197938613Y-96345632D01*
X197945139Y-96347797D01*
X197951975Y-96348497D01*
X197951978Y-96348498D01*
X197995031Y-96352909D01*
X198049600Y-96358500D01*
X199650400Y-96358500D01*
X199653646Y-96358163D01*
X199653650Y-96358163D01*
X199749308Y-96348238D01*
X199749312Y-96348237D01*
X199756166Y-96347526D01*
X199762702Y-96345345D01*
X199762704Y-96345345D01*
X199894806Y-96301272D01*
X199923946Y-96291550D01*
X200074348Y-96198478D01*
X200199305Y-96073303D01*
X200227301Y-96027886D01*
X200288275Y-95928968D01*
X200288276Y-95928966D01*
X200292115Y-95922738D01*
X200333446Y-95798129D01*
X200345632Y-95761389D01*
X200345632Y-95761387D01*
X200347797Y-95754861D01*
X200358500Y-95650400D01*
X200358500Y-94349600D01*
X200355581Y-94321464D01*
X200348238Y-94250692D01*
X200348237Y-94250688D01*
X200347526Y-94243834D01*
X200330630Y-94193189D01*
X200293868Y-94083002D01*
X200291550Y-94076054D01*
X200198478Y-93925652D01*
X200073303Y-93800695D01*
X199927220Y-93710647D01*
X199879727Y-93657876D01*
X199868303Y-93587804D01*
X199896577Y-93522680D01*
X199906364Y-93512218D01*
X200016906Y-93406766D01*
X200023941Y-93398814D01*
X200155141Y-93222475D01*
X200160745Y-93213438D01*
X200260357Y-93017516D01*
X200264357Y-93007665D01*
X200329534Y-92797760D01*
X200331817Y-92787376D01*
X200333861Y-92771957D01*
X200331665Y-92757793D01*
X200318478Y-92754000D01*
X197383808Y-92754000D01*
X197370277Y-92757973D01*
X197368752Y-92768580D01*
X197393477Y-92886421D01*
X197396537Y-92896617D01*
X197477263Y-93101029D01*
X197481994Y-93110561D01*
X197596016Y-93298462D01*
X197602280Y-93307052D01*
X197746327Y-93473052D01*
X197753956Y-93480470D01*
X197785569Y-93506391D01*
X197825564Y-93565051D01*
X197827496Y-93636021D01*
X197790752Y-93696770D01*
X197771983Y-93710969D01*
X197625652Y-93801522D01*
X197500695Y-93926697D01*
X197496855Y-93932927D01*
X197496854Y-93932928D01*
X197431852Y-94038381D01*
X197407885Y-94077262D01*
X197390448Y-94129834D01*
X197362942Y-94212763D01*
X197352203Y-94245139D01*
X197341500Y-94349600D01*
X197341500Y-95650400D01*
X172648805Y-95650400D01*
X172653502Y-95634403D01*
X172665858Y-95618221D01*
X172739040Y-95536944D01*
X172834527Y-95371556D01*
X172893542Y-95189928D01*
X172894508Y-95180743D01*
X172912814Y-95006565D01*
X172913504Y-95000000D01*
X172909293Y-94959931D01*
X172894232Y-94816635D01*
X172894232Y-94816633D01*
X172893542Y-94810072D01*
X172834527Y-94628444D01*
X172739040Y-94463056D01*
X172639781Y-94352817D01*
X172615675Y-94326045D01*
X172615674Y-94326044D01*
X172611253Y-94321134D01*
X172456752Y-94208882D01*
X172450724Y-94206198D01*
X172450722Y-94206197D01*
X172288319Y-94133891D01*
X172288318Y-94133891D01*
X172282288Y-94131206D01*
X172188887Y-94111353D01*
X172101944Y-94092872D01*
X172101939Y-94092872D01*
X172095487Y-94091500D01*
X171904513Y-94091500D01*
X171898061Y-94092872D01*
X171898056Y-94092872D01*
X171811112Y-94111353D01*
X171717712Y-94131206D01*
X171711682Y-94133891D01*
X171711681Y-94133891D01*
X171549278Y-94206197D01*
X171549276Y-94206198D01*
X171543248Y-94208882D01*
X171388747Y-94321134D01*
X171384326Y-94326044D01*
X171384325Y-94326045D01*
X171360220Y-94352817D01*
X171260960Y-94463056D01*
X171165473Y-94628444D01*
X171106458Y-94810072D01*
X171105768Y-94816633D01*
X171105768Y-94816635D01*
X171090707Y-94959931D01*
X171086496Y-95000000D01*
X171087186Y-95006565D01*
X171105493Y-95180743D01*
X171106458Y-95189928D01*
X171165473Y-95371556D01*
X171260960Y-95536944D01*
X171265375Y-95541847D01*
X171326026Y-95609207D01*
X171356743Y-95673215D01*
X171347978Y-95743668D01*
X171321484Y-95782612D01*
X167049500Y-100054595D01*
X166987188Y-100088621D01*
X166960405Y-100091500D01*
X166904513Y-100091500D01*
X166898061Y-100092872D01*
X166898056Y-100092872D01*
X166811113Y-100111353D01*
X166717712Y-100131206D01*
X166711682Y-100133891D01*
X166711681Y-100133891D01*
X166549278Y-100206197D01*
X166549276Y-100206198D01*
X166543248Y-100208882D01*
X166388747Y-100321134D01*
X166384326Y-100326044D01*
X166384325Y-100326045D01*
X166360852Y-100352115D01*
X166260960Y-100463056D01*
X166165473Y-100628444D01*
X166106458Y-100810072D01*
X166105768Y-100816633D01*
X166105768Y-100816635D01*
X166098425Y-100886500D01*
X166086496Y-101000000D01*
X165633500Y-101000000D01*
X165633500Y-92228043D01*
X197366139Y-92228043D01*
X197368335Y-92242207D01*
X197381522Y-92246000D01*
X198577885Y-92246000D01*
X198593124Y-92241525D01*
X198594329Y-92240135D01*
X198596000Y-92232452D01*
X198596000Y-92227885D01*
X199104000Y-92227885D01*
X199108475Y-92243124D01*
X199109865Y-92244329D01*
X199117548Y-92246000D01*
X200316192Y-92246000D01*
X200329723Y-92242027D01*
X200331248Y-92231420D01*
X200306523Y-92113579D01*
X200303463Y-92103383D01*
X200222737Y-91898971D01*
X200218006Y-91889439D01*
X200103984Y-91701538D01*
X200097720Y-91692948D01*
X199953673Y-91526948D01*
X199946042Y-91519528D01*
X199776089Y-91380174D01*
X199767322Y-91374150D01*
X199576318Y-91265424D01*
X199566654Y-91260959D01*
X199360059Y-91185969D01*
X199349792Y-91183198D01*
X199132345Y-91143877D01*
X199124116Y-91142944D01*
X199119624Y-91142732D01*
X199106876Y-91146475D01*
X199105671Y-91147865D01*
X199104000Y-91155548D01*
X199104000Y-92227885D01*
X198596000Y-92227885D01*
X198596000Y-91164030D01*
X198591690Y-91149352D01*
X198579807Y-91147289D01*
X198475675Y-91156124D01*
X198465203Y-91157914D01*
X198252465Y-91213130D01*
X198242425Y-91216665D01*
X198042030Y-91306937D01*
X198032744Y-91312106D01*
X197850425Y-91434850D01*
X197842130Y-91441519D01*
X197683100Y-91593228D01*
X197676059Y-91601186D01*
X197544859Y-91777525D01*
X197539255Y-91786562D01*
X197439643Y-91982484D01*
X197435643Y-91992335D01*
X197370466Y-92202240D01*
X197368183Y-92212624D01*
X197366139Y-92228043D01*
X165633500Y-92228043D01*
X165633500Y-91702524D01*
X165653502Y-91634403D01*
X165665858Y-91618221D01*
X165739040Y-91536944D01*
X165797984Y-91434850D01*
X165831223Y-91377279D01*
X165831224Y-91377278D01*
X165834527Y-91371556D01*
X165893542Y-91189928D01*
X165894250Y-91183198D01*
X165912814Y-91006565D01*
X165913504Y-91000000D01*
X165893542Y-90810072D01*
X165834527Y-90628444D01*
X165739040Y-90463056D01*
X165611253Y-90321134D01*
X165456752Y-90208882D01*
X165450724Y-90206198D01*
X165450722Y-90206197D01*
X165288319Y-90133891D01*
X165288318Y-90133891D01*
X165282288Y-90131206D01*
X165165346Y-90106349D01*
X165101944Y-90092872D01*
X165101939Y-90092872D01*
X165095487Y-90091500D01*
X164904513Y-90091500D01*
X164898061Y-90092872D01*
X164898056Y-90092872D01*
X164834654Y-90106349D01*
X164717712Y-90131206D01*
X164711682Y-90133891D01*
X164711681Y-90133891D01*
X164549278Y-90206197D01*
X164549276Y-90206198D01*
X164543248Y-90208882D01*
X164388747Y-90321134D01*
X164260960Y-90463056D01*
X164165473Y-90628444D01*
X164106458Y-90810072D01*
X164086496Y-91000000D01*
X164087186Y-91006565D01*
X164105751Y-91183198D01*
X164106458Y-91189928D01*
X164165473Y-91371556D01*
X164168776Y-91377278D01*
X164168777Y-91377279D01*
X164202016Y-91434850D01*
X164260960Y-91536944D01*
X164334137Y-91618215D01*
X164364853Y-91682221D01*
X164366500Y-91702524D01*
X164366500Y-110685406D01*
X164346498Y-110753527D01*
X164329595Y-110774501D01*
X162774500Y-112329595D01*
X162712188Y-112363621D01*
X162685405Y-112366500D01*
X157708200Y-112366500D01*
X157640079Y-112346498D01*
X157620853Y-112330157D01*
X157620580Y-112330460D01*
X157615668Y-112326037D01*
X157611253Y-112321134D01*
X157456752Y-112208882D01*
X157450724Y-112206198D01*
X157450722Y-112206197D01*
X157288319Y-112133891D01*
X157288318Y-112133891D01*
X157282288Y-112131206D01*
X157188888Y-112111353D01*
X157101944Y-112092872D01*
X157101939Y-112092872D01*
X157095487Y-112091500D01*
X156904513Y-112091500D01*
X156898061Y-112092872D01*
X156898056Y-112092872D01*
X156811113Y-112111353D01*
X156717712Y-112131206D01*
X156711682Y-112133891D01*
X156711681Y-112133891D01*
X156549278Y-112206197D01*
X156549276Y-112206198D01*
X156543248Y-112208882D01*
X156388747Y-112321134D01*
X156384326Y-112326044D01*
X156384325Y-112326045D01*
X156350492Y-112363621D01*
X156260960Y-112463056D01*
X156206997Y-112556522D01*
X156189560Y-112586725D01*
X156165473Y-112628444D01*
X156106458Y-112810072D01*
X156105768Y-112816633D01*
X156105768Y-112816635D01*
X156093963Y-112928956D01*
X156086496Y-113000000D01*
X149420855Y-113000000D01*
X149382212Y-112855784D01*
X149380171Y-112849502D01*
X149243260Y-112492836D01*
X149240578Y-112486811D01*
X149067128Y-112146397D01*
X149063831Y-112140687D01*
X148855747Y-111820265D01*
X148851877Y-111814939D01*
X148658522Y-111576165D01*
X148646267Y-111567700D01*
X148635176Y-111574034D01*
X146222022Y-113987188D01*
X146214408Y-114001132D01*
X145491922Y-114001132D01*
X143065690Y-111574900D01*
X143052614Y-111567759D01*
X143042247Y-111575216D01*
X142848123Y-111814939D01*
X142844253Y-111820265D01*
X142636169Y-112140687D01*
X142632872Y-112146397D01*
X142596767Y-112217258D01*
X142548019Y-112268873D01*
X142479104Y-112285939D01*
X142411902Y-112263038D01*
X142367750Y-112207441D01*
X142358500Y-112160055D01*
X142358500Y-111203733D01*
X143417700Y-111203733D01*
X143424034Y-111214824D01*
X145837188Y-113627978D01*
X145851132Y-113635592D01*
X145852965Y-113635461D01*
X145859580Y-113631210D01*
X148275100Y-111215690D01*
X148282241Y-111202614D01*
X148274784Y-111192247D01*
X148035065Y-110998126D01*
X148029728Y-110994249D01*
X147709315Y-110786170D01*
X147703606Y-110782873D01*
X147363189Y-110609422D01*
X147357164Y-110606740D01*
X147000498Y-110469829D01*
X146994216Y-110467788D01*
X146625184Y-110368906D01*
X146618734Y-110367535D01*
X146241371Y-110307766D01*
X146234833Y-110307080D01*
X145853301Y-110287084D01*
X145846699Y-110287084D01*
X145465167Y-110307080D01*
X145458629Y-110307766D01*
X145081266Y-110367535D01*
X145074816Y-110368906D01*
X144705784Y-110467788D01*
X144699502Y-110469829D01*
X144342836Y-110606740D01*
X144336811Y-110609422D01*
X143996397Y-110782872D01*
X143990687Y-110786169D01*
X143670265Y-110994253D01*
X143664939Y-110998123D01*
X143426165Y-111191478D01*
X143417700Y-111203733D01*
X142358500Y-111203733D01*
X142358500Y-100348352D01*
X143841930Y-100348352D01*
X143842381Y-100350475D01*
X143905743Y-100556435D01*
X143909964Y-100566780D01*
X144008798Y-100758267D01*
X144014783Y-100767698D01*
X144145968Y-100938663D01*
X144153521Y-100946876D01*
X144312910Y-101091909D01*
X144321810Y-101098664D01*
X144504343Y-101213166D01*
X144514313Y-101218247D01*
X144714240Y-101298617D01*
X144724940Y-101301848D01*
X144936916Y-101345745D01*
X144946053Y-101346948D01*
X144997160Y-101349895D01*
X145000806Y-101350000D01*
X145577885Y-101350000D01*
X145593124Y-101345525D01*
X145594329Y-101344135D01*
X145596000Y-101336452D01*
X145596000Y-101331885D01*
X146104000Y-101331885D01*
X146108475Y-101347124D01*
X146109865Y-101348329D01*
X146117548Y-101350000D01*
X146666711Y-101350000D01*
X146672306Y-101349751D01*
X146832212Y-101335479D01*
X146843226Y-101333497D01*
X147051065Y-101276639D01*
X147061538Y-101272745D01*
X147256037Y-101179974D01*
X147265648Y-101174290D01*
X147440644Y-101048541D01*
X147449100Y-101041242D01*
X147599056Y-100886500D01*
X147606098Y-100877803D01*
X147726276Y-100698960D01*
X147731665Y-100689157D01*
X147818274Y-100491857D01*
X147821840Y-100481262D01*
X147852966Y-100351615D01*
X147852261Y-100337530D01*
X147843382Y-100334000D01*
X146122115Y-100334000D01*
X146106876Y-100338475D01*
X146105671Y-100339865D01*
X146104000Y-100347548D01*
X146104000Y-101331885D01*
X145596000Y-101331885D01*
X145596000Y-100352115D01*
X145591525Y-100336876D01*
X145590135Y-100335671D01*
X145582452Y-100334000D01*
X143857502Y-100334000D01*
X143843520Y-100338106D01*
X143841930Y-100348352D01*
X142358500Y-100348352D01*
X142358500Y-97580069D01*
X143812994Y-97580069D01*
X143840241Y-97805219D01*
X143906927Y-98021987D01*
X144010946Y-98223519D01*
X144149009Y-98403447D01*
X144239850Y-98486106D01*
X144312605Y-98552308D01*
X144312608Y-98552310D01*
X144316752Y-98556081D01*
X144321503Y-98559062D01*
X144321504Y-98559062D01*
X144504118Y-98673616D01*
X144504122Y-98673618D01*
X144508874Y-98676599D01*
X144552537Y-98694151D01*
X144608279Y-98738116D01*
X144631404Y-98805241D01*
X144614567Y-98874212D01*
X144559783Y-98924783D01*
X144443959Y-98980028D01*
X144434352Y-98985710D01*
X144259356Y-99111459D01*
X144250900Y-99118758D01*
X144100944Y-99273500D01*
X144093902Y-99282197D01*
X143973724Y-99461040D01*
X143968335Y-99470843D01*
X143881726Y-99668143D01*
X143878160Y-99678738D01*
X143847034Y-99808385D01*
X143847739Y-99822470D01*
X143856618Y-99826000D01*
X147842498Y-99826000D01*
X147856480Y-99821894D01*
X147858070Y-99811648D01*
X147857619Y-99809525D01*
X147794257Y-99603565D01*
X147790036Y-99593220D01*
X147691202Y-99401733D01*
X147685217Y-99392302D01*
X147554032Y-99221337D01*
X147546479Y-99213124D01*
X147387090Y-99068091D01*
X147378190Y-99061336D01*
X147195657Y-98946834D01*
X147185687Y-98941753D01*
X147147483Y-98926395D01*
X147091739Y-98882428D01*
X147068614Y-98815303D01*
X147085451Y-98746332D01*
X147140236Y-98695762D01*
X147256284Y-98640410D01*
X147256285Y-98640409D01*
X147261351Y-98637993D01*
X147265913Y-98634715D01*
X147440966Y-98508926D01*
X147440968Y-98508924D01*
X147445526Y-98505649D01*
X147603355Y-98342783D01*
X147686845Y-98218536D01*
X147726721Y-98159195D01*
X147726724Y-98159190D01*
X147729847Y-98154542D01*
X147821007Y-97946876D01*
X147853728Y-97810583D01*
X147872640Y-97731808D01*
X147872641Y-97731802D01*
X147873950Y-97726349D01*
X147887006Y-97499931D01*
X147859759Y-97274781D01*
X147793073Y-97058013D01*
X147689054Y-96856481D01*
X147550991Y-96676553D01*
X147435071Y-96571074D01*
X147387395Y-96527692D01*
X147387392Y-96527690D01*
X147383248Y-96523919D01*
X147350940Y-96503652D01*
X147195882Y-96406384D01*
X147195878Y-96406382D01*
X147191126Y-96403401D01*
X147148094Y-96386102D01*
X147092351Y-96342136D01*
X147069226Y-96275011D01*
X147086063Y-96206040D01*
X147140848Y-96155470D01*
X147256284Y-96100410D01*
X147256285Y-96100409D01*
X147261351Y-96097993D01*
X147286349Y-96080030D01*
X147440966Y-95968926D01*
X147440968Y-95968924D01*
X147445526Y-95965649D01*
X147603355Y-95802783D01*
X147690421Y-95673215D01*
X147726721Y-95619195D01*
X147726724Y-95619190D01*
X147729847Y-95614542D01*
X147821007Y-95406876D01*
X147853728Y-95270583D01*
X147872640Y-95191808D01*
X147872641Y-95191802D01*
X147873950Y-95186349D01*
X147884317Y-95006565D01*
X147886683Y-94965537D01*
X147886683Y-94965534D01*
X147887006Y-94959931D01*
X147859759Y-94734781D01*
X147793073Y-94518013D01*
X147706148Y-94349600D01*
X147691626Y-94321464D01*
X147691626Y-94321463D01*
X147689054Y-94316481D01*
X147550991Y-94136553D01*
X147435071Y-94031074D01*
X147387395Y-93987692D01*
X147387392Y-93987690D01*
X147383248Y-93983919D01*
X147378496Y-93980938D01*
X147195882Y-93866384D01*
X147195878Y-93866382D01*
X147191126Y-93863401D01*
X147148094Y-93846102D01*
X147092351Y-93802136D01*
X147069226Y-93735011D01*
X147086063Y-93666040D01*
X147140848Y-93615470D01*
X147256284Y-93560410D01*
X147256285Y-93560409D01*
X147261351Y-93557993D01*
X147310494Y-93522680D01*
X147440966Y-93428926D01*
X147440968Y-93428924D01*
X147445526Y-93425649D01*
X147560455Y-93307052D01*
X147599452Y-93266811D01*
X147599454Y-93266808D01*
X147603355Y-93262783D01*
X147686845Y-93138536D01*
X147726721Y-93079195D01*
X147726724Y-93079190D01*
X147729847Y-93074542D01*
X147821007Y-92866876D01*
X147843795Y-92771957D01*
X147872640Y-92651808D01*
X147872641Y-92651802D01*
X147873950Y-92646349D01*
X147887006Y-92419931D01*
X147859759Y-92194781D01*
X147793073Y-91978013D01*
X147689054Y-91776481D01*
X147550991Y-91596553D01*
X147435071Y-91491074D01*
X147387395Y-91447692D01*
X147387392Y-91447690D01*
X147383248Y-91443919D01*
X147257895Y-91365285D01*
X147195882Y-91326384D01*
X147195878Y-91326382D01*
X147191126Y-91323401D01*
X147148094Y-91306102D01*
X147092351Y-91262136D01*
X147069226Y-91195011D01*
X147086063Y-91126040D01*
X147140848Y-91075470D01*
X147256284Y-91020410D01*
X147256285Y-91020409D01*
X147261351Y-91017993D01*
X147295527Y-90993435D01*
X147440966Y-90888926D01*
X147440968Y-90888924D01*
X147445526Y-90885649D01*
X147603355Y-90722783D01*
X147686845Y-90598536D01*
X147726721Y-90539195D01*
X147726724Y-90539190D01*
X147729847Y-90534542D01*
X147758718Y-90468774D01*
X147818750Y-90332017D01*
X147821007Y-90326876D01*
X147848403Y-90212763D01*
X147872640Y-90111808D01*
X147872641Y-90111802D01*
X147873950Y-90106349D01*
X147887006Y-89879931D01*
X147859759Y-89654781D01*
X147793073Y-89438013D01*
X147689054Y-89236481D01*
X147550991Y-89056553D01*
X147435071Y-88951074D01*
X147387395Y-88907692D01*
X147387392Y-88907690D01*
X147383248Y-88903919D01*
X147257895Y-88825285D01*
X147195882Y-88786384D01*
X147195878Y-88786382D01*
X147191126Y-88783401D01*
X147147463Y-88765849D01*
X147091721Y-88721884D01*
X147068596Y-88654759D01*
X147085433Y-88585788D01*
X147140217Y-88535217D01*
X147256041Y-88479972D01*
X147265648Y-88474290D01*
X147440644Y-88348541D01*
X147449100Y-88341242D01*
X147599056Y-88186500D01*
X147606098Y-88177803D01*
X147726276Y-87998960D01*
X147731665Y-87989157D01*
X147818274Y-87791857D01*
X147821840Y-87781262D01*
X147852966Y-87651615D01*
X147852261Y-87637530D01*
X147843382Y-87634000D01*
X143857502Y-87634000D01*
X143843520Y-87638106D01*
X143841930Y-87648352D01*
X143842381Y-87650475D01*
X143905743Y-87856435D01*
X143909964Y-87866780D01*
X144008798Y-88058267D01*
X144014783Y-88067698D01*
X144145968Y-88238663D01*
X144153521Y-88246876D01*
X144312910Y-88391909D01*
X144321810Y-88398664D01*
X144504343Y-88513166D01*
X144514313Y-88518247D01*
X144552517Y-88533605D01*
X144608261Y-88577572D01*
X144631386Y-88644697D01*
X144614549Y-88713668D01*
X144559764Y-88764238D01*
X144438649Y-88822007D01*
X144434088Y-88825284D01*
X144434087Y-88825285D01*
X144328806Y-88900938D01*
X144254474Y-88954351D01*
X144096645Y-89117217D01*
X144093518Y-89121871D01*
X143973279Y-89300805D01*
X143973276Y-89300810D01*
X143970153Y-89305458D01*
X143878993Y-89513124D01*
X143877683Y-89518581D01*
X143827360Y-89728192D01*
X143827359Y-89728198D01*
X143826050Y-89733651D01*
X143812994Y-89960069D01*
X143840241Y-90185219D01*
X143841891Y-90190581D01*
X143841891Y-90190583D01*
X143867682Y-90274417D01*
X143906927Y-90401987D01*
X144010946Y-90603519D01*
X144149009Y-90783447D01*
X144239850Y-90866106D01*
X144312605Y-90932308D01*
X144312608Y-90932310D01*
X144316752Y-90936081D01*
X144321503Y-90939062D01*
X144321504Y-90939062D01*
X144504118Y-91053616D01*
X144504122Y-91053618D01*
X144508874Y-91056599D01*
X144551906Y-91073898D01*
X144607649Y-91117864D01*
X144630774Y-91184989D01*
X144613937Y-91253960D01*
X144559152Y-91304530D01*
X144438649Y-91362007D01*
X144434088Y-91365284D01*
X144434087Y-91365285D01*
X144328806Y-91440938D01*
X144254474Y-91494351D01*
X144213198Y-91536944D01*
X144134443Y-91618213D01*
X144096645Y-91657217D01*
X144093518Y-91661871D01*
X143973279Y-91840805D01*
X143973276Y-91840810D01*
X143970153Y-91845458D01*
X143878993Y-92053124D01*
X143877683Y-92058581D01*
X143827360Y-92268192D01*
X143827359Y-92268198D01*
X143826050Y-92273651D01*
X143812994Y-92500069D01*
X143840241Y-92725219D01*
X143906927Y-92941987D01*
X144010946Y-93143519D01*
X144149009Y-93323447D01*
X144239850Y-93406106D01*
X144312605Y-93472308D01*
X144312608Y-93472310D01*
X144316752Y-93476081D01*
X144321503Y-93479062D01*
X144321504Y-93479062D01*
X144504118Y-93593616D01*
X144504122Y-93593618D01*
X144508874Y-93596599D01*
X144551906Y-93613898D01*
X144607649Y-93657864D01*
X144630774Y-93724989D01*
X144613937Y-93793960D01*
X144559152Y-93844530D01*
X144438649Y-93902007D01*
X144434088Y-93905284D01*
X144434087Y-93905285D01*
X144328806Y-93980938D01*
X144254474Y-94034351D01*
X144096645Y-94197217D01*
X144059847Y-94251978D01*
X143973279Y-94380805D01*
X143973276Y-94380810D01*
X143970153Y-94385458D01*
X143878993Y-94593124D01*
X143877683Y-94598581D01*
X143827360Y-94808192D01*
X143827359Y-94808198D01*
X143826050Y-94813651D01*
X143825727Y-94819257D01*
X143815305Y-95000000D01*
X143812994Y-95040069D01*
X143840241Y-95265219D01*
X143906927Y-95481987D01*
X143909499Y-95486970D01*
X143995503Y-95653598D01*
X144010946Y-95683519D01*
X144149009Y-95863447D01*
X144239850Y-95946106D01*
X144312605Y-96012308D01*
X144312608Y-96012310D01*
X144316752Y-96016081D01*
X144321503Y-96019062D01*
X144321504Y-96019062D01*
X144504118Y-96133616D01*
X144504122Y-96133618D01*
X144508874Y-96136599D01*
X144551906Y-96153898D01*
X144607649Y-96197864D01*
X144630774Y-96264989D01*
X144613937Y-96333960D01*
X144559152Y-96384530D01*
X144491824Y-96416644D01*
X144438649Y-96442007D01*
X144434088Y-96445284D01*
X144434087Y-96445285D01*
X144328806Y-96520938D01*
X144254474Y-96574351D01*
X144096645Y-96737217D01*
X144093518Y-96741871D01*
X143973279Y-96920805D01*
X143973276Y-96920810D01*
X143970153Y-96925458D01*
X143878993Y-97133124D01*
X143877683Y-97138581D01*
X143827360Y-97348192D01*
X143827359Y-97348198D01*
X143826050Y-97353651D01*
X143812994Y-97580069D01*
X142358500Y-97580069D01*
X142358500Y-87108385D01*
X143847034Y-87108385D01*
X143847739Y-87122470D01*
X143856618Y-87126000D01*
X145577885Y-87126000D01*
X145593124Y-87121525D01*
X145594329Y-87120135D01*
X145596000Y-87112452D01*
X145596000Y-87107885D01*
X146104000Y-87107885D01*
X146108475Y-87123124D01*
X146109865Y-87124329D01*
X146117548Y-87126000D01*
X147842498Y-87126000D01*
X147856480Y-87121894D01*
X147858070Y-87111648D01*
X147857619Y-87109525D01*
X147794257Y-86903565D01*
X147790036Y-86893220D01*
X147691202Y-86701733D01*
X147685217Y-86692302D01*
X147554032Y-86521337D01*
X147546479Y-86513124D01*
X147387090Y-86368091D01*
X147378190Y-86361336D01*
X147195657Y-86246834D01*
X147185687Y-86241753D01*
X146985760Y-86161383D01*
X146975060Y-86158152D01*
X146763084Y-86114255D01*
X146753947Y-86113052D01*
X146702840Y-86110105D01*
X146699194Y-86110000D01*
X146122115Y-86110000D01*
X146106876Y-86114475D01*
X146105671Y-86115865D01*
X146104000Y-86123548D01*
X146104000Y-87107885D01*
X145596000Y-87107885D01*
X145596000Y-86128115D01*
X145591525Y-86112876D01*
X145590135Y-86111671D01*
X145582452Y-86110000D01*
X145033289Y-86110000D01*
X145027694Y-86110249D01*
X144867788Y-86124521D01*
X144856774Y-86126503D01*
X144648935Y-86183361D01*
X144638462Y-86187255D01*
X144443963Y-86280026D01*
X144434352Y-86285710D01*
X144259356Y-86411459D01*
X144250900Y-86418758D01*
X144100944Y-86573500D01*
X144093902Y-86582197D01*
X143973724Y-86761040D01*
X143968335Y-86770843D01*
X143881726Y-86968143D01*
X143878160Y-86978738D01*
X143847034Y-87108385D01*
X142358500Y-87108385D01*
X142358500Y-84647095D01*
X197342001Y-84647095D01*
X197342338Y-84653614D01*
X197352257Y-84749206D01*
X197355149Y-84762600D01*
X197406588Y-84916784D01*
X197412761Y-84929962D01*
X197498063Y-85067807D01*
X197507099Y-85079208D01*
X197621829Y-85193739D01*
X197633240Y-85202751D01*
X197771243Y-85287816D01*
X197784424Y-85293963D01*
X197938710Y-85345138D01*
X197952086Y-85348005D01*
X198046438Y-85357672D01*
X198052854Y-85358000D01*
X198577885Y-85358000D01*
X198593124Y-85353525D01*
X198594329Y-85352135D01*
X198596000Y-85344452D01*
X198596000Y-85339884D01*
X199104000Y-85339884D01*
X199108475Y-85355123D01*
X199109865Y-85356328D01*
X199117548Y-85357999D01*
X199647095Y-85357999D01*
X199653614Y-85357662D01*
X199749206Y-85347743D01*
X199762600Y-85344851D01*
X199916784Y-85293412D01*
X199929962Y-85287239D01*
X200067807Y-85201937D01*
X200079208Y-85192901D01*
X200193739Y-85078171D01*
X200202751Y-85066760D01*
X200287816Y-84928757D01*
X200293963Y-84915576D01*
X200345138Y-84761290D01*
X200348005Y-84747914D01*
X200357672Y-84653562D01*
X200358000Y-84647146D01*
X200358000Y-84272115D01*
X200353525Y-84256876D01*
X200352135Y-84255671D01*
X200344452Y-84254000D01*
X199122115Y-84254000D01*
X199106876Y-84258475D01*
X199105671Y-84259865D01*
X199104000Y-84267548D01*
X199104000Y-85339884D01*
X198596000Y-85339884D01*
X198596000Y-84272115D01*
X198591525Y-84256876D01*
X198590135Y-84255671D01*
X198582452Y-84254000D01*
X197360116Y-84254000D01*
X197344877Y-84258475D01*
X197343672Y-84259865D01*
X197342001Y-84267548D01*
X197342001Y-84647095D01*
X142358500Y-84647095D01*
X142358500Y-81435774D01*
X197338102Y-81435774D01*
X197346751Y-81666158D01*
X197394093Y-81891791D01*
X197478776Y-82106221D01*
X197598377Y-82303317D01*
X197601874Y-82307347D01*
X197688438Y-82407103D01*
X197749477Y-82477445D01*
X197753608Y-82480832D01*
X197785529Y-82507006D01*
X197825524Y-82565666D01*
X197827455Y-82636636D01*
X197790710Y-82697384D01*
X197771941Y-82711584D01*
X197632193Y-82798063D01*
X197620792Y-82807099D01*
X197506261Y-82921829D01*
X197497249Y-82933240D01*
X197412184Y-83071243D01*
X197406037Y-83084424D01*
X197354862Y-83238710D01*
X197351995Y-83252086D01*
X197342328Y-83346438D01*
X197342000Y-83352855D01*
X197342000Y-83727885D01*
X197346475Y-83743124D01*
X197347865Y-83744329D01*
X197355548Y-83746000D01*
X200339884Y-83746000D01*
X200355123Y-83741525D01*
X200356328Y-83740135D01*
X200357999Y-83732452D01*
X200357999Y-83352905D01*
X200357662Y-83346386D01*
X200347743Y-83250794D01*
X200344851Y-83237400D01*
X200293412Y-83083216D01*
X200287239Y-83070038D01*
X200201937Y-82932193D01*
X200192901Y-82920792D01*
X200078171Y-82806261D01*
X200066757Y-82797247D01*
X199927287Y-82711277D01*
X199879793Y-82658505D01*
X199868369Y-82588434D01*
X199896643Y-82523310D01*
X199906430Y-82512847D01*
X199939991Y-82480832D01*
X200021135Y-82403424D01*
X200158754Y-82218458D01*
X200263240Y-82012949D01*
X200299321Y-81896752D01*
X200330024Y-81797871D01*
X200331607Y-81792773D01*
X200332308Y-81787484D01*
X200361198Y-81569511D01*
X200361198Y-81569506D01*
X200361898Y-81564226D01*
X200353249Y-81333842D01*
X200305907Y-81108209D01*
X200221224Y-80893779D01*
X200101623Y-80696683D01*
X200014755Y-80596576D01*
X199954023Y-80526588D01*
X199954021Y-80526586D01*
X199950523Y-80522555D01*
X199908970Y-80488484D01*
X199776373Y-80379760D01*
X199776367Y-80379756D01*
X199772245Y-80376376D01*
X199767609Y-80373737D01*
X199767606Y-80373735D01*
X199576529Y-80264968D01*
X199571886Y-80262325D01*
X199355175Y-80183663D01*
X199349926Y-80182714D01*
X199349923Y-80182713D01*
X199132392Y-80143377D01*
X199132385Y-80143376D01*
X199128308Y-80142639D01*
X199110586Y-80141803D01*
X199105644Y-80141570D01*
X199105637Y-80141570D01*
X199104156Y-80141500D01*
X198642110Y-80141500D01*
X198575191Y-80147178D01*
X198475591Y-80155629D01*
X198475587Y-80155630D01*
X198470280Y-80156080D01*
X198465125Y-80157418D01*
X198465119Y-80157419D01*
X198252297Y-80212657D01*
X198252293Y-80212658D01*
X198247128Y-80213999D01*
X198242262Y-80216191D01*
X198242259Y-80216192D01*
X198133980Y-80264968D01*
X198036925Y-80308688D01*
X197845681Y-80437441D01*
X197678865Y-80596576D01*
X197541246Y-80781542D01*
X197436760Y-80987051D01*
X197435178Y-80992145D01*
X197435177Y-80992148D01*
X197373115Y-81192020D01*
X197368393Y-81207227D01*
X197367692Y-81212516D01*
X197352304Y-81328623D01*
X197338102Y-81435774D01*
X142358500Y-81435774D01*
X142358500Y-76797386D01*
X143417759Y-76797386D01*
X143425216Y-76807753D01*
X143664935Y-77001874D01*
X143670272Y-77005751D01*
X143990685Y-77213830D01*
X143996394Y-77217127D01*
X144336811Y-77390578D01*
X144342836Y-77393260D01*
X144699502Y-77530171D01*
X144705784Y-77532212D01*
X145074816Y-77631094D01*
X145081266Y-77632465D01*
X145458629Y-77692234D01*
X145465167Y-77692920D01*
X145846699Y-77712916D01*
X145853301Y-77712916D01*
X146234833Y-77692920D01*
X146241371Y-77692234D01*
X146618734Y-77632465D01*
X146625184Y-77631094D01*
X146994216Y-77532212D01*
X147000498Y-77530171D01*
X147357164Y-77393260D01*
X147363189Y-77390578D01*
X147703606Y-77217127D01*
X147709315Y-77213830D01*
X148029728Y-77005751D01*
X148035065Y-77001874D01*
X148273835Y-76808522D01*
X148281527Y-76797386D01*
X196417759Y-76797386D01*
X196425216Y-76807753D01*
X196664935Y-77001874D01*
X196670272Y-77005751D01*
X196990685Y-77213830D01*
X196996394Y-77217127D01*
X197336811Y-77390578D01*
X197342836Y-77393260D01*
X197699502Y-77530171D01*
X197705784Y-77532212D01*
X198074816Y-77631094D01*
X198081266Y-77632465D01*
X198458629Y-77692234D01*
X198465167Y-77692920D01*
X198846699Y-77712916D01*
X198853301Y-77712916D01*
X199234833Y-77692920D01*
X199241371Y-77692234D01*
X199618734Y-77632465D01*
X199625184Y-77631094D01*
X199994216Y-77532212D01*
X200000498Y-77530171D01*
X200357164Y-77393260D01*
X200363189Y-77390578D01*
X200703606Y-77217127D01*
X200709315Y-77213830D01*
X201029728Y-77005751D01*
X201035065Y-77001874D01*
X201273835Y-76808522D01*
X201282300Y-76796267D01*
X201275966Y-76785176D01*
X198862812Y-74372022D01*
X198848868Y-74364408D01*
X198847035Y-74364539D01*
X198840420Y-74368790D01*
X196424900Y-76784310D01*
X196417759Y-76797386D01*
X148281527Y-76797386D01*
X148282300Y-76796267D01*
X148275966Y-76785176D01*
X145862812Y-74372022D01*
X145848868Y-74364408D01*
X145847035Y-74364539D01*
X145840420Y-74368790D01*
X143424900Y-76784310D01*
X143417759Y-76797386D01*
X142358500Y-76797386D01*
X142358500Y-75839945D01*
X142378502Y-75771824D01*
X142432158Y-75725331D01*
X142502432Y-75715227D01*
X142567012Y-75744721D01*
X142596767Y-75782742D01*
X142632872Y-75853603D01*
X142636169Y-75859313D01*
X142844253Y-76179735D01*
X142848123Y-76185061D01*
X143041478Y-76423835D01*
X143053733Y-76432300D01*
X143064824Y-76425966D01*
X145489658Y-74001132D01*
X146214408Y-74001132D01*
X146214539Y-74002965D01*
X146218790Y-74009580D01*
X148634310Y-76425100D01*
X148647386Y-76432241D01*
X148657753Y-76424784D01*
X148851877Y-76185061D01*
X148855747Y-76179735D01*
X149063831Y-75859313D01*
X149067128Y-75853603D01*
X149240578Y-75513189D01*
X149243260Y-75507164D01*
X149380171Y-75150498D01*
X149382212Y-75144216D01*
X149475223Y-74797095D01*
X162642001Y-74797095D01*
X162642338Y-74803614D01*
X162652257Y-74899206D01*
X162655149Y-74912600D01*
X162706588Y-75066784D01*
X162712761Y-75079962D01*
X162798063Y-75217807D01*
X162807099Y-75229208D01*
X162921829Y-75343739D01*
X162933240Y-75352751D01*
X163071243Y-75437816D01*
X163084424Y-75443963D01*
X163238710Y-75495138D01*
X163252086Y-75498005D01*
X163346438Y-75507672D01*
X163352854Y-75508000D01*
X163727885Y-75508000D01*
X163743124Y-75503525D01*
X163744329Y-75502135D01*
X163746000Y-75494452D01*
X163746000Y-75489884D01*
X164254000Y-75489884D01*
X164258475Y-75505123D01*
X164259865Y-75506328D01*
X164267548Y-75507999D01*
X164647095Y-75507999D01*
X164653614Y-75507662D01*
X164749206Y-75497743D01*
X164762600Y-75494851D01*
X164916784Y-75443412D01*
X164929962Y-75437239D01*
X165067807Y-75351937D01*
X165079208Y-75342901D01*
X165193739Y-75228171D01*
X165202753Y-75216757D01*
X165288723Y-75077287D01*
X165341495Y-75029793D01*
X165411566Y-75018369D01*
X165476690Y-75046643D01*
X165487149Y-75056426D01*
X165596576Y-75171135D01*
X165781542Y-75308754D01*
X165786293Y-75311170D01*
X165786297Y-75311172D01*
X165848704Y-75342901D01*
X165987051Y-75413240D01*
X165992145Y-75414822D01*
X165992148Y-75414823D01*
X166192020Y-75476885D01*
X166207227Y-75481607D01*
X166212516Y-75482308D01*
X166430489Y-75511198D01*
X166430494Y-75511198D01*
X166435774Y-75511898D01*
X166441103Y-75511698D01*
X166441105Y-75511698D01*
X166561874Y-75507164D01*
X166666158Y-75503249D01*
X166671468Y-75502135D01*
X166886572Y-75457002D01*
X166891791Y-75455907D01*
X166896750Y-75453949D01*
X166896752Y-75453948D01*
X167101256Y-75373185D01*
X167101258Y-75373184D01*
X167106221Y-75371224D01*
X167205184Y-75311172D01*
X167298757Y-75254390D01*
X167298756Y-75254390D01*
X167303317Y-75251623D01*
X167343497Y-75216757D01*
X167473412Y-75104023D01*
X167473414Y-75104021D01*
X167477445Y-75100523D01*
X167544807Y-75018369D01*
X167620240Y-74926373D01*
X167620244Y-74926367D01*
X167623624Y-74922245D01*
X167629115Y-74912600D01*
X167694864Y-74797095D01*
X172642001Y-74797095D01*
X172642338Y-74803614D01*
X172652257Y-74899206D01*
X172655149Y-74912600D01*
X172706588Y-75066784D01*
X172712761Y-75079962D01*
X172798063Y-75217807D01*
X172807099Y-75229208D01*
X172921829Y-75343739D01*
X172933240Y-75352751D01*
X173071243Y-75437816D01*
X173084424Y-75443963D01*
X173238710Y-75495138D01*
X173252086Y-75498005D01*
X173346438Y-75507672D01*
X173352854Y-75508000D01*
X173727885Y-75508000D01*
X173743124Y-75503525D01*
X173744329Y-75502135D01*
X173746000Y-75494452D01*
X173746000Y-75489884D01*
X174254000Y-75489884D01*
X174258475Y-75505123D01*
X174259865Y-75506328D01*
X174267548Y-75507999D01*
X174647095Y-75507999D01*
X174653614Y-75507662D01*
X174749206Y-75497743D01*
X174762600Y-75494851D01*
X174916784Y-75443412D01*
X174929962Y-75437239D01*
X175067807Y-75351937D01*
X175079208Y-75342901D01*
X175193739Y-75228171D01*
X175202753Y-75216757D01*
X175288723Y-75077287D01*
X175341495Y-75029793D01*
X175411566Y-75018369D01*
X175476690Y-75046643D01*
X175487149Y-75056426D01*
X175596576Y-75171135D01*
X175781542Y-75308754D01*
X175786293Y-75311170D01*
X175786297Y-75311172D01*
X175848704Y-75342901D01*
X175987051Y-75413240D01*
X175992145Y-75414822D01*
X175992148Y-75414823D01*
X176192020Y-75476885D01*
X176207227Y-75481607D01*
X176212516Y-75482308D01*
X176430489Y-75511198D01*
X176430494Y-75511198D01*
X176435774Y-75511898D01*
X176441103Y-75511698D01*
X176441105Y-75511698D01*
X176561874Y-75507164D01*
X176666158Y-75503249D01*
X176671468Y-75502135D01*
X176886572Y-75457002D01*
X176891791Y-75455907D01*
X176896750Y-75453949D01*
X176896752Y-75453948D01*
X177101256Y-75373185D01*
X177101258Y-75373184D01*
X177106221Y-75371224D01*
X177205184Y-75311172D01*
X177298757Y-75254390D01*
X177298756Y-75254390D01*
X177303317Y-75251623D01*
X177343497Y-75216757D01*
X177473412Y-75104023D01*
X177473414Y-75104021D01*
X177477445Y-75100523D01*
X177544807Y-75018369D01*
X177620240Y-74926373D01*
X177620244Y-74926367D01*
X177623624Y-74922245D01*
X177629115Y-74912600D01*
X177735032Y-74726529D01*
X177737675Y-74721886D01*
X177816337Y-74505175D01*
X177836916Y-74391371D01*
X177856623Y-74282392D01*
X177856624Y-74282385D01*
X177857361Y-74278308D01*
X177858500Y-74254156D01*
X177858500Y-74003301D01*
X195137084Y-74003301D01*
X195157080Y-74384833D01*
X195157766Y-74391371D01*
X195217535Y-74768734D01*
X195218906Y-74775184D01*
X195317788Y-75144216D01*
X195319829Y-75150498D01*
X195456740Y-75507164D01*
X195459422Y-75513189D01*
X195632872Y-75853603D01*
X195636169Y-75859313D01*
X195844253Y-76179735D01*
X195848123Y-76185061D01*
X196041478Y-76423835D01*
X196053733Y-76432300D01*
X196064824Y-76425966D01*
X198477978Y-74012812D01*
X198485592Y-73998868D01*
X198485461Y-73997035D01*
X198481210Y-73990420D01*
X196065690Y-71574900D01*
X196052614Y-71567759D01*
X196042247Y-71575216D01*
X195848123Y-71814939D01*
X195844253Y-71820265D01*
X195636169Y-72140687D01*
X195632872Y-72146397D01*
X195459422Y-72486811D01*
X195456740Y-72492836D01*
X195319829Y-72849502D01*
X195317788Y-72855784D01*
X195218906Y-73224816D01*
X195217535Y-73231266D01*
X195157766Y-73608629D01*
X195157080Y-73615167D01*
X195137084Y-73996699D01*
X195137084Y-74003301D01*
X177858500Y-74003301D01*
X177858500Y-73792110D01*
X177852525Y-73721692D01*
X177844371Y-73625591D01*
X177844370Y-73625587D01*
X177843920Y-73620280D01*
X177842582Y-73615125D01*
X177842581Y-73615119D01*
X177787343Y-73402297D01*
X177787342Y-73402293D01*
X177786001Y-73397128D01*
X177691312Y-73186925D01*
X177562559Y-72995681D01*
X177403424Y-72828865D01*
X177218458Y-72691246D01*
X177213707Y-72688830D01*
X177213703Y-72688828D01*
X177091731Y-72626815D01*
X177012949Y-72586760D01*
X177007855Y-72585178D01*
X177007852Y-72585177D01*
X176797871Y-72519976D01*
X176792773Y-72518393D01*
X176787484Y-72517692D01*
X176569511Y-72488802D01*
X176569506Y-72488802D01*
X176564226Y-72488102D01*
X176558897Y-72488302D01*
X176558895Y-72488302D01*
X176460368Y-72492001D01*
X176333842Y-72496751D01*
X176328623Y-72497846D01*
X176308849Y-72501995D01*
X176108209Y-72544093D01*
X176103250Y-72546051D01*
X176103248Y-72546052D01*
X175898744Y-72626815D01*
X175898742Y-72626816D01*
X175893779Y-72628776D01*
X175889220Y-72631543D01*
X175889217Y-72631544D01*
X175790832Y-72691246D01*
X175696683Y-72748377D01*
X175692653Y-72751874D01*
X175593738Y-72837708D01*
X175522555Y-72899477D01*
X175519168Y-72903608D01*
X175492994Y-72935529D01*
X175434334Y-72975524D01*
X175363364Y-72977455D01*
X175302616Y-72940710D01*
X175288416Y-72921941D01*
X175201937Y-72782193D01*
X175192901Y-72770792D01*
X175078171Y-72656261D01*
X175066760Y-72647249D01*
X174928757Y-72562184D01*
X174915576Y-72556037D01*
X174761290Y-72504862D01*
X174747914Y-72501995D01*
X174653562Y-72492328D01*
X174647145Y-72492000D01*
X174272115Y-72492000D01*
X174256876Y-72496475D01*
X174255671Y-72497865D01*
X174254000Y-72505548D01*
X174254000Y-75489884D01*
X173746000Y-75489884D01*
X173746000Y-74272115D01*
X173741525Y-74256876D01*
X173740135Y-74255671D01*
X173732452Y-74254000D01*
X172660116Y-74254000D01*
X172644877Y-74258475D01*
X172643672Y-74259865D01*
X172642001Y-74267548D01*
X172642001Y-74797095D01*
X167694864Y-74797095D01*
X167735032Y-74726529D01*
X167737675Y-74721886D01*
X167816337Y-74505175D01*
X167836916Y-74391371D01*
X167856623Y-74282392D01*
X167856624Y-74282385D01*
X167857361Y-74278308D01*
X167858500Y-74254156D01*
X167858500Y-73792110D01*
X167853050Y-73727885D01*
X172642000Y-73727885D01*
X172646475Y-73743124D01*
X172647865Y-73744329D01*
X172655548Y-73746000D01*
X173727885Y-73746000D01*
X173743124Y-73741525D01*
X173744329Y-73740135D01*
X173746000Y-73732452D01*
X173746000Y-72510116D01*
X173741525Y-72494877D01*
X173740135Y-72493672D01*
X173732452Y-72492001D01*
X173352905Y-72492001D01*
X173346386Y-72492338D01*
X173250794Y-72502257D01*
X173237400Y-72505149D01*
X173083216Y-72556588D01*
X173070038Y-72562761D01*
X172932193Y-72648063D01*
X172920792Y-72657099D01*
X172806261Y-72771829D01*
X172797249Y-72783240D01*
X172712184Y-72921243D01*
X172706037Y-72934424D01*
X172654862Y-73088710D01*
X172651995Y-73102086D01*
X172642328Y-73196438D01*
X172642000Y-73202855D01*
X172642000Y-73727885D01*
X167853050Y-73727885D01*
X167852525Y-73721692D01*
X167844371Y-73625591D01*
X167844370Y-73625587D01*
X167843920Y-73620280D01*
X167842582Y-73615125D01*
X167842581Y-73615119D01*
X167787343Y-73402297D01*
X167787342Y-73402293D01*
X167786001Y-73397128D01*
X167691312Y-73186925D01*
X167562559Y-72995681D01*
X167403424Y-72828865D01*
X167218458Y-72691246D01*
X167213707Y-72688830D01*
X167213703Y-72688828D01*
X167091731Y-72626815D01*
X167012949Y-72586760D01*
X167007855Y-72585178D01*
X167007852Y-72585177D01*
X166797871Y-72519976D01*
X166792773Y-72518393D01*
X166787484Y-72517692D01*
X166569511Y-72488802D01*
X166569506Y-72488802D01*
X166564226Y-72488102D01*
X166558897Y-72488302D01*
X166558895Y-72488302D01*
X166460368Y-72492001D01*
X166333842Y-72496751D01*
X166328623Y-72497846D01*
X166308849Y-72501995D01*
X166108209Y-72544093D01*
X166103250Y-72546051D01*
X166103248Y-72546052D01*
X165898744Y-72626815D01*
X165898742Y-72626816D01*
X165893779Y-72628776D01*
X165889220Y-72631543D01*
X165889217Y-72631544D01*
X165790832Y-72691246D01*
X165696683Y-72748377D01*
X165692653Y-72751874D01*
X165593738Y-72837708D01*
X165522555Y-72899477D01*
X165519168Y-72903608D01*
X165492994Y-72935529D01*
X165434334Y-72975524D01*
X165363364Y-72977455D01*
X165302616Y-72940710D01*
X165288416Y-72921941D01*
X165201937Y-72782193D01*
X165192901Y-72770792D01*
X165078171Y-72656261D01*
X165066760Y-72647249D01*
X164928757Y-72562184D01*
X164915576Y-72556037D01*
X164761290Y-72504862D01*
X164747914Y-72501995D01*
X164653562Y-72492328D01*
X164647145Y-72492000D01*
X164272115Y-72492000D01*
X164256876Y-72496475D01*
X164255671Y-72497865D01*
X164254000Y-72505548D01*
X164254000Y-75489884D01*
X163746000Y-75489884D01*
X163746000Y-74272115D01*
X163741525Y-74256876D01*
X163740135Y-74255671D01*
X163732452Y-74254000D01*
X162660116Y-74254000D01*
X162644877Y-74258475D01*
X162643672Y-74259865D01*
X162642001Y-74267548D01*
X162642001Y-74797095D01*
X149475223Y-74797095D01*
X149481094Y-74775184D01*
X149482465Y-74768734D01*
X149542234Y-74391371D01*
X149542920Y-74384833D01*
X149562916Y-74003301D01*
X149562916Y-73996699D01*
X149548828Y-73727885D01*
X162642000Y-73727885D01*
X162646475Y-73743124D01*
X162647865Y-73744329D01*
X162655548Y-73746000D01*
X163727885Y-73746000D01*
X163743124Y-73741525D01*
X163744329Y-73740135D01*
X163746000Y-73732452D01*
X163746000Y-72510116D01*
X163741525Y-72494877D01*
X163740135Y-72493672D01*
X163732452Y-72492001D01*
X163352905Y-72492001D01*
X163346386Y-72492338D01*
X163250794Y-72502257D01*
X163237400Y-72505149D01*
X163083216Y-72556588D01*
X163070038Y-72562761D01*
X162932193Y-72648063D01*
X162920792Y-72657099D01*
X162806261Y-72771829D01*
X162797249Y-72783240D01*
X162712184Y-72921243D01*
X162706037Y-72934424D01*
X162654862Y-73088710D01*
X162651995Y-73102086D01*
X162642328Y-73196438D01*
X162642000Y-73202855D01*
X162642000Y-73727885D01*
X149548828Y-73727885D01*
X149542920Y-73615167D01*
X149542234Y-73608629D01*
X149482465Y-73231266D01*
X149481094Y-73224816D01*
X149382212Y-72855784D01*
X149380171Y-72849502D01*
X149243260Y-72492836D01*
X149240578Y-72486811D01*
X149067128Y-72146397D01*
X149063831Y-72140687D01*
X148855747Y-71820265D01*
X148851877Y-71814939D01*
X148658522Y-71576165D01*
X148646267Y-71567700D01*
X148635176Y-71574034D01*
X146222022Y-73987188D01*
X146214408Y-74001132D01*
X145489658Y-74001132D01*
X148275100Y-71215690D01*
X148282241Y-71202614D01*
X148274784Y-71192247D01*
X148035065Y-70998126D01*
X148029728Y-70994249D01*
X147709315Y-70786170D01*
X147703606Y-70782874D01*
X147632743Y-70746767D01*
X147581128Y-70698019D01*
X147564062Y-70629104D01*
X147586963Y-70561902D01*
X147642560Y-70517750D01*
X147689946Y-70508500D01*
X197010055Y-70508500D01*
X197078176Y-70528502D01*
G37*
%TD.AperFunction*%
%TA.AperFunction,Conductor*%
G36*
X144687708Y-114907248D02*
G01*
X144732771Y-114936209D01*
X144913791Y-115117229D01*
X144947817Y-115179541D01*
X144942752Y-115250356D01*
X144913791Y-115295419D01*
X143751307Y-116457903D01*
X143688995Y-116491929D01*
X143618180Y-116486864D01*
X143573117Y-116457903D01*
X143392097Y-116276883D01*
X143358071Y-116214571D01*
X143363136Y-116143756D01*
X143392097Y-116098693D01*
X144554581Y-114936209D01*
X144616893Y-114902183D01*
X144687708Y-114907248D01*
G37*
%TD.AperFunction*%
%TA.AperFunction,Conductor*%
G36*
X200100356Y-114907248D02*
G01*
X200145419Y-114936209D01*
X201307903Y-116098693D01*
X201341929Y-116161005D01*
X201336864Y-116231820D01*
X201307903Y-116276883D01*
X201126883Y-116457903D01*
X201064571Y-116491929D01*
X200993756Y-116486864D01*
X200948693Y-116457903D01*
X199786209Y-115295419D01*
X199752183Y-115233107D01*
X199757248Y-115162292D01*
X199786209Y-115117229D01*
X199967229Y-114936209D01*
X200029541Y-114902183D01*
X200100356Y-114907248D01*
G37*
%TD.AperFunction*%
%TA.AperFunction,Conductor*%
G36*
X201081820Y-71513136D02*
G01*
X201126883Y-71542097D01*
X201307903Y-71723117D01*
X201341929Y-71785429D01*
X201336864Y-71856244D01*
X201307903Y-71901307D01*
X200145419Y-73063791D01*
X200083107Y-73097817D01*
X200012292Y-73092752D01*
X199967229Y-73063791D01*
X199786209Y-72882771D01*
X199752183Y-72820459D01*
X199757248Y-72749644D01*
X199786209Y-72704581D01*
X200948693Y-71542097D01*
X201011005Y-71508071D01*
X201081820Y-71513136D01*
G37*
%TD.AperFunction*%
%TA.AperFunction,Conductor*%
G36*
X143706244Y-71513136D02*
G01*
X143751307Y-71542097D01*
X144913791Y-72704581D01*
X144947817Y-72766893D01*
X144942752Y-72837708D01*
X144913791Y-72882771D01*
X144732771Y-73063791D01*
X144670459Y-73097817D01*
X144599644Y-73092752D01*
X144554581Y-73063791D01*
X143392097Y-71901307D01*
X143358071Y-71838995D01*
X143363136Y-71768180D01*
X143392097Y-71723117D01*
X143573117Y-71542097D01*
X143635429Y-71508071D01*
X143706244Y-71513136D01*
G37*
%TD.AperFunction*%
%TD*%
M02*
