%TF.GenerationSoftware,KiCad,Pcbnew,(6.0.7)*%
%TF.CreationDate,2023-02-14T14:27:57+01:00*%
%TF.ProjectId,WAFFLE,57414646-4c45-42e6-9b69-6361645f7063,rev?*%
%TF.SameCoordinates,Original*%
%TF.FileFunction,Copper,L1,Top*%
%TF.FilePolarity,Positive*%
%FSLAX46Y46*%
G04 Gerber Fmt 4.6, Leading zero omitted, Abs format (unit mm)*
G04 Created by KiCad (PCBNEW (6.0.7)) date 2023-02-14 14:27:57*
%MOMM*%
%LPD*%
G01*
G04 APERTURE LIST*
G04 Aperture macros list*
%AMRoundRect*
0 Rectangle with rounded corners*
0 $1 Rounding radius*
0 $2 $3 $4 $5 $6 $7 $8 $9 X,Y pos of 4 corners*
0 Add a 4 corners polygon primitive as box body*
4,1,4,$2,$3,$4,$5,$6,$7,$8,$9,$2,$3,0*
0 Add four circle primitives for the rounded corners*
1,1,$1+$1,$2,$3*
1,1,$1+$1,$4,$5*
1,1,$1+$1,$6,$7*
1,1,$1+$1,$8,$9*
0 Add four rect primitives between the rounded corners*
20,1,$1+$1,$2,$3,$4,$5,0*
20,1,$1+$1,$4,$5,$6,$7,0*
20,1,$1+$1,$6,$7,$8,$9,0*
20,1,$1+$1,$8,$9,$2,$3,0*%
G04 Aperture macros list end*
%ADD10C,0.300000*%
%TA.AperFunction,NonConductor*%
%ADD11C,0.300000*%
%TD*%
%TA.AperFunction,SMDPad,CuDef*%
%ADD12R,0.900000X0.600000*%
%TD*%
%TA.AperFunction,SMDPad,CuDef*%
%ADD13R,1.475000X0.600000*%
%TD*%
%TA.AperFunction,SMDPad,CuDef*%
%ADD14R,0.600000X1.475000*%
%TD*%
%TA.AperFunction,ComponentPad*%
%ADD15RoundRect,0.250000X-0.600000X-0.725000X0.600000X-0.725000X0.600000X0.725000X-0.600000X0.725000X0*%
%TD*%
%TA.AperFunction,ComponentPad*%
%ADD16O,1.700000X1.950000*%
%TD*%
%TA.AperFunction,SMDPad,CuDef*%
%ADD17RoundRect,0.225000X-0.250000X0.225000X-0.250000X-0.225000X0.250000X-0.225000X0.250000X0.225000X0*%
%TD*%
%TA.AperFunction,SMDPad,CuDef*%
%ADD18R,2.100000X1.400000*%
%TD*%
%TA.AperFunction,ComponentPad*%
%ADD19C,6.400000*%
%TD*%
%TA.AperFunction,ComponentPad*%
%ADD20C,0.800000*%
%TD*%
%TA.AperFunction,SMDPad,CuDef*%
%ADD21R,0.740000X2.790000*%
%TD*%
%TA.AperFunction,ComponentPad*%
%ADD22O,3.048000X1.524000*%
%TD*%
%TA.AperFunction,ComponentPad*%
%ADD23RoundRect,0.250000X0.750000X-0.600000X0.750000X0.600000X-0.750000X0.600000X-0.750000X-0.600000X0*%
%TD*%
%TA.AperFunction,ComponentPad*%
%ADD24O,2.000000X1.700000*%
%TD*%
%TA.AperFunction,ComponentPad*%
%ADD25RoundRect,0.250000X0.725000X-0.600000X0.725000X0.600000X-0.725000X0.600000X-0.725000X-0.600000X0*%
%TD*%
%TA.AperFunction,ComponentPad*%
%ADD26O,1.950000X1.700000*%
%TD*%
%TA.AperFunction,ComponentPad*%
%ADD27RoundRect,0.250000X-0.600000X-0.750000X0.600000X-0.750000X0.600000X0.750000X-0.600000X0.750000X0*%
%TD*%
%TA.AperFunction,ComponentPad*%
%ADD28O,1.700000X2.000000*%
%TD*%
%TA.AperFunction,SMDPad,CuDef*%
%ADD29R,1.000000X1.100000*%
%TD*%
%TA.AperFunction,SMDPad,CuDef*%
%ADD30RoundRect,0.073750X-0.911250X-0.221250X0.911250X-0.221250X0.911250X0.221250X-0.911250X0.221250X0*%
%TD*%
%TA.AperFunction,SMDPad,CuDef*%
%ADD31R,1.100000X1.000000*%
%TD*%
%TA.AperFunction,ViaPad*%
%ADD32C,0.800000*%
%TD*%
%TA.AperFunction,Conductor*%
%ADD33C,0.250000*%
%TD*%
%TA.AperFunction,Conductor*%
%ADD34C,0.350000*%
%TD*%
%TA.AperFunction,Conductor*%
%ADD35C,0.300000*%
%TD*%
G04 APERTURE END LIST*
D10*
D11*
X150357142Y-73178571D02*
X151214285Y-73178571D01*
X150785714Y-74678571D02*
X150785714Y-73178571D01*
X151714285Y-74678571D02*
X151714285Y-73178571D01*
X152357142Y-74678571D02*
X152357142Y-73892857D01*
X152285714Y-73750000D01*
X152142857Y-73678571D01*
X151928571Y-73678571D01*
X151785714Y-73750000D01*
X151714285Y-73821428D01*
X153285714Y-74678571D02*
X153142857Y-74607142D01*
X153071428Y-74535714D01*
X153000000Y-74392857D01*
X153000000Y-73964285D01*
X153071428Y-73821428D01*
X153142857Y-73750000D01*
X153285714Y-73678571D01*
X153500000Y-73678571D01*
X153642857Y-73750000D01*
X153714285Y-73821428D01*
X153785714Y-73964285D01*
X153785714Y-74392857D01*
X153714285Y-74535714D01*
X153642857Y-74607142D01*
X153500000Y-74678571D01*
X153285714Y-74678571D01*
X154428571Y-74678571D02*
X154428571Y-73678571D01*
X154428571Y-73821428D02*
X154500000Y-73750000D01*
X154642857Y-73678571D01*
X154857142Y-73678571D01*
X155000000Y-73750000D01*
X155071428Y-73892857D01*
X155071428Y-74678571D01*
X155071428Y-73892857D02*
X155142857Y-73750000D01*
X155285714Y-73678571D01*
X155500000Y-73678571D01*
X155642857Y-73750000D01*
X155714285Y-73892857D01*
X155714285Y-74678571D01*
X157071428Y-74678571D02*
X157071428Y-73892857D01*
X157000000Y-73750000D01*
X156857142Y-73678571D01*
X156571428Y-73678571D01*
X156428571Y-73750000D01*
X157071428Y-74607142D02*
X156928571Y-74678571D01*
X156571428Y-74678571D01*
X156428571Y-74607142D01*
X156357142Y-74464285D01*
X156357142Y-74321428D01*
X156428571Y-74178571D01*
X156571428Y-74107142D01*
X156928571Y-74107142D01*
X157071428Y-74035714D01*
X157714285Y-74607142D02*
X157857142Y-74678571D01*
X158142857Y-74678571D01*
X158285714Y-74607142D01*
X158357142Y-74464285D01*
X158357142Y-74392857D01*
X158285714Y-74250000D01*
X158142857Y-74178571D01*
X157928571Y-74178571D01*
X157785714Y-74107142D01*
X157714285Y-73964285D01*
X157714285Y-73892857D01*
X157785714Y-73750000D01*
X157928571Y-73678571D01*
X158142857Y-73678571D01*
X158285714Y-73750000D01*
D10*
D11*
X163428571Y-116678571D02*
X163428571Y-115178571D01*
X164000000Y-115178571D01*
X164142857Y-115250000D01*
X164214285Y-115321428D01*
X164285714Y-115464285D01*
X164285714Y-115678571D01*
X164214285Y-115821428D01*
X164142857Y-115892857D01*
X164000000Y-115964285D01*
X163428571Y-115964285D01*
X165785714Y-116535714D02*
X165714285Y-116607142D01*
X165500000Y-116678571D01*
X165357142Y-116678571D01*
X165142857Y-116607142D01*
X165000000Y-116464285D01*
X164928571Y-116321428D01*
X164857142Y-116035714D01*
X164857142Y-115821428D01*
X164928571Y-115535714D01*
X165000000Y-115392857D01*
X165142857Y-115250000D01*
X165357142Y-115178571D01*
X165500000Y-115178571D01*
X165714285Y-115250000D01*
X165785714Y-115321428D01*
X166928571Y-115892857D02*
X167142857Y-115964285D01*
X167214285Y-116035714D01*
X167285714Y-116178571D01*
X167285714Y-116392857D01*
X167214285Y-116535714D01*
X167142857Y-116607142D01*
X167000000Y-116678571D01*
X166428571Y-116678571D01*
X166428571Y-115178571D01*
X166928571Y-115178571D01*
X167071428Y-115250000D01*
X167142857Y-115321428D01*
X167214285Y-115464285D01*
X167214285Y-115607142D01*
X167142857Y-115750000D01*
X167071428Y-115821428D01*
X166928571Y-115892857D01*
X166428571Y-115892857D01*
X168928571Y-115178571D02*
X169285714Y-116678571D01*
X169571428Y-115607142D01*
X169857142Y-116678571D01*
X170214285Y-115178571D01*
X170714285Y-116250000D02*
X171428571Y-116250000D01*
X170571428Y-116678571D02*
X171071428Y-115178571D01*
X171571428Y-116678571D01*
X172571428Y-115892857D02*
X172071428Y-115892857D01*
X172071428Y-116678571D02*
X172071428Y-115178571D01*
X172785714Y-115178571D01*
X173857142Y-115892857D02*
X173357142Y-115892857D01*
X173357142Y-116678571D02*
X173357142Y-115178571D01*
X174071428Y-115178571D01*
X175357142Y-116678571D02*
X174642857Y-116678571D01*
X174642857Y-115178571D01*
X175857142Y-115892857D02*
X176357142Y-115892857D01*
X176571428Y-116678571D02*
X175857142Y-116678571D01*
X175857142Y-115178571D01*
X176571428Y-115178571D01*
X178285714Y-115678571D02*
X179357142Y-115678571D01*
X178714285Y-115035714D02*
X178285714Y-116964285D01*
X179214285Y-116321428D02*
X178142857Y-116321428D01*
X178785714Y-116964285D02*
X179214285Y-115035714D01*
X180642857Y-116678571D02*
X179785714Y-116678571D01*
X180214285Y-116678571D02*
X180214285Y-115178571D01*
X180071428Y-115392857D01*
X179928571Y-115535714D01*
X179785714Y-115607142D01*
D12*
%TO.P,PS1,1,VIN*%
%TO.N,+5V*%
X183400000Y-99950000D03*
%TO.P,PS1,2,GND*%
%TO.N,GND*%
X183400000Y-99000000D03*
%TO.P,PS1,3,STBY*%
%TO.N,+5V*%
X183400000Y-98050000D03*
%TO.P,PS1,4,N.C.*%
%TO.N,unconnected-(PS1-Pad4)*%
X180600000Y-98050000D03*
%TO.P,PS1,5,VOUT*%
%TO.N,+3.3V*%
X180600000Y-99950000D03*
%TD*%
D13*
%TO.P,IC1,1,VDD_1*%
%TO.N,+3.3V*%
X175238000Y-96800000D03*
%TO.P,IC1,2,PC14-OSC32_IN*%
%TO.N,unconnected-(IC1-Pad2)*%
X175238000Y-96000000D03*
%TO.P,IC1,3,PC15-OSC32_OUT*%
%TO.N,unconnected-(IC1-Pad3)*%
X175238000Y-95200000D03*
%TO.P,IC1,4,NRST*%
%TO.N,NRST*%
X175238000Y-94400000D03*
%TO.P,IC1,5,VDDA/VREF+*%
%TO.N,+3.3V*%
X175238000Y-93600000D03*
%TO.P,IC1,6,PA0-CK_IN*%
%TO.N,PWM_Ventilateur*%
X175238000Y-92800000D03*
%TO.P,IC1,7,PA1*%
%TO.N,unconnected-(IC1-Pad7)*%
X175238000Y-92000000D03*
%TO.P,IC1,8,PA2*%
%TO.N,UART_Driver_moteur*%
X175238000Y-91200000D03*
D14*
%TO.P,IC1,9,PA3*%
%TO.N,unconnected-(IC1-Pad9)*%
X173800000Y-89762000D03*
%TO.P,IC1,10,PA4*%
%TO.N,unconnected-(IC1-Pad10)*%
X173000000Y-89762000D03*
%TO.P,IC1,11,PA5*%
%TO.N,unconnected-(IC1-Pad11)*%
X172200000Y-89762000D03*
%TO.P,IC1,12,PA6*%
%TO.N,unconnected-(IC1-Pad12)*%
X171400000Y-89762000D03*
%TO.P,IC1,13,PA7*%
%TO.N,unconnected-(IC1-Pad13)*%
X170600000Y-89762000D03*
%TO.P,IC1,14,PB0*%
%TO.N,unconnected-(IC1-Pad14)*%
X169800000Y-89762000D03*
%TO.P,IC1,15,PB1*%
%TO.N,ADC_Temp\u00E9rature_ventilo*%
X169000000Y-89762000D03*
%TO.P,IC1,16,VSS_1*%
%TO.N,GND*%
X168200000Y-89762000D03*
D13*
%TO.P,IC1,17,VDD_2*%
%TO.N,+3.3V*%
X166762000Y-91200000D03*
%TO.P,IC1,18,PA8*%
%TO.N,PWM_Leds_W*%
X166762000Y-92000000D03*
%TO.P,IC1,19,PA9*%
%TO.N,PWM_Leds_B*%
X166762000Y-92800000D03*
%TO.P,IC1,20,PA10*%
%TO.N,PWM_Leds_G*%
X166762000Y-93600000D03*
%TO.P,IC1,21,PA11*%
%TO.N,PWM_Leds_R*%
X166762000Y-94400000D03*
%TO.P,IC1,22,PA12*%
%TO.N,unconnected-(IC1-Pad22)*%
X166762000Y-95200000D03*
%TO.P,IC1,23,PA13*%
%TO.N,unconnected-(IC1-Pad23)*%
X166762000Y-96000000D03*
%TO.P,IC1,24,PA14*%
%TO.N,unconnected-(IC1-Pad24)*%
X166762000Y-96800000D03*
D14*
%TO.P,IC1,25,PA15*%
%TO.N,unconnected-(IC1-Pad25)*%
X168200000Y-98238000D03*
%TO.P,IC1,26,PB3*%
%TO.N,unconnected-(IC1-Pad26)*%
X169000000Y-98238000D03*
%TO.P,IC1,27,PB4*%
%TO.N,unconnected-(IC1-Pad27)*%
X169800000Y-98238000D03*
%TO.P,IC1,28,PB5*%
%TO.N,unconnected-(IC1-Pad28)*%
X170600000Y-98238000D03*
%TO.P,IC1,29,PB6*%
%TO.N,unconnected-(DMX1-Pad2)*%
X171400000Y-98238000D03*
%TO.P,IC1,30,PB7*%
%TO.N,unconnected-(IC1-Pad30)*%
X172200000Y-98238000D03*
%TO.P,IC1,31,PH3-BOOT0*%
%TO.N,Net-(IC1-Pad31)*%
X173000000Y-98238000D03*
%TO.P,IC1,32,VSS_2*%
%TO.N,GND*%
X173800000Y-98238000D03*
%TD*%
D15*
%TO.P,J7,1,Pin_1*%
%TO.N,Net-(DMX1-Pad11)*%
X186000000Y-114000000D03*
D16*
%TO.P,J7,2,Pin_2*%
%TO.N,GND*%
X188500000Y-114000000D03*
%TO.P,J7,3,Pin_3*%
%TO.N,Net-(DMX1-Pad12)*%
X191000000Y-114000000D03*
%TD*%
D17*
%TO.P,C_entr\u00E9e1,1*%
%TO.N,+5V*%
X185000000Y-100000000D03*
%TO.P,C_entr\u00E9e1,2*%
%TO.N,GND*%
X185000000Y-101550000D03*
%TD*%
D18*
%TO.P,S1,1,1*%
%TO.N,GND*%
X181450000Y-86750000D03*
%TO.P,S1,2,2*%
X190550000Y-86750000D03*
%TO.P,S1,3,3*%
%TO.N,NRST*%
X181450000Y-91250000D03*
%TO.P,S1,4,4*%
X190550000Y-91250000D03*
%TD*%
D19*
%TO.P,H2,1,1*%
%TO.N,GND*%
X198850000Y-114000000D03*
D20*
X196450000Y-114000000D03*
X197152944Y-115697056D03*
X200547056Y-112302944D03*
X198850000Y-116400000D03*
X200547056Y-115697056D03*
X197152944Y-112302944D03*
X201250000Y-114000000D03*
X198850000Y-111600000D03*
%TD*%
D21*
%TO.P,J2,01,01*%
%TO.N,unconnected-(J2-Pad01)*%
X155190000Y-109035000D03*
%TO.P,J2,02,02*%
%TO.N,unconnected-(J2-Pad02)*%
X155190000Y-104965000D03*
%TO.P,J2,03,03*%
%TO.N,+3.3V*%
X156460000Y-109035000D03*
%TO.P,J2,04,04*%
%TO.N,SWDIO*%
X156460000Y-104965000D03*
%TO.P,J2,05,05*%
%TO.N,GND*%
X157730000Y-109035000D03*
%TO.P,J2,06,06*%
%TO.N,SWCLK*%
X157730000Y-104965000D03*
%TO.P,J2,07,07*%
%TO.N,GND*%
X159000000Y-109035000D03*
%TO.P,J2,08,08*%
%TO.N,unconnected-(J2-Pad08)*%
X159000000Y-104965000D03*
%TO.P,J2,09,09*%
%TO.N,unconnected-(J2-Pad09)*%
X160270000Y-109035000D03*
%TO.P,J2,10,10*%
%TO.N,unconnected-(J2-Pad10)*%
X160270000Y-104965000D03*
%TO.P,J2,11,11*%
%TO.N,GND*%
X161540000Y-109035000D03*
%TO.P,J2,12,12*%
%TO.N,NRST*%
X161540000Y-104965000D03*
%TO.P,J2,13,13*%
%TO.N,VCP_UART_RX*%
X162810000Y-109035000D03*
%TO.P,J2,14,14*%
%TO.N,VCP_UART_TX*%
X162810000Y-104965000D03*
%TD*%
D20*
%TO.P,H4,1,1*%
%TO.N,GND*%
X143450000Y-114000000D03*
X147547056Y-112302944D03*
X144152944Y-112302944D03*
X145850000Y-116400000D03*
X147547056Y-115697056D03*
X144152944Y-115697056D03*
D19*
X145850000Y-114000000D03*
D20*
X145850000Y-111600000D03*
X148250000Y-114000000D03*
%TD*%
D22*
%TO.P,LEDS1,1,1*%
%TO.N,GND*%
X145850000Y-87380000D03*
%TO.P,LEDS1,2,2*%
%TO.N,PWM_Leds_W*%
X145850000Y-89920000D03*
%TO.P,LEDS1,3,3*%
%TO.N,PWM_Leds_B*%
X145850000Y-92460000D03*
%TO.P,LEDS1,4,4*%
%TO.N,PWM_Leds_G*%
X145850000Y-95000000D03*
%TO.P,LEDS1,5,5*%
%TO.N,PWM_Leds_R*%
X145850000Y-97540000D03*
%TO.P,LEDS1,6,6*%
%TO.N,GND*%
X145850000Y-100080000D03*
%TD*%
D23*
%TO.P,ALIM1,1,Pin_1*%
%TO.N,+5V*%
X198850000Y-95000000D03*
D24*
%TO.P,ALIM1,2,Pin_2*%
%TO.N,GND*%
X198850000Y-92500000D03*
%TD*%
D25*
%TO.P,CONN_DMX1,1,Pin_1*%
%TO.N,Net-(DMX1-Pad11)*%
X198475000Y-107000000D03*
D26*
%TO.P,CONN_DMX1,2,Pin_2*%
%TO.N,GND*%
X198475000Y-104500000D03*
%TO.P,CONN_DMX1,3,Pin_3*%
%TO.N,Net-(DMX1-Pad12)*%
X198475000Y-102000000D03*
%TD*%
D27*
%TO.P,TEMP1,1,Pin_1*%
%TO.N,GND*%
X164000000Y-74000000D03*
D28*
%TO.P,TEMP1,2,Pin_2*%
%TO.N,ADC_Temp\u00E9rature_ventilo*%
X166500000Y-74000000D03*
%TD*%
D29*
%TO.P,C_VDD1,1,1*%
%TO.N,+3.3V*%
X178000000Y-90700000D03*
%TO.P,C_VDD1,2,2*%
%TO.N,GND*%
X178000000Y-89000000D03*
%TD*%
D17*
%TO.P,C_sortie1,1*%
%TO.N,+3.3V*%
X179000000Y-100225000D03*
%TO.P,C_sortie1,2*%
%TO.N,GND*%
X179000000Y-101775000D03*
%TD*%
D30*
%TO.P,DMX1,1,N.C._1*%
%TO.N,unconnected-(DMX1-Pad1)*%
X171525000Y-104190000D03*
%TO.P,DMX1,2,RO*%
%TO.N,unconnected-(DMX1-Pad2)*%
X171525000Y-105460000D03*
%TO.P,DMX1,3,RE/*%
%TO.N,GND*%
X171525000Y-106730000D03*
%TO.P,DMX1,4,DE*%
X171525000Y-108000000D03*
%TO.P,DMX1,5,DI*%
%TO.N,unconnected-(DMX1-Pad5)*%
X171525000Y-109270000D03*
%TO.P,DMX1,6,GND_1*%
%TO.N,GND*%
X171525000Y-110540000D03*
%TO.P,DMX1,7,GND_2*%
X171525000Y-111810000D03*
%TO.P,DMX1,8,N.C._2*%
%TO.N,unconnected-(DMX1-Pad8)*%
X176475000Y-111810000D03*
%TO.P,DMX1,9,Y*%
%TO.N,unconnected-(DMX1-Pad9)*%
X176475000Y-110540000D03*
%TO.P,DMX1,10,Z*%
%TO.N,unconnected-(DMX1-Pad10)*%
X176475000Y-109270000D03*
%TO.P,DMX1,11,B*%
%TO.N,Net-(DMX1-Pad11)*%
X176475000Y-108000000D03*
%TO.P,DMX1,12,A*%
%TO.N,Net-(DMX1-Pad12)*%
X176475000Y-106730000D03*
%TO.P,DMX1,13,N.C._3*%
%TO.N,unconnected-(DMX1-Pad13)*%
X176475000Y-105460000D03*
%TO.P,DMX1,14,VCC*%
%TO.N,+5V*%
X176475000Y-104190000D03*
%TD*%
D29*
%TO.P,C_VDDA1,1,1*%
%TO.N,+3.3V*%
X177000000Y-100300000D03*
%TO.P,C_VDDA1,2,2*%
%TO.N,GND*%
X177000000Y-102000000D03*
%TD*%
D20*
%TO.P,H1,1,1*%
%TO.N,GND*%
X197152944Y-72302944D03*
X198850000Y-71600000D03*
X198850000Y-76400000D03*
D19*
X198850000Y-74000000D03*
D20*
X200547056Y-75697056D03*
X196450000Y-74000000D03*
X200547056Y-72302944D03*
X197152944Y-75697056D03*
X201250000Y-74000000D03*
%TD*%
D27*
%TO.P,DRIVER_Moteur1,1,Pin_1*%
%TO.N,GND*%
X174000000Y-74000000D03*
D28*
%TO.P,DRIVER_Moteur1,2,Pin_2*%
%TO.N,UART_Driver_moteur*%
X176500000Y-74000000D03*
%TD*%
D29*
%TO.P,C4,1,1*%
%TO.N,NRST*%
X178000000Y-93150000D03*
%TO.P,C4,2,2*%
%TO.N,GND*%
X178000000Y-94850000D03*
%TD*%
%TO.P,R1,1,1*%
%TO.N,Net-(IC1-Pad31)*%
X173300000Y-101000000D03*
%TO.P,R1,2,2*%
%TO.N,GND*%
X175000000Y-101000000D03*
%TD*%
D23*
%TO.P,VENTILO1,1,Pin_1*%
%TO.N,GND*%
X198850000Y-84000000D03*
D24*
%TO.P,VENTILO1,2,Pin_2*%
%TO.N,PWM_Ventilateur*%
X198850000Y-81500000D03*
%TD*%
D20*
%TO.P,H3,1,1*%
%TO.N,GND*%
X144152944Y-75697056D03*
X144152944Y-72302944D03*
X147547056Y-72302944D03*
X148250000Y-74000000D03*
X147547056Y-75697056D03*
D19*
X145850000Y-74000000D03*
D20*
X145850000Y-71600000D03*
X145850000Y-76400000D03*
X143450000Y-74000000D03*
%TD*%
D31*
%TO.P,C_VDD2,1,1*%
%TO.N,+3.3V*%
X165000000Y-89000000D03*
%TO.P,C_VDD2,2,2*%
%TO.N,GND*%
X163300000Y-89000000D03*
%TD*%
%TO.P,C_Decoupl_Connecteur1,1,1*%
%TO.N,unconnected-(C_Decoupl_Connecteur1-Pad1)*%
X193150000Y-99000000D03*
%TO.P,C_Decoupl_Connecteur1,2,2*%
%TO.N,+5V*%
X194850000Y-99000000D03*
%TD*%
D32*
%TO.N,NRST*%
X167000000Y-101000000D03*
X172000000Y-95000000D03*
%TO.N,+3.3V*%
X157000000Y-113000000D03*
X165000000Y-91000000D03*
%TD*%
D33*
%TO.N,NRST*%
X175238000Y-94400000D02*
X172600000Y-94400000D01*
D34*
X164480000Y-101000000D02*
X161540000Y-103940000D01*
D33*
X161540000Y-104965000D02*
X161540000Y-103940000D01*
D34*
X178000000Y-93150000D02*
X179550000Y-93150000D01*
X176750000Y-94400000D02*
X178000000Y-93150000D01*
D33*
X172600000Y-94400000D02*
X172000000Y-95000000D01*
D34*
X167000000Y-101000000D02*
X164480000Y-101000000D01*
X179550000Y-93150000D02*
X181450000Y-91250000D01*
X175238000Y-94400000D02*
X176750000Y-94400000D01*
X190550000Y-91250000D02*
X181450000Y-91250000D01*
%TO.N,+3.3V*%
X156460000Y-109035000D02*
X156460000Y-112460000D01*
D33*
X177075000Y-100225000D02*
X177000000Y-100300000D01*
X166762000Y-91200000D02*
X171950500Y-91200000D01*
D34*
X179000000Y-100225000D02*
X177075000Y-100225000D01*
D35*
X175238000Y-96800000D02*
X172703984Y-96800000D01*
D33*
X178000000Y-91636396D02*
X178000000Y-90700000D01*
D35*
X171000000Y-95096016D02*
X171000000Y-94000000D01*
D34*
X156460000Y-112460000D02*
X157000000Y-113000000D01*
D33*
X179275000Y-99950000D02*
X179000000Y-100225000D01*
D35*
X172703984Y-96800000D02*
X171000000Y-95096016D01*
D33*
X165200000Y-91200000D02*
X166762000Y-91200000D01*
D34*
X177000000Y-100300000D02*
X177000000Y-98562000D01*
D33*
X171950500Y-91200000D02*
X172875250Y-92124750D01*
X174350500Y-93600000D02*
X175238000Y-93600000D01*
X176036396Y-93600000D02*
X178000000Y-91636396D01*
D35*
X171000000Y-94000000D02*
X172875250Y-92124750D01*
D33*
X165000000Y-91000000D02*
X165200000Y-91200000D01*
D34*
X180600000Y-99950000D02*
X179275000Y-99950000D01*
D33*
X165000000Y-91000000D02*
X165000000Y-89000000D01*
D34*
X177000000Y-98562000D02*
X175238000Y-96800000D01*
D33*
X172875250Y-92124750D02*
X174350500Y-93600000D01*
X175238000Y-93600000D02*
X176036396Y-93600000D01*
D34*
%TO.N,ADC_Temp\u00E9rature_ventilo*%
X169000000Y-76500000D02*
X166500000Y-74000000D01*
X169000000Y-89762000D02*
X169000000Y-76500000D01*
%TO.N,Net-(IC1-Pad31)*%
X173000000Y-100000000D02*
X173000000Y-98238000D01*
X173300000Y-100300000D02*
X173000000Y-100000000D01*
X173300000Y-101000000D02*
X173300000Y-100300000D01*
%TO.N,PWM_Leds_W*%
X166762000Y-92000000D02*
X157600000Y-92000000D01*
X157600000Y-92000000D02*
X155520000Y-89920000D01*
X155520000Y-89920000D02*
X145850000Y-89920000D01*
D33*
%TO.N,PWM_Leds_B*%
X146190000Y-92800000D02*
X145850000Y-92460000D01*
D34*
X166762000Y-92800000D02*
X146190000Y-92800000D01*
%TO.N,PWM_Leds_G*%
X166762000Y-93600000D02*
X147250000Y-93600000D01*
X147250000Y-93600000D02*
X145850000Y-95000000D01*
%TO.N,PWM_Leds_R*%
X166762000Y-94400000D02*
X163300000Y-94400000D01*
X160160000Y-97540000D02*
X145850000Y-97540000D01*
X163300000Y-94400000D02*
X160160000Y-97540000D01*
D33*
%TO.N,PWM_Ventilateur*%
X198350000Y-82000000D02*
X198850000Y-81500000D01*
D34*
X177000000Y-86000000D02*
X177000000Y-92000000D01*
X177000000Y-92000000D02*
X176200000Y-92800000D01*
X181500000Y-81500000D02*
X177000000Y-86000000D01*
X198850000Y-81500000D02*
X181500000Y-81500000D01*
X176200000Y-92800000D02*
X175238000Y-92800000D01*
%TO.N,UART_Driver_moteur*%
X175238000Y-91200000D02*
X175238000Y-75262000D01*
X175238000Y-75262000D02*
X176500000Y-74000000D01*
D33*
%TO.N,+5V*%
X182700000Y-99950000D02*
X183400000Y-99950000D01*
D34*
X198850000Y-97150000D02*
X197000000Y-99000000D01*
X179160000Y-104190000D02*
X176475000Y-104190000D01*
D33*
X183400000Y-98050000D02*
X182700000Y-98050000D01*
D34*
X190000000Y-95000000D02*
X198850000Y-95000000D01*
X185000000Y-100000000D02*
X183450000Y-100000000D01*
D33*
X183450000Y-100000000D02*
X183400000Y-99950000D01*
D34*
X197000000Y-99000000D02*
X194850000Y-99000000D01*
X185000000Y-100000000D02*
X190000000Y-95000000D01*
D33*
X182700000Y-98050000D02*
X182000000Y-98750000D01*
X182000000Y-98750000D02*
X182000000Y-99250000D01*
D34*
X183400000Y-99950000D02*
X179160000Y-104190000D01*
D33*
X182000000Y-99250000D02*
X182700000Y-99950000D01*
D34*
X198850000Y-95000000D02*
X198850000Y-97150000D01*
%TO.N,Net-(DMX1-Pad12)*%
X189270000Y-106730000D02*
X194000000Y-102000000D01*
X194000000Y-102000000D02*
X198475000Y-102000000D01*
X176475000Y-106730000D02*
X189270000Y-106730000D01*
%TO.N,Net-(DMX1-Pad11)*%
X192000000Y-108000000D02*
X193000000Y-107000000D01*
X193000000Y-107000000D02*
X198475000Y-107000000D01*
X176475000Y-108000000D02*
X192000000Y-108000000D01*
%TO.N,unconnected-(DMX1-Pad2)*%
X171525000Y-105460000D02*
X169360000Y-105460000D01*
X169000000Y-103000000D02*
X169000000Y-102000000D01*
X169000000Y-105100000D02*
X169000000Y-103000000D01*
X169000000Y-103361418D02*
X169000000Y-103000000D01*
X171400000Y-99600000D02*
X171400000Y-98238000D01*
X169360000Y-105460000D02*
X169000000Y-105100000D01*
X169000000Y-102000000D02*
X171400000Y-99600000D01*
%TD*%
%TA.AperFunction,Conductor*%
%TO.N,GND*%
G36*
X197078176Y-70528502D02*
G01*
X197124669Y-70582158D01*
X197134773Y-70652432D01*
X197105279Y-70717012D01*
X197067258Y-70746767D01*
X196996397Y-70782872D01*
X196990687Y-70786169D01*
X196670265Y-70994253D01*
X196664939Y-70998123D01*
X196426165Y-71191478D01*
X196417700Y-71203733D01*
X196424034Y-71214824D01*
X201634310Y-76425100D01*
X201647386Y-76432241D01*
X201657753Y-76424784D01*
X201851877Y-76185061D01*
X201855747Y-76179735D01*
X202063831Y-75859313D01*
X202067128Y-75853603D01*
X202103233Y-75782742D01*
X202151981Y-75731127D01*
X202220896Y-75714061D01*
X202288098Y-75736962D01*
X202332250Y-75792559D01*
X202341500Y-75839945D01*
X202341500Y-112160055D01*
X202321498Y-112228176D01*
X202267842Y-112274669D01*
X202197568Y-112284773D01*
X202132988Y-112255279D01*
X202103233Y-112217258D01*
X202067128Y-112146397D01*
X202063831Y-112140687D01*
X201855747Y-111820265D01*
X201851877Y-111814939D01*
X201658522Y-111576165D01*
X201646267Y-111567700D01*
X201635176Y-111574034D01*
X196424900Y-116784310D01*
X196417759Y-116797386D01*
X196425216Y-116807753D01*
X196664935Y-117001874D01*
X196670272Y-117005751D01*
X196990685Y-117213830D01*
X196996394Y-117217126D01*
X197067257Y-117253233D01*
X197118872Y-117301981D01*
X197135938Y-117370896D01*
X197113037Y-117438098D01*
X197057440Y-117482250D01*
X197010054Y-117491500D01*
X181713072Y-117491500D01*
X181644951Y-117471498D01*
X181598458Y-117417842D01*
X181587072Y-117365500D01*
X181587072Y-115945604D01*
X183287787Y-115945604D01*
X183297567Y-116156899D01*
X183347125Y-116362534D01*
X183349607Y-116367992D01*
X183349608Y-116367996D01*
X183390487Y-116457903D01*
X183434674Y-116555087D01*
X183557054Y-116727611D01*
X183709850Y-116873881D01*
X183887548Y-116988620D01*
X183893114Y-116990863D01*
X184078168Y-117065442D01*
X184078171Y-117065443D01*
X184083737Y-117067686D01*
X184291337Y-117108228D01*
X184296899Y-117108500D01*
X184452846Y-117108500D01*
X184610566Y-117093452D01*
X184813534Y-117033908D01*
X184818862Y-117031164D01*
X184996249Y-116939804D01*
X184996252Y-116939802D01*
X185001580Y-116937058D01*
X185167920Y-116806396D01*
X185171852Y-116801865D01*
X185171855Y-116801862D01*
X185302621Y-116651167D01*
X185306552Y-116646637D01*
X185309552Y-116641451D01*
X185309555Y-116641447D01*
X185409467Y-116468742D01*
X185412473Y-116463546D01*
X185481861Y-116263729D01*
X185488989Y-116214571D01*
X185511352Y-116060336D01*
X185511352Y-116060333D01*
X185512213Y-116054396D01*
X185502433Y-115843101D01*
X185453250Y-115639021D01*
X185456735Y-115568110D01*
X185498005Y-115510340D01*
X185563955Y-115484053D01*
X185575743Y-115483500D01*
X186650400Y-115483500D01*
X186653646Y-115483163D01*
X186653650Y-115483163D01*
X186749308Y-115473238D01*
X186749312Y-115473237D01*
X186756166Y-115472526D01*
X186762702Y-115470345D01*
X186762704Y-115470345D01*
X186916998Y-115418868D01*
X186923946Y-115416550D01*
X187074348Y-115323478D01*
X187199305Y-115198303D01*
X187289353Y-115052220D01*
X187342124Y-115004727D01*
X187412196Y-114993303D01*
X187477320Y-115021577D01*
X187487782Y-115031364D01*
X187593234Y-115141906D01*
X187601186Y-115148941D01*
X187777525Y-115280141D01*
X187786562Y-115285745D01*
X187982484Y-115385357D01*
X187992335Y-115389357D01*
X188202240Y-115454534D01*
X188212624Y-115456817D01*
X188228043Y-115458861D01*
X188242207Y-115456665D01*
X188246000Y-115443478D01*
X188246000Y-115441192D01*
X188754000Y-115441192D01*
X188757973Y-115454723D01*
X188768580Y-115456248D01*
X188886421Y-115431523D01*
X188896617Y-115428463D01*
X189101029Y-115347737D01*
X189110561Y-115343006D01*
X189298462Y-115228984D01*
X189307052Y-115222720D01*
X189473052Y-115078673D01*
X189480472Y-115071042D01*
X189619826Y-114901089D01*
X189625848Y-114892326D01*
X189641238Y-114865289D01*
X189692320Y-114815982D01*
X189761951Y-114802120D01*
X189828022Y-114828103D01*
X189855261Y-114857253D01*
X189884773Y-114901089D01*
X189937441Y-114979319D01*
X190096576Y-115146135D01*
X190281542Y-115283754D01*
X190286293Y-115286170D01*
X190286297Y-115286172D01*
X190304485Y-115295419D01*
X190487051Y-115388240D01*
X190492145Y-115389822D01*
X190492148Y-115389823D01*
X190657583Y-115441192D01*
X190707227Y-115456607D01*
X190712516Y-115457308D01*
X190930489Y-115486198D01*
X190930494Y-115486198D01*
X190935774Y-115486898D01*
X190941103Y-115486698D01*
X190941105Y-115486698D01*
X191050966Y-115482574D01*
X191166158Y-115478249D01*
X191391791Y-115430907D01*
X191396750Y-115428949D01*
X191396752Y-115428948D01*
X191601256Y-115348185D01*
X191601258Y-115348184D01*
X191606221Y-115346224D01*
X191611525Y-115343006D01*
X191798757Y-115229390D01*
X191798756Y-115229390D01*
X191803317Y-115226623D01*
X191845639Y-115189898D01*
X191973412Y-115079023D01*
X191973414Y-115079021D01*
X191977445Y-115075523D01*
X192044861Y-114993303D01*
X192120240Y-114901373D01*
X192120244Y-114901367D01*
X192123624Y-114897245D01*
X192126740Y-114891772D01*
X192235032Y-114701529D01*
X192237675Y-114696886D01*
X192316337Y-114480175D01*
X192332044Y-114393316D01*
X192356623Y-114257392D01*
X192356624Y-114257385D01*
X192357361Y-114253308D01*
X192358500Y-114229156D01*
X192358500Y-114003301D01*
X195137084Y-114003301D01*
X195157080Y-114384833D01*
X195157766Y-114391371D01*
X195217535Y-114768734D01*
X195218906Y-114775184D01*
X195317788Y-115144216D01*
X195319829Y-115150498D01*
X195456740Y-115507164D01*
X195459422Y-115513189D01*
X195632872Y-115853603D01*
X195636169Y-115859313D01*
X195844253Y-116179735D01*
X195848123Y-116185061D01*
X196041478Y-116423835D01*
X196053733Y-116432300D01*
X196064824Y-116425966D01*
X198477978Y-114012812D01*
X198485592Y-113998868D01*
X198485461Y-113997035D01*
X198481210Y-113990420D01*
X196065690Y-111574900D01*
X196052614Y-111567759D01*
X196042247Y-111575216D01*
X195848123Y-111814939D01*
X195844253Y-111820265D01*
X195636169Y-112140687D01*
X195632872Y-112146397D01*
X195459422Y-112486811D01*
X195456740Y-112492836D01*
X195319829Y-112849502D01*
X195317788Y-112855784D01*
X195218906Y-113224816D01*
X195217535Y-113231266D01*
X195157766Y-113608629D01*
X195157080Y-113615167D01*
X195137084Y-113996699D01*
X195137084Y-114003301D01*
X192358500Y-114003301D01*
X192358500Y-113817110D01*
X192352525Y-113746692D01*
X192344371Y-113650591D01*
X192344370Y-113650587D01*
X192343920Y-113645280D01*
X192342582Y-113640125D01*
X192342581Y-113640119D01*
X192287343Y-113427297D01*
X192287342Y-113427293D01*
X192286001Y-113422128D01*
X192191312Y-113211925D01*
X192062559Y-113020681D01*
X192045212Y-113002496D01*
X191956082Y-112909065D01*
X191903424Y-112853865D01*
X191718458Y-112716246D01*
X191713707Y-112713830D01*
X191713703Y-112713828D01*
X191595588Y-112653776D01*
X191512949Y-112611760D01*
X191507855Y-112610178D01*
X191507852Y-112610177D01*
X191297871Y-112544976D01*
X191292773Y-112543393D01*
X191286548Y-112542568D01*
X191069511Y-112513802D01*
X191069506Y-112513802D01*
X191064226Y-112513102D01*
X191058897Y-112513302D01*
X191058895Y-112513302D01*
X190949034Y-112517426D01*
X190833842Y-112521751D01*
X190828623Y-112522846D01*
X190806566Y-112527474D01*
X190608209Y-112569093D01*
X190603250Y-112571051D01*
X190603248Y-112571052D01*
X190398744Y-112651815D01*
X190398742Y-112651816D01*
X190393779Y-112653776D01*
X190389220Y-112656543D01*
X190389217Y-112656544D01*
X190294113Y-112714255D01*
X190196683Y-112773377D01*
X190192653Y-112776874D01*
X190027280Y-112920377D01*
X190022555Y-112924477D01*
X189995367Y-112957635D01*
X189879760Y-113098627D01*
X189879756Y-113098633D01*
X189876376Y-113102755D01*
X189873733Y-113107398D01*
X189858171Y-113134735D01*
X189807088Y-113184041D01*
X189737458Y-113197902D01*
X189671387Y-113171918D01*
X189644149Y-113142768D01*
X189565148Y-113025422D01*
X189558481Y-113017130D01*
X189406772Y-112858100D01*
X189398814Y-112851059D01*
X189222475Y-112719859D01*
X189213438Y-112714255D01*
X189017516Y-112614643D01*
X189007665Y-112610643D01*
X188797760Y-112545466D01*
X188787376Y-112543183D01*
X188771957Y-112541139D01*
X188757793Y-112543335D01*
X188754000Y-112556522D01*
X188754000Y-115441192D01*
X188246000Y-115441192D01*
X188246000Y-112558808D01*
X188242027Y-112545277D01*
X188231420Y-112543752D01*
X188113579Y-112568477D01*
X188103383Y-112571537D01*
X187898971Y-112652263D01*
X187889439Y-112656994D01*
X187701538Y-112771016D01*
X187692948Y-112777280D01*
X187526948Y-112921327D01*
X187519530Y-112928956D01*
X187493609Y-112960569D01*
X187434949Y-113000564D01*
X187363979Y-113002496D01*
X187303230Y-112965752D01*
X187289030Y-112946982D01*
X187275104Y-112924477D01*
X187198478Y-112800652D01*
X187073303Y-112675695D01*
X187057505Y-112665957D01*
X186928968Y-112586725D01*
X186928966Y-112586724D01*
X186922738Y-112582885D01*
X186809353Y-112545277D01*
X186761389Y-112529368D01*
X186761387Y-112529368D01*
X186754861Y-112527203D01*
X186748025Y-112526503D01*
X186748022Y-112526502D01*
X186704969Y-112522091D01*
X186650400Y-112516500D01*
X185349600Y-112516500D01*
X185346354Y-112516837D01*
X185346350Y-112516837D01*
X185250692Y-112526762D01*
X185250688Y-112526763D01*
X185243834Y-112527474D01*
X185237298Y-112529655D01*
X185237296Y-112529655D01*
X185105194Y-112573728D01*
X185076054Y-112583450D01*
X184925652Y-112676522D01*
X184800695Y-112801697D01*
X184796855Y-112807927D01*
X184796854Y-112807928D01*
X184722466Y-112928608D01*
X184707885Y-112952262D01*
X184652203Y-113120139D01*
X184651503Y-113126975D01*
X184651502Y-113126978D01*
X184649884Y-113142768D01*
X184641500Y-113224600D01*
X184641500Y-114766005D01*
X184621498Y-114834126D01*
X184567842Y-114880619D01*
X184508761Y-114889774D01*
X184508663Y-114891772D01*
X184504643Y-114891575D01*
X184504626Y-114891575D01*
X184503101Y-114891500D01*
X184347154Y-114891500D01*
X184189434Y-114906548D01*
X183986466Y-114966092D01*
X183981139Y-114968836D01*
X183981138Y-114968836D01*
X183803751Y-115060196D01*
X183803748Y-115060198D01*
X183798420Y-115062942D01*
X183632080Y-115193604D01*
X183628148Y-115198135D01*
X183628145Y-115198138D01*
X183552124Y-115285745D01*
X183493448Y-115353363D01*
X183490448Y-115358549D01*
X183490445Y-115358553D01*
X183421084Y-115478449D01*
X183387527Y-115536454D01*
X183318139Y-115736271D01*
X183317278Y-115742206D01*
X183317278Y-115742208D01*
X183300299Y-115859313D01*
X183287787Y-115945604D01*
X181587072Y-115945604D01*
X181587072Y-114059000D01*
X162412929Y-114059000D01*
X162412929Y-117365500D01*
X162392927Y-117433621D01*
X162339271Y-117480114D01*
X162286929Y-117491500D01*
X147689946Y-117491500D01*
X147621825Y-117471498D01*
X147575332Y-117417842D01*
X147565228Y-117347568D01*
X147594722Y-117282988D01*
X147632743Y-117253233D01*
X147703606Y-117217126D01*
X147709315Y-117213830D01*
X148029728Y-117005751D01*
X148035065Y-117001874D01*
X148273835Y-116808522D01*
X148282300Y-116796267D01*
X148275966Y-116785176D01*
X145491922Y-114001132D01*
X146214408Y-114001132D01*
X146214539Y-114002965D01*
X146218790Y-114009580D01*
X148634310Y-116425100D01*
X148647386Y-116432241D01*
X148657753Y-116424784D01*
X148851877Y-116185061D01*
X148855747Y-116179735D01*
X149063831Y-115859313D01*
X149067128Y-115853603D01*
X149240578Y-115513189D01*
X149243260Y-115507164D01*
X149380171Y-115150498D01*
X149382212Y-115144216D01*
X149481094Y-114775184D01*
X149482465Y-114768734D01*
X149542234Y-114391371D01*
X149542920Y-114384833D01*
X149562916Y-114003301D01*
X149562916Y-113996699D01*
X149542920Y-113615167D01*
X149542234Y-113608629D01*
X149482465Y-113231266D01*
X149481094Y-113224816D01*
X149382212Y-112855784D01*
X149380171Y-112849502D01*
X149243260Y-112492836D01*
X149240578Y-112486811D01*
X149067128Y-112146397D01*
X149063831Y-112140687D01*
X148855747Y-111820265D01*
X148851877Y-111814939D01*
X148658522Y-111576165D01*
X148646267Y-111567700D01*
X148635176Y-111574034D01*
X146222022Y-113987188D01*
X146214408Y-114001132D01*
X145491922Y-114001132D01*
X143065690Y-111574900D01*
X143052614Y-111567759D01*
X143042247Y-111575216D01*
X142848123Y-111814939D01*
X142844253Y-111820265D01*
X142636169Y-112140687D01*
X142632872Y-112146397D01*
X142596767Y-112217258D01*
X142548019Y-112268873D01*
X142479104Y-112285939D01*
X142411902Y-112263038D01*
X142367750Y-112207441D01*
X142358500Y-112160055D01*
X142358500Y-111203733D01*
X143417700Y-111203733D01*
X143424034Y-111214824D01*
X145837188Y-113627978D01*
X145851132Y-113635592D01*
X145852965Y-113635461D01*
X145859580Y-113631210D01*
X148275100Y-111215690D01*
X148282241Y-111202614D01*
X148274784Y-111192247D01*
X148035065Y-110998126D01*
X148029728Y-110994249D01*
X147709315Y-110786170D01*
X147703606Y-110782873D01*
X147363189Y-110609422D01*
X147357164Y-110606740D01*
X147022133Y-110478134D01*
X154311500Y-110478134D01*
X154318255Y-110540316D01*
X154369385Y-110676705D01*
X154456739Y-110793261D01*
X154573295Y-110880615D01*
X154709684Y-110931745D01*
X154771866Y-110938500D01*
X155608134Y-110938500D01*
X155611529Y-110938131D01*
X155611533Y-110938131D01*
X155636893Y-110935376D01*
X155706775Y-110947904D01*
X155758791Y-110996225D01*
X155776500Y-111060639D01*
X155776500Y-112431955D01*
X155776208Y-112440524D01*
X155773053Y-112486811D01*
X155772424Y-112496034D01*
X155773729Y-112503511D01*
X155773729Y-112503514D01*
X155783002Y-112556647D01*
X155783965Y-112563171D01*
X155786072Y-112580581D01*
X155791355Y-112624235D01*
X155794042Y-112631345D01*
X155795246Y-112636248D01*
X155798114Y-112646734D01*
X155799561Y-112651526D01*
X155800866Y-112659004D01*
X155803918Y-112665956D01*
X155803918Y-112665957D01*
X155825595Y-112715341D01*
X155828086Y-112721446D01*
X155846818Y-112771016D01*
X155849831Y-112778989D01*
X155854131Y-112785246D01*
X155856467Y-112789714D01*
X155861725Y-112799160D01*
X155864307Y-112803526D01*
X155867362Y-112810485D01*
X155904823Y-112859304D01*
X155908686Y-112864623D01*
X155935283Y-112903321D01*
X155943534Y-112915326D01*
X155949203Y-112920377D01*
X155988323Y-112955232D01*
X155993598Y-112960213D01*
X156061183Y-113027798D01*
X156095209Y-113090110D01*
X156097397Y-113103719D01*
X156106458Y-113189928D01*
X156165473Y-113371556D01*
X156260960Y-113536944D01*
X156388747Y-113678866D01*
X156543248Y-113791118D01*
X156549276Y-113793802D01*
X156549278Y-113793803D01*
X156711681Y-113866109D01*
X156717712Y-113868794D01*
X156811112Y-113888647D01*
X156898056Y-113907128D01*
X156898061Y-113907128D01*
X156904513Y-113908500D01*
X157095487Y-113908500D01*
X157101939Y-113907128D01*
X157101944Y-113907128D01*
X157188888Y-113888647D01*
X157282288Y-113868794D01*
X157288319Y-113866109D01*
X157450722Y-113793803D01*
X157450724Y-113793802D01*
X157456752Y-113791118D01*
X157611253Y-113678866D01*
X157739040Y-113536944D01*
X157834527Y-113371556D01*
X157893542Y-113189928D01*
X157902603Y-113103723D01*
X157912814Y-113006565D01*
X157913504Y-113000000D01*
X157906037Y-112928956D01*
X157894232Y-112816635D01*
X157894232Y-112816633D01*
X157893542Y-112810072D01*
X157834527Y-112628444D01*
X157827742Y-112616691D01*
X157793003Y-112556522D01*
X157739040Y-112463056D01*
X157724147Y-112446515D01*
X157615675Y-112326045D01*
X157615674Y-112326044D01*
X157611253Y-112321134D01*
X157456752Y-112208882D01*
X157450724Y-112206198D01*
X157450722Y-112206197D01*
X157288319Y-112133891D01*
X157288318Y-112133891D01*
X157282288Y-112131206D01*
X157243305Y-112122920D01*
X157180831Y-112089193D01*
X157172699Y-112074468D01*
X170032670Y-112074468D01*
X170045896Y-112174928D01*
X170050135Y-112190748D01*
X170102432Y-112317005D01*
X170110621Y-112331188D01*
X170193815Y-112439609D01*
X170205391Y-112451185D01*
X170313812Y-112534379D01*
X170327995Y-112542568D01*
X170454252Y-112594865D01*
X170470072Y-112599104D01*
X170571534Y-112612462D01*
X170579742Y-112613000D01*
X171252885Y-112613000D01*
X171268124Y-112608525D01*
X171269329Y-112607135D01*
X171271000Y-112599452D01*
X171271000Y-112594885D01*
X171779000Y-112594885D01*
X171783475Y-112610124D01*
X171784865Y-112611329D01*
X171792548Y-112613000D01*
X172470258Y-112613000D01*
X172478466Y-112612462D01*
X172579928Y-112599104D01*
X172595748Y-112594865D01*
X172722005Y-112542568D01*
X172736188Y-112534379D01*
X172844609Y-112451185D01*
X172856185Y-112439609D01*
X172939379Y-112331188D01*
X172947568Y-112317005D01*
X172999865Y-112190748D01*
X173004104Y-112174928D01*
X173016842Y-112078173D01*
X173013525Y-112066876D01*
X173012135Y-112065671D01*
X173004452Y-112064000D01*
X171797115Y-112064000D01*
X171781876Y-112068475D01*
X171780671Y-112069865D01*
X171779000Y-112077548D01*
X171779000Y-112594885D01*
X171271000Y-112594885D01*
X171271000Y-112082115D01*
X171266525Y-112066876D01*
X171265135Y-112065671D01*
X171257452Y-112064000D01*
X170050115Y-112064000D01*
X170034876Y-112068475D01*
X170033671Y-112069865D01*
X170032670Y-112074468D01*
X157172699Y-112074468D01*
X157146509Y-112027044D01*
X157143500Y-111999673D01*
X157143500Y-111060134D01*
X157163502Y-110992013D01*
X157217158Y-110945520D01*
X157283108Y-110934871D01*
X157308514Y-110937631D01*
X157315328Y-110938000D01*
X157457885Y-110938000D01*
X157473124Y-110933525D01*
X157474329Y-110932135D01*
X157476000Y-110924452D01*
X157476000Y-110919884D01*
X157984000Y-110919884D01*
X157988475Y-110935123D01*
X157989865Y-110936328D01*
X157997548Y-110937999D01*
X158144669Y-110937999D01*
X158151490Y-110937629D01*
X158202352Y-110932105D01*
X158217606Y-110928478D01*
X158320771Y-110889804D01*
X158391578Y-110884621D01*
X158409229Y-110889804D01*
X158512391Y-110928478D01*
X158527649Y-110932105D01*
X158578514Y-110937631D01*
X158585328Y-110938000D01*
X158727885Y-110938000D01*
X158743124Y-110933525D01*
X158744329Y-110932135D01*
X158746000Y-110924452D01*
X158746000Y-110919884D01*
X159254000Y-110919884D01*
X159258475Y-110935123D01*
X159259865Y-110936328D01*
X159267548Y-110937999D01*
X159414669Y-110937999D01*
X159421490Y-110937629D01*
X159472352Y-110932105D01*
X159487607Y-110928478D01*
X159590059Y-110890071D01*
X159660866Y-110884888D01*
X159678517Y-110890071D01*
X159782282Y-110928971D01*
X159782288Y-110928973D01*
X159789684Y-110931745D01*
X159851866Y-110938500D01*
X160688134Y-110938500D01*
X160750316Y-110931745D01*
X160757712Y-110928973D01*
X160757718Y-110928971D01*
X160861483Y-110890071D01*
X160932290Y-110884888D01*
X160949941Y-110890071D01*
X161052391Y-110928478D01*
X161067649Y-110932105D01*
X161118514Y-110937631D01*
X161125328Y-110938000D01*
X161267885Y-110938000D01*
X161283124Y-110933525D01*
X161284329Y-110932135D01*
X161286000Y-110924452D01*
X161286000Y-110919884D01*
X161794000Y-110919884D01*
X161798475Y-110935123D01*
X161799865Y-110936328D01*
X161807548Y-110937999D01*
X161954669Y-110937999D01*
X161961490Y-110937629D01*
X162012352Y-110932105D01*
X162027607Y-110928478D01*
X162130059Y-110890071D01*
X162200866Y-110884888D01*
X162218517Y-110890071D01*
X162322282Y-110928971D01*
X162322288Y-110928973D01*
X162329684Y-110931745D01*
X162391866Y-110938500D01*
X163228134Y-110938500D01*
X163290316Y-110931745D01*
X163426705Y-110880615D01*
X163528308Y-110804468D01*
X170032670Y-110804468D01*
X170045896Y-110904928D01*
X170050135Y-110920748D01*
X170102432Y-111047005D01*
X170110618Y-111061184D01*
X170139095Y-111098295D01*
X170164696Y-111164515D01*
X170150432Y-111234064D01*
X170139095Y-111251705D01*
X170110618Y-111288816D01*
X170102432Y-111302995D01*
X170050135Y-111429252D01*
X170045896Y-111445072D01*
X170033158Y-111541827D01*
X170036475Y-111553124D01*
X170037865Y-111554329D01*
X170045548Y-111556000D01*
X171252885Y-111556000D01*
X171268124Y-111551525D01*
X171269329Y-111550135D01*
X171271000Y-111542452D01*
X171271000Y-111537885D01*
X171779000Y-111537885D01*
X171783475Y-111553124D01*
X171784865Y-111554329D01*
X171792548Y-111556000D01*
X172999885Y-111556000D01*
X173015124Y-111551525D01*
X173016329Y-111550135D01*
X173017330Y-111545532D01*
X173004104Y-111445072D01*
X172999865Y-111429252D01*
X172947568Y-111302995D01*
X172939382Y-111288816D01*
X172910905Y-111251705D01*
X172885304Y-111185485D01*
X172899568Y-111115936D01*
X172910905Y-111098295D01*
X172939382Y-111061184D01*
X172947568Y-111047005D01*
X172999865Y-110920748D01*
X173004104Y-110904928D01*
X173016842Y-110808173D01*
X173013525Y-110796876D01*
X173012135Y-110795671D01*
X173004452Y-110794000D01*
X171797115Y-110794000D01*
X171781876Y-110798475D01*
X171780671Y-110799865D01*
X171779000Y-110807548D01*
X171779000Y-111537885D01*
X171271000Y-111537885D01*
X171271000Y-110812115D01*
X171266525Y-110796876D01*
X171265135Y-110795671D01*
X171257452Y-110794000D01*
X170050115Y-110794000D01*
X170034876Y-110798475D01*
X170033671Y-110799865D01*
X170032670Y-110804468D01*
X163528308Y-110804468D01*
X163543261Y-110793261D01*
X163630615Y-110676705D01*
X163681745Y-110540316D01*
X163688500Y-110478134D01*
X163688500Y-109010589D01*
X170031500Y-109010589D01*
X170031501Y-109529410D01*
X170032039Y-109533495D01*
X170032039Y-109533499D01*
X170039591Y-109590863D01*
X170046487Y-109643248D01*
X170105156Y-109784887D01*
X170138781Y-109828708D01*
X170164381Y-109894925D01*
X170150117Y-109964474D01*
X170138780Y-109982114D01*
X170110620Y-110018812D01*
X170102432Y-110032995D01*
X170050135Y-110159252D01*
X170045896Y-110175072D01*
X170033158Y-110271827D01*
X170036475Y-110283124D01*
X170037865Y-110284329D01*
X170045548Y-110286000D01*
X172999885Y-110286000D01*
X173015124Y-110281525D01*
X173016329Y-110280135D01*
X173017330Y-110275532D01*
X173004104Y-110175072D01*
X172999865Y-110159252D01*
X172947568Y-110032995D01*
X172939380Y-110018812D01*
X172911220Y-109982114D01*
X172885619Y-109915894D01*
X172899883Y-109846345D01*
X172911214Y-109828714D01*
X172944844Y-109784887D01*
X173003513Y-109643248D01*
X173018500Y-109529411D01*
X173018499Y-109010590D01*
X173003513Y-108896752D01*
X172944844Y-108755113D01*
X172911219Y-108711292D01*
X172885619Y-108645075D01*
X172899883Y-108575526D01*
X172911220Y-108557886D01*
X172939380Y-108521188D01*
X172947568Y-108507005D01*
X172999865Y-108380748D01*
X173004104Y-108364928D01*
X173016842Y-108268173D01*
X173013525Y-108256876D01*
X173012135Y-108255671D01*
X173004452Y-108254000D01*
X170050115Y-108254000D01*
X170034876Y-108258475D01*
X170033671Y-108259865D01*
X170032670Y-108264468D01*
X170045896Y-108364928D01*
X170050135Y-108380748D01*
X170102432Y-108507005D01*
X170110620Y-108521188D01*
X170138780Y-108557886D01*
X170164381Y-108624106D01*
X170150117Y-108693655D01*
X170138786Y-108711286D01*
X170105156Y-108755113D01*
X170046487Y-108896752D01*
X170045409Y-108904939D01*
X170045409Y-108904940D01*
X170037108Y-108967996D01*
X170031500Y-109010589D01*
X163688500Y-109010589D01*
X163688500Y-107591866D01*
X163681745Y-107529684D01*
X163630615Y-107393295D01*
X163543261Y-107276739D01*
X163426705Y-107189385D01*
X163290316Y-107138255D01*
X163228134Y-107131500D01*
X162391866Y-107131500D01*
X162329684Y-107138255D01*
X162322288Y-107141027D01*
X162322282Y-107141029D01*
X162218517Y-107179929D01*
X162147710Y-107185112D01*
X162130059Y-107179929D01*
X162027609Y-107141522D01*
X162012351Y-107137895D01*
X161961486Y-107132369D01*
X161954672Y-107132000D01*
X161812115Y-107132000D01*
X161796876Y-107136475D01*
X161795671Y-107137865D01*
X161794000Y-107145548D01*
X161794000Y-110919884D01*
X161286000Y-110919884D01*
X161286000Y-107150116D01*
X161281525Y-107134877D01*
X161280135Y-107133672D01*
X161272452Y-107132001D01*
X161125331Y-107132001D01*
X161118510Y-107132371D01*
X161067648Y-107137895D01*
X161052393Y-107141522D01*
X160949941Y-107179929D01*
X160879134Y-107185112D01*
X160861483Y-107179929D01*
X160757718Y-107141029D01*
X160757712Y-107141027D01*
X160750316Y-107138255D01*
X160688134Y-107131500D01*
X159851866Y-107131500D01*
X159789684Y-107138255D01*
X159782288Y-107141027D01*
X159782282Y-107141029D01*
X159678517Y-107179929D01*
X159607710Y-107185112D01*
X159590059Y-107179929D01*
X159487609Y-107141522D01*
X159472351Y-107137895D01*
X159421486Y-107132369D01*
X159414672Y-107132000D01*
X159272115Y-107132000D01*
X159256876Y-107136475D01*
X159255671Y-107137865D01*
X159254000Y-107145548D01*
X159254000Y-110919884D01*
X158746000Y-110919884D01*
X158746000Y-109307115D01*
X158741525Y-109291876D01*
X158740135Y-109290671D01*
X158732452Y-109289000D01*
X158002115Y-109289000D01*
X157986876Y-109293475D01*
X157985671Y-109294865D01*
X157984000Y-109302548D01*
X157984000Y-110919884D01*
X157476000Y-110919884D01*
X157476000Y-108762885D01*
X157984000Y-108762885D01*
X157988475Y-108778124D01*
X157989865Y-108779329D01*
X157997548Y-108781000D01*
X158727885Y-108781000D01*
X158743124Y-108776525D01*
X158744329Y-108775135D01*
X158746000Y-108767452D01*
X158746000Y-107150116D01*
X158741525Y-107134877D01*
X158740135Y-107133672D01*
X158732452Y-107132001D01*
X158585331Y-107132001D01*
X158578510Y-107132371D01*
X158527648Y-107137895D01*
X158512394Y-107141522D01*
X158409229Y-107180196D01*
X158338422Y-107185379D01*
X158320771Y-107180196D01*
X158217609Y-107141522D01*
X158202351Y-107137895D01*
X158151486Y-107132369D01*
X158144672Y-107132000D01*
X158002115Y-107132000D01*
X157986876Y-107136475D01*
X157985671Y-107137865D01*
X157984000Y-107145548D01*
X157984000Y-108762885D01*
X157476000Y-108762885D01*
X157476000Y-107150116D01*
X157471525Y-107134877D01*
X157470135Y-107133672D01*
X157462452Y-107132001D01*
X157315331Y-107132001D01*
X157308510Y-107132371D01*
X157257648Y-107137895D01*
X157242393Y-107141522D01*
X157139941Y-107179929D01*
X157069134Y-107185112D01*
X157051483Y-107179929D01*
X156947718Y-107141029D01*
X156947712Y-107141027D01*
X156940316Y-107138255D01*
X156878134Y-107131500D01*
X156041866Y-107131500D01*
X155979684Y-107138255D01*
X155972288Y-107141027D01*
X155972282Y-107141029D01*
X155869229Y-107179662D01*
X155798422Y-107184845D01*
X155780771Y-107179662D01*
X155677718Y-107141029D01*
X155677712Y-107141027D01*
X155670316Y-107138255D01*
X155608134Y-107131500D01*
X154771866Y-107131500D01*
X154709684Y-107138255D01*
X154573295Y-107189385D01*
X154456739Y-107276739D01*
X154369385Y-107393295D01*
X154318255Y-107529684D01*
X154311500Y-107591866D01*
X154311500Y-110478134D01*
X147022133Y-110478134D01*
X147000498Y-110469829D01*
X146994216Y-110467788D01*
X146625184Y-110368906D01*
X146618734Y-110367535D01*
X146241371Y-110307766D01*
X146234833Y-110307080D01*
X145853301Y-110287084D01*
X145846699Y-110287084D01*
X145465167Y-110307080D01*
X145458629Y-110307766D01*
X145081266Y-110367535D01*
X145074816Y-110368906D01*
X144705784Y-110467788D01*
X144699502Y-110469829D01*
X144342836Y-110606740D01*
X144336811Y-110609422D01*
X143996397Y-110782872D01*
X143990687Y-110786169D01*
X143670265Y-110994253D01*
X143664939Y-110998123D01*
X143426165Y-111191478D01*
X143417700Y-111203733D01*
X142358500Y-111203733D01*
X142358500Y-106994468D01*
X170032670Y-106994468D01*
X170045896Y-107094928D01*
X170050135Y-107110748D01*
X170102432Y-107237005D01*
X170110618Y-107251184D01*
X170139095Y-107288295D01*
X170164696Y-107354515D01*
X170150432Y-107424064D01*
X170139095Y-107441705D01*
X170110618Y-107478816D01*
X170102432Y-107492995D01*
X170050135Y-107619252D01*
X170045896Y-107635072D01*
X170033158Y-107731827D01*
X170036475Y-107743124D01*
X170037865Y-107744329D01*
X170045548Y-107746000D01*
X171252885Y-107746000D01*
X171268124Y-107741525D01*
X171269329Y-107740135D01*
X171271000Y-107732452D01*
X171271000Y-107727885D01*
X171779000Y-107727885D01*
X171783475Y-107743124D01*
X171784865Y-107744329D01*
X171792548Y-107746000D01*
X172999885Y-107746000D01*
X173015124Y-107741525D01*
X173016329Y-107740135D01*
X173017330Y-107735532D01*
X173004104Y-107635072D01*
X172999865Y-107619252D01*
X172947568Y-107492995D01*
X172939382Y-107478816D01*
X172910905Y-107441705D01*
X172885304Y-107375485D01*
X172899568Y-107305936D01*
X172910905Y-107288295D01*
X172939382Y-107251184D01*
X172947568Y-107237005D01*
X172999865Y-107110748D01*
X173004104Y-107094928D01*
X173016842Y-106998173D01*
X173013525Y-106986876D01*
X173012135Y-106985671D01*
X173004452Y-106984000D01*
X171797115Y-106984000D01*
X171781876Y-106988475D01*
X171780671Y-106989865D01*
X171779000Y-106997548D01*
X171779000Y-107727885D01*
X171271000Y-107727885D01*
X171271000Y-107002115D01*
X171266525Y-106986876D01*
X171265135Y-106985671D01*
X171257452Y-106984000D01*
X170050115Y-106984000D01*
X170034876Y-106988475D01*
X170033671Y-106989865D01*
X170032670Y-106994468D01*
X142358500Y-106994468D01*
X142358500Y-106408134D01*
X154311500Y-106408134D01*
X154318255Y-106470316D01*
X154369385Y-106606705D01*
X154456739Y-106723261D01*
X154573295Y-106810615D01*
X154709684Y-106861745D01*
X154771866Y-106868500D01*
X155608134Y-106868500D01*
X155670316Y-106861745D01*
X155677712Y-106858973D01*
X155677718Y-106858971D01*
X155780771Y-106820338D01*
X155851578Y-106815155D01*
X155869229Y-106820338D01*
X155972282Y-106858971D01*
X155972288Y-106858973D01*
X155979684Y-106861745D01*
X156041866Y-106868500D01*
X156878134Y-106868500D01*
X156940316Y-106861745D01*
X156947712Y-106858973D01*
X156947718Y-106858971D01*
X157050771Y-106820338D01*
X157121578Y-106815155D01*
X157139229Y-106820338D01*
X157242282Y-106858971D01*
X157242288Y-106858973D01*
X157249684Y-106861745D01*
X157311866Y-106868500D01*
X158148134Y-106868500D01*
X158210316Y-106861745D01*
X158217712Y-106858973D01*
X158217718Y-106858971D01*
X158320771Y-106820338D01*
X158391578Y-106815155D01*
X158409229Y-106820338D01*
X158512282Y-106858971D01*
X158512288Y-106858973D01*
X158519684Y-106861745D01*
X158581866Y-106868500D01*
X159418134Y-106868500D01*
X159480316Y-106861745D01*
X159487712Y-106858973D01*
X159487718Y-106858971D01*
X159590771Y-106820338D01*
X159661578Y-106815155D01*
X159679229Y-106820338D01*
X159782282Y-106858971D01*
X159782288Y-106858973D01*
X159789684Y-106861745D01*
X159851866Y-106868500D01*
X160688134Y-106868500D01*
X160750316Y-106861745D01*
X160757712Y-106858973D01*
X160757718Y-106858971D01*
X160860771Y-106820338D01*
X160931578Y-106815155D01*
X160949229Y-106820338D01*
X161052282Y-106858971D01*
X161052288Y-106858973D01*
X161059684Y-106861745D01*
X161121866Y-106868500D01*
X161958134Y-106868500D01*
X162020316Y-106861745D01*
X162027712Y-106858973D01*
X162027718Y-106858971D01*
X162130771Y-106820338D01*
X162201578Y-106815155D01*
X162219229Y-106820338D01*
X162322282Y-106858971D01*
X162322288Y-106858973D01*
X162329684Y-106861745D01*
X162391866Y-106868500D01*
X163228134Y-106868500D01*
X163290316Y-106861745D01*
X163426705Y-106810615D01*
X163543261Y-106723261D01*
X163630615Y-106606705D01*
X163681745Y-106470316D01*
X163688500Y-106408134D01*
X163688500Y-103521866D01*
X163681745Y-103459684D01*
X163630615Y-103323295D01*
X163543261Y-103206739D01*
X163486137Y-103163927D01*
X163443623Y-103107069D01*
X163438597Y-103036251D01*
X163472608Y-102974007D01*
X164726210Y-101720405D01*
X164788522Y-101686379D01*
X164815305Y-101683500D01*
X166354185Y-101683500D01*
X166422306Y-101703502D01*
X166428246Y-101707564D01*
X166481149Y-101746000D01*
X166543248Y-101791118D01*
X166549276Y-101793802D01*
X166549278Y-101793803D01*
X166711681Y-101866109D01*
X166717712Y-101868794D01*
X166811112Y-101888647D01*
X166898056Y-101907128D01*
X166898061Y-101907128D01*
X166904513Y-101908500D01*
X167095487Y-101908500D01*
X167101939Y-101907128D01*
X167101944Y-101907128D01*
X167188888Y-101888647D01*
X167282288Y-101868794D01*
X167288319Y-101866109D01*
X167450722Y-101793803D01*
X167450724Y-101793802D01*
X167456752Y-101791118D01*
X167611253Y-101678866D01*
X167615675Y-101673955D01*
X167734621Y-101541852D01*
X167734622Y-101541851D01*
X167739040Y-101536944D01*
X167823976Y-101389831D01*
X167831223Y-101377279D01*
X167831224Y-101377278D01*
X167834527Y-101371556D01*
X167893542Y-101189928D01*
X167894487Y-101180943D01*
X167912814Y-101006565D01*
X167913504Y-101000000D01*
X167904952Y-100918628D01*
X167894232Y-100816635D01*
X167894232Y-100816633D01*
X167893542Y-100810072D01*
X167834527Y-100628444D01*
X167739040Y-100463056D01*
X167683818Y-100401725D01*
X167615675Y-100326045D01*
X167615674Y-100326044D01*
X167611253Y-100321134D01*
X167456752Y-100208882D01*
X167450724Y-100206198D01*
X167450722Y-100206197D01*
X167288319Y-100133891D01*
X167288318Y-100133891D01*
X167282288Y-100131206D01*
X167188887Y-100111353D01*
X167101944Y-100092872D01*
X167101939Y-100092872D01*
X167095487Y-100091500D01*
X166904513Y-100091500D01*
X166898061Y-100092872D01*
X166898056Y-100092872D01*
X166811113Y-100111353D01*
X166717712Y-100131206D01*
X166711682Y-100133891D01*
X166711681Y-100133891D01*
X166549278Y-100206197D01*
X166549276Y-100206198D01*
X166543248Y-100208882D01*
X166537907Y-100212762D01*
X166537906Y-100212763D01*
X166428246Y-100292436D01*
X166361378Y-100316295D01*
X166354185Y-100316500D01*
X164508056Y-100316500D01*
X164499486Y-100316208D01*
X164498443Y-100316137D01*
X164443966Y-100312423D01*
X164436489Y-100313728D01*
X164436486Y-100313728D01*
X164383342Y-100323003D01*
X164376819Y-100323966D01*
X164323308Y-100330442D01*
X164323307Y-100330442D01*
X164315765Y-100331355D01*
X164308655Y-100334041D01*
X164303752Y-100335246D01*
X164293266Y-100338114D01*
X164288474Y-100339561D01*
X164280996Y-100340866D01*
X164274044Y-100343918D01*
X164274043Y-100343918D01*
X164224659Y-100365595D01*
X164218554Y-100368086D01*
X164168118Y-100387145D01*
X164168115Y-100387147D01*
X164161011Y-100389831D01*
X164154754Y-100394131D01*
X164150286Y-100396467D01*
X164140840Y-100401725D01*
X164136474Y-100404307D01*
X164129515Y-100407362D01*
X164080696Y-100444823D01*
X164075377Y-100448686D01*
X164046150Y-100468774D01*
X164024674Y-100483534D01*
X164019623Y-100489203D01*
X163984768Y-100528323D01*
X163979787Y-100533598D01*
X161488790Y-103024595D01*
X161426478Y-103058621D01*
X161399695Y-103061500D01*
X161121866Y-103061500D01*
X161059684Y-103068255D01*
X161052288Y-103071027D01*
X161052282Y-103071029D01*
X160949229Y-103109662D01*
X160878422Y-103114845D01*
X160860771Y-103109662D01*
X160757718Y-103071029D01*
X160757712Y-103071027D01*
X160750316Y-103068255D01*
X160688134Y-103061500D01*
X159851866Y-103061500D01*
X159789684Y-103068255D01*
X159782288Y-103071027D01*
X159782282Y-103071029D01*
X159679229Y-103109662D01*
X159608422Y-103114845D01*
X159590771Y-103109662D01*
X159487718Y-103071029D01*
X159487712Y-103071027D01*
X159480316Y-103068255D01*
X159418134Y-103061500D01*
X158581866Y-103061500D01*
X158519684Y-103068255D01*
X158512288Y-103071027D01*
X158512282Y-103071029D01*
X158409229Y-103109662D01*
X158338422Y-103114845D01*
X158320771Y-103109662D01*
X158217718Y-103071029D01*
X158217712Y-103071027D01*
X158210316Y-103068255D01*
X158148134Y-103061500D01*
X157311866Y-103061500D01*
X157249684Y-103068255D01*
X157242288Y-103071027D01*
X157242282Y-103071029D01*
X157139229Y-103109662D01*
X157068422Y-103114845D01*
X157050771Y-103109662D01*
X156947718Y-103071029D01*
X156947712Y-103071027D01*
X156940316Y-103068255D01*
X156878134Y-103061500D01*
X156041866Y-103061500D01*
X155979684Y-103068255D01*
X155972288Y-103071027D01*
X155972282Y-103071029D01*
X155869229Y-103109662D01*
X155798422Y-103114845D01*
X155780771Y-103109662D01*
X155677718Y-103071029D01*
X155677712Y-103071027D01*
X155670316Y-103068255D01*
X155608134Y-103061500D01*
X154771866Y-103061500D01*
X154709684Y-103068255D01*
X154573295Y-103119385D01*
X154456739Y-103206739D01*
X154369385Y-103323295D01*
X154318255Y-103459684D01*
X154311500Y-103521866D01*
X154311500Y-106408134D01*
X142358500Y-106408134D01*
X142358500Y-100348352D01*
X143841930Y-100348352D01*
X143842381Y-100350475D01*
X143905743Y-100556435D01*
X143909964Y-100566780D01*
X144008798Y-100758267D01*
X144014783Y-100767698D01*
X144145968Y-100938663D01*
X144153521Y-100946876D01*
X144312910Y-101091909D01*
X144321810Y-101098664D01*
X144504343Y-101213166D01*
X144514313Y-101218247D01*
X144714240Y-101298617D01*
X144724940Y-101301848D01*
X144936916Y-101345745D01*
X144946053Y-101346948D01*
X144997160Y-101349895D01*
X145000806Y-101350000D01*
X145577885Y-101350000D01*
X145593124Y-101345525D01*
X145594329Y-101344135D01*
X145596000Y-101336452D01*
X145596000Y-101331885D01*
X146104000Y-101331885D01*
X146108475Y-101347124D01*
X146109865Y-101348329D01*
X146117548Y-101350000D01*
X146666711Y-101350000D01*
X146672306Y-101349751D01*
X146832212Y-101335479D01*
X146843226Y-101333497D01*
X147051065Y-101276639D01*
X147061538Y-101272745D01*
X147256037Y-101179974D01*
X147265648Y-101174290D01*
X147440644Y-101048541D01*
X147449100Y-101041242D01*
X147599056Y-100886500D01*
X147606098Y-100877803D01*
X147726276Y-100698960D01*
X147731665Y-100689157D01*
X147818274Y-100491857D01*
X147821840Y-100481262D01*
X147852966Y-100351615D01*
X147852261Y-100337530D01*
X147843382Y-100334000D01*
X146122115Y-100334000D01*
X146106876Y-100338475D01*
X146105671Y-100339865D01*
X146104000Y-100347548D01*
X146104000Y-101331885D01*
X145596000Y-101331885D01*
X145596000Y-100352115D01*
X145591525Y-100336876D01*
X145590135Y-100335671D01*
X145582452Y-100334000D01*
X143857502Y-100334000D01*
X143843520Y-100338106D01*
X143841930Y-100348352D01*
X142358500Y-100348352D01*
X142358500Y-97580069D01*
X143812994Y-97580069D01*
X143840241Y-97805219D01*
X143906927Y-98021987D01*
X143909499Y-98026970D01*
X144001642Y-98205492D01*
X144010946Y-98223519D01*
X144149009Y-98403447D01*
X144219639Y-98467715D01*
X144312605Y-98552308D01*
X144312608Y-98552310D01*
X144316752Y-98556081D01*
X144321503Y-98559062D01*
X144321504Y-98559062D01*
X144504118Y-98673616D01*
X144504122Y-98673618D01*
X144508874Y-98676599D01*
X144552537Y-98694151D01*
X144608279Y-98738116D01*
X144631404Y-98805241D01*
X144614567Y-98874212D01*
X144559783Y-98924783D01*
X144443959Y-98980028D01*
X144434352Y-98985710D01*
X144259356Y-99111459D01*
X144250900Y-99118758D01*
X144100944Y-99273500D01*
X144093902Y-99282197D01*
X143973724Y-99461040D01*
X143968335Y-99470843D01*
X143881726Y-99668143D01*
X143878160Y-99678738D01*
X143847034Y-99808385D01*
X143847739Y-99822470D01*
X143856618Y-99826000D01*
X147842498Y-99826000D01*
X147856480Y-99821894D01*
X147858070Y-99811648D01*
X147857619Y-99809525D01*
X147794257Y-99603565D01*
X147790036Y-99593220D01*
X147691202Y-99401733D01*
X147685217Y-99392302D01*
X147554032Y-99221337D01*
X147546479Y-99213124D01*
X147387090Y-99068091D01*
X147378190Y-99061336D01*
X147195657Y-98946834D01*
X147185687Y-98941753D01*
X147147483Y-98926395D01*
X147091739Y-98882428D01*
X147068614Y-98815303D01*
X147085451Y-98746332D01*
X147140236Y-98695762D01*
X147256284Y-98640410D01*
X147256285Y-98640409D01*
X147261351Y-98637993D01*
X147318809Y-98596705D01*
X147440966Y-98508926D01*
X147440968Y-98508924D01*
X147445526Y-98505649D01*
X147549716Y-98398134D01*
X147599453Y-98346810D01*
X147599455Y-98346807D01*
X147603355Y-98342783D01*
X147646065Y-98279223D01*
X147700660Y-98233839D01*
X147750646Y-98223500D01*
X160131955Y-98223500D01*
X160140524Y-98223792D01*
X160188458Y-98227060D01*
X160188462Y-98227060D01*
X160196034Y-98227576D01*
X160203511Y-98226271D01*
X160203514Y-98226271D01*
X160256647Y-98216998D01*
X160263171Y-98216035D01*
X160316691Y-98209558D01*
X160324235Y-98208645D01*
X160331345Y-98205958D01*
X160336248Y-98204754D01*
X160346734Y-98201886D01*
X160351526Y-98200439D01*
X160359004Y-98199134D01*
X160365957Y-98196082D01*
X160415341Y-98174405D01*
X160421446Y-98171914D01*
X160471882Y-98152855D01*
X160471885Y-98152853D01*
X160478989Y-98150169D01*
X160485246Y-98145869D01*
X160489714Y-98143533D01*
X160499160Y-98138275D01*
X160503526Y-98135693D01*
X160510485Y-98132638D01*
X160559304Y-98095177D01*
X160564623Y-98091314D01*
X160609065Y-98060769D01*
X160615326Y-98056466D01*
X160623201Y-98047628D01*
X160655232Y-98011677D01*
X160660213Y-98006402D01*
X163546210Y-95120405D01*
X163608522Y-95086379D01*
X163635305Y-95083500D01*
X165390000Y-95083500D01*
X165458121Y-95103502D01*
X165504614Y-95157158D01*
X165516000Y-95209500D01*
X165516000Y-95548134D01*
X165516369Y-95551529D01*
X165516369Y-95551533D01*
X165520156Y-95586393D01*
X165520156Y-95613607D01*
X165516509Y-95647183D01*
X165516000Y-95651866D01*
X165516000Y-96348134D01*
X165516369Y-96351529D01*
X165516369Y-96351533D01*
X165520156Y-96386393D01*
X165520156Y-96413606D01*
X165516000Y-96451866D01*
X165516000Y-97148134D01*
X165522755Y-97210316D01*
X165573885Y-97346705D01*
X165661239Y-97463261D01*
X165777795Y-97550615D01*
X165914184Y-97601745D01*
X165976366Y-97608500D01*
X167265500Y-97608500D01*
X167333621Y-97628502D01*
X167380114Y-97682158D01*
X167391500Y-97734500D01*
X167391500Y-99023634D01*
X167398255Y-99085816D01*
X167449385Y-99222205D01*
X167536739Y-99338761D01*
X167653295Y-99426115D01*
X167789684Y-99477245D01*
X167851866Y-99484000D01*
X168548134Y-99484000D01*
X168551529Y-99483631D01*
X168551533Y-99483631D01*
X168579222Y-99480623D01*
X168586394Y-99479844D01*
X168613606Y-99479844D01*
X168620778Y-99480623D01*
X168648467Y-99483631D01*
X168648471Y-99483631D01*
X168651866Y-99484000D01*
X169348134Y-99484000D01*
X169351529Y-99483631D01*
X169351533Y-99483631D01*
X169379222Y-99480623D01*
X169386394Y-99479844D01*
X169413606Y-99479844D01*
X169420778Y-99480623D01*
X169448467Y-99483631D01*
X169448471Y-99483631D01*
X169451866Y-99484000D01*
X170148134Y-99484000D01*
X170151529Y-99483631D01*
X170151533Y-99483631D01*
X170179222Y-99480623D01*
X170186394Y-99479844D01*
X170213606Y-99479844D01*
X170251866Y-99484000D01*
X170252798Y-99484000D01*
X170319288Y-99507496D01*
X170362813Y-99563586D01*
X170369104Y-99634303D01*
X170334633Y-99698752D01*
X168536541Y-101496844D01*
X168530276Y-101502698D01*
X168488330Y-101539290D01*
X168452934Y-101589655D01*
X168449022Y-101594920D01*
X168411065Y-101643328D01*
X168407939Y-101650252D01*
X168405329Y-101654561D01*
X168399958Y-101663976D01*
X168397573Y-101668424D01*
X168393205Y-101674639D01*
X168390446Y-101681716D01*
X168370858Y-101731957D01*
X168368306Y-101738029D01*
X168342986Y-101794105D01*
X168341600Y-101801582D01*
X168340090Y-101806402D01*
X168337118Y-101816835D01*
X168335870Y-101821696D01*
X168333111Y-101828772D01*
X168332120Y-101836302D01*
X168325082Y-101889762D01*
X168324050Y-101896278D01*
X168312839Y-101956767D01*
X168313276Y-101964347D01*
X168313276Y-101964348D01*
X168316291Y-102016642D01*
X168316500Y-102023894D01*
X168316500Y-105071955D01*
X168316208Y-105080523D01*
X168312424Y-105136034D01*
X168313729Y-105143511D01*
X168313729Y-105143514D01*
X168323002Y-105196647D01*
X168323965Y-105203171D01*
X168324152Y-105204713D01*
X168331355Y-105264235D01*
X168334042Y-105271345D01*
X168335246Y-105276248D01*
X168338114Y-105286734D01*
X168339561Y-105291526D01*
X168340866Y-105299004D01*
X168343918Y-105305956D01*
X168343918Y-105305957D01*
X168365595Y-105355341D01*
X168368086Y-105361446D01*
X168382207Y-105398814D01*
X168389831Y-105418989D01*
X168394131Y-105425246D01*
X168396467Y-105429714D01*
X168401725Y-105439160D01*
X168404307Y-105443526D01*
X168407362Y-105450485D01*
X168444823Y-105499304D01*
X168448686Y-105504623D01*
X168461097Y-105522680D01*
X168483534Y-105555326D01*
X168489203Y-105560377D01*
X168528323Y-105595232D01*
X168533598Y-105600213D01*
X168856848Y-105923463D01*
X168862701Y-105929728D01*
X168899290Y-105971670D01*
X168949655Y-106007066D01*
X168954920Y-106010978D01*
X169003328Y-106048935D01*
X169010252Y-106052061D01*
X169014561Y-106054671D01*
X169023976Y-106060042D01*
X169028424Y-106062427D01*
X169034639Y-106066795D01*
X169091957Y-106089142D01*
X169098029Y-106091694D01*
X169154105Y-106117014D01*
X169161582Y-106118400D01*
X169166402Y-106119910D01*
X169176818Y-106122878D01*
X169181698Y-106124131D01*
X169188772Y-106126889D01*
X169196303Y-106127881D01*
X169196305Y-106127881D01*
X169249777Y-106134921D01*
X169256290Y-106135953D01*
X169309299Y-106145777D01*
X169309301Y-106145777D01*
X169316768Y-106147161D01*
X169324349Y-106146724D01*
X169324350Y-106146724D01*
X169376643Y-106143709D01*
X169383895Y-106143500D01*
X169946787Y-106143500D01*
X170014908Y-106163502D01*
X170061401Y-106217158D01*
X170071505Y-106287432D01*
X170063197Y-106317716D01*
X170050135Y-106349252D01*
X170045896Y-106365072D01*
X170033158Y-106461827D01*
X170036475Y-106473124D01*
X170037865Y-106474329D01*
X170045548Y-106476000D01*
X172999885Y-106476000D01*
X173015124Y-106471525D01*
X173016329Y-106470135D01*
X173017330Y-106465532D01*
X173004104Y-106365072D01*
X172999865Y-106349252D01*
X172947568Y-106222995D01*
X172939380Y-106208812D01*
X172911220Y-106172114D01*
X172885619Y-106105894D01*
X172899883Y-106036345D01*
X172911214Y-106018714D01*
X172944844Y-105974887D01*
X173003513Y-105833248D01*
X173018500Y-105719411D01*
X173018499Y-105200590D01*
X173010986Y-105143514D01*
X173004591Y-105094939D01*
X173004591Y-105094937D01*
X173003513Y-105086752D01*
X172944844Y-104945113D01*
X172911535Y-104901704D01*
X172885934Y-104835484D01*
X172900199Y-104765935D01*
X172911535Y-104748296D01*
X172915462Y-104743178D01*
X172944844Y-104704887D01*
X173003513Y-104563248D01*
X173018500Y-104449411D01*
X173018499Y-103930590D01*
X173003513Y-103816752D01*
X172944844Y-103675113D01*
X172851515Y-103553485D01*
X172729887Y-103460156D01*
X172588248Y-103401487D01*
X172580060Y-103400409D01*
X172478498Y-103387038D01*
X172478497Y-103387038D01*
X172474411Y-103386500D01*
X171525116Y-103386500D01*
X170575590Y-103386501D01*
X170571505Y-103387039D01*
X170571501Y-103387039D01*
X170469939Y-103400409D01*
X170469937Y-103400409D01*
X170461752Y-103401487D01*
X170320113Y-103460156D01*
X170198485Y-103553485D01*
X170105156Y-103675113D01*
X170046487Y-103816752D01*
X170045409Y-103824939D01*
X170045409Y-103824940D01*
X170036918Y-103889439D01*
X170031500Y-103930589D01*
X170031501Y-104449410D01*
X170046487Y-104563248D01*
X170049647Y-104570876D01*
X170049648Y-104570879D01*
X170062655Y-104602283D01*
X170070244Y-104672873D01*
X170038464Y-104736359D01*
X169977406Y-104772586D01*
X169946246Y-104776500D01*
X169809500Y-104776500D01*
X169741379Y-104756498D01*
X169694886Y-104702842D01*
X169683500Y-104650500D01*
X169683500Y-102594669D01*
X175992001Y-102594669D01*
X175992371Y-102601490D01*
X175997895Y-102652352D01*
X176001521Y-102667604D01*
X176046676Y-102788054D01*
X176055214Y-102803649D01*
X176131715Y-102905724D01*
X176144276Y-102918285D01*
X176246351Y-102994786D01*
X176261946Y-103003324D01*
X176382394Y-103048478D01*
X176397649Y-103052105D01*
X176448514Y-103057631D01*
X176455328Y-103058000D01*
X176727885Y-103058000D01*
X176743124Y-103053525D01*
X176744329Y-103052135D01*
X176746000Y-103044452D01*
X176746000Y-103039884D01*
X177254000Y-103039884D01*
X177258475Y-103055123D01*
X177259865Y-103056328D01*
X177267548Y-103057999D01*
X177544669Y-103057999D01*
X177551490Y-103057629D01*
X177602352Y-103052105D01*
X177617604Y-103048479D01*
X177738054Y-103003324D01*
X177753649Y-102994786D01*
X177855724Y-102918285D01*
X177868285Y-102905724D01*
X177944786Y-102803649D01*
X177953324Y-102788054D01*
X177998478Y-102667606D01*
X178002105Y-102652351D01*
X178007631Y-102601485D01*
X178008144Y-102592010D01*
X178031799Y-102525070D01*
X178087889Y-102481546D01*
X178158607Y-102475255D01*
X178222977Y-102509647D01*
X178287428Y-102573985D01*
X178298840Y-102582998D01*
X178431880Y-102665004D01*
X178445061Y-102671151D01*
X178593814Y-102720491D01*
X178607190Y-102723358D01*
X178698097Y-102732672D01*
X178704513Y-102733000D01*
X178727885Y-102733000D01*
X178743124Y-102728525D01*
X178744329Y-102727135D01*
X178746000Y-102719452D01*
X178746000Y-102047115D01*
X178741525Y-102031876D01*
X178740135Y-102030671D01*
X178732452Y-102029000D01*
X178066115Y-102029000D01*
X178050876Y-102033475D01*
X178049671Y-102034865D01*
X178048000Y-102042548D01*
X178048000Y-102128000D01*
X178027998Y-102196121D01*
X177974342Y-102242614D01*
X177922000Y-102254000D01*
X177272115Y-102254000D01*
X177256876Y-102258475D01*
X177255671Y-102259865D01*
X177254000Y-102267548D01*
X177254000Y-103039884D01*
X176746000Y-103039884D01*
X176746000Y-102272115D01*
X176741525Y-102256876D01*
X176740135Y-102255671D01*
X176732452Y-102254000D01*
X176010116Y-102254000D01*
X175994877Y-102258475D01*
X175993672Y-102259865D01*
X175992001Y-102267548D01*
X175992001Y-102594669D01*
X169683500Y-102594669D01*
X169683500Y-102335305D01*
X169703502Y-102267184D01*
X169720405Y-102246210D01*
X171863459Y-100103156D01*
X171869724Y-100097302D01*
X171876375Y-100091500D01*
X171911670Y-100060710D01*
X171947066Y-100010348D01*
X171950976Y-100005083D01*
X171952925Y-100002598D01*
X171988935Y-99956671D01*
X171992062Y-99949746D01*
X171994683Y-99945418D01*
X172000046Y-99936017D01*
X172002428Y-99931575D01*
X172006795Y-99925361D01*
X172029142Y-99868044D01*
X172031698Y-99861963D01*
X172053889Y-99812816D01*
X172057014Y-99805895D01*
X172058399Y-99798423D01*
X172059903Y-99793622D01*
X172062878Y-99783182D01*
X172064131Y-99778302D01*
X172066889Y-99771228D01*
X172067881Y-99763696D01*
X172068458Y-99761447D01*
X172104773Y-99700440D01*
X172168305Y-99668751D01*
X172238884Y-99676441D01*
X172294101Y-99721068D01*
X172316500Y-99792781D01*
X172316500Y-99971955D01*
X172316208Y-99980524D01*
X172314295Y-100008594D01*
X172312424Y-100036034D01*
X172313729Y-100043511D01*
X172313729Y-100043514D01*
X172323002Y-100096647D01*
X172323963Y-100103156D01*
X172331355Y-100164235D01*
X172334040Y-100171342D01*
X172335567Y-100177557D01*
X172331186Y-100251841D01*
X172298255Y-100339684D01*
X172291500Y-100401866D01*
X172291500Y-101598134D01*
X172298255Y-101660316D01*
X172349385Y-101796705D01*
X172436739Y-101913261D01*
X172553295Y-102000615D01*
X172689684Y-102051745D01*
X172751866Y-102058500D01*
X173848134Y-102058500D01*
X173910316Y-102051745D01*
X174046705Y-102000615D01*
X174074852Y-101979520D01*
X174141358Y-101954672D01*
X174210741Y-101969725D01*
X174225982Y-101979520D01*
X174246351Y-101994786D01*
X174261946Y-102003324D01*
X174382394Y-102048478D01*
X174397649Y-102052105D01*
X174448514Y-102057631D01*
X174455328Y-102058000D01*
X174727885Y-102058000D01*
X174743124Y-102053525D01*
X174744329Y-102052135D01*
X174746000Y-102044452D01*
X174746000Y-99960116D01*
X174741525Y-99944877D01*
X174740135Y-99943672D01*
X174732452Y-99942001D01*
X174455331Y-99942001D01*
X174448510Y-99942371D01*
X174397648Y-99947895D01*
X174382396Y-99951521D01*
X174261946Y-99996676D01*
X174246351Y-100005214D01*
X174225982Y-100020480D01*
X174159475Y-100045328D01*
X174090093Y-100030275D01*
X174074852Y-100020480D01*
X174073047Y-100019127D01*
X174046705Y-99999385D01*
X174003305Y-99983115D01*
X173917917Y-99951104D01*
X173862188Y-99909831D01*
X173855187Y-99900708D01*
X173851316Y-99895380D01*
X173816466Y-99844674D01*
X173771676Y-99804767D01*
X173766402Y-99799787D01*
X173720405Y-99753790D01*
X173686379Y-99691478D01*
X173683500Y-99664695D01*
X173683500Y-99353732D01*
X173703502Y-99285611D01*
X173708674Y-99278167D01*
X173745229Y-99229392D01*
X173745230Y-99229390D01*
X173750615Y-99222205D01*
X173801745Y-99085816D01*
X173802598Y-99077964D01*
X173802599Y-99077960D01*
X173802737Y-99076685D01*
X173803122Y-99075759D01*
X173804425Y-99070278D01*
X173805312Y-99070489D01*
X173829979Y-99011123D01*
X173888341Y-98970696D01*
X173959296Y-98968240D01*
X174020314Y-99004535D01*
X174052023Y-99068057D01*
X174054000Y-99090292D01*
X174054000Y-99465384D01*
X174058475Y-99480623D01*
X174059865Y-99481828D01*
X174067548Y-99483499D01*
X174144669Y-99483499D01*
X174151490Y-99483129D01*
X174202352Y-99477605D01*
X174217604Y-99473979D01*
X174338054Y-99428824D01*
X174353649Y-99420286D01*
X174455724Y-99343785D01*
X174468285Y-99331224D01*
X174544786Y-99229149D01*
X174553324Y-99213554D01*
X174598478Y-99093106D01*
X174602105Y-99077851D01*
X174607631Y-99026986D01*
X174608000Y-99020172D01*
X174608000Y-98510115D01*
X174603525Y-98494876D01*
X174602135Y-98493671D01*
X174594452Y-98492000D01*
X174072115Y-98492000D01*
X174056876Y-98496475D01*
X174047710Y-98507053D01*
X174023596Y-98551214D01*
X173961284Y-98585239D01*
X173890468Y-98580175D01*
X173833632Y-98537628D01*
X173808821Y-98471108D01*
X173808500Y-98462119D01*
X173808500Y-98110000D01*
X173828502Y-98041879D01*
X173882158Y-97995386D01*
X173934500Y-97984000D01*
X174589884Y-97984000D01*
X174605123Y-97979525D01*
X174606328Y-97978135D01*
X174607999Y-97970452D01*
X174607999Y-97734500D01*
X174628001Y-97666379D01*
X174681657Y-97619886D01*
X174733999Y-97608500D01*
X175027695Y-97608500D01*
X175095816Y-97628502D01*
X175116790Y-97645405D01*
X176279595Y-98808209D01*
X176313620Y-98870521D01*
X176316500Y-98897304D01*
X176316500Y-99191567D01*
X176296498Y-99259688D01*
X176254322Y-99299000D01*
X176253295Y-99299385D01*
X176136739Y-99386739D01*
X176049385Y-99503295D01*
X175998255Y-99639684D01*
X175991500Y-99701866D01*
X175991500Y-99931583D01*
X175971498Y-99999704D01*
X175917842Y-100046197D01*
X175847568Y-100056301D01*
X175789935Y-100032409D01*
X175753649Y-100005214D01*
X175738054Y-99996676D01*
X175617606Y-99951522D01*
X175602351Y-99947895D01*
X175551486Y-99942369D01*
X175544672Y-99942000D01*
X175272115Y-99942000D01*
X175256876Y-99946475D01*
X175255671Y-99947865D01*
X175254000Y-99955548D01*
X175254000Y-102039884D01*
X175258475Y-102055123D01*
X175259865Y-102056328D01*
X175267548Y-102057999D01*
X175544669Y-102057999D01*
X175551490Y-102057629D01*
X175602352Y-102052105D01*
X175617604Y-102048479D01*
X175738054Y-102003324D01*
X175753649Y-101994786D01*
X175855724Y-101918285D01*
X175868285Y-101905724D01*
X175950172Y-101796462D01*
X175953157Y-101798699D01*
X175991436Y-101760975D01*
X176051013Y-101746000D01*
X177958885Y-101746000D01*
X177974124Y-101741525D01*
X177975329Y-101740135D01*
X177977000Y-101732452D01*
X177977000Y-101647000D01*
X177997002Y-101578879D01*
X178050658Y-101532386D01*
X178103000Y-101521000D01*
X179964885Y-101521000D01*
X179980124Y-101516525D01*
X179981329Y-101515135D01*
X179983000Y-101507452D01*
X179983000Y-101504562D01*
X179982663Y-101498047D01*
X179973106Y-101405943D01*
X179970212Y-101392544D01*
X179920619Y-101243893D01*
X179914445Y-101230714D01*
X179832212Y-101097827D01*
X179818629Y-101080689D01*
X179820559Y-101079159D01*
X179792097Y-101027120D01*
X179797113Y-100956301D01*
X179820799Y-100919383D01*
X179819843Y-100918628D01*
X179824381Y-100912882D01*
X179829552Y-100907702D01*
X179838149Y-100893756D01*
X179893009Y-100804756D01*
X179945781Y-100757263D01*
X180015853Y-100745839D01*
X180029415Y-100748289D01*
X180032284Y-100748971D01*
X180039684Y-100751745D01*
X180101866Y-100758500D01*
X181098134Y-100758500D01*
X181160316Y-100751745D01*
X181296705Y-100700615D01*
X181413261Y-100613261D01*
X181500615Y-100496705D01*
X181551745Y-100360316D01*
X181558500Y-100298134D01*
X181558500Y-100008594D01*
X181578502Y-99940473D01*
X181632158Y-99893980D01*
X181702432Y-99883876D01*
X181767012Y-99913370D01*
X181773595Y-99919499D01*
X182029646Y-100175550D01*
X182063672Y-100237862D01*
X182058607Y-100308677D01*
X182029646Y-100353740D01*
X180193408Y-102189978D01*
X180131097Y-102224003D01*
X180060282Y-102218938D01*
X180003446Y-102176391D01*
X179978635Y-102109871D01*
X179978970Y-102088040D01*
X179982672Y-102051904D01*
X179982929Y-102046874D01*
X179978525Y-102031876D01*
X179977135Y-102030671D01*
X179969452Y-102029000D01*
X179272115Y-102029000D01*
X179256876Y-102033475D01*
X179255671Y-102034865D01*
X179254000Y-102042548D01*
X179254000Y-102714885D01*
X179258475Y-102730124D01*
X179259865Y-102731329D01*
X179267548Y-102733000D01*
X179295438Y-102733000D01*
X179301950Y-102732663D01*
X179337933Y-102728929D01*
X179407755Y-102741793D01*
X179459538Y-102790363D01*
X179476841Y-102859219D01*
X179454172Y-102926499D01*
X179440034Y-102943351D01*
X178913790Y-103469595D01*
X178851478Y-103503621D01*
X178824695Y-103506500D01*
X177783054Y-103506500D01*
X177714933Y-103486498D01*
X177706350Y-103480462D01*
X177686440Y-103465184D01*
X177686438Y-103465183D01*
X177679887Y-103460156D01*
X177538248Y-103401487D01*
X177530060Y-103400409D01*
X177428498Y-103387038D01*
X177428497Y-103387038D01*
X177424411Y-103386500D01*
X176475116Y-103386500D01*
X175525590Y-103386501D01*
X175521505Y-103387039D01*
X175521501Y-103387039D01*
X175419939Y-103400409D01*
X175419937Y-103400409D01*
X175411752Y-103401487D01*
X175270113Y-103460156D01*
X175148485Y-103553485D01*
X175055156Y-103675113D01*
X174996487Y-103816752D01*
X174995409Y-103824939D01*
X174995409Y-103824940D01*
X174986918Y-103889439D01*
X174981500Y-103930589D01*
X174981501Y-104449410D01*
X174996487Y-104563248D01*
X175055156Y-104704887D01*
X175084538Y-104743178D01*
X175088465Y-104748296D01*
X175114066Y-104814516D01*
X175099801Y-104884065D01*
X175088465Y-104901703D01*
X175055156Y-104945113D01*
X174996487Y-105086752D01*
X174981500Y-105200589D01*
X174981501Y-105719410D01*
X174982039Y-105723495D01*
X174982039Y-105723499D01*
X174995409Y-105825060D01*
X174996487Y-105833248D01*
X175055156Y-105974887D01*
X175082851Y-106010980D01*
X175088465Y-106018296D01*
X175114066Y-106084516D01*
X175099801Y-106154065D01*
X175088465Y-106171703D01*
X175055156Y-106215113D01*
X174996487Y-106356752D01*
X174995409Y-106364940D01*
X174982654Y-106461827D01*
X174981500Y-106470589D01*
X174981501Y-106989410D01*
X174982039Y-106993495D01*
X174982039Y-106993499D01*
X174995409Y-107095061D01*
X174996487Y-107103248D01*
X175055156Y-107244887D01*
X175084538Y-107283178D01*
X175088465Y-107288296D01*
X175114066Y-107354516D01*
X175099801Y-107424065D01*
X175088465Y-107441703D01*
X175055156Y-107485113D01*
X174996487Y-107626752D01*
X174995409Y-107634940D01*
X174982654Y-107731827D01*
X174981500Y-107740589D01*
X174981501Y-108259410D01*
X174982039Y-108263495D01*
X174982039Y-108263499D01*
X174995409Y-108365061D01*
X174996487Y-108373248D01*
X175055156Y-108514887D01*
X175083328Y-108551601D01*
X175088465Y-108558296D01*
X175114066Y-108624516D01*
X175099801Y-108694065D01*
X175088465Y-108711703D01*
X175055156Y-108755113D01*
X174996487Y-108896752D01*
X174995409Y-108904939D01*
X174995409Y-108904940D01*
X174987108Y-108967996D01*
X174981500Y-109010589D01*
X174981501Y-109529410D01*
X174982039Y-109533495D01*
X174982039Y-109533499D01*
X174989591Y-109590863D01*
X174996487Y-109643248D01*
X175055156Y-109784887D01*
X175088465Y-109828296D01*
X175114066Y-109894516D01*
X175099801Y-109964065D01*
X175088465Y-109981703D01*
X175055156Y-110025113D01*
X174996487Y-110166752D01*
X174995409Y-110174939D01*
X174995409Y-110174940D01*
X174982654Y-110271827D01*
X174981500Y-110280589D01*
X174981501Y-110799410D01*
X174982039Y-110803495D01*
X174982039Y-110803499D01*
X174995409Y-110905060D01*
X174996487Y-110913248D01*
X175055156Y-111054887D01*
X175088464Y-111098295D01*
X175088465Y-111098296D01*
X175114066Y-111164516D01*
X175099801Y-111234065D01*
X175088465Y-111251703D01*
X175055156Y-111295113D01*
X174996487Y-111436752D01*
X174995409Y-111444939D01*
X174995409Y-111444940D01*
X174982654Y-111541827D01*
X174981500Y-111550589D01*
X174981501Y-112069410D01*
X174982039Y-112073495D01*
X174982039Y-112073499D01*
X174995409Y-112175060D01*
X174996487Y-112183248D01*
X175055156Y-112324887D01*
X175148485Y-112446515D01*
X175270113Y-112539844D01*
X175411752Y-112598513D01*
X175419940Y-112599591D01*
X175521502Y-112612962D01*
X175521503Y-112612962D01*
X175525589Y-112613500D01*
X176474884Y-112613500D01*
X177424410Y-112613499D01*
X177428495Y-112612961D01*
X177428499Y-112612961D01*
X177530061Y-112599591D01*
X177530063Y-112599591D01*
X177538248Y-112598513D01*
X177679887Y-112539844D01*
X177801515Y-112446515D01*
X177894844Y-112324887D01*
X177953513Y-112183248D01*
X177960011Y-112133891D01*
X177967962Y-112073498D01*
X177967962Y-112073497D01*
X177968500Y-112069411D01*
X177968499Y-111550590D01*
X177967346Y-111541827D01*
X177954591Y-111444939D01*
X177954591Y-111444937D01*
X177953513Y-111436752D01*
X177894844Y-111295113D01*
X177861535Y-111251704D01*
X177842989Y-111203733D01*
X196417700Y-111203733D01*
X196424034Y-111214824D01*
X198837188Y-113627978D01*
X198851132Y-113635592D01*
X198852965Y-113635461D01*
X198859580Y-113631210D01*
X201275100Y-111215690D01*
X201282241Y-111202614D01*
X201274784Y-111192247D01*
X201035065Y-110998126D01*
X201029728Y-110994249D01*
X200709315Y-110786170D01*
X200703606Y-110782873D01*
X200363189Y-110609422D01*
X200357164Y-110606740D01*
X200000498Y-110469829D01*
X199994216Y-110467788D01*
X199625184Y-110368906D01*
X199618734Y-110367535D01*
X199241371Y-110307766D01*
X199234833Y-110307080D01*
X198853301Y-110287084D01*
X198846699Y-110287084D01*
X198465167Y-110307080D01*
X198458629Y-110307766D01*
X198081266Y-110367535D01*
X198074816Y-110368906D01*
X197705784Y-110467788D01*
X197699502Y-110469829D01*
X197342836Y-110606740D01*
X197336811Y-110609422D01*
X196996397Y-110782872D01*
X196990687Y-110786169D01*
X196670265Y-110994253D01*
X196664939Y-110998123D01*
X196426165Y-111191478D01*
X196417700Y-111203733D01*
X177842989Y-111203733D01*
X177835934Y-111185484D01*
X177850199Y-111115935D01*
X177861535Y-111098296D01*
X177861536Y-111098295D01*
X177894844Y-111054887D01*
X177953513Y-110913248D01*
X177956564Y-110890071D01*
X177967962Y-110803498D01*
X177967962Y-110803497D01*
X177968500Y-110799411D01*
X177968499Y-110280590D01*
X177967346Y-110271827D01*
X177954591Y-110174939D01*
X177954591Y-110174937D01*
X177953513Y-110166752D01*
X177894844Y-110025113D01*
X177861535Y-109981704D01*
X177835934Y-109915484D01*
X177850199Y-109845935D01*
X177861535Y-109828296D01*
X177894844Y-109784887D01*
X177953513Y-109643248D01*
X177968500Y-109529411D01*
X177968499Y-109010590D01*
X177953513Y-108896752D01*
X177948736Y-108885220D01*
X177937345Y-108857717D01*
X177929756Y-108787127D01*
X177961536Y-108723641D01*
X178022594Y-108687414D01*
X178053754Y-108683500D01*
X191971955Y-108683500D01*
X191980524Y-108683792D01*
X192028458Y-108687060D01*
X192028462Y-108687060D01*
X192036034Y-108687576D01*
X192043511Y-108686271D01*
X192043514Y-108686271D01*
X192096647Y-108676998D01*
X192103171Y-108676035D01*
X192156691Y-108669558D01*
X192164235Y-108668645D01*
X192171345Y-108665958D01*
X192176248Y-108664754D01*
X192186734Y-108661886D01*
X192191526Y-108660439D01*
X192199004Y-108659134D01*
X192209798Y-108654396D01*
X192255341Y-108634405D01*
X192261446Y-108631914D01*
X192311882Y-108612855D01*
X192311885Y-108612853D01*
X192318989Y-108610169D01*
X192325246Y-108605869D01*
X192329714Y-108603533D01*
X192339160Y-108598275D01*
X192343526Y-108595693D01*
X192350485Y-108592638D01*
X192399304Y-108555177D01*
X192404623Y-108551314D01*
X192449065Y-108520769D01*
X192455326Y-108516466D01*
X192495233Y-108471676D01*
X192500213Y-108466402D01*
X193246210Y-107720405D01*
X193308522Y-107686379D01*
X193335305Y-107683500D01*
X196887440Y-107683500D01*
X196955561Y-107703502D01*
X197002054Y-107757158D01*
X197006964Y-107769623D01*
X197058450Y-107923946D01*
X197151522Y-108074348D01*
X197276697Y-108199305D01*
X197427262Y-108292115D01*
X197507005Y-108318564D01*
X197588611Y-108345632D01*
X197588613Y-108345632D01*
X197595139Y-108347797D01*
X197601975Y-108348497D01*
X197601978Y-108348498D01*
X197645031Y-108352909D01*
X197699600Y-108358500D01*
X199244329Y-108358500D01*
X199312450Y-108378502D01*
X199358943Y-108432158D01*
X199369025Y-108502580D01*
X199366291Y-108521440D01*
X199362787Y-108545604D01*
X199372567Y-108756899D01*
X199373971Y-108762724D01*
X199373971Y-108762725D01*
X199408245Y-108904939D01*
X199422125Y-108962534D01*
X199424607Y-108967992D01*
X199424608Y-108967996D01*
X199468053Y-109063546D01*
X199509674Y-109155087D01*
X199603331Y-109287120D01*
X199614276Y-109302548D01*
X199632054Y-109327611D01*
X199784850Y-109473881D01*
X199962548Y-109588620D01*
X199968114Y-109590863D01*
X200153168Y-109665442D01*
X200153171Y-109665443D01*
X200158737Y-109667686D01*
X200366337Y-109708228D01*
X200371899Y-109708500D01*
X200527846Y-109708500D01*
X200685566Y-109693452D01*
X200888534Y-109633908D01*
X200972111Y-109590863D01*
X201071249Y-109539804D01*
X201071252Y-109539802D01*
X201076580Y-109537058D01*
X201242920Y-109406396D01*
X201246852Y-109401865D01*
X201246855Y-109401862D01*
X201377621Y-109251167D01*
X201381552Y-109246637D01*
X201384552Y-109241451D01*
X201384555Y-109241447D01*
X201484467Y-109068742D01*
X201487473Y-109063546D01*
X201556861Y-108863729D01*
X201568856Y-108781000D01*
X201586352Y-108660336D01*
X201586352Y-108660333D01*
X201587213Y-108654396D01*
X201577433Y-108443101D01*
X201540120Y-108288275D01*
X201529281Y-108243299D01*
X201529280Y-108243297D01*
X201527875Y-108237466D01*
X201440326Y-108044913D01*
X201317946Y-107872389D01*
X201165150Y-107726119D01*
X200987452Y-107611380D01*
X200927354Y-107587160D01*
X200796832Y-107534558D01*
X200796829Y-107534557D01*
X200791263Y-107532314D01*
X200583663Y-107491772D01*
X200578101Y-107491500D01*
X200422154Y-107491500D01*
X200264434Y-107506548D01*
X200258678Y-107508237D01*
X200258676Y-107508237D01*
X200119969Y-107548929D01*
X200048973Y-107548912D01*
X199989256Y-107510514D01*
X199959778Y-107445926D01*
X199958500Y-107428024D01*
X199958500Y-106349600D01*
X199957594Y-106340866D01*
X199948238Y-106250692D01*
X199948237Y-106250688D01*
X199947526Y-106243834D01*
X199942967Y-106230167D01*
X199896317Y-106090341D01*
X199891550Y-106076054D01*
X199798478Y-105925652D01*
X199673303Y-105800695D01*
X199527220Y-105710647D01*
X199479727Y-105657876D01*
X199468303Y-105587804D01*
X199496577Y-105522680D01*
X199506364Y-105512218D01*
X199616906Y-105406766D01*
X199623941Y-105398814D01*
X199755141Y-105222475D01*
X199760745Y-105213438D01*
X199860357Y-105017516D01*
X199864357Y-105007665D01*
X199929534Y-104797760D01*
X199931817Y-104787376D01*
X199933861Y-104771957D01*
X199931665Y-104757793D01*
X199918478Y-104754000D01*
X197033808Y-104754000D01*
X197020277Y-104757973D01*
X197018752Y-104768580D01*
X197043477Y-104886421D01*
X197046537Y-104896617D01*
X197127263Y-105101029D01*
X197131994Y-105110561D01*
X197246016Y-105298462D01*
X197252280Y-105307052D01*
X197396327Y-105473052D01*
X197403956Y-105480470D01*
X197435569Y-105506391D01*
X197475564Y-105565051D01*
X197477496Y-105636021D01*
X197440752Y-105696770D01*
X197421983Y-105710969D01*
X197275652Y-105801522D01*
X197150695Y-105926697D01*
X197146855Y-105932927D01*
X197146854Y-105932928D01*
X197068500Y-106060042D01*
X197057885Y-106077262D01*
X197014336Y-106208560D01*
X197007169Y-106230167D01*
X196966739Y-106288527D01*
X196901174Y-106315764D01*
X196887576Y-106316500D01*
X193028056Y-106316500D01*
X193019486Y-106316208D01*
X193018443Y-106316137D01*
X192963966Y-106312423D01*
X192956489Y-106313728D01*
X192956486Y-106313728D01*
X192903342Y-106323003D01*
X192896819Y-106323966D01*
X192843308Y-106330442D01*
X192843307Y-106330442D01*
X192835765Y-106331355D01*
X192828655Y-106334041D01*
X192823752Y-106335246D01*
X192813300Y-106338105D01*
X192808484Y-106339559D01*
X192800996Y-106340866D01*
X192744627Y-106365610D01*
X192738588Y-106368075D01*
X192681011Y-106389831D01*
X192674748Y-106394136D01*
X192670258Y-106396483D01*
X192660807Y-106401743D01*
X192656466Y-106404310D01*
X192649515Y-106407361D01*
X192643495Y-106411980D01*
X192643487Y-106411985D01*
X192600698Y-106444819D01*
X192595384Y-106448681D01*
X192544674Y-106483534D01*
X192539624Y-106489202D01*
X192504768Y-106528323D01*
X192499787Y-106533598D01*
X191753790Y-107279595D01*
X191691478Y-107313621D01*
X191664695Y-107316500D01*
X189954305Y-107316500D01*
X189886184Y-107296498D01*
X189839691Y-107242842D01*
X189829587Y-107172568D01*
X189859081Y-107107988D01*
X189865210Y-107101405D01*
X194246210Y-102720405D01*
X194308522Y-102686379D01*
X194335305Y-102683500D01*
X197104745Y-102683500D01*
X197172866Y-102703502D01*
X197212464Y-102744135D01*
X197245606Y-102798752D01*
X197245611Y-102798759D01*
X197248377Y-102803317D01*
X197251874Y-102807347D01*
X197338438Y-102907103D01*
X197399477Y-102977445D01*
X197403608Y-102980832D01*
X197573627Y-103120240D01*
X197573633Y-103120244D01*
X197577755Y-103123624D01*
X197582398Y-103126267D01*
X197609735Y-103141829D01*
X197659041Y-103192912D01*
X197672902Y-103262542D01*
X197646918Y-103328613D01*
X197617768Y-103355851D01*
X197500422Y-103434852D01*
X197492130Y-103441519D01*
X197333100Y-103593228D01*
X197326059Y-103601186D01*
X197194859Y-103777525D01*
X197189255Y-103786562D01*
X197089643Y-103982484D01*
X197085643Y-103992335D01*
X197020466Y-104202240D01*
X197018183Y-104212624D01*
X197016139Y-104228043D01*
X197018335Y-104242207D01*
X197031522Y-104246000D01*
X199916192Y-104246000D01*
X199929723Y-104242027D01*
X199931248Y-104231420D01*
X199906523Y-104113579D01*
X199903463Y-104103383D01*
X199822737Y-103898971D01*
X199818006Y-103889439D01*
X199703984Y-103701538D01*
X199697720Y-103692948D01*
X199553673Y-103526948D01*
X199546042Y-103519528D01*
X199376089Y-103380174D01*
X199367326Y-103374152D01*
X199340289Y-103358762D01*
X199290982Y-103307680D01*
X199277120Y-103238049D01*
X199303103Y-103171978D01*
X199332253Y-103144739D01*
X199410199Y-103092262D01*
X199454319Y-103062559D01*
X199478089Y-103039884D01*
X199596946Y-102926499D01*
X199621135Y-102903424D01*
X199758754Y-102718458D01*
X199784609Y-102667606D01*
X199810997Y-102615703D01*
X199863240Y-102512949D01*
X199864882Y-102507663D01*
X199930024Y-102297871D01*
X199931607Y-102292773D01*
X199934950Y-102267548D01*
X199961198Y-102069511D01*
X199961198Y-102069506D01*
X199961898Y-102064226D01*
X199961651Y-102057631D01*
X199956448Y-101919057D01*
X199953249Y-101833842D01*
X199905907Y-101608209D01*
X199879701Y-101541852D01*
X199823185Y-101398744D01*
X199823184Y-101398742D01*
X199821224Y-101393779D01*
X199817199Y-101387145D01*
X199704390Y-101201243D01*
X199701623Y-101196683D01*
X199676338Y-101167544D01*
X199554023Y-101026588D01*
X199554021Y-101026586D01*
X199550523Y-101022555D01*
X199474617Y-100960316D01*
X199376373Y-100879760D01*
X199376367Y-100879756D01*
X199372245Y-100876376D01*
X199367609Y-100873737D01*
X199367606Y-100873735D01*
X199176529Y-100764968D01*
X199171886Y-100762325D01*
X198955175Y-100683663D01*
X198949926Y-100682714D01*
X198949923Y-100682713D01*
X198732392Y-100643377D01*
X198732385Y-100643376D01*
X198728308Y-100642639D01*
X198710586Y-100641803D01*
X198705644Y-100641570D01*
X198705637Y-100641570D01*
X198704156Y-100641500D01*
X198292110Y-100641500D01*
X198225191Y-100647178D01*
X198125591Y-100655629D01*
X198125587Y-100655630D01*
X198120280Y-100656080D01*
X198115125Y-100657418D01*
X198115119Y-100657419D01*
X197902297Y-100712657D01*
X197902293Y-100712658D01*
X197897128Y-100713999D01*
X197892262Y-100716191D01*
X197892259Y-100716192D01*
X197745371Y-100782360D01*
X197686925Y-100808688D01*
X197495681Y-100937441D01*
X197491824Y-100941120D01*
X197491822Y-100941122D01*
X197471702Y-100960316D01*
X197328865Y-101096576D01*
X197325682Y-101100854D01*
X197203023Y-101265713D01*
X197146313Y-101308426D01*
X197101934Y-101316500D01*
X194028045Y-101316500D01*
X194019476Y-101316208D01*
X193971542Y-101312940D01*
X193971538Y-101312940D01*
X193963966Y-101312424D01*
X193956489Y-101313729D01*
X193956486Y-101313729D01*
X193903353Y-101323002D01*
X193896829Y-101323965D01*
X193843309Y-101330442D01*
X193835765Y-101331355D01*
X193828655Y-101334042D01*
X193823752Y-101335246D01*
X193813266Y-101338114D01*
X193808474Y-101339561D01*
X193800996Y-101340866D01*
X193794044Y-101343918D01*
X193794043Y-101343918D01*
X193744659Y-101365595D01*
X193738554Y-101368086D01*
X193688118Y-101387145D01*
X193688115Y-101387147D01*
X193681011Y-101389831D01*
X193674754Y-101394131D01*
X193670286Y-101396467D01*
X193660840Y-101401725D01*
X193656474Y-101404307D01*
X193649515Y-101407362D01*
X193600696Y-101444823D01*
X193595377Y-101448686D01*
X193556679Y-101475283D01*
X193544674Y-101483534D01*
X193539623Y-101489203D01*
X193504768Y-101528323D01*
X193499787Y-101533598D01*
X189023790Y-106009595D01*
X188961478Y-106043621D01*
X188934695Y-106046500D01*
X178053754Y-106046500D01*
X177985633Y-106026498D01*
X177939140Y-105972842D01*
X177929036Y-105902568D01*
X177937345Y-105872283D01*
X177950352Y-105840881D01*
X177950353Y-105840876D01*
X177953513Y-105833248D01*
X177968500Y-105719411D01*
X177968499Y-105200590D01*
X177960986Y-105143514D01*
X177954591Y-105094939D01*
X177954591Y-105094937D01*
X177953513Y-105086752D01*
X177947384Y-105071955D01*
X177937345Y-105047717D01*
X177929756Y-104977127D01*
X177961536Y-104913641D01*
X178022594Y-104877414D01*
X178053754Y-104873500D01*
X179131955Y-104873500D01*
X179140524Y-104873792D01*
X179188458Y-104877060D01*
X179188462Y-104877060D01*
X179196034Y-104877576D01*
X179203511Y-104876271D01*
X179203514Y-104876271D01*
X179256647Y-104866998D01*
X179263171Y-104866035D01*
X179316691Y-104859558D01*
X179324235Y-104858645D01*
X179331345Y-104855958D01*
X179336248Y-104854754D01*
X179346734Y-104851886D01*
X179351526Y-104850439D01*
X179359004Y-104849134D01*
X179365957Y-104846082D01*
X179415341Y-104824405D01*
X179421446Y-104821914D01*
X179471882Y-104802855D01*
X179471885Y-104802853D01*
X179478989Y-104800169D01*
X179485246Y-104795869D01*
X179489714Y-104793533D01*
X179499160Y-104788275D01*
X179503526Y-104785693D01*
X179510485Y-104782638D01*
X179559304Y-104745177D01*
X179564623Y-104741314D01*
X179609065Y-104710769D01*
X179615326Y-104706466D01*
X179655233Y-104661676D01*
X179660213Y-104656402D01*
X182496177Y-101820438D01*
X184017000Y-101820438D01*
X184017337Y-101826953D01*
X184026894Y-101919057D01*
X184029788Y-101932456D01*
X184079381Y-102081107D01*
X184085555Y-102094286D01*
X184167788Y-102227173D01*
X184176824Y-102238574D01*
X184287429Y-102348986D01*
X184298840Y-102357998D01*
X184431880Y-102440004D01*
X184445061Y-102446151D01*
X184593814Y-102495491D01*
X184607190Y-102498358D01*
X184698097Y-102507672D01*
X184704513Y-102508000D01*
X184727885Y-102508000D01*
X184743124Y-102503525D01*
X184744329Y-102502135D01*
X184746000Y-102494452D01*
X184746000Y-102489885D01*
X185254000Y-102489885D01*
X185258475Y-102505124D01*
X185259865Y-102506329D01*
X185267548Y-102508000D01*
X185295438Y-102508000D01*
X185301953Y-102507663D01*
X185394057Y-102498106D01*
X185407456Y-102495212D01*
X185556107Y-102445619D01*
X185569286Y-102439445D01*
X185702173Y-102357212D01*
X185713574Y-102348176D01*
X185823986Y-102237571D01*
X185832998Y-102226160D01*
X185915004Y-102093120D01*
X185921151Y-102079939D01*
X185970491Y-101931186D01*
X185973358Y-101917810D01*
X185982672Y-101826903D01*
X185982929Y-101821874D01*
X185978525Y-101806876D01*
X185977135Y-101805671D01*
X185969452Y-101804000D01*
X185272115Y-101804000D01*
X185256876Y-101808475D01*
X185255671Y-101809865D01*
X185254000Y-101817548D01*
X185254000Y-102489885D01*
X184746000Y-102489885D01*
X184746000Y-101822115D01*
X184741525Y-101806876D01*
X184740135Y-101805671D01*
X184732452Y-101804000D01*
X184035115Y-101804000D01*
X184019876Y-101808475D01*
X184018671Y-101809865D01*
X184017000Y-101817548D01*
X184017000Y-101820438D01*
X182496177Y-101820438D01*
X183521210Y-100795405D01*
X183583522Y-100761379D01*
X183610305Y-100758500D01*
X183898134Y-100758500D01*
X183960316Y-100751745D01*
X183967712Y-100748973D01*
X183967718Y-100748971D01*
X183982396Y-100743468D01*
X184053203Y-100738285D01*
X184115572Y-100772206D01*
X184149701Y-100834462D01*
X184144754Y-100905286D01*
X184133885Y-100927566D01*
X184084996Y-101006880D01*
X184078849Y-101020061D01*
X184029509Y-101168814D01*
X184026642Y-101182190D01*
X184017328Y-101273097D01*
X184017071Y-101278126D01*
X184021475Y-101293124D01*
X184022865Y-101294329D01*
X184030548Y-101296000D01*
X185964885Y-101296000D01*
X185980124Y-101291525D01*
X185981329Y-101290135D01*
X185983000Y-101282452D01*
X185983000Y-101279562D01*
X185982663Y-101273047D01*
X185973106Y-101180943D01*
X185970212Y-101167544D01*
X185920619Y-101018893D01*
X185914445Y-101005714D01*
X185832212Y-100872827D01*
X185818629Y-100855689D01*
X185820559Y-100854159D01*
X185792097Y-100802120D01*
X185797113Y-100731301D01*
X185820799Y-100694383D01*
X185819843Y-100693628D01*
X185824381Y-100687882D01*
X185829552Y-100682702D01*
X185846240Y-100655629D01*
X185915462Y-100543331D01*
X185915463Y-100543329D01*
X185919302Y-100537101D01*
X185973149Y-100374757D01*
X185975303Y-100353740D01*
X185979536Y-100312423D01*
X185983500Y-100273732D01*
X185983500Y-100035305D01*
X186003502Y-99967184D01*
X186020405Y-99946210D01*
X190246210Y-95720405D01*
X190308522Y-95686379D01*
X190335305Y-95683500D01*
X197237440Y-95683500D01*
X197305561Y-95703502D01*
X197352054Y-95757158D01*
X197356964Y-95769623D01*
X197408450Y-95923946D01*
X197501522Y-96074348D01*
X197626697Y-96199305D01*
X197632927Y-96203145D01*
X197632928Y-96203146D01*
X197770090Y-96287694D01*
X197777262Y-96292115D01*
X197857005Y-96318564D01*
X197938611Y-96345632D01*
X197938613Y-96345632D01*
X197945139Y-96347797D01*
X197951975Y-96348497D01*
X197951978Y-96348498D01*
X198046406Y-96358173D01*
X198046411Y-96358173D01*
X198049600Y-96358500D01*
X198049537Y-96359114D01*
X198113934Y-96381646D01*
X198157632Y-96437602D01*
X198166500Y-96484035D01*
X198166500Y-96814695D01*
X198146498Y-96882816D01*
X198129595Y-96903790D01*
X196753790Y-98279595D01*
X196691478Y-98313621D01*
X196664695Y-98316500D01*
X195958433Y-98316500D01*
X195890312Y-98296498D01*
X195851000Y-98254322D01*
X195850615Y-98253295D01*
X195763261Y-98136739D01*
X195646705Y-98049385D01*
X195510316Y-97998255D01*
X195448134Y-97991500D01*
X194251866Y-97991500D01*
X194189684Y-97998255D01*
X194167952Y-98006402D01*
X194061699Y-98046234D01*
X194061696Y-98046236D01*
X194053295Y-98049385D01*
X194052976Y-98048534D01*
X193991151Y-98062055D01*
X193946834Y-98049042D01*
X193946705Y-98049385D01*
X193942019Y-98047628D01*
X193942015Y-98047627D01*
X193938304Y-98046236D01*
X193938301Y-98046234D01*
X193832048Y-98006402D01*
X193810316Y-97998255D01*
X193748134Y-97991500D01*
X192551866Y-97991500D01*
X192489684Y-97998255D01*
X192353295Y-98049385D01*
X192236739Y-98136739D01*
X192149385Y-98253295D01*
X192098255Y-98389684D01*
X192091500Y-98451866D01*
X192091500Y-99548134D01*
X192098255Y-99610316D01*
X192149385Y-99746705D01*
X192236739Y-99863261D01*
X192353295Y-99950615D01*
X192489684Y-100001745D01*
X192551866Y-100008500D01*
X193748134Y-100008500D01*
X193810316Y-100001745D01*
X193866923Y-99980524D01*
X193938301Y-99953766D01*
X193938304Y-99953764D01*
X193946705Y-99950615D01*
X193947024Y-99951466D01*
X194008849Y-99937945D01*
X194053166Y-99950958D01*
X194053295Y-99950615D01*
X194057981Y-99952372D01*
X194057985Y-99952373D01*
X194061696Y-99953764D01*
X194061699Y-99953766D01*
X194133077Y-99980524D01*
X194189684Y-100001745D01*
X194251866Y-100008500D01*
X195448134Y-100008500D01*
X195510316Y-100001745D01*
X195646705Y-99950615D01*
X195763261Y-99863261D01*
X195850615Y-99746705D01*
X195850861Y-99746049D01*
X195898175Y-99698843D01*
X195958433Y-99683500D01*
X196971955Y-99683500D01*
X196980524Y-99683792D01*
X197028458Y-99687060D01*
X197028462Y-99687060D01*
X197036034Y-99687576D01*
X197043511Y-99686271D01*
X197043514Y-99686271D01*
X197096647Y-99676998D01*
X197103171Y-99676035D01*
X197156691Y-99669558D01*
X197164235Y-99668645D01*
X197171345Y-99665958D01*
X197176248Y-99664754D01*
X197186734Y-99661886D01*
X197191526Y-99660439D01*
X197199004Y-99659134D01*
X197205957Y-99656082D01*
X197255341Y-99634405D01*
X197261446Y-99631914D01*
X197311882Y-99612855D01*
X197311885Y-99612853D01*
X197318989Y-99610169D01*
X197325246Y-99605869D01*
X197329714Y-99603533D01*
X197339160Y-99598275D01*
X197343526Y-99595693D01*
X197350485Y-99592638D01*
X197399304Y-99555177D01*
X197404623Y-99551314D01*
X197449065Y-99520769D01*
X197455326Y-99516466D01*
X197495233Y-99471676D01*
X197500213Y-99466402D01*
X199313459Y-97653156D01*
X199319724Y-97647302D01*
X199351151Y-97619886D01*
X199361670Y-97610710D01*
X199397066Y-97560345D01*
X199400980Y-97555077D01*
X199411687Y-97541422D01*
X199438935Y-97506672D01*
X199442061Y-97499748D01*
X199444671Y-97495439D01*
X199450042Y-97486024D01*
X199452427Y-97481576D01*
X199456795Y-97475361D01*
X199479144Y-97418039D01*
X199481698Y-97411962D01*
X199486978Y-97400270D01*
X199507014Y-97355895D01*
X199508400Y-97348418D01*
X199509910Y-97343598D01*
X199512882Y-97333165D01*
X199514130Y-97328304D01*
X199516889Y-97321228D01*
X199524918Y-97260238D01*
X199525950Y-97253722D01*
X199535777Y-97200700D01*
X199537161Y-97193233D01*
X199533709Y-97133358D01*
X199533500Y-97126106D01*
X199533500Y-96484029D01*
X199553502Y-96415908D01*
X199607158Y-96369415D01*
X199650433Y-96358823D01*
X199650400Y-96358500D01*
X199652745Y-96358257D01*
X199652747Y-96358256D01*
X199653646Y-96358163D01*
X199653650Y-96358163D01*
X199749308Y-96348238D01*
X199749312Y-96348237D01*
X199756166Y-96347526D01*
X199762702Y-96345345D01*
X199762704Y-96345345D01*
X199894806Y-96301272D01*
X199923946Y-96291550D01*
X200074348Y-96198478D01*
X200199305Y-96073303D01*
X200234577Y-96016081D01*
X200288275Y-95928968D01*
X200288276Y-95928966D01*
X200292115Y-95922738D01*
X200333446Y-95798129D01*
X200345632Y-95761389D01*
X200345632Y-95761387D01*
X200347797Y-95754861D01*
X200358500Y-95650400D01*
X200358500Y-94349600D01*
X200358163Y-94346350D01*
X200348238Y-94250692D01*
X200348237Y-94250688D01*
X200347526Y-94243834D01*
X200342967Y-94230167D01*
X200293868Y-94083002D01*
X200291550Y-94076054D01*
X200198478Y-93925652D01*
X200073303Y-93800695D01*
X200049524Y-93786037D01*
X199982180Y-93744526D01*
X199927220Y-93710647D01*
X199879727Y-93657876D01*
X199868303Y-93587804D01*
X199896577Y-93522680D01*
X199906364Y-93512218D01*
X200016906Y-93406766D01*
X200023941Y-93398814D01*
X200155141Y-93222475D01*
X200160745Y-93213438D01*
X200260357Y-93017516D01*
X200264357Y-93007665D01*
X200329534Y-92797760D01*
X200331817Y-92787376D01*
X200333861Y-92771957D01*
X200331665Y-92757793D01*
X200318478Y-92754000D01*
X197383808Y-92754000D01*
X197370277Y-92757973D01*
X197368752Y-92768580D01*
X197393477Y-92886421D01*
X197396537Y-92896617D01*
X197477263Y-93101029D01*
X197481994Y-93110561D01*
X197596016Y-93298462D01*
X197602280Y-93307052D01*
X197746327Y-93473052D01*
X197753956Y-93480470D01*
X197785569Y-93506391D01*
X197825564Y-93565051D01*
X197827496Y-93636021D01*
X197790752Y-93696770D01*
X197771983Y-93710969D01*
X197625652Y-93801522D01*
X197500695Y-93926697D01*
X197496855Y-93932927D01*
X197496854Y-93932928D01*
X197418505Y-94060034D01*
X197407885Y-94077262D01*
X197397365Y-94108979D01*
X197357169Y-94230167D01*
X197316739Y-94288527D01*
X197251174Y-94315764D01*
X197237576Y-94316500D01*
X190028056Y-94316500D01*
X190019486Y-94316208D01*
X190018443Y-94316137D01*
X189963966Y-94312423D01*
X189956489Y-94313728D01*
X189956486Y-94313728D01*
X189903342Y-94323003D01*
X189896819Y-94323966D01*
X189843308Y-94330442D01*
X189843307Y-94330442D01*
X189835765Y-94331355D01*
X189828655Y-94334041D01*
X189823752Y-94335246D01*
X189813266Y-94338114D01*
X189808474Y-94339561D01*
X189800996Y-94340866D01*
X189794044Y-94343918D01*
X189794043Y-94343918D01*
X189744659Y-94365595D01*
X189738554Y-94368086D01*
X189688118Y-94387145D01*
X189688115Y-94387147D01*
X189681011Y-94389831D01*
X189674754Y-94394131D01*
X189670286Y-94396467D01*
X189660840Y-94401725D01*
X189656474Y-94404307D01*
X189649515Y-94407362D01*
X189600696Y-94444823D01*
X189595377Y-94448686D01*
X189568309Y-94467290D01*
X189544674Y-94483534D01*
X189539623Y-94489203D01*
X189504768Y-94528323D01*
X189499787Y-94533598D01*
X185028790Y-99004595D01*
X184966478Y-99038621D01*
X184939695Y-99041500D01*
X184701268Y-99041500D01*
X184698022Y-99041837D01*
X184698018Y-99041837D01*
X184679563Y-99043752D01*
X184598981Y-99052113D01*
X184592440Y-99054295D01*
X184592441Y-99054295D01*
X184443676Y-99103927D01*
X184443674Y-99103928D01*
X184436732Y-99106244D01*
X184430508Y-99110096D01*
X184430507Y-99110096D01*
X184301531Y-99189909D01*
X184291287Y-99196248D01*
X184283466Y-99204083D01*
X184281210Y-99205317D01*
X184280380Y-99205975D01*
X184280267Y-99205833D01*
X184221187Y-99238162D01*
X184150367Y-99233160D01*
X184118729Y-99215891D01*
X184103892Y-99204771D01*
X184103890Y-99204770D01*
X184096705Y-99199385D01*
X183960316Y-99148255D01*
X183898134Y-99141500D01*
X183272000Y-99141500D01*
X183203879Y-99121498D01*
X183157386Y-99067842D01*
X183146000Y-99015500D01*
X183146000Y-98984500D01*
X183166002Y-98916379D01*
X183219658Y-98869886D01*
X183272000Y-98858500D01*
X183898134Y-98858500D01*
X183960316Y-98851745D01*
X184096705Y-98800615D01*
X184135988Y-98771174D01*
X184202494Y-98746326D01*
X184211553Y-98746000D01*
X184339884Y-98746000D01*
X184355123Y-98741525D01*
X184356328Y-98740135D01*
X184357999Y-98732452D01*
X184357999Y-98655331D01*
X184357629Y-98648510D01*
X184352105Y-98597648D01*
X184348479Y-98582397D01*
X184343810Y-98569942D01*
X184338627Y-98499135D01*
X184343808Y-98481488D01*
X184351745Y-98460316D01*
X184358500Y-98398134D01*
X184358500Y-97701866D01*
X184351745Y-97639684D01*
X184300615Y-97503295D01*
X184213261Y-97386739D01*
X184096705Y-97299385D01*
X183960316Y-97248255D01*
X183898134Y-97241500D01*
X182901866Y-97241500D01*
X182839684Y-97248255D01*
X182703295Y-97299385D01*
X182586739Y-97386739D01*
X182581358Y-97393919D01*
X182581355Y-97393922D01*
X182579569Y-97396305D01*
X182577041Y-97398236D01*
X182575007Y-97400270D01*
X182574735Y-97399998D01*
X182525131Y-97437889D01*
X182500101Y-97447800D01*
X182488885Y-97451641D01*
X182446406Y-97463982D01*
X182439587Y-97468015D01*
X182439582Y-97468017D01*
X182428971Y-97474293D01*
X182411221Y-97482990D01*
X182392383Y-97490448D01*
X182385967Y-97495109D01*
X182385966Y-97495110D01*
X182356625Y-97516428D01*
X182346701Y-97522947D01*
X182315460Y-97541422D01*
X182315455Y-97541426D01*
X182308637Y-97545458D01*
X182294313Y-97559782D01*
X182279281Y-97572621D01*
X182262893Y-97584528D01*
X182237102Y-97615704D01*
X182234712Y-97618593D01*
X182226722Y-97627373D01*
X181773595Y-98080500D01*
X181711283Y-98114526D01*
X181640468Y-98109461D01*
X181583632Y-98066914D01*
X181558821Y-98000394D01*
X181558500Y-97991405D01*
X181558500Y-97701866D01*
X181551745Y-97639684D01*
X181500615Y-97503295D01*
X181413261Y-97386739D01*
X181296705Y-97299385D01*
X181160316Y-97248255D01*
X181098134Y-97241500D01*
X180101866Y-97241500D01*
X180039684Y-97248255D01*
X179903295Y-97299385D01*
X179786739Y-97386739D01*
X179699385Y-97503295D01*
X179648255Y-97639684D01*
X179641500Y-97701866D01*
X179641500Y-98398134D01*
X179648255Y-98460316D01*
X179699385Y-98596705D01*
X179786739Y-98713261D01*
X179903295Y-98800615D01*
X180039684Y-98851745D01*
X180101866Y-98858500D01*
X181098134Y-98858500D01*
X181160316Y-98851745D01*
X181196272Y-98838266D01*
X181267076Y-98833083D01*
X181329446Y-98867003D01*
X181363575Y-98929258D01*
X181366500Y-98956248D01*
X181366500Y-99043752D01*
X181346498Y-99111873D01*
X181292842Y-99158366D01*
X181222568Y-99168470D01*
X181196276Y-99161736D01*
X181160316Y-99148255D01*
X181098134Y-99141500D01*
X180101866Y-99141500D01*
X180039684Y-99148255D01*
X179903295Y-99199385D01*
X179896110Y-99204770D01*
X179896108Y-99204771D01*
X179847333Y-99241326D01*
X179780826Y-99266174D01*
X179771768Y-99266500D01*
X178701268Y-99266500D01*
X178698022Y-99266837D01*
X178698018Y-99266837D01*
X178663917Y-99270375D01*
X178598981Y-99277113D01*
X178592440Y-99279295D01*
X178592441Y-99279295D01*
X178443676Y-99328927D01*
X178443674Y-99328928D01*
X178436732Y-99331244D01*
X178430508Y-99335096D01*
X178430507Y-99335096D01*
X178347053Y-99386739D01*
X178291287Y-99421248D01*
X178286114Y-99426430D01*
X178208162Y-99504518D01*
X178145880Y-99538597D01*
X178118989Y-99541500D01*
X178042275Y-99541500D01*
X177974154Y-99521498D01*
X177941449Y-99491065D01*
X177931361Y-99477605D01*
X177863261Y-99386739D01*
X177746705Y-99299385D01*
X177746049Y-99299139D01*
X177698843Y-99251825D01*
X177683500Y-99191567D01*
X177683500Y-98590045D01*
X177683792Y-98581476D01*
X177687060Y-98533542D01*
X177687060Y-98533538D01*
X177687576Y-98525966D01*
X177684603Y-98508926D01*
X177676998Y-98465353D01*
X177676035Y-98458829D01*
X177669558Y-98405309D01*
X177668645Y-98397765D01*
X177665958Y-98390655D01*
X177664754Y-98385752D01*
X177661886Y-98375266D01*
X177660439Y-98370474D01*
X177659134Y-98362996D01*
X177652029Y-98346810D01*
X177634405Y-98306659D01*
X177631914Y-98300554D01*
X177612855Y-98250118D01*
X177612853Y-98250115D01*
X177610169Y-98243011D01*
X177605869Y-98236754D01*
X177603533Y-98232286D01*
X177598275Y-98222840D01*
X177595693Y-98218474D01*
X177592638Y-98211515D01*
X177555177Y-98162696D01*
X177551314Y-98157377D01*
X177524717Y-98118679D01*
X177516466Y-98106674D01*
X177471676Y-98066767D01*
X177466402Y-98061787D01*
X176520905Y-97116290D01*
X176486879Y-97053978D01*
X176484000Y-97027195D01*
X176484000Y-96451866D01*
X176479844Y-96413606D01*
X176479844Y-96386393D01*
X176483631Y-96351533D01*
X176483631Y-96351529D01*
X176484000Y-96348134D01*
X176484000Y-95651866D01*
X176483492Y-95647183D01*
X176479844Y-95613607D01*
X176479844Y-95586393D01*
X176483631Y-95551533D01*
X176483631Y-95551529D01*
X176484000Y-95548134D01*
X176484000Y-95209500D01*
X176504002Y-95141379D01*
X176557658Y-95094886D01*
X176610000Y-95083500D01*
X176721955Y-95083500D01*
X176730524Y-95083792D01*
X176778458Y-95087060D01*
X176778462Y-95087060D01*
X176786034Y-95087576D01*
X176793510Y-95086271D01*
X176793515Y-95086271D01*
X176844340Y-95077401D01*
X176914885Y-95085394D01*
X176969910Y-95130258D01*
X176992001Y-95201525D01*
X176992001Y-95444669D01*
X176992371Y-95451490D01*
X176997895Y-95502352D01*
X177001521Y-95517604D01*
X177046676Y-95638054D01*
X177055214Y-95653649D01*
X177131715Y-95755724D01*
X177144276Y-95768285D01*
X177246351Y-95844786D01*
X177261946Y-95853324D01*
X177382394Y-95898478D01*
X177397649Y-95902105D01*
X177448514Y-95907631D01*
X177455328Y-95908000D01*
X177727885Y-95908000D01*
X177743124Y-95903525D01*
X177744329Y-95902135D01*
X177746000Y-95894452D01*
X177746000Y-95889884D01*
X178254000Y-95889884D01*
X178258475Y-95905123D01*
X178259865Y-95906328D01*
X178267548Y-95907999D01*
X178544669Y-95907999D01*
X178551490Y-95907629D01*
X178602352Y-95902105D01*
X178617604Y-95898479D01*
X178738054Y-95853324D01*
X178753649Y-95844786D01*
X178855724Y-95768285D01*
X178868285Y-95755724D01*
X178944786Y-95653649D01*
X178953324Y-95638054D01*
X178998478Y-95517606D01*
X179002105Y-95502351D01*
X179007631Y-95451486D01*
X179008000Y-95444672D01*
X179008000Y-95122115D01*
X179003525Y-95106876D01*
X179002135Y-95105671D01*
X178994452Y-95104000D01*
X178272115Y-95104000D01*
X178256876Y-95108475D01*
X178255671Y-95109865D01*
X178254000Y-95117548D01*
X178254000Y-95889884D01*
X177746000Y-95889884D01*
X177746000Y-94722000D01*
X177766002Y-94653879D01*
X177819658Y-94607386D01*
X177872000Y-94596000D01*
X178989884Y-94596000D01*
X179005123Y-94591525D01*
X179006328Y-94590135D01*
X179007999Y-94582452D01*
X179007999Y-94255331D01*
X179007629Y-94248510D01*
X179002105Y-94197648D01*
X178998479Y-94182396D01*
X178953321Y-94061939D01*
X178952826Y-94061034D01*
X178952607Y-94060034D01*
X178950172Y-94053538D01*
X178951110Y-94053186D01*
X178937657Y-93991677D01*
X178950838Y-93946787D01*
X178950616Y-93946704D01*
X178951753Y-93943671D01*
X178951755Y-93943664D01*
X178953766Y-93938299D01*
X178953768Y-93938296D01*
X178962401Y-93915269D01*
X179005043Y-93858505D01*
X179071605Y-93833806D01*
X179080382Y-93833500D01*
X179521955Y-93833500D01*
X179530524Y-93833792D01*
X179578458Y-93837060D01*
X179578462Y-93837060D01*
X179586034Y-93837576D01*
X179593511Y-93836271D01*
X179593514Y-93836271D01*
X179646647Y-93826998D01*
X179653171Y-93826035D01*
X179706691Y-93819558D01*
X179714235Y-93818645D01*
X179721345Y-93815958D01*
X179726248Y-93814754D01*
X179736734Y-93811886D01*
X179741526Y-93810439D01*
X179749004Y-93809134D01*
X179766345Y-93801522D01*
X179805341Y-93784405D01*
X179811446Y-93781914D01*
X179861882Y-93762855D01*
X179861885Y-93762853D01*
X179868989Y-93760169D01*
X179875246Y-93755869D01*
X179879714Y-93753533D01*
X179889160Y-93748275D01*
X179893526Y-93745693D01*
X179900485Y-93742638D01*
X179949304Y-93705177D01*
X179954623Y-93701314D01*
X179999065Y-93670769D01*
X180005326Y-93666466D01*
X180045233Y-93621676D01*
X180050213Y-93616402D01*
X181171210Y-92495405D01*
X181233522Y-92461379D01*
X181260305Y-92458500D01*
X182548134Y-92458500D01*
X182610316Y-92451745D01*
X182746705Y-92400615D01*
X182863261Y-92313261D01*
X182950615Y-92196705D01*
X183001745Y-92060316D01*
X183003312Y-92045892D01*
X183030554Y-91980330D01*
X183088917Y-91939904D01*
X183128575Y-91933500D01*
X188871425Y-91933500D01*
X188939546Y-91953502D01*
X188986039Y-92007158D01*
X188996688Y-92045892D01*
X188998255Y-92060316D01*
X189049385Y-92196705D01*
X189136739Y-92313261D01*
X189253295Y-92400615D01*
X189389684Y-92451745D01*
X189451866Y-92458500D01*
X191648134Y-92458500D01*
X191710316Y-92451745D01*
X191846705Y-92400615D01*
X191963261Y-92313261D01*
X192027128Y-92228043D01*
X197366139Y-92228043D01*
X197368335Y-92242207D01*
X197381522Y-92246000D01*
X198577885Y-92246000D01*
X198593124Y-92241525D01*
X198594329Y-92240135D01*
X198596000Y-92232452D01*
X198596000Y-92227885D01*
X199104000Y-92227885D01*
X199108475Y-92243124D01*
X199109865Y-92244329D01*
X199117548Y-92246000D01*
X200316192Y-92246000D01*
X200329723Y-92242027D01*
X200331248Y-92231420D01*
X200306523Y-92113579D01*
X200303463Y-92103383D01*
X200222737Y-91898971D01*
X200218006Y-91889439D01*
X200103984Y-91701538D01*
X200097720Y-91692948D01*
X199953673Y-91526948D01*
X199946042Y-91519528D01*
X199776089Y-91380174D01*
X199767322Y-91374150D01*
X199576318Y-91265424D01*
X199566654Y-91260959D01*
X199360059Y-91185969D01*
X199349792Y-91183198D01*
X199132345Y-91143877D01*
X199124116Y-91142944D01*
X199119624Y-91142732D01*
X199106876Y-91146475D01*
X199105671Y-91147865D01*
X199104000Y-91155548D01*
X199104000Y-92227885D01*
X198596000Y-92227885D01*
X198596000Y-91164030D01*
X198591690Y-91149352D01*
X198579807Y-91147289D01*
X198475675Y-91156124D01*
X198465203Y-91157914D01*
X198252465Y-91213130D01*
X198242425Y-91216665D01*
X198042030Y-91306937D01*
X198032744Y-91312106D01*
X197850425Y-91434850D01*
X197842130Y-91441519D01*
X197683100Y-91593228D01*
X197676059Y-91601186D01*
X197544859Y-91777525D01*
X197539255Y-91786562D01*
X197439643Y-91982484D01*
X197435643Y-91992335D01*
X197370466Y-92202240D01*
X197368183Y-92212624D01*
X197366139Y-92228043D01*
X192027128Y-92228043D01*
X192050615Y-92196705D01*
X192101745Y-92060316D01*
X192108500Y-91998134D01*
X192108500Y-90501866D01*
X192101745Y-90439684D01*
X192050615Y-90303295D01*
X191963261Y-90186739D01*
X191846705Y-90099385D01*
X191710316Y-90048255D01*
X191648134Y-90041500D01*
X189451866Y-90041500D01*
X189389684Y-90048255D01*
X189253295Y-90099385D01*
X189136739Y-90186739D01*
X189049385Y-90303295D01*
X188998255Y-90439684D01*
X188997402Y-90447540D01*
X188996688Y-90454108D01*
X188969446Y-90519670D01*
X188911083Y-90560096D01*
X188871425Y-90566500D01*
X183128575Y-90566500D01*
X183060454Y-90546498D01*
X183013961Y-90492842D01*
X183003312Y-90454108D01*
X183002598Y-90447540D01*
X183001745Y-90439684D01*
X182950615Y-90303295D01*
X182863261Y-90186739D01*
X182746705Y-90099385D01*
X182610316Y-90048255D01*
X182548134Y-90041500D01*
X180351866Y-90041500D01*
X180289684Y-90048255D01*
X180153295Y-90099385D01*
X180036739Y-90186739D01*
X179949385Y-90303295D01*
X179898255Y-90439684D01*
X179891500Y-90501866D01*
X179891500Y-91789695D01*
X179871498Y-91857816D01*
X179854595Y-91878790D01*
X179303790Y-92429595D01*
X179241478Y-92463621D01*
X179214695Y-92466500D01*
X179080382Y-92466500D01*
X179012261Y-92446498D01*
X178965768Y-92392842D01*
X178962401Y-92384731D01*
X178953769Y-92361707D01*
X178953768Y-92361704D01*
X178950615Y-92353295D01*
X178863261Y-92236739D01*
X178746705Y-92149385D01*
X178696329Y-92130500D01*
X178631144Y-92106063D01*
X178574380Y-92063421D01*
X178549680Y-91996860D01*
X178559737Y-91938042D01*
X178567176Y-91920854D01*
X178572383Y-91910223D01*
X178593695Y-91871456D01*
X178595666Y-91863779D01*
X178595668Y-91863774D01*
X178598732Y-91851838D01*
X178605138Y-91833126D01*
X178610034Y-91821813D01*
X178613181Y-91814541D01*
X178614421Y-91806714D01*
X178615222Y-91803956D01*
X178653435Y-91744120D01*
X178691990Y-91721127D01*
X178738295Y-91703768D01*
X178738296Y-91703767D01*
X178746705Y-91700615D01*
X178863261Y-91613261D01*
X178950615Y-91496705D01*
X179001745Y-91360316D01*
X179008500Y-91298134D01*
X179008500Y-90101866D01*
X179001745Y-90039684D01*
X178979799Y-89981144D01*
X178953766Y-89911699D01*
X178953764Y-89911696D01*
X178950615Y-89903295D01*
X178951307Y-89903036D01*
X178937657Y-89840626D01*
X178950580Y-89796615D01*
X178950172Y-89796462D01*
X178952262Y-89790888D01*
X178952826Y-89788966D01*
X178953321Y-89788061D01*
X178998478Y-89667606D01*
X179002105Y-89652351D01*
X179007631Y-89601486D01*
X179008000Y-89594668D01*
X179008000Y-89272115D01*
X179003525Y-89256876D01*
X179002135Y-89255671D01*
X178994452Y-89254000D01*
X177872000Y-89254000D01*
X177803879Y-89233998D01*
X177757386Y-89180342D01*
X177746000Y-89128000D01*
X177746000Y-88727885D01*
X178254000Y-88727885D01*
X178258475Y-88743124D01*
X178259865Y-88744329D01*
X178267548Y-88746000D01*
X178989884Y-88746000D01*
X179005123Y-88741525D01*
X179006328Y-88740135D01*
X179007999Y-88732452D01*
X179007999Y-88405331D01*
X179007629Y-88398510D01*
X179002105Y-88347648D01*
X178998479Y-88332396D01*
X178953324Y-88211946D01*
X178944786Y-88196351D01*
X178868285Y-88094276D01*
X178855724Y-88081715D01*
X178753649Y-88005214D01*
X178738054Y-87996676D01*
X178617606Y-87951522D01*
X178602351Y-87947895D01*
X178551486Y-87942369D01*
X178544672Y-87942000D01*
X178272115Y-87942000D01*
X178256876Y-87946475D01*
X178255671Y-87947865D01*
X178254000Y-87955548D01*
X178254000Y-88727885D01*
X177746000Y-88727885D01*
X177746000Y-87960116D01*
X177741525Y-87944877D01*
X177726987Y-87932279D01*
X177688604Y-87872553D01*
X177683500Y-87837055D01*
X177683500Y-87494669D01*
X179892001Y-87494669D01*
X179892371Y-87501490D01*
X179897895Y-87552352D01*
X179901521Y-87567604D01*
X179946676Y-87688054D01*
X179955214Y-87703649D01*
X180031715Y-87805724D01*
X180044276Y-87818285D01*
X180146351Y-87894786D01*
X180161946Y-87903324D01*
X180282394Y-87948478D01*
X180297649Y-87952105D01*
X180348514Y-87957631D01*
X180355328Y-87958000D01*
X181177885Y-87958000D01*
X181193124Y-87953525D01*
X181194329Y-87952135D01*
X181196000Y-87944452D01*
X181196000Y-87939884D01*
X181704000Y-87939884D01*
X181708475Y-87955123D01*
X181709865Y-87956328D01*
X181717548Y-87957999D01*
X182544669Y-87957999D01*
X182551490Y-87957629D01*
X182602352Y-87952105D01*
X182617604Y-87948479D01*
X182738054Y-87903324D01*
X182753649Y-87894786D01*
X182855724Y-87818285D01*
X182868285Y-87805724D01*
X182944786Y-87703649D01*
X182953324Y-87688054D01*
X182998478Y-87567606D01*
X183002105Y-87552351D01*
X183007631Y-87501486D01*
X183008000Y-87494672D01*
X183008000Y-87494669D01*
X188992001Y-87494669D01*
X188992371Y-87501490D01*
X188997895Y-87552352D01*
X189001521Y-87567604D01*
X189046676Y-87688054D01*
X189055214Y-87703649D01*
X189131715Y-87805724D01*
X189144276Y-87818285D01*
X189246351Y-87894786D01*
X189261946Y-87903324D01*
X189382394Y-87948478D01*
X189397649Y-87952105D01*
X189448514Y-87957631D01*
X189455328Y-87958000D01*
X190277885Y-87958000D01*
X190293124Y-87953525D01*
X190294329Y-87952135D01*
X190296000Y-87944452D01*
X190296000Y-87939884D01*
X190804000Y-87939884D01*
X190808475Y-87955123D01*
X190809865Y-87956328D01*
X190817548Y-87957999D01*
X191644669Y-87957999D01*
X191651490Y-87957629D01*
X191702352Y-87952105D01*
X191717604Y-87948479D01*
X191838054Y-87903324D01*
X191853649Y-87894786D01*
X191955724Y-87818285D01*
X191968285Y-87805724D01*
X192044786Y-87703649D01*
X192053324Y-87688054D01*
X192098478Y-87567606D01*
X192102105Y-87552351D01*
X192107631Y-87501486D01*
X192108000Y-87494672D01*
X192108000Y-87022115D01*
X192103525Y-87006876D01*
X192102135Y-87005671D01*
X192094452Y-87004000D01*
X190822115Y-87004000D01*
X190806876Y-87008475D01*
X190805671Y-87009865D01*
X190804000Y-87017548D01*
X190804000Y-87939884D01*
X190296000Y-87939884D01*
X190296000Y-87022115D01*
X190291525Y-87006876D01*
X190290135Y-87005671D01*
X190282452Y-87004000D01*
X189010116Y-87004000D01*
X188994877Y-87008475D01*
X188993672Y-87009865D01*
X188992001Y-87017548D01*
X188992001Y-87494669D01*
X183008000Y-87494669D01*
X183008000Y-87022115D01*
X183003525Y-87006876D01*
X183002135Y-87005671D01*
X182994452Y-87004000D01*
X181722115Y-87004000D01*
X181706876Y-87008475D01*
X181705671Y-87009865D01*
X181704000Y-87017548D01*
X181704000Y-87939884D01*
X181196000Y-87939884D01*
X181196000Y-87022115D01*
X181191525Y-87006876D01*
X181190135Y-87005671D01*
X181182452Y-87004000D01*
X179910116Y-87004000D01*
X179894877Y-87008475D01*
X179893672Y-87009865D01*
X179892001Y-87017548D01*
X179892001Y-87494669D01*
X177683500Y-87494669D01*
X177683500Y-86477885D01*
X179892000Y-86477885D01*
X179896475Y-86493124D01*
X179897865Y-86494329D01*
X179905548Y-86496000D01*
X181177885Y-86496000D01*
X181193124Y-86491525D01*
X181194329Y-86490135D01*
X181196000Y-86482452D01*
X181196000Y-86477885D01*
X181704000Y-86477885D01*
X181708475Y-86493124D01*
X181709865Y-86494329D01*
X181717548Y-86496000D01*
X182989884Y-86496000D01*
X183005123Y-86491525D01*
X183006328Y-86490135D01*
X183007999Y-86482452D01*
X183007999Y-86477885D01*
X188992000Y-86477885D01*
X188996475Y-86493124D01*
X188997865Y-86494329D01*
X189005548Y-86496000D01*
X190277885Y-86496000D01*
X190293124Y-86491525D01*
X190294329Y-86490135D01*
X190296000Y-86482452D01*
X190296000Y-86477885D01*
X190804000Y-86477885D01*
X190808475Y-86493124D01*
X190809865Y-86494329D01*
X190817548Y-86496000D01*
X192089884Y-86496000D01*
X192105123Y-86491525D01*
X192106328Y-86490135D01*
X192107999Y-86482452D01*
X192107999Y-86005331D01*
X192107629Y-85998510D01*
X192102105Y-85947648D01*
X192098479Y-85932396D01*
X192053324Y-85811946D01*
X192044786Y-85796351D01*
X191968285Y-85694276D01*
X191955724Y-85681715D01*
X191853649Y-85605214D01*
X191838054Y-85596676D01*
X191717606Y-85551522D01*
X191702351Y-85547895D01*
X191651486Y-85542369D01*
X191644672Y-85542000D01*
X190822115Y-85542000D01*
X190806876Y-85546475D01*
X190805671Y-85547865D01*
X190804000Y-85555548D01*
X190804000Y-86477885D01*
X190296000Y-86477885D01*
X190296000Y-85560116D01*
X190291525Y-85544877D01*
X190290135Y-85543672D01*
X190282452Y-85542001D01*
X189455331Y-85542001D01*
X189448510Y-85542371D01*
X189397648Y-85547895D01*
X189382396Y-85551521D01*
X189261946Y-85596676D01*
X189246351Y-85605214D01*
X189144276Y-85681715D01*
X189131715Y-85694276D01*
X189055214Y-85796351D01*
X189046676Y-85811946D01*
X189001522Y-85932394D01*
X188997895Y-85947649D01*
X188992369Y-85998514D01*
X188992000Y-86005328D01*
X188992000Y-86477885D01*
X183007999Y-86477885D01*
X183007999Y-86005331D01*
X183007629Y-85998510D01*
X183002105Y-85947648D01*
X182998479Y-85932396D01*
X182953324Y-85811946D01*
X182944786Y-85796351D01*
X182868285Y-85694276D01*
X182855724Y-85681715D01*
X182753649Y-85605214D01*
X182738054Y-85596676D01*
X182617606Y-85551522D01*
X182602351Y-85547895D01*
X182551486Y-85542369D01*
X182544672Y-85542000D01*
X181722115Y-85542000D01*
X181706876Y-85546475D01*
X181705671Y-85547865D01*
X181704000Y-85555548D01*
X181704000Y-86477885D01*
X181196000Y-86477885D01*
X181196000Y-85560116D01*
X181191525Y-85544877D01*
X181190135Y-85543672D01*
X181182452Y-85542001D01*
X180355331Y-85542001D01*
X180348510Y-85542371D01*
X180297648Y-85547895D01*
X180282396Y-85551521D01*
X180161946Y-85596676D01*
X180146351Y-85605214D01*
X180044276Y-85681715D01*
X180031715Y-85694276D01*
X179955214Y-85796351D01*
X179946676Y-85811946D01*
X179901522Y-85932394D01*
X179897895Y-85947649D01*
X179892369Y-85998514D01*
X179892000Y-86005328D01*
X179892000Y-86477885D01*
X177683500Y-86477885D01*
X177683500Y-86335305D01*
X177703502Y-86267184D01*
X177720405Y-86246210D01*
X179319520Y-84647095D01*
X197342001Y-84647095D01*
X197342338Y-84653614D01*
X197352257Y-84749206D01*
X197355149Y-84762600D01*
X197406588Y-84916784D01*
X197412761Y-84929962D01*
X197498063Y-85067807D01*
X197507099Y-85079208D01*
X197621829Y-85193739D01*
X197633240Y-85202751D01*
X197771243Y-85287816D01*
X197784424Y-85293963D01*
X197938710Y-85345138D01*
X197952086Y-85348005D01*
X198046438Y-85357672D01*
X198052854Y-85358000D01*
X198577885Y-85358000D01*
X198593124Y-85353525D01*
X198594329Y-85352135D01*
X198596000Y-85344452D01*
X198596000Y-85339884D01*
X199104000Y-85339884D01*
X199108475Y-85355123D01*
X199109865Y-85356328D01*
X199117548Y-85357999D01*
X199647095Y-85357999D01*
X199653614Y-85357662D01*
X199749206Y-85347743D01*
X199762600Y-85344851D01*
X199916784Y-85293412D01*
X199929962Y-85287239D01*
X200067807Y-85201937D01*
X200079208Y-85192901D01*
X200193739Y-85078171D01*
X200202751Y-85066760D01*
X200287816Y-84928757D01*
X200293963Y-84915576D01*
X200345138Y-84761290D01*
X200348005Y-84747914D01*
X200357672Y-84653562D01*
X200358000Y-84647146D01*
X200358000Y-84272115D01*
X200353525Y-84256876D01*
X200352135Y-84255671D01*
X200344452Y-84254000D01*
X199122115Y-84254000D01*
X199106876Y-84258475D01*
X199105671Y-84259865D01*
X199104000Y-84267548D01*
X199104000Y-85339884D01*
X198596000Y-85339884D01*
X198596000Y-84272115D01*
X198591525Y-84256876D01*
X198590135Y-84255671D01*
X198582452Y-84254000D01*
X197360116Y-84254000D01*
X197344877Y-84258475D01*
X197343672Y-84259865D01*
X197342001Y-84267548D01*
X197342001Y-84647095D01*
X179319520Y-84647095D01*
X181746210Y-82220405D01*
X181808522Y-82186379D01*
X181835305Y-82183500D01*
X197454745Y-82183500D01*
X197522866Y-82203502D01*
X197562464Y-82244135D01*
X197595606Y-82298752D01*
X197595611Y-82298759D01*
X197598377Y-82303317D01*
X197601874Y-82307347D01*
X197688438Y-82407103D01*
X197749477Y-82477445D01*
X197753608Y-82480832D01*
X197785529Y-82507006D01*
X197825524Y-82565666D01*
X197827455Y-82636636D01*
X197790710Y-82697384D01*
X197771941Y-82711584D01*
X197632193Y-82798063D01*
X197620792Y-82807099D01*
X197506261Y-82921829D01*
X197497249Y-82933240D01*
X197412184Y-83071243D01*
X197406037Y-83084424D01*
X197354862Y-83238710D01*
X197351995Y-83252086D01*
X197342328Y-83346438D01*
X197342000Y-83352855D01*
X197342000Y-83727885D01*
X197346475Y-83743124D01*
X197347865Y-83744329D01*
X197355548Y-83746000D01*
X200339884Y-83746000D01*
X200355123Y-83741525D01*
X200356328Y-83740135D01*
X200357999Y-83732452D01*
X200357999Y-83352905D01*
X200357662Y-83346386D01*
X200347743Y-83250794D01*
X200344851Y-83237400D01*
X200293412Y-83083216D01*
X200287239Y-83070038D01*
X200201937Y-82932193D01*
X200192901Y-82920792D01*
X200078171Y-82806261D01*
X200066757Y-82797247D01*
X199927287Y-82711277D01*
X199879793Y-82658505D01*
X199868369Y-82588434D01*
X199896643Y-82523310D01*
X199906430Y-82512847D01*
X199939991Y-82480832D01*
X200021135Y-82403424D01*
X200158754Y-82218458D01*
X200263240Y-82012949D01*
X200331607Y-81792773D01*
X200361898Y-81564226D01*
X200353249Y-81333842D01*
X200305907Y-81108209D01*
X200276442Y-81033598D01*
X200223185Y-80898744D01*
X200223184Y-80898742D01*
X200221224Y-80893779D01*
X200217199Y-80887145D01*
X200104390Y-80701243D01*
X200101623Y-80696683D01*
X200014755Y-80596576D01*
X199954023Y-80526588D01*
X199954021Y-80526586D01*
X199950523Y-80522555D01*
X199908970Y-80488484D01*
X199776373Y-80379760D01*
X199776367Y-80379756D01*
X199772245Y-80376376D01*
X199767609Y-80373737D01*
X199767606Y-80373735D01*
X199576529Y-80264968D01*
X199571886Y-80262325D01*
X199355175Y-80183663D01*
X199349926Y-80182714D01*
X199349923Y-80182713D01*
X199132392Y-80143377D01*
X199132385Y-80143376D01*
X199128308Y-80142639D01*
X199110586Y-80141803D01*
X199105644Y-80141570D01*
X199105637Y-80141570D01*
X199104156Y-80141500D01*
X198642110Y-80141500D01*
X198575191Y-80147178D01*
X198475591Y-80155629D01*
X198475587Y-80155630D01*
X198470280Y-80156080D01*
X198465125Y-80157418D01*
X198465119Y-80157419D01*
X198252297Y-80212657D01*
X198252293Y-80212658D01*
X198247128Y-80213999D01*
X198242262Y-80216191D01*
X198242259Y-80216192D01*
X198133980Y-80264968D01*
X198036925Y-80308688D01*
X197845681Y-80437441D01*
X197678865Y-80596576D01*
X197675682Y-80600854D01*
X197553023Y-80765713D01*
X197496313Y-80808426D01*
X197451934Y-80816500D01*
X181528045Y-80816500D01*
X181519476Y-80816208D01*
X181471542Y-80812940D01*
X181471538Y-80812940D01*
X181463966Y-80812424D01*
X181456489Y-80813729D01*
X181456486Y-80813729D01*
X181403353Y-80823002D01*
X181396829Y-80823965D01*
X181343309Y-80830442D01*
X181335765Y-80831355D01*
X181328655Y-80834042D01*
X181323752Y-80835246D01*
X181313266Y-80838114D01*
X181308474Y-80839561D01*
X181300996Y-80840866D01*
X181294044Y-80843918D01*
X181294043Y-80843918D01*
X181244659Y-80865595D01*
X181238554Y-80868086D01*
X181188118Y-80887145D01*
X181188115Y-80887147D01*
X181181011Y-80889831D01*
X181174754Y-80894131D01*
X181170286Y-80896467D01*
X181160840Y-80901725D01*
X181156474Y-80904307D01*
X181149515Y-80907362D01*
X181100696Y-80944823D01*
X181095377Y-80948686D01*
X181056679Y-80975283D01*
X181044674Y-80983534D01*
X181039623Y-80989203D01*
X181004768Y-81028323D01*
X180999787Y-81033598D01*
X176536541Y-85496844D01*
X176530276Y-85502698D01*
X176488330Y-85539290D01*
X176452934Y-85589655D01*
X176449022Y-85594920D01*
X176411065Y-85643328D01*
X176407939Y-85650252D01*
X176405329Y-85654561D01*
X176399958Y-85663976D01*
X176397573Y-85668424D01*
X176393205Y-85674639D01*
X176390446Y-85681716D01*
X176370858Y-85731957D01*
X176368306Y-85738029D01*
X176342986Y-85794105D01*
X176341600Y-85801582D01*
X176340090Y-85806402D01*
X176337118Y-85816835D01*
X176335870Y-85821696D01*
X176333111Y-85828772D01*
X176332120Y-85836302D01*
X176325082Y-85889762D01*
X176324050Y-85896278D01*
X176312839Y-85956767D01*
X176313276Y-85964347D01*
X176313276Y-85964348D01*
X176316291Y-86016642D01*
X176316500Y-86023894D01*
X176316500Y-90302936D01*
X176296498Y-90371057D01*
X176242842Y-90417550D01*
X176172568Y-90427654D01*
X176146271Y-90420918D01*
X176093218Y-90401029D01*
X176093212Y-90401027D01*
X176085816Y-90398255D01*
X176053381Y-90394732D01*
X176033891Y-90392614D01*
X175968330Y-90365372D01*
X175927904Y-90307008D01*
X175921500Y-90267351D01*
X175921500Y-76797386D01*
X196417759Y-76797386D01*
X196425216Y-76807753D01*
X196664935Y-77001874D01*
X196670272Y-77005751D01*
X196990685Y-77213830D01*
X196996394Y-77217127D01*
X197336811Y-77390578D01*
X197342836Y-77393260D01*
X197699502Y-77530171D01*
X197705784Y-77532212D01*
X198074816Y-77631094D01*
X198081266Y-77632465D01*
X198458629Y-77692234D01*
X198465167Y-77692920D01*
X198846699Y-77712916D01*
X198853301Y-77712916D01*
X199234833Y-77692920D01*
X199241371Y-77692234D01*
X199618734Y-77632465D01*
X199625184Y-77631094D01*
X199994216Y-77532212D01*
X200000498Y-77530171D01*
X200357164Y-77393260D01*
X200363189Y-77390578D01*
X200703606Y-77217127D01*
X200709315Y-77213830D01*
X201029728Y-77005751D01*
X201035065Y-77001874D01*
X201273835Y-76808522D01*
X201282300Y-76796267D01*
X201275966Y-76785176D01*
X198862812Y-74372022D01*
X198848868Y-74364408D01*
X198847035Y-74364539D01*
X198840420Y-74368790D01*
X196424900Y-76784310D01*
X196417759Y-76797386D01*
X175921500Y-76797386D01*
X175921500Y-75597305D01*
X175941502Y-75529184D01*
X175958405Y-75508210D01*
X175983861Y-75482754D01*
X176046173Y-75448728D01*
X176110321Y-75451517D01*
X176202126Y-75480024D01*
X176202136Y-75480026D01*
X176207227Y-75481607D01*
X176212513Y-75482308D01*
X176212515Y-75482308D01*
X176430489Y-75511198D01*
X176430494Y-75511198D01*
X176435774Y-75511898D01*
X176441103Y-75511698D01*
X176441105Y-75511698D01*
X176561874Y-75507164D01*
X176666158Y-75503249D01*
X176671468Y-75502135D01*
X176886572Y-75457002D01*
X176891791Y-75455907D01*
X176896750Y-75453949D01*
X176896752Y-75453948D01*
X177101256Y-75373185D01*
X177101258Y-75373184D01*
X177106221Y-75371224D01*
X177177970Y-75327686D01*
X177298757Y-75254390D01*
X177298756Y-75254390D01*
X177303317Y-75251623D01*
X177343497Y-75216757D01*
X177473412Y-75104023D01*
X177473414Y-75104021D01*
X177477445Y-75100523D01*
X177544807Y-75018369D01*
X177620240Y-74926373D01*
X177620244Y-74926367D01*
X177623624Y-74922245D01*
X177629115Y-74912600D01*
X177735032Y-74726529D01*
X177737675Y-74721886D01*
X177816337Y-74505175D01*
X177836916Y-74391371D01*
X177856623Y-74282392D01*
X177856624Y-74282385D01*
X177857361Y-74278308D01*
X177858500Y-74254156D01*
X177858500Y-74003301D01*
X195137084Y-74003301D01*
X195157080Y-74384833D01*
X195157766Y-74391371D01*
X195217535Y-74768734D01*
X195218906Y-74775184D01*
X195317788Y-75144216D01*
X195319829Y-75150498D01*
X195456740Y-75507164D01*
X195459422Y-75513189D01*
X195632872Y-75853603D01*
X195636169Y-75859313D01*
X195844253Y-76179735D01*
X195848123Y-76185061D01*
X196041478Y-76423835D01*
X196053733Y-76432300D01*
X196064824Y-76425966D01*
X198477978Y-74012812D01*
X198485592Y-73998868D01*
X198485461Y-73997035D01*
X198481210Y-73990420D01*
X196065690Y-71574900D01*
X196052614Y-71567759D01*
X196042247Y-71575216D01*
X195848123Y-71814939D01*
X195844253Y-71820265D01*
X195636169Y-72140687D01*
X195632872Y-72146397D01*
X195459422Y-72486811D01*
X195456740Y-72492836D01*
X195319829Y-72849502D01*
X195317788Y-72855784D01*
X195218906Y-73224816D01*
X195217535Y-73231266D01*
X195157766Y-73608629D01*
X195157080Y-73615167D01*
X195137084Y-73996699D01*
X195137084Y-74003301D01*
X177858500Y-74003301D01*
X177858500Y-73792110D01*
X177852525Y-73721692D01*
X177844371Y-73625591D01*
X177844370Y-73625587D01*
X177843920Y-73620280D01*
X177842582Y-73615125D01*
X177842581Y-73615119D01*
X177787343Y-73402297D01*
X177787342Y-73402293D01*
X177786001Y-73397128D01*
X177691312Y-73186925D01*
X177562559Y-72995681D01*
X177403424Y-72828865D01*
X177218458Y-72691246D01*
X177213707Y-72688830D01*
X177213703Y-72688828D01*
X177091731Y-72626815D01*
X177012949Y-72586760D01*
X177007855Y-72585178D01*
X177007852Y-72585177D01*
X176797871Y-72519976D01*
X176792773Y-72518393D01*
X176787484Y-72517692D01*
X176569511Y-72488802D01*
X176569506Y-72488802D01*
X176564226Y-72488102D01*
X176558897Y-72488302D01*
X176558895Y-72488302D01*
X176460368Y-72492001D01*
X176333842Y-72496751D01*
X176328623Y-72497846D01*
X176308849Y-72501995D01*
X176108209Y-72544093D01*
X176103250Y-72546051D01*
X176103248Y-72546052D01*
X175898744Y-72626815D01*
X175898742Y-72626816D01*
X175893779Y-72628776D01*
X175889220Y-72631543D01*
X175889217Y-72631544D01*
X175790832Y-72691246D01*
X175696683Y-72748377D01*
X175692653Y-72751874D01*
X175593738Y-72837708D01*
X175522555Y-72899477D01*
X175519168Y-72903608D01*
X175492994Y-72935529D01*
X175434334Y-72975524D01*
X175363364Y-72977455D01*
X175302616Y-72940710D01*
X175288416Y-72921941D01*
X175201937Y-72782193D01*
X175192901Y-72770792D01*
X175078171Y-72656261D01*
X175066760Y-72647249D01*
X174928757Y-72562184D01*
X174915576Y-72556037D01*
X174761290Y-72504862D01*
X174747914Y-72501995D01*
X174653562Y-72492328D01*
X174647145Y-72492000D01*
X174272115Y-72492000D01*
X174256876Y-72496475D01*
X174255671Y-72497865D01*
X174254000Y-72505548D01*
X174254000Y-75489884D01*
X174258475Y-75505123D01*
X174259865Y-75506328D01*
X174267548Y-75507999D01*
X174428500Y-75507999D01*
X174496621Y-75528001D01*
X174543114Y-75581657D01*
X174554500Y-75633999D01*
X174554500Y-88477728D01*
X174534498Y-88545849D01*
X174480842Y-88592342D01*
X174410568Y-88602446D01*
X174362370Y-88582466D01*
X174361760Y-88583579D01*
X174353892Y-88579271D01*
X174346705Y-88573885D01*
X174210316Y-88522755D01*
X174148134Y-88516000D01*
X173451866Y-88516000D01*
X173448471Y-88516369D01*
X173448467Y-88516369D01*
X173431180Y-88518247D01*
X173413606Y-88520156D01*
X173386394Y-88520156D01*
X173368820Y-88518247D01*
X173351533Y-88516369D01*
X173351529Y-88516369D01*
X173348134Y-88516000D01*
X172651866Y-88516000D01*
X172648471Y-88516369D01*
X172648467Y-88516369D01*
X172631180Y-88518247D01*
X172613606Y-88520156D01*
X172586394Y-88520156D01*
X172568820Y-88518247D01*
X172551533Y-88516369D01*
X172551529Y-88516369D01*
X172548134Y-88516000D01*
X171851866Y-88516000D01*
X171848471Y-88516369D01*
X171848467Y-88516369D01*
X171831180Y-88518247D01*
X171813606Y-88520156D01*
X171786394Y-88520156D01*
X171768820Y-88518247D01*
X171751533Y-88516369D01*
X171751529Y-88516369D01*
X171748134Y-88516000D01*
X171051866Y-88516000D01*
X171048471Y-88516369D01*
X171048467Y-88516369D01*
X171031180Y-88518247D01*
X171013606Y-88520156D01*
X170986394Y-88520156D01*
X170968820Y-88518247D01*
X170951533Y-88516369D01*
X170951529Y-88516369D01*
X170948134Y-88516000D01*
X170251866Y-88516000D01*
X170248471Y-88516369D01*
X170248467Y-88516369D01*
X170231180Y-88518247D01*
X170213606Y-88520156D01*
X170186394Y-88520156D01*
X170168820Y-88518247D01*
X170151533Y-88516369D01*
X170151529Y-88516369D01*
X170148134Y-88516000D01*
X169809500Y-88516000D01*
X169741379Y-88495998D01*
X169694886Y-88442342D01*
X169683500Y-88390000D01*
X169683500Y-76528056D01*
X169683792Y-76519486D01*
X169683863Y-76518443D01*
X169687577Y-76463966D01*
X169682041Y-76432241D01*
X169676997Y-76403342D01*
X169676034Y-76396819D01*
X169669558Y-76343308D01*
X169669558Y-76343307D01*
X169668645Y-76335765D01*
X169665959Y-76328655D01*
X169664754Y-76323752D01*
X169661886Y-76313266D01*
X169660439Y-76308474D01*
X169659134Y-76300996D01*
X169656082Y-76294043D01*
X169634405Y-76244659D01*
X169631914Y-76238554D01*
X169612855Y-76188118D01*
X169612853Y-76188115D01*
X169610169Y-76181011D01*
X169605869Y-76174754D01*
X169603533Y-76170286D01*
X169598275Y-76160840D01*
X169595693Y-76156474D01*
X169592638Y-76149515D01*
X169555177Y-76100696D01*
X169551314Y-76095377D01*
X169520769Y-76050935D01*
X169516466Y-76044674D01*
X169471676Y-76004767D01*
X169466402Y-75999787D01*
X168263710Y-74797095D01*
X172642001Y-74797095D01*
X172642338Y-74803614D01*
X172652257Y-74899206D01*
X172655149Y-74912600D01*
X172706588Y-75066784D01*
X172712761Y-75079962D01*
X172798063Y-75217807D01*
X172807099Y-75229208D01*
X172921829Y-75343739D01*
X172933240Y-75352751D01*
X173071243Y-75437816D01*
X173084424Y-75443963D01*
X173238710Y-75495138D01*
X173252086Y-75498005D01*
X173346438Y-75507672D01*
X173352854Y-75508000D01*
X173727885Y-75508000D01*
X173743124Y-75503525D01*
X173744329Y-75502135D01*
X173746000Y-75494452D01*
X173746000Y-74272115D01*
X173741525Y-74256876D01*
X173740135Y-74255671D01*
X173732452Y-74254000D01*
X172660116Y-74254000D01*
X172644877Y-74258475D01*
X172643672Y-74259865D01*
X172642001Y-74267548D01*
X172642001Y-74797095D01*
X168263710Y-74797095D01*
X167886770Y-74420155D01*
X167852744Y-74357843D01*
X167851876Y-74308639D01*
X167857361Y-74278308D01*
X167857556Y-74274167D01*
X167857557Y-74274161D01*
X167858430Y-74255644D01*
X167858430Y-74255637D01*
X167858500Y-74254156D01*
X167858500Y-73792110D01*
X167853050Y-73727885D01*
X172642000Y-73727885D01*
X172646475Y-73743124D01*
X172647865Y-73744329D01*
X172655548Y-73746000D01*
X173727885Y-73746000D01*
X173743124Y-73741525D01*
X173744329Y-73740135D01*
X173746000Y-73732452D01*
X173746000Y-72510116D01*
X173741525Y-72494877D01*
X173740135Y-72493672D01*
X173732452Y-72492001D01*
X173352905Y-72492001D01*
X173346386Y-72492338D01*
X173250794Y-72502257D01*
X173237400Y-72505149D01*
X173083216Y-72556588D01*
X173070038Y-72562761D01*
X172932193Y-72648063D01*
X172920792Y-72657099D01*
X172806261Y-72771829D01*
X172797249Y-72783240D01*
X172712184Y-72921243D01*
X172706037Y-72934424D01*
X172654862Y-73088710D01*
X172651995Y-73102086D01*
X172642328Y-73196438D01*
X172642000Y-73202855D01*
X172642000Y-73727885D01*
X167853050Y-73727885D01*
X167852525Y-73721692D01*
X167844371Y-73625591D01*
X167844370Y-73625587D01*
X167843920Y-73620280D01*
X167842582Y-73615125D01*
X167842581Y-73615119D01*
X167787343Y-73402297D01*
X167787342Y-73402293D01*
X167786001Y-73397128D01*
X167691312Y-73186925D01*
X167562559Y-72995681D01*
X167403424Y-72828865D01*
X167218458Y-72691246D01*
X167213707Y-72688830D01*
X167213703Y-72688828D01*
X167091731Y-72626815D01*
X167012949Y-72586760D01*
X167007855Y-72585178D01*
X167007852Y-72585177D01*
X166797871Y-72519976D01*
X166792773Y-72518393D01*
X166787484Y-72517692D01*
X166569511Y-72488802D01*
X166569506Y-72488802D01*
X166564226Y-72488102D01*
X166558897Y-72488302D01*
X166558895Y-72488302D01*
X166460368Y-72492001D01*
X166333842Y-72496751D01*
X166328623Y-72497846D01*
X166308849Y-72501995D01*
X166108209Y-72544093D01*
X166103250Y-72546051D01*
X166103248Y-72546052D01*
X165898744Y-72626815D01*
X165898742Y-72626816D01*
X165893779Y-72628776D01*
X165889220Y-72631543D01*
X165889217Y-72631544D01*
X165790832Y-72691246D01*
X165696683Y-72748377D01*
X165692653Y-72751874D01*
X165593738Y-72837708D01*
X165522555Y-72899477D01*
X165519168Y-72903608D01*
X165492994Y-72935529D01*
X165434334Y-72975524D01*
X165363364Y-72977455D01*
X165302616Y-72940710D01*
X165288416Y-72921941D01*
X165201937Y-72782193D01*
X165192901Y-72770792D01*
X165078171Y-72656261D01*
X165066760Y-72647249D01*
X164928757Y-72562184D01*
X164915576Y-72556037D01*
X164761290Y-72504862D01*
X164747914Y-72501995D01*
X164653562Y-72492328D01*
X164647145Y-72492000D01*
X164272115Y-72492000D01*
X164256876Y-72496475D01*
X164255671Y-72497865D01*
X164254000Y-72505548D01*
X164254000Y-75489884D01*
X164258475Y-75505123D01*
X164259865Y-75506328D01*
X164267548Y-75507999D01*
X164647095Y-75507999D01*
X164653614Y-75507662D01*
X164749206Y-75497743D01*
X164762600Y-75494851D01*
X164916784Y-75443412D01*
X164929962Y-75437239D01*
X165067807Y-75351937D01*
X165079208Y-75342901D01*
X165193739Y-75228171D01*
X165202753Y-75216757D01*
X165288723Y-75077287D01*
X165341495Y-75029793D01*
X165411566Y-75018369D01*
X165476690Y-75046643D01*
X165487149Y-75056426D01*
X165596576Y-75171135D01*
X165600854Y-75174318D01*
X165673235Y-75228171D01*
X165781542Y-75308754D01*
X165786293Y-75311170D01*
X165786297Y-75311172D01*
X165848704Y-75342901D01*
X165987051Y-75413240D01*
X165992145Y-75414822D01*
X165992148Y-75414823D01*
X166192020Y-75476885D01*
X166207227Y-75481607D01*
X166212516Y-75482308D01*
X166430489Y-75511198D01*
X166430494Y-75511198D01*
X166435774Y-75511898D01*
X166441103Y-75511698D01*
X166441105Y-75511698D01*
X166561874Y-75507164D01*
X166666158Y-75503249D01*
X166671468Y-75502135D01*
X166706183Y-75494851D01*
X166891791Y-75455907D01*
X166894932Y-75454667D01*
X166965339Y-75454254D01*
X167019646Y-75486261D01*
X168279595Y-76746210D01*
X168313621Y-76808522D01*
X168316500Y-76835305D01*
X168316500Y-88646268D01*
X168296498Y-88714389D01*
X168291326Y-88721833D01*
X168258337Y-88765851D01*
X168249385Y-88777795D01*
X168198255Y-88914184D01*
X168197402Y-88922036D01*
X168197401Y-88922040D01*
X168197263Y-88923315D01*
X168196878Y-88924241D01*
X168195575Y-88929722D01*
X168194688Y-88929511D01*
X168170021Y-88988877D01*
X168111659Y-89029304D01*
X168040704Y-89031760D01*
X167979686Y-88995465D01*
X167947977Y-88931943D01*
X167946000Y-88909708D01*
X167946000Y-88534616D01*
X167941525Y-88519377D01*
X167940135Y-88518172D01*
X167932452Y-88516501D01*
X167855331Y-88516501D01*
X167848510Y-88516871D01*
X167797648Y-88522395D01*
X167782396Y-88526021D01*
X167661946Y-88571176D01*
X167646351Y-88579714D01*
X167544276Y-88656215D01*
X167531715Y-88668776D01*
X167455214Y-88770851D01*
X167446676Y-88786446D01*
X167401522Y-88906894D01*
X167397895Y-88922149D01*
X167392369Y-88973014D01*
X167392000Y-88979828D01*
X167392000Y-89489885D01*
X167396475Y-89505124D01*
X167397865Y-89506329D01*
X167405548Y-89508000D01*
X167927885Y-89508000D01*
X167943124Y-89503525D01*
X167952290Y-89492947D01*
X167976404Y-89448786D01*
X168038716Y-89414761D01*
X168109532Y-89419825D01*
X168166368Y-89462372D01*
X168191179Y-89528892D01*
X168191500Y-89537881D01*
X168191500Y-89890000D01*
X168171498Y-89958121D01*
X168117842Y-90004614D01*
X168065500Y-90016000D01*
X167410116Y-90016000D01*
X167394877Y-90020475D01*
X167393672Y-90021865D01*
X167392001Y-90029548D01*
X167392001Y-90265500D01*
X167371999Y-90333621D01*
X167318343Y-90380114D01*
X167266001Y-90391500D01*
X165976366Y-90391500D01*
X165914184Y-90398255D01*
X165906788Y-90401027D01*
X165906782Y-90401029D01*
X165820023Y-90433554D01*
X165749216Y-90438737D01*
X165682160Y-90399884D01*
X165665863Y-90381785D01*
X165635147Y-90317780D01*
X165633500Y-90297476D01*
X165633500Y-90099126D01*
X165653502Y-90031005D01*
X165707158Y-89984512D01*
X165715270Y-89981144D01*
X165788297Y-89953767D01*
X165796705Y-89950615D01*
X165913261Y-89863261D01*
X166000615Y-89746705D01*
X166051745Y-89610316D01*
X166058500Y-89548134D01*
X166058500Y-88451866D01*
X166051745Y-88389684D01*
X166000615Y-88253295D01*
X165913261Y-88136739D01*
X165796705Y-88049385D01*
X165660316Y-87998255D01*
X165598134Y-87991500D01*
X164401866Y-87991500D01*
X164339684Y-87998255D01*
X164321121Y-88005214D01*
X164211699Y-88046234D01*
X164211696Y-88046236D01*
X164203295Y-88049385D01*
X164203036Y-88048693D01*
X164140626Y-88062343D01*
X164096615Y-88049420D01*
X164096462Y-88049828D01*
X164090888Y-88047738D01*
X164088966Y-88047174D01*
X164088061Y-88046679D01*
X163967606Y-88001522D01*
X163952351Y-87997895D01*
X163901486Y-87992369D01*
X163894672Y-87992000D01*
X163572115Y-87992000D01*
X163556876Y-87996475D01*
X163555671Y-87997865D01*
X163554000Y-88005548D01*
X163554000Y-89989884D01*
X163558475Y-90005123D01*
X163559865Y-90006328D01*
X163567548Y-90007999D01*
X163894669Y-90007999D01*
X163901490Y-90007629D01*
X163952352Y-90002105D01*
X163967604Y-89998479D01*
X164088061Y-89953321D01*
X164088966Y-89952826D01*
X164089966Y-89952607D01*
X164096462Y-89950172D01*
X164096814Y-89951110D01*
X164158323Y-89937657D01*
X164203212Y-89950838D01*
X164203295Y-89950615D01*
X164211696Y-89953764D01*
X164211699Y-89953766D01*
X164284730Y-89981144D01*
X164341494Y-90023786D01*
X164366194Y-90090348D01*
X164366500Y-90099126D01*
X164366500Y-90297476D01*
X164346498Y-90365597D01*
X164334142Y-90381779D01*
X164260960Y-90463056D01*
X164165473Y-90628444D01*
X164106458Y-90810072D01*
X164086496Y-91000000D01*
X164101336Y-91141190D01*
X164105134Y-91177330D01*
X164092362Y-91247168D01*
X164043860Y-91299015D01*
X163979824Y-91316500D01*
X157935305Y-91316500D01*
X157867184Y-91296498D01*
X157846210Y-91279595D01*
X156111284Y-89544669D01*
X162242001Y-89544669D01*
X162242371Y-89551490D01*
X162247895Y-89602352D01*
X162251521Y-89617604D01*
X162296676Y-89738054D01*
X162305214Y-89753649D01*
X162381715Y-89855724D01*
X162394276Y-89868285D01*
X162496351Y-89944786D01*
X162511946Y-89953324D01*
X162632394Y-89998478D01*
X162647649Y-90002105D01*
X162698514Y-90007631D01*
X162705328Y-90008000D01*
X163027885Y-90008000D01*
X163043124Y-90003525D01*
X163044329Y-90002135D01*
X163046000Y-89994452D01*
X163046000Y-89272115D01*
X163041525Y-89256876D01*
X163040135Y-89255671D01*
X163032452Y-89254000D01*
X162260116Y-89254000D01*
X162244877Y-89258475D01*
X162243672Y-89259865D01*
X162242001Y-89267548D01*
X162242001Y-89544669D01*
X156111284Y-89544669D01*
X156023156Y-89456541D01*
X156017302Y-89450276D01*
X155985704Y-89414055D01*
X155980710Y-89408330D01*
X155930345Y-89372934D01*
X155925077Y-89369020D01*
X155882649Y-89335752D01*
X155876672Y-89331065D01*
X155869748Y-89327939D01*
X155865439Y-89325329D01*
X155856024Y-89319958D01*
X155851576Y-89317573D01*
X155845361Y-89313205D01*
X155788039Y-89290856D01*
X155781971Y-89288306D01*
X155725895Y-89262986D01*
X155718418Y-89261600D01*
X155713598Y-89260090D01*
X155703165Y-89257118D01*
X155698304Y-89255870D01*
X155691228Y-89253111D01*
X155630238Y-89245082D01*
X155623722Y-89244050D01*
X155570700Y-89234223D01*
X155563233Y-89232839D01*
X155555653Y-89233276D01*
X155555652Y-89233276D01*
X155503358Y-89236291D01*
X155496106Y-89236500D01*
X147751206Y-89236500D01*
X147683085Y-89216498D01*
X147651243Y-89187204D01*
X147594449Y-89113189D01*
X147550991Y-89056553D01*
X147414046Y-88931943D01*
X147387395Y-88907692D01*
X147387392Y-88907690D01*
X147383248Y-88903919D01*
X147257895Y-88825285D01*
X147195882Y-88786384D01*
X147195878Y-88786382D01*
X147191126Y-88783401D01*
X147147463Y-88765849D01*
X147099330Y-88727885D01*
X162242000Y-88727885D01*
X162246475Y-88743124D01*
X162247865Y-88744329D01*
X162255548Y-88746000D01*
X163027885Y-88746000D01*
X163043124Y-88741525D01*
X163044329Y-88740135D01*
X163046000Y-88732452D01*
X163046000Y-88010116D01*
X163041525Y-87994877D01*
X163040135Y-87993672D01*
X163032452Y-87992001D01*
X162705331Y-87992001D01*
X162698510Y-87992371D01*
X162647648Y-87997895D01*
X162632396Y-88001521D01*
X162511946Y-88046676D01*
X162496351Y-88055214D01*
X162394276Y-88131715D01*
X162381715Y-88144276D01*
X162305214Y-88246351D01*
X162296676Y-88261946D01*
X162251522Y-88382394D01*
X162247895Y-88397649D01*
X162242369Y-88448514D01*
X162242000Y-88455328D01*
X162242000Y-88727885D01*
X147099330Y-88727885D01*
X147091721Y-88721884D01*
X147068596Y-88654759D01*
X147085433Y-88585788D01*
X147140217Y-88535217D01*
X147256041Y-88479972D01*
X147265648Y-88474290D01*
X147440644Y-88348541D01*
X147449100Y-88341242D01*
X147599056Y-88186500D01*
X147606098Y-88177803D01*
X147726276Y-87998960D01*
X147731665Y-87989157D01*
X147818274Y-87791857D01*
X147821840Y-87781262D01*
X147852966Y-87651615D01*
X147852261Y-87637530D01*
X147843382Y-87634000D01*
X143857502Y-87634000D01*
X143843520Y-87638106D01*
X143841930Y-87648352D01*
X143842381Y-87650475D01*
X143905743Y-87856435D01*
X143909964Y-87866780D01*
X144008798Y-88058267D01*
X144014783Y-88067698D01*
X144145968Y-88238663D01*
X144153521Y-88246876D01*
X144312910Y-88391909D01*
X144321810Y-88398664D01*
X144504343Y-88513166D01*
X144514313Y-88518247D01*
X144552517Y-88533605D01*
X144608261Y-88577572D01*
X144631386Y-88644697D01*
X144614549Y-88713668D01*
X144559764Y-88764238D01*
X144513714Y-88786203D01*
X144438649Y-88822007D01*
X144434088Y-88825284D01*
X144434087Y-88825285D01*
X144285658Y-88931943D01*
X144254474Y-88954351D01*
X144096645Y-89117217D01*
X144093518Y-89121871D01*
X143973279Y-89300805D01*
X143973276Y-89300810D01*
X143970153Y-89305458D01*
X143967900Y-89310590D01*
X143967898Y-89310594D01*
X143926911Y-89403965D01*
X143878993Y-89513124D01*
X143873049Y-89537881D01*
X143827360Y-89728192D01*
X143827359Y-89728198D01*
X143826050Y-89733651D01*
X143824897Y-89753649D01*
X143813412Y-89952826D01*
X143812994Y-89960069D01*
X143840241Y-90185219D01*
X143906927Y-90401987D01*
X144010946Y-90603519D01*
X144149009Y-90783447D01*
X144239850Y-90866106D01*
X144312605Y-90932308D01*
X144312608Y-90932310D01*
X144316752Y-90936081D01*
X144321503Y-90939062D01*
X144321504Y-90939062D01*
X144504118Y-91053616D01*
X144504122Y-91053618D01*
X144508874Y-91056599D01*
X144551906Y-91073898D01*
X144607649Y-91117864D01*
X144630774Y-91184989D01*
X144613937Y-91253960D01*
X144559152Y-91304530D01*
X144458665Y-91352460D01*
X144438649Y-91362007D01*
X144434088Y-91365284D01*
X144434087Y-91365285D01*
X144328806Y-91440938D01*
X144254474Y-91494351D01*
X144193081Y-91557703D01*
X144101831Y-91651866D01*
X144096645Y-91657217D01*
X144093518Y-91661871D01*
X143973279Y-91840805D01*
X143973276Y-91840810D01*
X143970153Y-91845458D01*
X143967900Y-91850590D01*
X143967898Y-91850594D01*
X143919241Y-91961437D01*
X143878993Y-92053124D01*
X143877683Y-92058581D01*
X143827360Y-92268192D01*
X143827359Y-92268198D01*
X143826050Y-92273651D01*
X143820972Y-92361707D01*
X143815774Y-92451866D01*
X143812994Y-92500069D01*
X143840241Y-92725219D01*
X143906927Y-92941987D01*
X144010946Y-93143519D01*
X144149009Y-93323447D01*
X144239850Y-93406106D01*
X144312605Y-93472308D01*
X144312608Y-93472310D01*
X144316752Y-93476081D01*
X144321503Y-93479062D01*
X144321504Y-93479062D01*
X144504118Y-93593616D01*
X144504122Y-93593618D01*
X144508874Y-93596599D01*
X144551906Y-93613898D01*
X144607649Y-93657864D01*
X144630774Y-93724989D01*
X144613937Y-93793960D01*
X144559152Y-93844530D01*
X144438649Y-93902007D01*
X144434088Y-93905284D01*
X144434087Y-93905285D01*
X144259064Y-94031053D01*
X144254474Y-94034351D01*
X144182154Y-94108979D01*
X144111008Y-94182396D01*
X144096645Y-94197217D01*
X144057594Y-94255331D01*
X143973279Y-94380805D01*
X143973276Y-94380810D01*
X143970153Y-94385458D01*
X143967900Y-94390590D01*
X143967898Y-94390594D01*
X143920489Y-94498595D01*
X143878993Y-94593124D01*
X143877683Y-94598581D01*
X143827360Y-94808192D01*
X143827359Y-94808198D01*
X143826050Y-94813651D01*
X143823649Y-94855284D01*
X143813370Y-95033553D01*
X143812994Y-95040069D01*
X143840241Y-95265219D01*
X143906927Y-95481987D01*
X143909499Y-95486970D01*
X143995503Y-95653598D01*
X144010946Y-95683519D01*
X144149009Y-95863447D01*
X144239850Y-95946106D01*
X144312605Y-96012308D01*
X144312608Y-96012310D01*
X144316752Y-96016081D01*
X144321503Y-96019062D01*
X144321504Y-96019062D01*
X144504118Y-96133616D01*
X144504122Y-96133618D01*
X144508874Y-96136599D01*
X144551906Y-96153898D01*
X144607649Y-96197864D01*
X144630774Y-96264989D01*
X144613937Y-96333960D01*
X144559152Y-96384530D01*
X144493367Y-96415908D01*
X144438649Y-96442007D01*
X144434088Y-96445284D01*
X144434087Y-96445285D01*
X144328806Y-96520938D01*
X144254474Y-96574351D01*
X144096645Y-96737217D01*
X144093518Y-96741871D01*
X143973279Y-96920805D01*
X143973276Y-96920810D01*
X143970153Y-96925458D01*
X143967900Y-96930590D01*
X143967898Y-96930594D01*
X143925493Y-97027195D01*
X143878993Y-97133124D01*
X143874574Y-97151531D01*
X143827360Y-97348192D01*
X143827359Y-97348198D01*
X143826050Y-97353651D01*
X143821193Y-97437889D01*
X143814130Y-97560374D01*
X143812994Y-97580069D01*
X142358500Y-97580069D01*
X142358500Y-87108385D01*
X143847034Y-87108385D01*
X143847739Y-87122470D01*
X143856618Y-87126000D01*
X145577885Y-87126000D01*
X145593124Y-87121525D01*
X145594329Y-87120135D01*
X145596000Y-87112452D01*
X145596000Y-87107885D01*
X146104000Y-87107885D01*
X146108475Y-87123124D01*
X146109865Y-87124329D01*
X146117548Y-87126000D01*
X147842498Y-87126000D01*
X147856480Y-87121894D01*
X147858070Y-87111648D01*
X147857619Y-87109525D01*
X147794257Y-86903565D01*
X147790036Y-86893220D01*
X147691202Y-86701733D01*
X147685217Y-86692302D01*
X147554032Y-86521337D01*
X147546479Y-86513124D01*
X147387090Y-86368091D01*
X147378190Y-86361336D01*
X147195657Y-86246834D01*
X147185687Y-86241753D01*
X146985760Y-86161383D01*
X146975060Y-86158152D01*
X146763084Y-86114255D01*
X146753947Y-86113052D01*
X146702840Y-86110105D01*
X146699194Y-86110000D01*
X146122115Y-86110000D01*
X146106876Y-86114475D01*
X146105671Y-86115865D01*
X146104000Y-86123548D01*
X146104000Y-87107885D01*
X145596000Y-87107885D01*
X145596000Y-86128115D01*
X145591525Y-86112876D01*
X145590135Y-86111671D01*
X145582452Y-86110000D01*
X145033289Y-86110000D01*
X145027694Y-86110249D01*
X144867788Y-86124521D01*
X144856774Y-86126503D01*
X144648935Y-86183361D01*
X144638462Y-86187255D01*
X144443963Y-86280026D01*
X144434352Y-86285710D01*
X144259356Y-86411459D01*
X144250900Y-86418758D01*
X144100944Y-86573500D01*
X144093902Y-86582197D01*
X143973724Y-86761040D01*
X143968335Y-86770843D01*
X143881726Y-86968143D01*
X143878160Y-86978738D01*
X143847034Y-87108385D01*
X142358500Y-87108385D01*
X142358500Y-76797386D01*
X143417759Y-76797386D01*
X143425216Y-76807753D01*
X143664935Y-77001874D01*
X143670272Y-77005751D01*
X143990685Y-77213830D01*
X143996394Y-77217127D01*
X144336811Y-77390578D01*
X144342836Y-77393260D01*
X144699502Y-77530171D01*
X144705784Y-77532212D01*
X145074816Y-77631094D01*
X145081266Y-77632465D01*
X145458629Y-77692234D01*
X145465167Y-77692920D01*
X145846699Y-77712916D01*
X145853301Y-77712916D01*
X146234833Y-77692920D01*
X146241371Y-77692234D01*
X146618734Y-77632465D01*
X146625184Y-77631094D01*
X146994216Y-77532212D01*
X147000498Y-77530171D01*
X147357164Y-77393260D01*
X147363189Y-77390578D01*
X147703606Y-77217127D01*
X147709315Y-77213830D01*
X148029728Y-77005751D01*
X148035065Y-77001874D01*
X148273835Y-76808522D01*
X148282300Y-76796267D01*
X148275966Y-76785176D01*
X145862812Y-74372022D01*
X145848868Y-74364408D01*
X145847035Y-74364539D01*
X145840420Y-74368790D01*
X143424900Y-76784310D01*
X143417759Y-76797386D01*
X142358500Y-76797386D01*
X142358500Y-75839945D01*
X142378502Y-75771824D01*
X142432158Y-75725331D01*
X142502432Y-75715227D01*
X142567012Y-75744721D01*
X142596767Y-75782742D01*
X142632872Y-75853603D01*
X142636169Y-75859313D01*
X142844253Y-76179735D01*
X142848123Y-76185061D01*
X143041478Y-76423835D01*
X143053733Y-76432300D01*
X143064824Y-76425966D01*
X145489658Y-74001132D01*
X146214408Y-74001132D01*
X146214539Y-74002965D01*
X146218790Y-74009580D01*
X148634310Y-76425100D01*
X148647386Y-76432241D01*
X148657753Y-76424784D01*
X148851877Y-76185061D01*
X148855747Y-76179735D01*
X149063831Y-75859313D01*
X149067128Y-75853603D01*
X149240578Y-75513189D01*
X149243260Y-75507164D01*
X149312155Y-75327686D01*
X149355241Y-75271258D01*
X149421994Y-75247081D01*
X149491221Y-75262832D01*
X149540943Y-75313510D01*
X149555786Y-75372840D01*
X149555786Y-75941000D01*
X160444215Y-75941000D01*
X160444215Y-74797095D01*
X162642001Y-74797095D01*
X162642338Y-74803614D01*
X162652257Y-74899206D01*
X162655149Y-74912600D01*
X162706588Y-75066784D01*
X162712761Y-75079962D01*
X162798063Y-75217807D01*
X162807099Y-75229208D01*
X162921829Y-75343739D01*
X162933240Y-75352751D01*
X163071243Y-75437816D01*
X163084424Y-75443963D01*
X163238710Y-75495138D01*
X163252086Y-75498005D01*
X163346438Y-75507672D01*
X163352854Y-75508000D01*
X163727885Y-75508000D01*
X163743124Y-75503525D01*
X163744329Y-75502135D01*
X163746000Y-75494452D01*
X163746000Y-74272115D01*
X163741525Y-74256876D01*
X163740135Y-74255671D01*
X163732452Y-74254000D01*
X162660116Y-74254000D01*
X162644877Y-74258475D01*
X162643672Y-74259865D01*
X162642001Y-74267548D01*
X162642001Y-74797095D01*
X160444215Y-74797095D01*
X160444215Y-73727885D01*
X162642000Y-73727885D01*
X162646475Y-73743124D01*
X162647865Y-73744329D01*
X162655548Y-73746000D01*
X163727885Y-73746000D01*
X163743124Y-73741525D01*
X163744329Y-73740135D01*
X163746000Y-73732452D01*
X163746000Y-72510116D01*
X163741525Y-72494877D01*
X163740135Y-72493672D01*
X163732452Y-72492001D01*
X163352905Y-72492001D01*
X163346386Y-72492338D01*
X163250794Y-72502257D01*
X163237400Y-72505149D01*
X163083216Y-72556588D01*
X163070038Y-72562761D01*
X162932193Y-72648063D01*
X162920792Y-72657099D01*
X162806261Y-72771829D01*
X162797249Y-72783240D01*
X162712184Y-72921243D01*
X162706037Y-72934424D01*
X162654862Y-73088710D01*
X162651995Y-73102086D01*
X162642328Y-73196438D01*
X162642000Y-73202855D01*
X162642000Y-73727885D01*
X160444215Y-73727885D01*
X160444215Y-72059000D01*
X149555786Y-72059000D01*
X149555786Y-72627160D01*
X149535784Y-72695281D01*
X149482128Y-72741774D01*
X149411854Y-72751878D01*
X149347274Y-72722384D01*
X149312155Y-72672314D01*
X149243260Y-72492836D01*
X149240578Y-72486811D01*
X149067128Y-72146397D01*
X149063831Y-72140687D01*
X148855747Y-71820265D01*
X148851877Y-71814939D01*
X148658522Y-71576165D01*
X148646267Y-71567700D01*
X148635176Y-71574034D01*
X146222022Y-73987188D01*
X146214408Y-74001132D01*
X145489658Y-74001132D01*
X148275100Y-71215690D01*
X148282241Y-71202614D01*
X148274784Y-71192247D01*
X148035065Y-70998126D01*
X148029728Y-70994249D01*
X147709315Y-70786170D01*
X147703606Y-70782874D01*
X147632743Y-70746767D01*
X147581128Y-70698019D01*
X147564062Y-70629104D01*
X147586963Y-70561902D01*
X147642560Y-70517750D01*
X147689946Y-70508500D01*
X197010055Y-70508500D01*
X197078176Y-70528502D01*
G37*
%TD.AperFunction*%
%TA.AperFunction,Conductor*%
G36*
X144687708Y-114907248D02*
G01*
X144732771Y-114936209D01*
X144913791Y-115117229D01*
X144947817Y-115179541D01*
X144942752Y-115250356D01*
X144913791Y-115295419D01*
X143751307Y-116457903D01*
X143688995Y-116491929D01*
X143618180Y-116486864D01*
X143573117Y-116457903D01*
X143392097Y-116276883D01*
X143358071Y-116214571D01*
X143363136Y-116143756D01*
X143392097Y-116098693D01*
X144554581Y-114936209D01*
X144616893Y-114902183D01*
X144687708Y-114907248D01*
G37*
%TD.AperFunction*%
%TA.AperFunction,Conductor*%
G36*
X200100356Y-114907248D02*
G01*
X200145419Y-114936209D01*
X201307903Y-116098693D01*
X201341929Y-116161005D01*
X201336864Y-116231820D01*
X201307903Y-116276883D01*
X201126883Y-116457903D01*
X201064571Y-116491929D01*
X200993756Y-116486864D01*
X200948693Y-116457903D01*
X199786209Y-115295419D01*
X199752183Y-115233107D01*
X199757248Y-115162292D01*
X199786209Y-115117229D01*
X199967229Y-114936209D01*
X200029541Y-114902183D01*
X200100356Y-114907248D01*
G37*
%TD.AperFunction*%
%TA.AperFunction,Conductor*%
G36*
X201081820Y-71513136D02*
G01*
X201126883Y-71542097D01*
X201307903Y-71723117D01*
X201341929Y-71785429D01*
X201336864Y-71856244D01*
X201307903Y-71901307D01*
X200145419Y-73063791D01*
X200083107Y-73097817D01*
X200012292Y-73092752D01*
X199967229Y-73063791D01*
X199786209Y-72882771D01*
X199752183Y-72820459D01*
X199757248Y-72749644D01*
X199786209Y-72704581D01*
X200948693Y-71542097D01*
X201011005Y-71508071D01*
X201081820Y-71513136D01*
G37*
%TD.AperFunction*%
%TA.AperFunction,Conductor*%
G36*
X143706244Y-71513136D02*
G01*
X143751307Y-71542097D01*
X144913791Y-72704581D01*
X144947817Y-72766893D01*
X144942752Y-72837708D01*
X144913791Y-72882771D01*
X144732771Y-73063791D01*
X144670459Y-73097817D01*
X144599644Y-73092752D01*
X144554581Y-73063791D01*
X143392097Y-71901307D01*
X143358071Y-71838995D01*
X143363136Y-71768180D01*
X143392097Y-71723117D01*
X143573117Y-71542097D01*
X143635429Y-71508071D01*
X143706244Y-71513136D01*
G37*
%TD.AperFunction*%
%TD*%
M02*
