%TF.GenerationSoftware,KiCad,Pcbnew,(6.0.7)*%
%TF.CreationDate,2023-02-14T14:27:57+01:00*%
%TF.ProjectId,WAFFLE,57414646-4c45-42e6-9b69-6361645f7063,rev?*%
%TF.SameCoordinates,Original*%
%TF.FileFunction,Soldermask,Top*%
%TF.FilePolarity,Negative*%
%FSLAX46Y46*%
G04 Gerber Fmt 4.6, Leading zero omitted, Abs format (unit mm)*
G04 Created by KiCad (PCBNEW (6.0.7)) date 2023-02-14 14:27:57*
%MOMM*%
%LPD*%
G01*
G04 APERTURE LIST*
G04 Aperture macros list*
%AMRoundRect*
0 Rectangle with rounded corners*
0 $1 Rounding radius*
0 $2 $3 $4 $5 $6 $7 $8 $9 X,Y pos of 4 corners*
0 Add a 4 corners polygon primitive as box body*
4,1,4,$2,$3,$4,$5,$6,$7,$8,$9,$2,$3,0*
0 Add four circle primitives for the rounded corners*
1,1,$1+$1,$2,$3*
1,1,$1+$1,$4,$5*
1,1,$1+$1,$6,$7*
1,1,$1+$1,$8,$9*
0 Add four rect primitives between the rounded corners*
20,1,$1+$1,$2,$3,$4,$5,0*
20,1,$1+$1,$4,$5,$6,$7,0*
20,1,$1+$1,$6,$7,$8,$9,0*
20,1,$1+$1,$8,$9,$2,$3,0*%
G04 Aperture macros list end*
%ADD10R,0.900000X0.600000*%
%ADD11RoundRect,0.101600X0.737500X0.300000X-0.737500X0.300000X-0.737500X-0.300000X0.737500X-0.300000X0*%
%ADD12RoundRect,0.101600X-0.300000X0.737500X-0.300000X-0.737500X0.300000X-0.737500X0.300000X0.737500X0*%
%ADD13C,1.200000*%
%ADD14RoundRect,0.250000X-0.600000X-0.725000X0.600000X-0.725000X0.600000X0.725000X-0.600000X0.725000X0*%
%ADD15O,1.700000X1.950000*%
%ADD16RoundRect,0.225000X-0.250000X0.225000X-0.250000X-0.225000X0.250000X-0.225000X0.250000X0.225000X0*%
%ADD17RoundRect,0.101600X1.050000X-0.700000X1.050000X0.700000X-1.050000X0.700000X-1.050000X-0.700000X0*%
%ADD18C,6.400000*%
%ADD19C,0.800000*%
%ADD20RoundRect,0.101600X-0.370000X-1.395000X0.370000X-1.395000X0.370000X1.395000X-0.370000X1.395000X0*%
%ADD21O,3.251200X1.727200*%
%ADD22RoundRect,0.250000X0.750000X-0.600000X0.750000X0.600000X-0.750000X0.600000X-0.750000X-0.600000X0*%
%ADD23O,2.000000X1.700000*%
%ADD24RoundRect,0.250000X0.725000X-0.600000X0.725000X0.600000X-0.725000X0.600000X-0.725000X-0.600000X0*%
%ADD25O,1.950000X1.700000*%
%ADD26RoundRect,0.250000X-0.600000X-0.750000X0.600000X-0.750000X0.600000X0.750000X-0.600000X0.750000X0*%
%ADD27O,1.700000X2.000000*%
%ADD28RoundRect,0.101600X0.500000X-0.550000X0.500000X0.550000X-0.500000X0.550000X-0.500000X-0.550000X0*%
%ADD29RoundRect,0.175350X-0.911250X-0.221250X0.911250X-0.221250X0.911250X0.221250X-0.911250X0.221250X0*%
%ADD30RoundRect,0.101600X-0.500000X0.550000X-0.500000X-0.550000X0.500000X-0.550000X0.500000X0.550000X0*%
%ADD31RoundRect,0.101600X-0.500000X-0.550000X0.500000X-0.550000X0.500000X0.550000X-0.500000X0.550000X0*%
%ADD32RoundRect,0.101600X0.550000X0.500000X-0.550000X0.500000X-0.550000X-0.500000X0.550000X-0.500000X0*%
%ADD33RoundRect,0.101600X-0.550000X-0.500000X0.550000X-0.500000X0.550000X0.500000X-0.550000X0.500000X0*%
G04 APERTURE END LIST*
D10*
%TO.C,PS1*%
X183400000Y-99950000D03*
X183400000Y-99000000D03*
X183400000Y-98050000D03*
X180600000Y-98050000D03*
X180600000Y-99950000D03*
%TD*%
D11*
%TO.C,IC1*%
X175238000Y-96800000D03*
X175238000Y-96000000D03*
X175238000Y-95200000D03*
X175238000Y-94400000D03*
X175238000Y-93600000D03*
X175238000Y-92800000D03*
X175238000Y-92000000D03*
X175238000Y-91200000D03*
D12*
X173800000Y-89762000D03*
X173000000Y-89762000D03*
X172200000Y-89762000D03*
X171400000Y-89762000D03*
X170600000Y-89762000D03*
X169800000Y-89762000D03*
X169000000Y-89762000D03*
X168200000Y-89762000D03*
D11*
X166762000Y-91200000D03*
X166762000Y-92000000D03*
X166762000Y-92800000D03*
X166762000Y-93600000D03*
X166762000Y-94400000D03*
X166762000Y-95200000D03*
X166762000Y-96000000D03*
X166762000Y-96800000D03*
D12*
X168200000Y-98238000D03*
X169000000Y-98238000D03*
X169800000Y-98238000D03*
X170600000Y-98238000D03*
X171400000Y-98238000D03*
X172200000Y-98238000D03*
X173000000Y-98238000D03*
X173800000Y-98238000D03*
%TD*%
D13*
%TO.C,J7*%
X184400000Y-116000000D03*
D14*
X186000000Y-114000000D03*
D15*
X188500000Y-114000000D03*
X191000000Y-114000000D03*
%TD*%
D16*
%TO.C,C_entr\u00E9e1*%
X185000000Y-100000000D03*
X185000000Y-101550000D03*
%TD*%
D17*
%TO.C,S1*%
X181450000Y-86750000D03*
X190550000Y-86750000D03*
X181450000Y-91250000D03*
X190550000Y-91250000D03*
%TD*%
D18*
%TO.C,H2*%
X198850000Y-114000000D03*
D19*
X196450000Y-114000000D03*
X197152944Y-115697056D03*
X200547056Y-112302944D03*
X198850000Y-116400000D03*
X200547056Y-115697056D03*
X197152944Y-112302944D03*
X201250000Y-114000000D03*
X198850000Y-111600000D03*
%TD*%
D20*
%TO.C,J2*%
X155190000Y-109035000D03*
X155190000Y-104965000D03*
X156460000Y-109035000D03*
X156460000Y-104965000D03*
X157730000Y-109035000D03*
X157730000Y-104965000D03*
X159000000Y-109035000D03*
X159000000Y-104965000D03*
X160270000Y-109035000D03*
X160270000Y-104965000D03*
X161540000Y-109035000D03*
X161540000Y-104965000D03*
X162810000Y-109035000D03*
X162810000Y-104965000D03*
%TD*%
D19*
%TO.C,H4*%
X143450000Y-114000000D03*
X147547056Y-112302944D03*
X144152944Y-112302944D03*
X145850000Y-116400000D03*
X147547056Y-115697056D03*
X144152944Y-115697056D03*
D18*
X145850000Y-114000000D03*
D19*
X145850000Y-111600000D03*
X148250000Y-114000000D03*
%TD*%
D21*
%TO.C,LEDS1*%
X145850000Y-87380000D03*
X145850000Y-89920000D03*
X145850000Y-92460000D03*
X145850000Y-95000000D03*
X145850000Y-97540000D03*
X145850000Y-100080000D03*
%TD*%
D22*
%TO.C,ALIM1*%
X198850000Y-95000000D03*
D23*
X198850000Y-92500000D03*
%TD*%
D13*
%TO.C,CONN_DMX1*%
X200475000Y-108600000D03*
D24*
X198475000Y-107000000D03*
D25*
X198475000Y-104500000D03*
X198475000Y-102000000D03*
%TD*%
D26*
%TO.C,TEMP1*%
X164000000Y-74000000D03*
D27*
X166500000Y-74000000D03*
%TD*%
D28*
%TO.C,C_VDD1*%
X178000000Y-90700000D03*
X178000000Y-89000000D03*
%TD*%
D16*
%TO.C,C_sortie1*%
X179000000Y-100225000D03*
X179000000Y-101775000D03*
%TD*%
D29*
%TO.C,DMX1*%
X171525000Y-104190000D03*
X171525000Y-105460000D03*
X171525000Y-106730000D03*
X171525000Y-108000000D03*
X171525000Y-109270000D03*
X171525000Y-110540000D03*
X171525000Y-111810000D03*
X176475000Y-111810000D03*
X176475000Y-110540000D03*
X176475000Y-109270000D03*
X176475000Y-108000000D03*
X176475000Y-106730000D03*
X176475000Y-105460000D03*
X176475000Y-104190000D03*
%TD*%
D30*
%TO.C,C_VDDA1*%
X177000000Y-100300000D03*
X177000000Y-102000000D03*
%TD*%
D19*
%TO.C,H1*%
X197152944Y-72302944D03*
X198850000Y-71600000D03*
X198850000Y-76400000D03*
D18*
X198850000Y-74000000D03*
D19*
X200547056Y-75697056D03*
X196450000Y-74000000D03*
X200547056Y-72302944D03*
X197152944Y-75697056D03*
X201250000Y-74000000D03*
%TD*%
D26*
%TO.C,DRIVER_Moteur1*%
X174000000Y-74000000D03*
D27*
X176500000Y-74000000D03*
%TD*%
D30*
%TO.C,C4*%
X178000000Y-93150000D03*
X178000000Y-94850000D03*
%TD*%
D31*
%TO.C,R1*%
X173300000Y-101000000D03*
X175000000Y-101000000D03*
%TD*%
D22*
%TO.C,VENTILO1*%
X198850000Y-84000000D03*
D23*
X198850000Y-81500000D03*
%TD*%
D19*
%TO.C,H3*%
X144152944Y-75697056D03*
X144152944Y-72302944D03*
X147547056Y-72302944D03*
X148250000Y-74000000D03*
X147547056Y-75697056D03*
D18*
X145850000Y-74000000D03*
D19*
X145850000Y-71600000D03*
X145850000Y-76400000D03*
X143450000Y-74000000D03*
%TD*%
D32*
%TO.C,C_VDD2*%
X165000000Y-89000000D03*
X163300000Y-89000000D03*
%TD*%
D33*
%TO.C,C_Decoupl_Connecteur1*%
X193150000Y-99000000D03*
X194850000Y-99000000D03*
%TD*%
M02*
