%TF.GenerationSoftware,KiCad,Pcbnew,(6.0.7)*%
%TF.CreationDate,2023-02-14T14:27:57+01:00*%
%TF.ProjectId,WAFFLE,57414646-4c45-42e6-9b69-6361645f7063,rev?*%
%TF.SameCoordinates,Original*%
%TF.FileFunction,Soldermask,Bot*%
%TF.FilePolarity,Negative*%
%FSLAX46Y46*%
G04 Gerber Fmt 4.6, Leading zero omitted, Abs format (unit mm)*
G04 Created by KiCad (PCBNEW (6.0.7)) date 2023-02-14 14:27:57*
%MOMM*%
%LPD*%
G01*
G04 APERTURE LIST*
G04 Aperture macros list*
%AMRoundRect*
0 Rectangle with rounded corners*
0 $1 Rounding radius*
0 $2 $3 $4 $5 $6 $7 $8 $9 X,Y pos of 4 corners*
0 Add a 4 corners polygon primitive as box body*
4,1,4,$2,$3,$4,$5,$6,$7,$8,$9,$2,$3,0*
0 Add four circle primitives for the rounded corners*
1,1,$1+$1,$2,$3*
1,1,$1+$1,$4,$5*
1,1,$1+$1,$6,$7*
1,1,$1+$1,$8,$9*
0 Add four rect primitives between the rounded corners*
20,1,$1+$1,$2,$3,$4,$5,0*
20,1,$1+$1,$4,$5,$6,$7,0*
20,1,$1+$1,$6,$7,$8,$9,0*
20,1,$1+$1,$8,$9,$2,$3,0*%
G04 Aperture macros list end*
%ADD10C,1.200000*%
%ADD11RoundRect,0.250000X-0.600000X-0.725000X0.600000X-0.725000X0.600000X0.725000X-0.600000X0.725000X0*%
%ADD12O,1.700000X1.950000*%
%ADD13C,6.400000*%
%ADD14C,0.800000*%
%ADD15O,3.251200X1.727200*%
%ADD16RoundRect,0.250000X0.750000X-0.600000X0.750000X0.600000X-0.750000X0.600000X-0.750000X-0.600000X0*%
%ADD17O,2.000000X1.700000*%
%ADD18RoundRect,0.250000X0.725000X-0.600000X0.725000X0.600000X-0.725000X0.600000X-0.725000X-0.600000X0*%
%ADD19O,1.950000X1.700000*%
%ADD20RoundRect,0.250000X-0.600000X-0.750000X0.600000X-0.750000X0.600000X0.750000X-0.600000X0.750000X0*%
%ADD21O,1.700000X2.000000*%
G04 APERTURE END LIST*
D10*
%TO.C,J7*%
X184400000Y-116000000D03*
D11*
X186000000Y-114000000D03*
D12*
X188500000Y-114000000D03*
X191000000Y-114000000D03*
%TD*%
D13*
%TO.C,H2*%
X198850000Y-114000000D03*
D14*
X196450000Y-114000000D03*
X197152944Y-115697056D03*
X200547056Y-112302944D03*
X198850000Y-116400000D03*
X200547056Y-115697056D03*
X197152944Y-112302944D03*
X201250000Y-114000000D03*
X198850000Y-111600000D03*
%TD*%
%TO.C,H4*%
X143450000Y-114000000D03*
X147547056Y-112302944D03*
X144152944Y-112302944D03*
X145850000Y-116400000D03*
X147547056Y-115697056D03*
X144152944Y-115697056D03*
D13*
X145850000Y-114000000D03*
D14*
X145850000Y-111600000D03*
X148250000Y-114000000D03*
%TD*%
D15*
%TO.C,LEDS1*%
X145850000Y-87380000D03*
X145850000Y-89920000D03*
X145850000Y-92460000D03*
X145850000Y-95000000D03*
X145850000Y-97540000D03*
X145850000Y-100080000D03*
%TD*%
D16*
%TO.C,ALIM1*%
X198850000Y-95000000D03*
D17*
X198850000Y-92500000D03*
%TD*%
D10*
%TO.C,CONN_DMX1*%
X200475000Y-108600000D03*
D18*
X198475000Y-107000000D03*
D19*
X198475000Y-104500000D03*
X198475000Y-102000000D03*
%TD*%
D20*
%TO.C,TEMP1*%
X164000000Y-74000000D03*
D21*
X166500000Y-74000000D03*
%TD*%
D14*
%TO.C,H1*%
X197152944Y-72302944D03*
X198850000Y-71600000D03*
X198850000Y-76400000D03*
D13*
X198850000Y-74000000D03*
D14*
X200547056Y-75697056D03*
X196450000Y-74000000D03*
X200547056Y-72302944D03*
X197152944Y-75697056D03*
X201250000Y-74000000D03*
%TD*%
D20*
%TO.C,DRIVER_Moteur1*%
X174000000Y-74000000D03*
D21*
X176500000Y-74000000D03*
%TD*%
D16*
%TO.C,VENTILO1*%
X198850000Y-84000000D03*
D17*
X198850000Y-81500000D03*
%TD*%
D14*
%TO.C,H3*%
X144152944Y-75697056D03*
X144152944Y-72302944D03*
X147547056Y-72302944D03*
X148250000Y-74000000D03*
X147547056Y-75697056D03*
D13*
X145850000Y-74000000D03*
D14*
X145850000Y-71600000D03*
X145850000Y-76400000D03*
X143450000Y-74000000D03*
%TD*%
M02*
